<svg xmlns="http://www.w3.org/2000/svg" width="150" height="330" viewBox="0 0 150 330"><defs><style>.cls-1{fill:red;}.cls-2{fill:#fff;}</style></defs><title>Candy cane</title><g id="Layer_2" data-name="Layer 2"><path class="cls-1" d="M97.32,42.13l21.84-25.21a72.67,72.67,0,0,0-26.56-14L90.69,37.61A38.38,38.38,0,0,1,97.32,42.13Z"/><path class="cls-1" d="M72.2,0a73.5,73.5,0,0,0-31,6.82L56.24,36.37a38.93,38.93,0,0,1,16-3.4c.64,0,1.27,0,1.9,0L75.91.09C74.68,0,73.45,0,72.2,0Z"/><path class="cls-1" d="M127.07,53.43h.39a17.56,17.56,0,0,1,3.8.43l10-4A69.11,69.11,0,0,0,130.65,29L107.49,55.77a35.82,35.82,0,0,1,2.18,6.81L113,61.22A17.06,17.06,0,0,1,127.07,53.43Z"/><path class="cls-1" d="M12.72,30.44,34.8,62.31a36.64,36.64,0,0,1,7.86-15.77L26.88,15.59A71.7,71.7,0,0,0,12.72,30.44Z"/><path class="cls-1" d="M144.38,69.09c0-.94,0-1.87-.09-2.8l-.27.11A15.84,15.84,0,0,1,144.38,69.09Z"/><path class="cls-1" d="M0,70.14A16.73,16.73,0,0,0,17,86.62a17.19,17.19,0,0,0,11.42-4.31L4,47.13A67.91,67.91,0,0,0,0,70.14Z"/><polygon class="cls-1" points="147.61 209.02 113.97 222.6 114.42 242.23 148.06 228.65 147.61 209.02"/><polygon class="cls-1" points="148.44 245.32 114.81 258.91 115.2 276.25 148.84 262.67 148.44 245.32"/><polygon class="cls-1" points="145.19 103.21 111.55 116.79 111.94 133.66 145.57 120.07 145.19 103.21"/><path class="cls-1" d="M144.41,69.55c0-.16,0-.31,0-.46,0,.35,0,.7,0,1a16.73,16.73,0,0,1-17,16.48,17.06,17.06,0,0,1-14.36-7.72l-2.38,1,.45,19.4,33.63-13.58Z"/><polygon class="cls-1" points="145.97 137.6 112.34 151.19 112.72 167.69 146.35 154.1 145.97 137.6"/><path class="cls-1" d="M127.46,53.43h-.39a17.06,17.06,0,0,0-14,7.79l18.22-7.36A17.56,17.56,0,0,0,127.46,53.43Z"/><path class="cls-1" d="M113.08,78.9a17.06,17.06,0,0,0,14.36,7.72,16.73,16.73,0,0,0,17-16.48c0-.35,0-.7,0-1A15.84,15.84,0,0,0,144,66.4Z"/><polygon class="cls-1" points="146.83 175.19 113.2 188.78 113.55 204.21 147.19 190.63 146.83 175.19"/><polygon class="cls-1" points="149.19 278 115.56 291.58 115.93 308.02 149.57 294.44 149.19 278"/><path class="cls-1" d="M118.48,322A17.08,17.08,0,0,0,133,330h.39A16.72,16.72,0,0,0,150,313.15l-.09-3.86Z"/><path class="cls-2" d="M149.57,294.44,115.93,308l.14,5.86a16,16,0,0,0,2.41,8.1l31.43-12.69Z"/><polygon class="cls-2" points="148.84 262.67 115.2 276.25 115.56 291.58 149.19 278 148.84 262.67"/><polygon class="cls-2" points="148.06 228.65 114.42 242.23 114.81 258.91 148.44 245.32 148.06 228.65"/><polygon class="cls-2" points="147.19 190.63 113.55 204.21 113.97 222.6 147.61 209.02 147.19 190.63"/><polygon class="cls-2" points="146.35 154.1 112.72 167.69 113.2 188.78 146.83 175.19 146.35 154.1"/><polygon class="cls-2" points="145.57 120.07 111.94 133.66 112.34 151.19 145.97 137.6 145.57 120.07"/><polygon class="cls-2" points="144.78 85.68 111.15 99.27 111.55 116.79 145.19 103.21 144.78 85.68"/><path class="cls-2" d="M110.49,70.56v-.28A16.13,16.13,0,0,1,113,61.22l-3.37,1.36a36.25,36.25,0,0,1,.8,7.56C110.47,70.28,110.49,70.42,110.49,70.56Z"/><path class="cls-2" d="M144,66.4l.27-.11a67.67,67.67,0,0,0-3-16.48l-10,4A16.73,16.73,0,0,1,144,66.4Z"/><path class="cls-2" d="M110.49,70.56l.21,9.3,2.38-1A16.09,16.09,0,0,1,110.49,70.56Z"/><path class="cls-2" d="M131.26,53.86,113,61.22a16.13,16.13,0,0,0-2.56,9.06v.28a16.09,16.09,0,0,0,2.59,8.34L144,66.4A16.73,16.73,0,0,0,131.26,53.86Z"/><path class="cls-2" d="M119.16,16.92,97.32,42.13a37.29,37.29,0,0,1,10.17,13.64L130.65,29A71.56,71.56,0,0,0,119.16,16.92Z"/><path class="cls-2" d="M92.6,2.87A74,74,0,0,0,75.91.09L74.1,33a38.89,38.89,0,0,1,16.59,4.6Z"/><polygon class="cls-2" points="89.1 51.63 89.89 52.27 89.98 50.62 89.1 51.63"/><path class="cls-2" d="M26.88,15.59l15.78,31A38.37,38.37,0,0,1,56.24,36.37L41.17,6.82A72.74,72.74,0,0,0,26.88,15.59Z"/><path class="cls-2" d="M4,47.13,28.39,82.31a16.25,16.25,0,0,0,5.55-12.17,36.06,36.06,0,0,1,.86-7.83L12.72,30.44A69.24,69.24,0,0,0,4,47.13Z"/></g></svg>
