<svg xmlns="http://www.w3.org/2000/svg" width="1920" height="1080" viewBox="0 0 1920 1080"><defs><style>.cls-1{fill:#bf000f;stroke:#020202;opacity:0.5;}.cls-1,.cls-4,.cls-7,.cls-8,.cls-9{stroke-miterlimit:10;}.cls-2,.cls-6{fill:#7c0312;}.cls-2,.cls-3{opacity:0.95;}.cls-4,.cls-7{fill:none;stroke:#7c0312;}.cls-4{stroke-width:25px;}.cls-5,.cls-8{fill:#fcfcfc;}.cls-7{stroke-width:15px;}.cls-8{stroke:#f9f7f7;}.cls-8,.cls-9{stroke-width:4px;}.cls-9{fill:#fcfafa;stroke:#fcfcfc;}</style></defs><title>Level complete</title><g id="Layer_2" data-name="Layer 2"><rect class="cls-1" x="0.5" y="1.5" width="1916" height="1084"/><rect class="cls-2" x="511.73" y="427.83" width="870.4" height="577.92"/><rect class="cls-2" x="403.28" y="221.08" width="1087.72" height="206.76"/><g class="cls-3"><path class="cls-4" d="M1035.91,37c-35,34.28-100.75,132.57-85.14,175.45s106.72,14.09,141.67-20.19,50.63-96.81,35-139.69S1070.85,2.74,1035.91,37Z"/><path class="cls-4" d="M858.85,37C893.8,71.29,959.59,169.58,944,212.46s-106.72,14.09-141.67-20.19-50.62-96.81-35-139.69S823.9,2.74,858.85,37Z"/></g><path class="cls-5" d="M501.85,356.75q-1.86.13-6.05.21t-9.44.07c-3.51,0-7.18,0-11-.07s-7.47-.07-10.84-.07-6.34,0-8.91-.07-4.31-.07-5.19-.07q.14-2.79.13-9.91t-.06-16.53q-.07-9.42-.14-20.09t-.2-20.51q-.14-9.84-.2-17.86t-.2-12.07H475c-.09,1.12-.23,3.09-.4,5.93s-.4,6.26-.67,10.26-.58,8.42-.93,13.25-.73,9.84-1.13,15-.78,10.32-1.13,15.49-.71,10-1.06,14.58q4-.42,8.57-.77l9-.7c2.93-.23,5.65-.46,8.18-.7s4.68-.44,6.45-.62Z"/><path class="cls-5" d="M559,283l-7.52-.14q-4.26-.06-9.24-.21l-9.78-.28c-.26,2.7-.53,5.52-.8,8.44s-.53,5.93-.79,9c2.83-.18,5.92-.32,9.24-.41s6.23-.28,8.71-.56c0,1.11,0,2.91-.06,5.37s-.09,5.07-.14,7.81-.13,5.33-.26,7.74-.25,4.05-.33,4.89c-1-.19-2.22-.37-3.73-.56s-3.17-.35-5-.49l-5.45-.42c-1.82-.14-3.52-.3-5.12-.48q-.27,2.93-.53,5.78t-.53,5.66c2.92-.19,6.07-.37,9.44-.56s6.69-.35,10-.49,6.34-.23,9.18-.28,5.14,0,6.92.07V357H508.1q.13-2.79.2-10t.14-16.53q.06-9.34.06-19.95V290.2q0-9.76-.06-17.72t-.2-12.14l3.39-.07c2.17,0,5-.09,8.38-.14l11.44-.14q6.31-.06,12.43-.07t11.37.14q5.26.13,8.32.42v22.6C562.68,283.08,561.15,283.06,559,283Z"/><path class="cls-5" d="M639.77,260.06c-.08.75-.42,2.56-1,5.44s-1.33,6.47-2.26,10.74-2,9.05-3.13,14.31-2.33,10.65-3.52,16.18-2.4,11-3.59,16.46-2.29,10.45-3.26,15-1.82,8.51-2.53,11.86-1.2,5.68-1.46,7H587.37q-.79-2.79-2.46-9.42t-3.72-15.28q-2.07-8.64-4.26-18.41t-4.12-18.7q-1.93-8.93-3.33-16.25c-.93-4.89-1.57-8.58-1.93-11.1,1.42-.18,3.15-.39,5.19-.62s4.14-.47,6.32-.7,4.28-.47,6.32-.7,3.76-.44,5.18-.63c.18,1.68.54,4.07,1.07,7.19s1.17,6.63,1.93,10.53,1.53,8.05,2.32,12.42,1.62,8.6,2.46,12.7,1.62,7.9,2.33,11.44,1.29,6.41,1.73,8.65q.93-3.63,2.26-9.7t2.8-13c1-4.66,1.94-9.44,2.92-14.38s1.88-9.51,2.73-13.74,1.57-7.88,2.19-11,1-5.16,1.2-6.28Z"/><path class="cls-5" d="M696.77,283l-7.52-.14q-4.26-.06-9.24-.21l-9.78-.28c-.26,2.7-.53,5.52-.8,8.44s-.53,5.93-.79,9q4.25-.27,9.24-.41c3.33-.1,6.23-.28,8.71-.56,0,1.11,0,2.91-.06,5.37s-.09,5.07-.14,7.81-.13,5.33-.27,7.74-.24,4.05-.33,4.89c-1-.19-2.21-.37-3.72-.56s-3.17-.35-5-.49l-5.45-.42c-1.82-.14-3.53-.3-5.12-.48q-.27,2.93-.53,5.78t-.54,5.66c2.93-.19,6.08-.37,9.45-.56s6.69-.35,10-.49,6.34-.23,9.18-.28,5.14,0,6.92.07V357H645.89q.14-2.79.2-10t.13-16.53q.07-9.34.07-19.95V290.2q0-9.76-.07-17.72T646,260.34l3.39-.07c2.17,0,5-.09,8.38-.14l11.43-.14q6.32-.06,12.44-.07t11.37.14q5.25.13,8.32.42v22.6C700.47,283.08,698.94,283.06,696.77,283Z"/><path class="cls-5" d="M757.48,356.75q-1.86.13-6.05.21T742,357c-3.51,0-7.18,0-11-.07s-7.47-.07-10.84-.07-6.34,0-8.91-.07-4.31-.07-5.19-.07q.13-2.79.13-9.91t-.06-16.53q-.08-9.42-.14-20.09t-.2-20.51q-.13-9.84-.2-17.86t-.2-12.07h25.28c-.09,1.12-.23,3.09-.4,5.93s-.4,6.26-.67,10.26-.58,8.42-.93,13.25-.73,9.84-1.13,15-.78,10.32-1.13,15.49-.71,10-1.06,14.58c2.66-.28,5.51-.54,8.57-.77l9-.7c2.93-.23,5.65-.46,8.18-.7s4.68-.44,6.45-.62Z"/><path class="cls-5" d="M831,319.22c1.6-.09,3.44-.14,5.52-.14H843q3.33,0,6.65.07t6.12.07a42.81,42.81,0,0,1-1.33,7.25,49.72,49.72,0,0,1-8,16.61,39.87,39.87,0,0,1-6.85,7.18,31.86,31.86,0,0,1-8.78,5A28.4,28.4,0,0,1,819.86,357q-11.57-.13-18.88-4.75a29.5,29.5,0,0,1-11-11.93,40.23,40.23,0,0,1-4-16.46,69.75,69.75,0,0,1,1.73-18.55,79.27,79.27,0,0,1,6.58-18.28,67.94,67.94,0,0,1,10.44-15.42,43.32,43.32,0,0,1,13.23-10,24.67,24.67,0,0,1,15-2.24q7.58,1.26,12.1,5.24a28.17,28.17,0,0,1,6.92,9,32.46,32.46,0,0,1,3,10.33,62.43,62.43,0,0,1,.46,9.07c-1.59,0-3.37.05-5.32.14l-6,.28-6.05.27c-2,.1-3.84.14-5.52.14q-.27-6.69-2.8-8.79t-5.91,0c-2.27,1.4-4.59,4.17-7,8.31A58.61,58.61,0,0,0,811,309.45a40.67,40.67,0,0,0-1.2,12.91,23.14,23.14,0,0,0,2.33,8.79,8.63,8.63,0,0,0,4.46,4.25A6.64,6.64,0,0,0,822,335a14,14,0,0,0,5.25-5.3A31.29,31.29,0,0,0,831,319.22Z"/><path class="cls-5" d="M895.94,260.06q9.57.13,16.16,4a30.32,30.32,0,0,1,10.64,10.39,48,48,0,0,1,5.92,15.35,90.89,90.89,0,0,1,1.86,18.83,72.08,72.08,0,0,1-2.4,18.91,51.63,51.63,0,0,1-6.91,15.56,34,34,0,0,1-10.91,10.46A25.94,25.94,0,0,1,895.94,357a31.37,31.37,0,0,1-15.43-4.19,33.11,33.11,0,0,1-10.78-10.39,47.46,47.46,0,0,1-6.31-15.14,80.25,80.25,0,0,1-2.07-18.7,79.42,79.42,0,0,1,2.2-19,50,50,0,0,1,6.52-15.56,32.15,32.15,0,0,1,10.77-10.39A28.49,28.49,0,0,1,895.94,260.06Zm0,76a8.1,8.1,0,0,0,5.58-1.88,16,16,0,0,0,4.26-5.59,33.86,33.86,0,0,0,2.66-8.3,52.84,52.84,0,0,0,.93-10.18,65.57,65.57,0,0,0-.73-10,32.58,32.58,0,0,0-2.33-8.23,14.69,14.69,0,0,0-4.12-5.58,10.32,10.32,0,0,0-6.25-2.16,9.11,9.11,0,0,0-5.86,2,15.36,15.36,0,0,0-4.19,5.58,33.66,33.66,0,0,0-2.52,8.3,55.71,55.71,0,0,0-.87,10,60.25,60.25,0,0,0,.8,10.11,30,30,0,0,0,2.46,8.1,16.23,16.23,0,0,0,4.19,5.51A9.74,9.74,0,0,0,895.94,336.1Z"/><path class="cls-5" d="M1006.13,268.43q.33,4.74.8,11.3t.86,14.44c.27,5.26.55,10.61.87,16.05s.59,10.77.86,16,.51,9.93.73,14.16.42,7.84.6,10.82.27,4.93.27,5.86H987.44c-.09-2-.18-4.65-.26-7.82s-.2-6.53-.34-10.11-.24-7.23-.33-11-.18-7.19-.26-10.4-.18-6-.27-8.37-.13-4-.13-4.95c-.71,1.67-1.58,3.56-2.6,5.65s-2.08,4.18-3.19,6.28-2.22,4.18-3.32,6.28-2.11,4-3,5.65q-1.86-2.66-3.72-5.93t-3.53-6.42c-1.11-2.09-2.17-4.05-3.19-5.86s-1.88-3.28-2.59-4.4q-.13,3.63-.33,8.45c-.14,3.2-.25,6.58-.34,10.11s-.2,7.09-.33,10.67-.27,6.89-.4,9.91-.24,5.63-.33,7.81-.18,3.65-.27,4.4h-24.6q.39-6.7,1-15.84t1.26-19q.66-9.91,1.26-19.88t1.13-18.49q.54-8.5.93-14.79c.27-4.19.45-7.16.54-8.93h23.4q.81,2.79,2.2,7.05c.93,2.83,1.93,5.72,3,8.65s2.13,5.72,3.19,8.37,2,4.67,2.66,6.07q3.33-8,6.19-15.35t5.12-13h19.68Q1005.8,263.68,1006.13,268.43Z"/><path class="cls-5" d="M1018.3,265.78c0-.93,1-1.84,3.12-2.72a39.22,39.22,0,0,1,8.12-2.23,73,73,0,0,1,11.37-1.05,76.24,76.24,0,0,1,12.9.84,55.41,55.41,0,0,1,12.57,3.42,33.73,33.73,0,0,1,10.57,6.69,27.8,27.8,0,0,1,6.92,10.68q2.39,6.42,1.46,15.34a57.79,57.79,0,0,1-4.65,17.31,42.69,42.69,0,0,1-9.58,13.6,39.79,39.79,0,0,1-14.23,8.58,43.61,43.61,0,0,1-18.35,2.09q-.54,6.29-.8,11.16t-.54,7.54H1017.9c0-1,0-3.07.06-6.14s.07-6.77.07-11.09V325.43q0-7.89.07-15.91t.07-15.7V280.15q0-6,.06-9.9C1018.27,267.64,1018.3,266.15,1018.3,265.78Zm43.49,33.63a10.58,10.58,0,0,0-1.33-5.86,12.77,12.77,0,0,0-4.12-4.26,20.82,20.82,0,0,0-6.19-2.65,35.7,35.7,0,0,0-7.51-1.05q-.54,6.71-1.07,14.16t-1.19,15.14a27.24,27.24,0,0,0,8.18-.63,19,19,0,0,0,6.65-2.93,15.34,15.34,0,0,0,6.58-11.92Z"/><path class="cls-5" d="M1143.05,356.75q-1.86.13-6,.21t-9.44.07c-3.51,0-7.18,0-11-.07s-7.47-.07-10.84-.07-6.34,0-8.91-.07-4.31-.07-5.19-.07q.14-2.79.13-9.91t-.06-16.53q-.08-9.42-.14-20.09t-.2-20.51q-.13-9.84-.2-17.86t-.2-12.07h25.28c-.09,1.12-.23,3.09-.4,5.93s-.4,6.26-.67,10.26-.58,8.42-.93,13.25-.73,9.84-1.13,15-.78,10.32-1.13,15.49-.71,10-1.06,14.58c2.66-.28,5.51-.54,8.57-.77l9-.7c2.93-.23,5.65-.46,8.18-.7s4.68-.44,6.45-.62Z"/><path class="cls-5" d="M1200.18,283l-7.52-.14q-4.26-.06-9.24-.21l-9.78-.28c-.26,2.7-.53,5.52-.8,8.44s-.53,5.93-.79,9c2.83-.18,5.92-.32,9.24-.41s6.23-.28,8.71-.56c0,1.11,0,2.91-.06,5.37s-.09,5.07-.14,7.81-.13,5.33-.26,7.74-.25,4.05-.33,4.89c-1-.19-2.22-.37-3.73-.56s-3.17-.35-5-.49l-5.45-.42c-1.82-.14-3.52-.3-5.12-.48q-.27,2.93-.53,5.78t-.53,5.66c2.92-.19,6.07-.37,9.44-.56s6.69-.35,10-.49,6.34-.23,9.18-.28,5.14,0,6.92.07V357H1149.3q.14-2.79.2-10t.14-16.53q.06-9.34.06-19.95V290.2q0-9.76-.06-17.72t-.2-12.14l3.39-.07c2.17,0,5-.09,8.38-.14l11.44-.14q6.31-.06,12.43-.07t11.37.14q5.27.13,8.32.42v22.6C1203.88,283.08,1202.35,283.06,1200.18,283Z"/><path class="cls-5" d="M1274.19,281.69q-1.86.13-7,.41t-11.9.56q-.4,6.29-.74,13.61t-.73,14.72q-.39,7.39-.8,14.58t-.66,13.32q-.27,6.14-.53,10.88c-.18,3.17-.32,5.58-.4,7.26h-21.81c.08-2,.11-5.74.06-11.1s-.13-11.51-.26-18.48-.29-14.3-.47-22-.31-14.85-.4-21.55l-12.23.49c-3.38.14-5.42.25-6.12.35v-24.7q1.72-.13,6.45-.14t11-.07q6.25-.06,13.37-.07h13.63c4.34,0,8.27,0,11.77.07s6.1.12,7.78.21Z"/><path class="cls-5" d="M1331.58,283l-7.51-.14q-4.26-.06-9.25-.21l-9.77-.28c-.27,2.7-.54,5.52-.8,8.44s-.53,5.93-.8,9q4.26-.27,9.24-.41c3.33-.1,6.23-.28,8.72-.56,0,1.11,0,2.91-.07,5.37s-.09,5.07-.13,7.81-.14,5.33-.27,7.74-.24,4.05-.33,4.89c-1-.19-2.22-.37-3.73-.56s-3.17-.35-5-.49l-5.45-.42c-1.82-.14-3.52-.3-5.12-.48-.18,2-.35,3.88-.53,5.78s-.36,3.8-.53,5.66c2.92-.19,6.07-.37,9.44-.56s6.69-.35,10-.49,6.34-.23,9.17-.28,5.15,0,6.92.07V357h-55.06q.12-2.79.2-10t.13-16.53q.07-9.34.06-19.95V290.2c0-6.51,0-12.42-.06-17.72s-.11-9.35-.2-12.14l3.39-.07c2.17,0,5-.09,8.38-.14l11.44-.14q6.32-.06,12.43-.07t11.38.14q5.25.13,8.31.42v22.6C1335.28,283.08,1333.75,283.06,1331.58,283Z"/><path class="cls-5" d="M1345.88,260.48a18.93,18.93,0,0,1,7.78-1.47,47.26,47.26,0,0,1,11,1.33,61,61,0,0,1,12.44,4.39,71.24,71.24,0,0,1,12.3,7.54A51.25,51.25,0,0,1,1399.88,283a50.32,50.32,0,0,1,7.11,14.23,52.82,52.82,0,0,1-2.32,36.21,35.19,35.19,0,0,1-11.78,14q-7.91,5.65-20.21,8.16t-29.73.56q.13-1.95.14-6.91V290.82q0-7.59-.07-13.39t-.07-12.9Q1343,261.88,1345.88,260.48Zm39.37,53.85a29.36,29.36,0,0,0-.93-10.18,28.63,28.63,0,0,0-3.8-8.23,25.58,25.58,0,0,0-6-6.28,39.93,39.93,0,0,0-7.71-4.47q-.54,5.86-1.06,12.56t-1.14,13.6q-.58,6.92-1.12,13.61t-1.07,12.55a29.52,29.52,0,0,0,10.71-2.72,20.39,20.39,0,0,0,6.91-5.37,20.89,20.89,0,0,0,3.79-7.11A35,35,0,0,0,1385.25,314.33Z"/><path class="cls-5" d="M1434.19,339.59v3.49c0,1.48,0,3,.13,4.67s.16,3.26.2,4.88.07,3.05.07,4.26c-.71,0-1.86,0-3.46.07s-3.34.07-5.25.07h-10.31c.27-2.51.53-5.42.8-8.72s.49-6.21.67-8.72c.88,0,2.12,0,3.72-.07s3.23-.07,4.92-.07,3.3,0,4.85.07S1433.31,339.59,1434.19,339.59ZM1417.43,335q.13-2.37.14-7.6V315.52q0-6.63-.07-14t-.2-14.44q-.13-7.05-.2-12.91c0-3.9-.11-7.07-.2-9.49h20.22q-.13,2-.33,7t-.47,11.86q-.27,6.76-.53,14.51t-.53,14.93q-.27,7.19-.6,13t-.47,8.93Z"/><rect class="cls-6" x="678.07" y="665.02" width="216.69" height="143.87"/><rect class="cls-6" x="651.07" y="613.54" width="270.79" height="51.47"/><path class="cls-7" d="M808.56,567.72c-8.7,8.53-25.08,33-21.19,43.68s26.57,3.51,35.27-5,12.6-24.1,8.72-34.77S817.27,559.19,808.56,567.72Z"/><path class="cls-7" d="M764.49,567.72c8.7,8.53,25.08,33,21.19,43.68s-26.57,3.51-35.27-5-12.6-24.1-8.72-34.77S755.79,559.19,764.49,567.72Z"/><rect class="cls-6" x="1000.56" y="665.02" width="216.69" height="143.87"/><rect class="cls-6" x="973.56" y="613.54" width="270.79" height="51.47"/><path class="cls-7" d="M1131.05,567.72c-8.7,8.53-25.08,33-21.19,43.68s26.57,3.51,35.27-5,12.6-24.1,8.72-34.77S1139.75,559.19,1131.05,567.72Z"/><path class="cls-7" d="M1087,567.72c8.7,8.53,25.08,33,21.19,43.68s-26.57,3.51-35.27-5-12.6-24.1-8.72-34.77S1078.27,559.19,1087,567.72Z"/><path class="cls-8" d="M857.79,711.57H849c0-36.13-28-65.53-62.47-65.53s-62.47,29.4-62.47,65.53h-8.77c0-41.21,32-74.73,71.24-74.73S857.79,670.36,857.79,711.57Z"/><path class="cls-8" d="M750.71,764.9l-.43-.31a66.53,66.53,0,0,1-26.08-53.24h-8.77a75.77,75.77,0,0,0,31.1,61.71C748,770.35,749.45,767.69,750.71,764.9Z"/><path class="cls-8" d="M849.13,711.35c0,36-27.85,65.34-62.14,65.53.11,3.06,0,6.11,0,9.2,39.15-.16,71-33.62,71-74.73Z"/><polygon class="cls-8" points="771.64 778.16 810.42 754.67 810.42 801.65 771.64 778.16"/><polygon class="cls-9" points="1096.92 788.47 1094.01 658.89 1202.44 721.04 1096.92 788.47"/><polygon class="cls-9" points="1051.43 793.63 1048.53 664.04 1156.96 726.2 1051.43 793.63"/></g></svg>
