<svg xmlns="http://www.w3.org/2000/svg" xmlns:xlink="http://www.w3.org/1999/xlink" width="1920" height="1080" viewBox="0 0 1920 1080"><defs><style>.cls-1{isolation:isolate;}.cls-2,.cls-7{fill:#bf000f;}.cls-3{fill:#191314;}.cls-4{fill:#473721;}.cls-5{fill:#23190b;}.cls-6,.cls-8{opacity:0.4;}.cls-7{stroke:#020202;stroke-miterlimit:10;}.cls-8{fill:#fcfcfc;}.cls-9{fill:#020202;}.cls-10{fill:#b20606;}.cls-11,.cls-14{opacity:0.9;}.cls-11{fill:url(#radial-gradient);}.cls-12,.cls-15{opacity:0.8;}.cls-12{fill:url(#radial-gradient-5);}.cls-13,.cls-16,.cls-17{opacity:0.7;}.cls-13{fill:url(#radial-gradient-10);}.cls-14{fill:url(#radial-gradient-14);}.cls-15{fill:url(#radial-gradient-15);}.cls-16{fill:url(#radial-gradient-16);}.cls-17{fill:url(#radial-gradient-17);}.cls-18{opacity:0.6;}.cls-19{fill:#262324;}.cls-20{fill:#381802;}.cls-21{fill:#16330e;}.cls-22{opacity:0.5;}.cls-23{fill:#2b2a2a;}.cls-24{fill:#0f0e0e;}.cls-25{fill:url(#radial-gradient-18);}.cls-26{fill:url(#radial-gradient-19);}.cls-27{fill:url(#radial-gradient-20);}.cls-28{fill:url(#radial-gradient-21);}.cls-29{fill:url(#radial-gradient-22);}.cls-30{fill:url(#radial-gradient-23);}.cls-31{fill:url(#radial-gradient-24);}.cls-32{fill:url(#radial-gradient-25);}.cls-33{fill:url(#radial-gradient-26);}.cls-34{fill:url(#radial-gradient-27);}.cls-35{fill:url(#radial-gradient-28);}.cls-36{fill:url(#radial-gradient-29);}.cls-37{fill:#fff;}.cls-38{fill:url(#radial-gradient-30);}.cls-39{fill:url(#radial-gradient-31);}.cls-40{fill:url(#radial-gradient-32);}.cls-41{fill:url(#radial-gradient-33);}.cls-42{fill:url(#radial-gradient-34);}.cls-43{fill:url(#radial-gradient-35);}.cls-44{fill:url(#radial-gradient-36);}.cls-45{opacity:0.91;mix-blend-mode:multiply;}</style><radialGradient id="radial-gradient" cx="1472.64" cy="730.34" r="179.15" gradientUnits="userSpaceOnUse"><stop offset="0" stop-color="#b20606"/><stop offset="1" stop-color="#f50"/></radialGradient><radialGradient id="radial-gradient-5" cx="1472.64" cy="766.42" r="153.77" gradientUnits="userSpaceOnUse"><stop offset="0" stop-color="#f50" stop-opacity="0.7"/><stop offset="0.2" stop-color="#fb5a01" stop-opacity="0.73"/><stop offset="0.51" stop-color="#f26902" stop-opacity="0.82"/><stop offset="0.89" stop-color="#e18105" stop-opacity="0.95"/><stop offset="1" stop-color="#dc8906"/></radialGradient><radialGradient id="radial-gradient-10" cx="1472.72" cy="767.97" r="137.79" gradientUnits="userSpaceOnUse"><stop offset="0" stop-color="#f50" stop-opacity="0.7"/><stop offset="0.11" stop-color="#fd5c00" stop-opacity="0.71"/><stop offset="0.29" stop-color="#f96e01" stop-opacity="0.75"/><stop offset="0.51" stop-color="#f18d02" stop-opacity="0.82"/><stop offset="0.76" stop-color="#e7b704" stop-opacity="0.9"/><stop offset="1" stop-color="#dce506"/></radialGradient><radialGradient id="radial-gradient-14" cx="1472.76" cy="730.34" r="179.05" xlink:href="#radial-gradient"/><radialGradient id="radial-gradient-15" cx="1472.76" cy="766.42" r="153.66" xlink:href="#radial-gradient-5"/><radialGradient id="radial-gradient-16" cx="1472.76" cy="767.97" r="137.75" xlink:href="#radial-gradient-10"/><radialGradient id="radial-gradient-17" cx="1473.57" cy="768.71" r="121.81" gradientUnits="userSpaceOnUse"><stop offset="0" stop-color="#dce506"/><stop offset="1" stop-color="#f50" stop-opacity="0.7"/></radialGradient><radialGradient id="radial-gradient-18" cx="1758.71" cy="1537.64" r="92.29" gradientTransform="translate(-2032.05 -31.99) rotate(-36.06)" gradientUnits="userSpaceOnUse"><stop offset="0" stop-color="#fff"/><stop offset="0.16" stop-color="#fff" stop-opacity="0.76"/><stop offset="0.33" stop-color="#fff" stop-opacity="0.53"/><stop offset="0.49" stop-color="#fff" stop-opacity="0.34"/><stop offset="0.64" stop-color="#fff" stop-opacity="0.19"/><stop offset="0.78" stop-color="#fff" stop-opacity="0.09"/><stop offset="0.9" stop-color="#fff" stop-opacity="0.02"/><stop offset="1" stop-color="#fff" stop-opacity="0"/></radialGradient><radialGradient id="radial-gradient-19" cx="333.03" cy="317.48" r="20.01" gradientTransform="translate(11.19 18.94) rotate(-0.33)" gradientUnits="userSpaceOnUse"><stop offset="0" stop-color="#fff"/><stop offset="0.18" stop-color="#fff" stop-opacity="0.78"/><stop offset="0.48" stop-color="#fff" stop-opacity="0.45"/><stop offset="0.73" stop-color="#fff" stop-opacity="0.21"/><stop offset="0.91" stop-color="#fff" stop-opacity="0.06"/><stop offset="1" stop-color="#fff" stop-opacity="0"/></radialGradient><radialGradient id="radial-gradient-20" cx="456.79" cy="686.75" r="20.01" xlink:href="#radial-gradient-19"/><radialGradient id="radial-gradient-21" cx="225.99" cy="344.58" r="20.01" xlink:href="#radial-gradient-19"/><radialGradient id="radial-gradient-22" cx="165.99" cy="521.58" r="20.01" xlink:href="#radial-gradient-19"/><radialGradient id="radial-gradient-23" cx="298.13" cy="534.22" r="20.01" xlink:href="#radial-gradient-19"/><radialGradient id="radial-gradient-24" cx="350.81" cy="666.34" r="20.01" xlink:href="#radial-gradient-19"/><radialGradient id="radial-gradient-25" cx="256.34" cy="436.2" r="20.01" xlink:href="#radial-gradient-19"/><radialGradient id="radial-gradient-26" cx="215.8" cy="601.83" r="20.01" xlink:href="#radial-gradient-19"/><radialGradient id="radial-gradient-27" cx="109.23" cy="684.75" r="20.01" xlink:href="#radial-gradient-19"/><radialGradient id="radial-gradient-28" cx="352.36" cy="397.56" r="20.01" xlink:href="#radial-gradient-19"/><radialGradient id="radial-gradient-29" cx="390.87" cy="514.96" r="20.01" xlink:href="#radial-gradient-19"/><radialGradient id="radial-gradient-30" cx="262" cy="271.56" r="18.83" xlink:href="#radial-gradient-19"/><radialGradient id="radial-gradient-31" cx="295.11" cy="364.78" r="18.83" xlink:href="#radial-gradient-19"/><radialGradient id="radial-gradient-32" cx="197.43" cy="416.08" r="18.83" xlink:href="#radial-gradient-19"/><radialGradient id="radial-gradient-33" cx="332.14" cy="465.54" r="18.83" xlink:href="#radial-gradient-19"/><radialGradient id="radial-gradient-34" cx="232.06" cy="521.97" r="18.83" xlink:href="#radial-gradient-19"/><radialGradient id="radial-gradient-35" cx="344.02" cy="602.58" r="18.83" xlink:href="#radial-gradient-19"/><radialGradient id="radial-gradient-36" cx="235.12" cy="677.17" r="18.83" xlink:href="#radial-gradient-19"/></defs><title>Spille skærm</title><g class="cls-1"><g id="Layer_2" data-name="Layer 2"><rect class="cls-2" y="-2" width="1920" height="1081"/><rect class="cls-3" x="190" y="-2" width="1540" height="883"/><path class="cls-4" d="M1916.21,1078.27H1728.69L1577.56,881.73h150.65Z"/><path class="cls-5" d="M1920,1079H1726.16L1574.52,881H1730Zm-188.78-1.45h181.21l-186-195.1H1580.61Z"/><g class="cls-6"><path class="cls-5" d="M1637.73,889.45c-.61,1-1.32,1.95-1.8,2.92a3.9,3.9,0,0,0,1.68,5.68,24.6,24.6,0,0,0,5.61,2.48c2.37.8,5.17,1.58,8.07,2.37l9,2.4a183.28,183.28,0,0,1,18,5.48,43.74,43.74,0,0,1,7,3.35,14.35,14.35,0,0,1,4,3.52,5.13,5.13,0,0,1-.13,6.59c-1.56,2-4.38,3.87-7.87,5.54a99,99,0,0,1-12.09,4.65c4.12-3.76,9.21-7.35,10.19-11.14a5.9,5.9,0,0,0-1.63-5.7,14.7,14.7,0,0,0-3.52-2.75,34.9,34.9,0,0,0-5.5-2.58c-4.32-1.69-9.89-3.31-15.66-5-2.88-.84-5.86-1.69-8.73-2.6s-5.76-1.85-8.34-2.91-4.82-2.26-5.9-3.49a2.77,2.77,0,0,1-.62-3.46C1630.75,892.7,1634.06,891,1637.73,889.45Z"/><path class="cls-5" d="M1738.26,932.18a3.2,3.2,0,0,1-.2,3.39,14.39,14.39,0,0,1-2.8,3.15c-2.22,2-4.69,4-4.69,5.94s2.32,4,6.44,5.92a151.7,151.7,0,0,0,15.48,5.91c5.81,2,12,4,17.48,6.27s10.3,4.75,11.81,7.34a3.13,3.13,0,0,1-.15,3.67,13.34,13.34,0,0,1-3.65,3.16c-3,2-6.64,3.74-8.57,5.84a3.93,3.93,0,0,1,.26-3.39,27.7,27.7,0,0,1,2-3.22A7.22,7.22,0,0,0,1773,973a3.82,3.82,0,0,0-1.37-3c-2-2-6.34-4-11.56-6-2.61-1-5.4-1.95-8.34-2.93l-8.88-3c-5.91-2-11.92-4.2-16.45-6.63a17.4,17.4,0,0,1-5.13-3.8,3.38,3.38,0,0,1-.69-3.82c1.22-2.42,5.22-4.28,8.87-6.06S1736.77,934.31,1738.26,932.18Z"/><path class="cls-5" d="M1715.14,994.92c3,.9,5.91,1.83,8.78,2.76s5.68,1.85,8.46,2.82c5.47,1.92,10.81,4,13.52,6.46,1.27,1.2,1.88,2.49,1.08,3.67s-2.3,2.25-4.36,3.18c-4.16,1.86-9.58,3.28-13.94,4.74a36.05,36.05,0,0,0-5.5,2.19,4,4,0,0,0-2.26,2.33c-.1.82.61,1.77,1.47,2.8s1.86,2.08,2.89,3.12a119.66,119.66,0,0,0,15.44,12.61,103.08,103.08,0,0,1-25.94-12.32c-1.57-1.08-3-2.16-4.29-3.24s-2.52-2.28-2.74-3.56c0-1.27.92-2.49,2.67-3.54a40,40,0,0,1,6.59-2.74c5-1.6,10.23-3,14-4.4s5.59-3,4.42-4.82-4.65-3.86-8.58-5.87S1718.73,997,1715.14,994.92Z"/><path class="cls-5" d="M1792.25,998.82c.91,3.16,1.36,6.28,3.46,9.39a18,18,0,0,0,4.25,4.59,32.4,32.4,0,0,0,7.52,4.34,55.88,55.88,0,0,0,5.31,2c1.83.65,4,1.25,6.27,1.87,4.6,1.23,9.82,2.48,14.83,4a63.94,63.94,0,0,1,12.41,4.89c3.12,1.72,5.16,3.49,6.07,5.25s.5,3.49-1,5.08a26.76,26.76,0,0,1-6.73,4.31c-5.35,2.64-11.35,5-13.43,7.68s-.58,5.76,3,8.85c3.38,3.1,8.73,6.22,13.66,9.37a139.75,139.75,0,0,1-20.39-9.17,25,25,0,0,1-6.22-4.92c-1.4-1.67-1.78-3.37-1.12-5a6.65,6.65,0,0,1,1.74-2.39,22.7,22.7,0,0,1,3-2.2c2.24-1.42,4.91-2.72,7.21-4a22,22,0,0,0,5.53-3.87,3.35,3.35,0,0,0,.73-4.06c-1.33-2.8-6.31-5.7-14.12-8.16-4-1.27-8.89-2.53-13.67-3.95a71.32,71.32,0,0,1-12.44-4.71c-6.61-3.34-8.61-6.75-9.07-9.92C1788.78,1004.8,1790.17,1001.77,1792.25,998.82Z"/></g><path class="cls-4" d="M1724.57,1078.27H1537L1423.59,881.73h150.66Z"/><path class="cls-5" d="M1728.22,1079H1534.37L1420.69,881h155.49Zm-188.51-1.45h181.22l-148.61-195.1H1426.5Z"/><g class="cls-6"><path class="cls-5" d="M1482.28,889.45c-.8,1-1.69,1.95-2.36,2.92a5.4,5.4,0,0,0-1.1,2.9,3.63,3.63,0,0,0,1.69,2.78,19.85,19.85,0,0,0,5.14,2.48c2.21.8,4.86,1.58,7.61,2.37l8.55,2.4a155.31,155.31,0,0,1,16.91,5.48,34.53,34.53,0,0,1,6.36,3.35,10.84,10.84,0,0,1,3.34,3.52c1.2,2.33.54,4.55-1.4,6.59s-5.12,3.87-8.93,5.54a120,120,0,0,1-13,4.65c4.84-3.76,10.62-7.35,12.33-11.14a5.4,5.4,0,0,0-.54-5.7,11.23,11.23,0,0,0-3-2.75,28.18,28.18,0,0,0-5-2.58c-4-1.69-9.26-3.31-14.71-5-2.72-.84-5.53-1.69-8.23-2.6s-5.4-1.85-7.78-2.91-4.39-2.26-5.23-3.49a2.67,2.67,0,0,1,0-3.46C1474.68,892.7,1478.31,891,1482.28,889.45Z"/><path class="cls-5" d="M1574.63,932.18a3.47,3.47,0,0,1-.86,3.39,19.34,19.34,0,0,1-3.4,3.15c-2.61,2-5.45,4-5.83,5.94s1.56,4,5.31,5.92a123.71,123.71,0,0,0,14.35,5.91c5.42,2,11.22,4,16.28,6.27s9.38,4.75,10.39,7.34a3.33,3.33,0,0,1-.85,3.67,17.67,17.67,0,0,1-4.26,3.16c-3.41,2-7.35,3.74-9.69,5.84a4.33,4.33,0,0,1,.91-3.39,36.37,36.37,0,0,1,2.58-3.22,8.84,8.84,0,0,0,1.92-3.12,3.24,3.24,0,0,0-.79-3c-1.65-2-5.57-4-10.41-6-2.43-1-5-1.95-7.78-2.93l-8.31-3c-5.52-2-11.11-4.2-15.18-6.63a13,13,0,0,1-4.39-3.8,3.24,3.24,0,0,1,0-3.82c1.69-2.42,6-4.28,10-6.06S1572.73,934.31,1574.63,932.18Z"/><path class="cls-5" d="M1539.48,994.92c2.85.9,5.55,1.83,8.24,2.76s5.33,1.85,7.93,2.82c5.09,1.92,10,4,12.28,6.46,1,1.2,1.4,2.49.37,3.67a12.42,12.42,0,0,1-5,3.18c-4.52,1.86-10.21,3.28-14.85,4.74a43.16,43.16,0,0,0-5.91,2.19,5.26,5.26,0,0,0-2.71,2.33c-.26.82.27,1.77.93,2.8s1.46,2.08,2.29,3.12a90.56,90.56,0,0,0,13,12.61c-10.42-3.85-18.08-8-23.58-12.32a41.42,41.42,0,0,1-3.66-3.24c-1.11-1.09-2.09-2.28-2.07-3.56.2-1.27,1.4-2.49,3.36-3.54a49.14,49.14,0,0,1,7.11-2.74c5.26-1.6,10.8-3,14.84-4.4s6.16-3,5.35-4.82-3.91-3.86-7.46-5.87S1542.66,997,1539.48,994.92Z"/><path class="cls-5" d="M1615.84,998.82c.31,3.16.16,6.28,1.65,9.39a13.81,13.81,0,0,0,3.38,4.59,25.12,25.12,0,0,0,6.68,4.34,46.54,46.54,0,0,0,4.94,2c1.71.65,3.75,1.25,5.91,1.87,4.36,1.23,9.34,2.48,14.07,4a52.28,52.28,0,0,1,11.47,4.89c2.79,1.72,4.49,3.49,5.07,5.25s-.17,3.49-2,5.08a34.52,34.52,0,0,1-7.56,4.31c-5.85,2.64-12.3,5-14.9,7.68s-1.69,5.76,1.27,8.85c2.78,3.1,7.53,6.22,11.86,9.37-7.24-2.94-13.76-6-18.63-9.17a18.8,18.8,0,0,1-5.28-4.92,4.49,4.49,0,0,1-.16-5,8.79,8.79,0,0,1,2.2-2.39,29.63,29.63,0,0,1,3.47-2.2c2.5-1.42,5.43-2.72,8-4a29,29,0,0,0,6.27-3.87q2.16-1.95,1.5-4.06c-.79-2.8-5.21-5.7-12.55-8.16-3.71-1.27-8.41-2.53-12.92-3.95a59.06,59.06,0,0,1-11.54-4.71c-6-3.34-7.31-6.75-7.16-9.92C1611.22,1004.8,1613.19,1001.77,1615.84,998.82Z"/></g><path class="cls-4" d="M1532.92,1078.27H1345.39Q1307.5,980,1269.62,881.73h150.66Z"/><path class="cls-5" d="M1536.43,1079H1342.57l-75.72-198h155.5Zm-188.23-1.45h181.22l-111.21-195.1H1272.38Q1310.29,980,1348.2,1077.55Z"/><g class="cls-6"><path class="cls-5" d="M1326.83,889.45c-1,1-2.07,1.95-2.93,2.92a6.8,6.8,0,0,0-1.65,2.9,3,3,0,0,0,1.16,2.78,15.62,15.62,0,0,0,4.66,2.48c2.06.8,4.56,1.58,7.15,2.37l8.09,2.4a130.82,130.82,0,0,1,15.87,5.48,26.81,26.81,0,0,1,5.71,3.35,8.15,8.15,0,0,1,2.67,3.52c.76,2.33-.34,4.55-2.66,6.59a36.58,36.58,0,0,1-10,5.54,144.3,144.3,0,0,1-13.88,4.65c5.57-3.76,12-7.35,14.46-11.14,1.21-1.89,1.56-3.82.56-5.7a8.44,8.44,0,0,0-2.46-2.75,22.18,22.18,0,0,0-4.52-2.58,140,140,0,0,0-13.75-5c-2.56-.84-5.2-1.69-7.73-2.6a71.38,71.38,0,0,1-7.22-2.91c-2.14-1.06-4-2.26-4.57-3.49s-.23-2.4.71-3.46C1318.6,892.7,1322.56,891,1326.83,889.45Z"/><path class="cls-5" d="M1411,932.18c.22,1.16-.45,2.3-1.5,3.39a25.56,25.56,0,0,1-4,3.15c-3,2-6.21,4-7,5.94s.8,4,4.18,5.92a100.76,100.76,0,0,0,13.21,5.91c5,2,10.45,4,15.08,6.27s8.48,4.75,9,7.34c.29,1.28-.32,2.54-1.55,3.67a23.43,23.43,0,0,1-4.87,3.16c-3.79,2-8.07,3.74-10.82,5.84a5.16,5.16,0,0,1,1.57-3.39c.91-1.1,2.13-2.17,3.19-3.22A11.63,11.63,0,0,0,1430,973a3,3,0,0,0-.2-3c-1.26-2-4.8-4-9.27-6-2.24-1-4.66-1.95-7.22-2.93l-7.73-3c-5.13-2-10.31-4.2-13.91-6.63a10,10,0,0,1-3.67-3.8,3.43,3.43,0,0,1,.77-3.82c2.15-2.42,6.86-4.28,11.19-6.06S1408.67,934.31,1411,932.18Z"/><path class="cls-5" d="M1363.8,994.92c2.68.9,5.21,1.83,7.72,2.76s5,1.85,7.38,2.82c4.73,1.92,9.26,4,11,6.46a2.59,2.59,0,0,1-.34,3.67,16,16,0,0,1-5.57,3.18c-4.88,1.86-10.84,3.28-15.76,4.74a51.58,51.58,0,0,0-6.34,2.19,7,7,0,0,0-3.16,2.33c-.41.82-.06,1.77.4,2.8s1.06,2.08,1.69,3.12c2.51,4.17,6.28,8.34,10.61,12.61-9.69-3.85-16.55-8-21.22-12.32a32.38,32.38,0,0,1-3-3.24c-.89-1.09-1.65-2.28-1.38-3.56.45-1.27,1.88-2.49,4-3.54a58.66,58.66,0,0,1,7.63-2.74c5.57-1.6,11.37-3,15.69-4.4s6.73-3,6.27-4.82-3.17-3.86-6.33-5.87S1366.58,997,1363.8,994.92Z"/><path class="cls-5" d="M1439.42,998.82c-.3,3.16-1.05,6.28-.14,9.39a10.45,10.45,0,0,0,2.49,4.59,19.3,19.3,0,0,0,5.85,4.34,38.17,38.17,0,0,0,4.56,2c1.58.65,3.51,1.25,5.55,1.87,4.12,1.23,8.87,2.48,13.31,4a42.35,42.35,0,0,1,10.54,4.89c2.46,1.72,3.82,3.49,4.05,5.25s-.83,3.49-3,5.08a43.54,43.54,0,0,1-8.38,4.31c-6.36,2.64-13.26,5-16.37,7.68s-2.8,5.76-.44,8.85c2.2,3.1,6.34,6.22,10.07,9.37-6.68-2.94-12.62-6-16.87-9.17a14.24,14.24,0,0,1-4.34-4.92,4.66,4.66,0,0,1,.8-5,11.56,11.56,0,0,1,2.67-2.39,37.78,37.78,0,0,1,3.88-2.2c2.78-1.42,5.95-2.72,8.75-4a36.87,36.87,0,0,0,7-3.87q2.54-1.95,2.28-4.06c-.26-2.8-4.12-5.7-11-8.16-3.47-1.27-7.92-2.53-12.16-3.95a47.94,47.94,0,0,1-10.64-4.71c-5.32-3.34-6-6.75-5.26-9.92C1433.65,1004.8,1436.2,1001.77,1439.42,998.82Z"/></g><path class="cls-4" d="M1341.26,1078.27H1153.72q-19-98.26-38.08-196.54H1266.3Q1303.78,980,1341.26,1078.27Z"/><path class="cls-5" d="M1344.63,1079H1150.77Q1131.9,980,1113,881h155.5Zm-188-1.45H1337.9l-73.8-195.1H1118.26Q1137.47,980,1156.67,1077.55Z"/><g class="cls-6"><path class="cls-5" d="M1171.37,889.45c-1.18,1-2.44,1.95-3.48,2.92a8.75,8.75,0,0,0-2.22,2.9,2.56,2.56,0,0,0,.63,2.78,12.19,12.19,0,0,0,4.19,2.48c1.9.8,4.25,1.58,6.7,2.37l7.63,2.4a108.89,108.89,0,0,1,14.81,5.48,20.8,20.8,0,0,1,5.07,3.35,6.4,6.4,0,0,1,2,3.52c.31,2.33-1.22,4.55-3.93,6.59a46.21,46.21,0,0,1-11.06,5.54c-4.47,1.67-9.42,3.2-14.77,4.65,6.29-3.76,13.45-7.35,16.61-11.14,1.57-1.89,2.29-3.82,1.65-5.7a6.36,6.36,0,0,0-1.94-2.75,17.15,17.15,0,0,0-4-2.58,116.05,116.05,0,0,0-12.8-5c-2.39-.84-4.88-1.69-7.23-2.6a58.16,58.16,0,0,1-6.66-2.91c-1.94-1.06-3.52-2.26-3.9-3.49s.23-2.4,1.38-3.46C1162.52,892.7,1166.8,891,1171.37,889.45Z"/><path class="cls-5" d="M1247.33,932.18c0,1.16-.89,2.3-2.15,3.39a34,34,0,0,1-4.61,3.15c-3.38,2-7,4-8.11,5.94s0,4,3,5.92,7.4,3.92,12.08,5.91,9.68,4,13.88,6.27,7.56,4.75,7.58,7.34c0,1.28-.81,2.54-2.26,3.67a29.88,29.88,0,0,1-5.47,3.16c-4.16,2-8.79,3.74-11.94,5.84a6.51,6.51,0,0,1,2.22-3.39c1.12-1.1,2.55-2.17,3.81-3.22a15.21,15.21,0,0,0,3.11-3.12,3,3,0,0,0,.39-3c-.88-2-4-4-8.13-6-2-1-4.28-1.95-6.65-2.93l-7.16-3c-4.74-2-9.51-4.2-12.64-6.63a7.53,7.53,0,0,1-2.94-3.8c-.33-1.31.22-2.61,1.5-3.82,2.61-2.42,7.69-4.28,12.36-6.06S1244.62,934.31,1247.33,932.18Z"/><path class="cls-5" d="M1188.12,994.92c2.5.9,4.86,1.83,7.19,2.76s4.62,1.85,6.84,2.82c4.36,1.92,8.49,4,9.81,6.46a2.8,2.8,0,0,1-1,3.67,20.31,20.31,0,0,1-6.18,3.18c-5.24,1.86-11.47,3.28-16.67,4.74a61.52,61.52,0,0,0-6.76,2.19,9.08,9.08,0,0,0-3.6,2.33,3.2,3.2,0,0,0-.14,2.8c.31,1,.66,2.08,1.08,3.12,1.71,4.17,4.69,8.34,8.2,12.61-8.95-3.85-15-8-18.86-12.32a23.48,23.48,0,0,1-2.42-3.24,3.81,3.81,0,0,1-.7-3.56c.69-1.27,2.35-2.49,4.71-3.54a70.82,70.82,0,0,1,8.16-2.74c5.88-1.6,11.93-3,16.54-4.4s7.3-3,7.19-4.82-2.43-3.86-5.2-5.87S1190.5,997,1188.12,994.92Z"/><path class="cls-5" d="M1263,998.82c-.9,3.16-2.24,6.28-1.94,9.39a8.65,8.65,0,0,0,1.61,4.59,14.59,14.59,0,0,0,5,4.34,30.93,30.93,0,0,0,4.18,2,54.94,54.94,0,0,0,5.19,1.87c3.89,1.23,8.4,2.48,12.56,4a33.81,33.81,0,0,1,9.6,4.89c2.13,1.72,3.14,3.49,3,5.25s-1.51,3.49-4,5.08a55.07,55.07,0,0,1-9.21,4.31c-6.87,2.64-14.22,5-17.84,7.68s-3.9,5.76-2.13,8.85c1.59,3.1,5.14,6.22,8.26,9.37-6.11-2.94-11.47-6-15.11-9.17a10.88,10.88,0,0,1-3.39-4.92c-.44-1.67.16-3.37,1.76-5a15.52,15.52,0,0,1,3.12-2.39,48,48,0,0,1,4.31-2.2c3-1.42,6.47-2.72,9.52-4a46.93,46.93,0,0,0,7.76-3.87q2.91-1.95,3.06-4.06c.28-2.8-3-5.7-9.42-8.16-3.23-1.27-7.44-2.53-11.41-3.95a38.53,38.53,0,0,1-9.73-4.71c-4.68-3.34-4.73-6.75-3.36-9.92C1256.08,1004.8,1259.21,1001.77,1263,998.82Z"/></g><path class="cls-4" d="M1149.6,1078.27H962.06q-.19-98.26-.4-196.54h150.67Q1131,980,1149.6,1078.27Z"/><path class="cls-5" d="M1152.83,1079H959q.1-99,.2-198h155.5Zm-187.68-1.45h181.23Q1128.17,980,1110,882.45H964.14Q964.65,980,965.15,1077.55Z"/><g class="cls-6"><path class="cls-5" d="M1015.91,889.45c-1.37,1-2.82,1.95-4,2.92a11.58,11.58,0,0,0-2.77,2.9,2.4,2.4,0,0,0,.1,2.78,9.51,9.51,0,0,0,3.71,2.48c1.75.8,4,1.58,6.24,2.37l7.18,2.4a89.84,89.84,0,0,1,13.76,5.48,16,16,0,0,1,4.43,3.35,5.18,5.18,0,0,1,1.32,3.52c-.13,2.33-2.09,4.55-5.19,6.59a58,58,0,0,1-12.12,5.54c-4.8,1.67-10,3.2-15.66,4.65,7-3.76,14.85-7.35,18.74-11.14,1.93-1.89,3-3.82,2.74-5.7a5,5,0,0,0-1.41-2.75,12.93,12.93,0,0,0-3.52-2.58,95.22,95.22,0,0,0-11.85-5c-2.23-.84-4.55-1.69-6.73-2.6a46.21,46.21,0,0,1-6.1-2.91c-1.74-1.06-3.09-2.26-3.23-3.49s.69-2.4,2-3.46C1006.43,892.7,1011,891,1015.91,889.45Z"/><path class="cls-5" d="M1083.68,932.18c-.23,1.16-1.33,2.3-2.8,3.39a44.72,44.72,0,0,1-5.22,3.15c-3.77,2-7.73,4-9.25,5.94s-.71,4,1.91,5.92,6.64,3.92,11,5.91,8.91,4,12.67,6.27,6.66,4.75,6.18,7.34c-.2,1.28-1.3,2.54-3,3.67a38.61,38.61,0,0,1-6.08,3.16c-4.54,2-9.51,3.74-13.06,5.84a8.46,8.46,0,0,1,2.86-3.39c1.34-1.1,3-2.17,4.44-3.22A20.72,20.72,0,0,0,1087,973a3.38,3.38,0,0,0,1-3c-.49-2-3.27-4-7-6-1.86-1-3.9-1.95-6.09-2.93l-6.58-3c-4.35-2-8.7-4.2-11.37-6.63a5.82,5.82,0,0,1-2.21-3.8c-.08-1.31.72-2.61,2.23-3.82,3.08-2.42,8.51-4.28,13.52-6.06S1080.56,934.31,1083.68,932.18Z"/><path class="cls-5" d="M1012.44,994.92c2.33.9,4.5,1.83,6.66,2.76s4.26,1.85,6.3,2.82c4,1.92,7.72,4,8.57,6.46.34,1.2,0,2.49-1.74,3.67a25.61,25.61,0,0,1-6.8,3.18c-5.59,1.86-12.1,3.28-17.58,4.74a72.49,72.49,0,0,0-7.17,2.19,11.63,11.63,0,0,0-4,2.33,3.5,3.5,0,0,0-.68,2.8,28.07,28.07,0,0,0,.49,3.12c.91,4.17,3.08,8.34,5.78,12.61-8.21-3.85-13.46-8-16.5-12.32a18.1,18.1,0,0,1-1.8-3.24,3.63,3.63,0,0,1,0-3.56,12.79,12.79,0,0,1,5.39-3.54,84,84,0,0,1,8.69-2.74c6.19-1.6,12.5-3,17.38-4.4s7.87-3,8.11-4.82-1.68-3.86-4.07-5.87A82.52,82.52,0,0,1,1012.44,994.92Z"/><path class="cls-5" d="M1086.56,998.82c-1.5,3.16-3.45,6.28-3.74,9.39a7.57,7.57,0,0,0,.73,4.59,11,11,0,0,0,4.19,4.34,24.3,24.3,0,0,0,3.8,2,45.1,45.1,0,0,0,4.83,1.87c3.66,1.23,7.92,2.48,11.8,4a26.64,26.64,0,0,1,8.66,4.89c1.8,1.72,2.48,3.49,2,5.25s-2.17,3.49-4.93,5.08a68.17,68.17,0,0,1-10,4.31c-7.37,2.64-15.18,5-19.32,7.68s-5,5.76-3.83,8.85c1,3.1,4,6.22,6.47,9.37-5.54-2.94-10.33-6-13.35-9.17a8.52,8.52,0,0,1-2.45-4.92c-.11-1.67.81-3.37,2.73-5a20,20,0,0,1,3.58-2.39c1.46-.76,3-1.5,4.72-2.2,3.33-1.42,7-2.72,10.29-4a58.13,58.13,0,0,0,8.51-3.87q3.29-1.95,3.84-4.06c.81-2.8-1.94-5.7-7.86-8.16-3-1.27-7-2.53-10.65-3.95a30.38,30.38,0,0,1-8.83-4.71c-4-3.34-3.44-6.75-1.46-9.92C1078.5,1004.8,1082.21,1001.77,1086.56,998.82Z"/></g><path class="cls-4" d="M957.94,1078.27H770.4Q789,980,807.67,881.73H958.34Q958.15,980,957.94,1078.27Z"/><path class="cls-5" d="M961,1079H767.17l38.16-198h155.5Q960.94,980,961,1079Zm-187.41-1.45H954.85q.51-97.54,1-195.1H810Q791.83,980,773.62,1077.55Z"/><g class="cls-6"><path class="cls-5" d="M860.44,889.45c-1.55,1-3.18,1.95-4.6,2.92a15.15,15.15,0,0,0-3.32,2.9,2.46,2.46,0,0,0-.44,2.78,7.26,7.26,0,0,0,3.24,2.48,60.58,60.58,0,0,0,5.78,2.37l6.72,2.4c4.56,1.63,9.26,3.38,12.71,5.48a12,12,0,0,1,3.78,3.35,4.48,4.48,0,0,1,.65,3.52c-.58,2.33-3,4.55-6.45,6.59a71.72,71.72,0,0,1-13.19,5.54c-5.11,1.67-10.65,3.2-16.55,4.65,7.74-3.76,16.27-7.35,20.88-11.14,2.29-1.89,3.75-3.82,3.83-5.7a4.09,4.09,0,0,0-.88-2.75,9.82,9.82,0,0,0-3-2.58,76.55,76.55,0,0,0-10.89-5c-2.07-.84-4.22-1.69-6.23-2.6a37.84,37.84,0,0,1-5.55-2.91c-1.53-1.06-2.65-2.26-2.55-3.49s1.14-2.4,2.7-3.46C850.35,892.7,855.28,891,860.44,889.45Z"/><path class="cls-5" d="M920,932.18c-.45,1.16-1.78,2.3-3.46,3.39a56.63,56.63,0,0,1-5.81,3.15c-4.16,2-8.5,4-10.39,5.94s-1.47,4,.77,5.92,5.89,3.92,9.82,5.91a115.82,115.82,0,0,1,11.47,6.27c3.29,2.23,5.74,4.75,4.77,7.34-.45,1.28-1.79,2.54-3.67,3.67a48.51,48.51,0,0,1-6.68,3.16c-4.92,2-10.23,3.74-14.18,5.84a11.2,11.2,0,0,1,3.51-3.39c1.55-1.1,3.38-2.17,5.05-3.22a27.09,27.09,0,0,0,4.31-3.12,4.06,4.06,0,0,0,1.55-3c-.1-2-2.5-4-5.84-6-1.68-1-3.53-1.95-5.53-2.93l-6-3c-4-2-7.89-4.2-10.09-6.63a4.71,4.71,0,0,1-1.48-3.8c.16-1.31,1.21-2.61,3-3.82,3.55-2.42,9.34-4.28,14.69-6.06S916.49,934.31,920,932.18Z"/><path class="cls-5" d="M836.76,994.92c2.15.9,4.15,1.83,6.13,2.76s3.9,1.85,5.76,2.82c3.62,1.92,6.94,4,7.33,6.46.11,1.2-.52,2.49-2.45,3.67a31.69,31.69,0,0,1-7.4,3.18c-6,1.86-12.73,3.28-18.49,4.74-2.87.71-5.47,1.44-7.6,2.19a14.89,14.89,0,0,0-4.49,2.33,4.13,4.13,0,0,0-1.22,2.8,27.11,27.11,0,0,0-.11,3.12c.11,4.17,1.49,8.34,3.36,12.61-7.47-3.85-11.92-8-14.13-12.32a14.59,14.59,0,0,1-1.18-3.24,3.8,3.8,0,0,1,.66-3.56,16.58,16.58,0,0,1,6.07-3.54c2.82-1,6-1.92,9.22-2.74,6.49-1.6,13.06-3,18.22-4.4s8.44-3,9-4.82-1-3.86-3-5.87A60.92,60.92,0,0,1,836.76,994.92Z"/><path class="cls-5" d="M910.13,998.82c-2.11,3.16-4.65,6.28-5.54,9.39a7.3,7.3,0,0,0-.15,4.59,8.38,8.38,0,0,0,3.36,4.34,19.07,19.07,0,0,0,3.41,2,37.52,37.52,0,0,0,4.48,1.87c3.42,1.23,7.44,2.48,11,4s6.23,3.17,7.72,4.89a4.73,4.73,0,0,1,1,5.25c-.8,1.75-2.85,3.49-5.91,5.08a83,83,0,0,1-10.86,4.31c-7.88,2.64-16.13,5-20.79,7.68s-6.11,5.76-5.52,8.85c.41,3.1,2.76,6.22,4.67,9.37-5-2.94-9.18-6-11.59-9.17a7.1,7.1,0,0,1-1.51-4.92c.21-1.67,1.46-3.37,3.69-5a26,26,0,0,1,4-2.39c1.6-.76,3.32-1.5,5.15-2.2,3.59-1.42,7.51-2.72,11.06-4a72.74,72.74,0,0,0,9.25-3.87q3.65-1.95,4.61-4.06c1.36-2.8-.84-5.7-6.29-8.16-2.74-1.27-6.48-2.53-9.9-3.95a23.8,23.8,0,0,1-7.92-4.71c-3.4-3.34-2.15-6.75.44-9.92C900.92,1004.8,905.22,1001.77,910.13,998.82Z"/></g><path class="cls-4" d="M766.28,1078.27H578.74q37.47-98.26,75-196.54H804.36Q785.33,980,766.28,1078.27Z"/><path class="cls-5" d="M769.23,1079H575.37l76.12-198H807Q788.11,980,769.23,1079Zm-187.13-1.45H763.33q19.2-97.54,38.41-195.1H655.9Z"/><g class="cls-6"><path class="cls-5" d="M705,889.45c-1.74,1-3.56,1.95-5.16,2.92a20.46,20.46,0,0,0-3.88,2.9c-.88,1-1.31,1.91-1,2.78s1.32,1.68,2.76,2.48a49.47,49.47,0,0,0,5.33,2.37l6.26,2.4c4.25,1.63,8.61,3.38,11.66,5.48a9.05,9.05,0,0,1,3.14,3.35,4.32,4.32,0,0,1,0,3.52c-1,2.33-3.83,4.55-7.71,6.59a87.54,87.54,0,0,1-14.25,5.54c-5.44,1.67-11.27,3.2-17.44,4.65,8.45-3.76,17.67-7.35,23-11.14,2.65-1.89,4.49-3.82,4.93-5.7a3.65,3.65,0,0,0-.36-2.75,7.47,7.47,0,0,0-2.53-2.58c-2.38-1.69-6.09-3.31-9.93-5-1.91-.84-3.91-1.69-5.74-2.6a29.29,29.29,0,0,1-5-2.91c-1.32-1.06-2.22-2.26-1.88-3.49s1.6-2.4,3.36-3.46C694.26,892.7,699.52,891,705,889.45Z"/><path class="cls-5" d="M756.37,932.18a11.33,11.33,0,0,1-4.1,3.39c-1.88,1.09-4.16,2.13-6.42,3.15-4.55,2-9.25,4-11.53,5.94s-2.23,4-.37,5.92,5.15,3.92,8.69,5.91a90.33,90.33,0,0,1,10.27,6.27c2.87,2.23,4.83,4.75,3.36,7.34a10.65,10.65,0,0,1-4.37,3.67,60.19,60.19,0,0,1-7.28,3.16c-5.3,2-11,3.74-15.31,5.84a14.92,14.92,0,0,1,4.17-3.39c1.76-1.1,3.8-2.17,5.66-3.22a35,35,0,0,0,4.91-3.12,5.13,5.13,0,0,0,2.14-3c.28-2-1.73-4-4.7-6-1.49-1-3.16-1.95-5-2.93l-5.44-3c-3.56-2-7.09-4.2-8.82-6.63a4.06,4.06,0,0,1-.75-3.8c.41-1.31,1.71-2.61,3.68-3.82,4-2.42,10.16-4.28,15.85-6.06S752.43,934.31,756.37,932.18Z"/><path class="cls-5" d="M661.08,994.92c2,.9,3.8,1.83,5.6,2.76s3.55,1.85,5.22,2.82c3.25,1.92,6.17,4,6.09,6.46-.12,1.2-1,2.49-3.15,3.67a38.76,38.76,0,0,1-8,3.18c-6.3,1.86-13.35,3.28-19.39,4.74-3,.71-5.75,1.44-8,2.19a18.76,18.76,0,0,0-4.94,2.33,5.18,5.18,0,0,0-1.76,2.8,31.77,31.77,0,0,0-.7,3.12,31.17,31.17,0,0,0,.94,12.61c-6.73-3.85-10.38-8-11.76-12.32a12.26,12.26,0,0,1-.57-3.24,4.33,4.33,0,0,1,1.35-3.56,21,21,0,0,1,6.75-3.54c3-1,6.37-1.92,9.74-2.74,6.8-1.6,13.62-3,19.06-4.4s9-3,10-4.82-.21-3.86-1.83-5.87A46.06,46.06,0,0,1,661.08,994.92Z"/><path class="cls-5" d="M733.7,998.82c-2.72,3.16-5.86,6.28-7.34,9.39a7.8,7.8,0,0,0-1,4.59,6.52,6.52,0,0,0,2.52,4.34,15.23,15.23,0,0,0,3,2A30.69,30.69,0,0,0,735,1021c3.18,1.23,7,2.48,10.28,4s5.62,3.17,6.79,4.89a4.5,4.5,0,0,1,0,5.25c-1.13,1.75-3.51,3.49-6.88,5.08a100.47,100.47,0,0,1-11.68,4.31c-8.39,2.64-17.09,5-22.26,7.68s-7.22,5.76-7.22,8.85c-.19,3.1,1.56,6.22,2.87,9.37-4.41-2.94-8-6-9.84-9.17a6.39,6.39,0,0,1-.56-4.92c.53-1.67,2.1-3.37,4.65-5a33.85,33.85,0,0,1,4.5-2.39c1.75-.76,3.61-1.5,5.57-2.2,3.87-1.42,8-2.72,11.83-4a87.73,87.73,0,0,0,10-3.87q4-1.95,5.4-4.06c1.89-2.8.25-5.7-4.73-8.16-2.5-1.27-6-2.53-9.14-3.95a18.45,18.45,0,0,1-7-4.71c-2.76-3.34-.85-6.75,2.34-9.92C723.35,1004.8,728.22,1001.77,733.7,998.82Z"/></g><path class="cls-4" d="M574.61,1078.27H387.08L499.72,881.73H650.38Q612.51,980,574.61,1078.27Z"/><path class="cls-5" d="M577.43,1079H383.57L497.65,881h155.5Zm-186.85-1.45H571.8q37.92-97.54,75.82-195.1H501.79Z"/><g class="cls-6"><path class="cls-5" d="M549.52,889.45c-1.93,1-3.93,1.95-5.71,2.92a26.62,26.62,0,0,0-4.45,2.9c-1.05,1-1.67,1.91-1.5,2.78s1,1.68,2.29,2.48A39.73,39.73,0,0,0,545,902.9l5.8,2.4c3.94,1.63,8,3.38,10.61,5.48a6.84,6.84,0,0,1,2.5,3.35,4.55,4.55,0,0,1-.7,3.52c-1.47,2.33-4.71,4.55-9,6.59a105.71,105.71,0,0,1-15.31,5.54c-5.76,1.67-11.88,3.2-18.33,4.65,9.17-3.76,19.08-7.35,25.15-11.14,3-1.89,5.21-3.82,6-5.7a3.67,3.67,0,0,0,.17-2.75,5.74,5.74,0,0,0-2-2.58c-2-1.69-5.46-3.31-9-5-1.75-.84-3.58-1.69-5.23-2.6a22.07,22.07,0,0,1-4.43-2.91c-1.13-1.06-1.79-2.26-1.22-3.49s2.07-2.4,4-3.46C538.18,892.7,543.76,891,549.52,889.45Z"/><path class="cls-5" d="M592.72,932.18a14.87,14.87,0,0,1-4.75,3.39c-2.09,1.09-4.57,2.13-7,3.15-4.93,2-10,4-12.66,5.94s-3,4-1.5,5.92,4.38,3.92,7.55,5.91a68.72,68.72,0,0,1,9.06,6.27c2.45,2.23,3.92,4.75,2,7.34a14,14,0,0,1-5.08,3.67,73.18,73.18,0,0,1-7.89,3.16c-5.67,2-11.66,3.74-16.42,5.84a19.64,19.64,0,0,1,4.82-3.39c2-1.1,4.21-2.17,6.28-3.22a44.52,44.52,0,0,0,5.5-3.12,6.66,6.66,0,0,0,2.72-3c.68-2-1-4-3.55-6-1.3-1-2.78-1.95-4.4-2.93l-4.86-3c-3.17-2-6.29-4.2-7.55-6.63a3.87,3.87,0,0,1,0-3.8c.66-1.31,2.21-2.61,4.41-3.82,4.48-2.42,11-4.28,17-6.06S588.37,934.31,592.72,932.18Z"/><path class="cls-5" d="M485.4,994.92c1.8.9,3.45,1.83,5.07,2.76s3.19,1.85,4.68,2.82c2.88,1.92,5.4,4,4.85,6.46-.35,1.2-1.47,2.49-3.85,3.67a46.77,46.77,0,0,1-8.63,3.18c-6.65,1.86-14,3.28-20.3,4.74-3.14.71-6,1.44-8.44,2.19a23.54,23.54,0,0,0-5.39,2.33,6.8,6.8,0,0,0-2.29,2.8c-.48,1-.93,2.08-1.3,3.12a31.38,31.38,0,0,0-1.47,12.61c-6-3.85-8.84-8-9.41-12.32A11.73,11.73,0,0,1,439,1026a5.24,5.24,0,0,1,2-3.56,26.49,26.49,0,0,1,7.42-3.54c3.22-1,6.75-1.92,10.27-2.74,7.11-1.6,14.19-3,19.9-4.4s9.59-3,10.9-4.82.53-3.86-.71-5.87A35.6,35.6,0,0,1,485.4,994.92Z"/><path class="cls-5" d="M557.27,998.82c-3.32,3.16-7.06,6.28-9.14,9.39a9.21,9.21,0,0,0-1.91,4.59,5.32,5.32,0,0,0,1.69,4.34,11.72,11.72,0,0,0,2.66,2,24.34,24.34,0,0,0,3.76,1.87c2.95,1.23,6.49,2.48,9.52,4s5,3.17,5.85,4.89.47,3.49-1,5.25-4.19,3.49-7.85,5.08a120,120,0,0,1-12.52,4.31c-8.88,2.64-18,5-23.73,7.68s-8.32,5.76-8.91,8.85c-.78,3.1.37,6.22,1.07,9.37-3.85-2.94-6.89-6-8.08-9.17a6.31,6.31,0,0,1,.39-4.92c.85-1.67,2.75-3.37,5.61-5a42,42,0,0,1,5-2.39c1.89-.76,3.89-1.5,6-2.2,4.14-1.42,8.56-2.72,12.6-4a106.48,106.48,0,0,0,10.73-3.87,17,17,0,0,0,6.17-4.06c2.43-2.8,1.35-5.7-3.16-8.16-2.26-1.27-5.5-2.53-8.38-3.95s-5.12-3.06-6.12-4.71c-2.12-3.34.44-6.75,4.25-9.92A87.72,87.72,0,0,1,557.27,998.82Z"/></g><path class="cls-4" d="M383,1078.27H195.43L345.75,881.73H496.41Z"/><path class="cls-5" d="M385.63,1079H191.78l152-198H499.31Zm-186.56-1.45H380.29L493.5,882.45H347.68Z"/><g class="cls-6"><path class="cls-5" d="M394.07,889.45c-2.12,1-4.3,1.95-6.28,2.92a34.25,34.25,0,0,0-5,2.9c-1.25,1-2,1.91-2,2.78s.67,1.68,1.81,2.48A31.65,31.65,0,0,0,387,902.9l5.34,2.4c3.62,1.63,7.32,3.38,9.56,5.48a5.44,5.44,0,0,1,1.86,3.35,5.27,5.27,0,0,1-1.38,3.52c-1.92,2.33-5.58,4.55-10.24,6.59a127.11,127.11,0,0,1-16.38,5.54c-6.07,1.67-12.49,3.2-19.22,4.65,9.14-3.3,18.67-6.59,27.29-11.14,3.37-1.89,5.94-3.82,7.11-5.7a3.93,3.93,0,0,0,.7-2.75,4.39,4.39,0,0,0-1.55-2.58c-1.72-1.69-4.82-3.31-8-5-1.58-.84-3.25-1.69-4.73-2.6a17.16,17.16,0,0,1-3.88-2.91c-.92-1.06-1.35-2.26-.54-3.49s2.52-2.4,4.69-3.46C382.11,892.7,388,891,394.07,889.45Z"/><path class="cls-5" d="M429.08,932.18a19.53,19.53,0,0,1-5.41,3.39c-2.29,1.09-5,2.13-7.63,3.15-5.32,2-10.77,4-13.8,5.94s-3.74,4-2.64,5.92,3.64,3.92,6.43,5.91,5.81,4,7.85,6.27,3,4.75.55,7.34a18.18,18.18,0,0,1-5.78,3.67,88.77,88.77,0,0,1-8.49,3.16c-6.05,2-12.38,3.74-17.54,5.84a25.22,25.22,0,0,1,5.46-3.39c2.18-1.1,4.63-2.17,6.9-3.22a57,57,0,0,0,6.1-3.12,8.87,8.87,0,0,0,3.31-3c1.06-2-.2-4-2.42-6a41.53,41.53,0,0,0-3.83-2.93l-4.29-3c-2.77-2-5.48-4.2-6.27-6.63a4,4,0,0,1,.7-3.8,13.75,13.75,0,0,1,5.15-3.82c4.94-2.42,11.8-4.28,18.16-6.06S424.32,934.31,429.08,932.18Z"/><path class="cls-5" d="M309.73,994.92c1.63.9,3.09,1.83,4.54,2.76s2.84,1.85,4.14,2.82c2.51,1.92,4.62,4,3.61,6.46-.58,1.2-1.95,2.49-4.55,3.67a56.51,56.51,0,0,1-9.24,3.18c-7,1.86-14.62,3.28-21.21,4.74-3.28.71-6.3,1.44-8.86,2.19a28.94,28.94,0,0,0-5.84,2.33,9,9,0,0,0-2.82,2.8c-.69,1-1.33,2.08-1.9,3.12a35,35,0,0,0-3.89,12.61c-5.27-3.85-7.3-8-7-12.32a12.5,12.5,0,0,1,.68-3.24,6.8,6.8,0,0,1,2.71-3.56,33.08,33.08,0,0,1,8.1-3.54c3.42-1,7.12-1.92,10.8-2.74,7.41-1.6,14.75-3,20.75-4.4s10.15-3,11.81-4.82,1.27-3.86.42-5.87A28.82,28.82,0,0,1,309.73,994.92Z"/><path class="cls-5" d="M380.85,998.82c-3.93,3.16-8.26,6.28-10.94,9.39a11.51,11.51,0,0,0-2.79,4.59,4.58,4.58,0,0,0,.86,4.34,8.7,8.7,0,0,0,2.27,2,19.18,19.18,0,0,0,3.41,1.87c2.71,1.23,6,2.48,8.76,4s4.41,3.17,4.91,4.89-.2,3.49-2,5.25a28.19,28.19,0,0,1-8.83,5.08c-4,1.57-8.64,3-13.34,4.31-9.39,2.64-19,5-25.2,7.68s-9.43,5.76-10.62,8.85c-1.37,3.1-.82,6.22-.72,9.37-3.28-2.94-5.75-6-6.32-9.17a6.87,6.87,0,0,1,1.33-4.92c1.17-1.67,3.39-3.37,6.57-5a52.3,52.3,0,0,1,5.42-2.39c2-.76,4.18-1.5,6.41-2.2,4.41-1.42,9.08-2.72,13.37-4s8.29-2.56,11.48-3.87a21.92,21.92,0,0,0,6.94-4.06c3-2.8,2.44-5.7-1.59-8.16-2-1.27-5-2.53-7.63-3.95s-4.53-3.06-5.21-4.71c-1.48-3.34,1.74-6.75,6.15-9.92A112.26,112.26,0,0,1,380.85,998.82Z"/></g><path class="cls-4" d="M191.31,1078.27H3.79l188-196.54H342.44Z"/><path class="cls-5" d="M193.84,1079H0L190,881H345.48ZM7.57,1077.55H188.78l150.61-195.1H193.58Z"/><g class="cls-6"><path class="cls-5" d="M238.63,889.45c-2.31,1-4.68,1.95-6.84,2.92a43.38,43.38,0,0,0-5.56,2.9c-1.42,1-2.4,1.91-2.56,2.78s.35,1.68,1.33,2.48a24.44,24.44,0,0,0,4,2.37l4.87,2.4c3.32,1.63,6.67,3.38,8.52,5.48a4.41,4.41,0,0,1,1.21,3.35,6.57,6.57,0,0,1-2,3.52c-2.37,2.33-6.46,4.55-11.51,6.59a150,150,0,0,1-17.44,5.54c-6.39,1.67-13.1,3.2-20.11,4.65,9.86-3.43,20-6.61,29.42-11.14,3.74-1.89,6.68-3.82,8.21-5.7a4.63,4.63,0,0,0,1.22-2.75,3.57,3.57,0,0,0-1.05-2.58c-1.4-1.69-4.19-3.31-7.06-5-1.43-.84-2.93-1.69-4.24-2.6a12.76,12.76,0,0,1-3.31-2.91,2.64,2.64,0,0,1,.12-3.49c.94-1.23,3-2.4,5.35-3.46A117.5,117.5,0,0,1,238.63,889.45Z"/><path class="cls-5" d="M265.44,932.18a25.05,25.05,0,0,1-6.06,3.39c-2.5,1.09-5.38,2.13-8.23,3.15-5.71,2-11.53,4-14.94,5.94s-4.5,4-3.78,5.92,2.89,3.92,5.3,5.91,5,4,6.65,6.27,2.1,4.75-.86,7.34a23.54,23.54,0,0,1-6.48,3.67c-2.75,1.14-5.91,2.17-9.1,3.16-6.43,2-13.1,3.74-18.66,5.84a32.42,32.42,0,0,1,6.11-3.39c2.39-1.1,5.05-2.17,7.52-3.22a72,72,0,0,0,6.7-3.12,11.75,11.75,0,0,0,3.89-3c1.44-2,.57-4-1.27-6A32.21,32.21,0,0,0,229,961.1l-3.72-3c-2.38-2-4.67-4.2-5-6.63a4.61,4.61,0,0,1,1.43-3.8,18.17,18.17,0,0,1,5.88-3.82c5.4-2.42,12.62-4.28,19.33-6.06S260.27,934.31,265.44,932.18Z"/><path class="cls-5" d="M134.06,994.92c1.46.9,2.75,1.83,4,2.76s2.49,1.85,3.6,2.82c2.15,1.92,3.86,4,2.38,6.46-.81,1.2-2.43,2.49-5.26,3.67a67.27,67.27,0,0,1-9.85,3.18c-7.36,1.86-15.24,3.28-22.11,4.74-3.42.71-6.59,1.44-9.28,2.19a35.18,35.18,0,0,0-6.29,2.33,11.9,11.9,0,0,0-3.36,2.8c-.88,1-1.73,2.08-2.5,3.12a42.55,42.55,0,0,0-6.3,12.61c-4.53-3.85-5.76-8-4.68-12.32a14.12,14.12,0,0,1,1.29-3.24,8.86,8.86,0,0,1,3.4-3.56,40.39,40.39,0,0,1,8.78-3.54c3.61-1,7.48-1.92,11.32-2.74,7.72-1.6,15.32-3,21.58-4.4s10.73-3,12.75-4.82,2-3.86,1.54-5.87A25.19,25.19,0,0,1,134.06,994.92Z"/><path class="cls-5" d="M204.43,998.82c-4.53,3.16-9.46,6.28-12.73,9.39a14.86,14.86,0,0,0-3.68,4.59,4.39,4.39,0,0,0,0,4.34,6.59,6.59,0,0,0,1.89,2A15.38,15.38,0,0,0,193,1021c2.47,1.23,5.54,2.48,8,4s3.8,3.17,4,4.89-.88,3.49-3,5.25a35.94,35.94,0,0,1-9.81,5.08c-4.32,1.57-9.21,3-14.16,4.31-9.9,2.64-20,5-26.68,7.68S140.8,1057.92,139,1061c-2,3.1-2,6.22-2.51,9.37-2.72-2.94-4.61-6-4.57-9.17a8.21,8.21,0,0,1,2.28-4.92,24,24,0,0,1,7.53-5c1.68-.82,3.77-1.62,5.87-2.39s4.48-1.5,6.84-2.2c4.68-1.42,9.6-2.72,14.14-4s8.78-2.56,12.22-3.87a28.11,28.11,0,0,0,7.72-4.06c3.51-2.8,3.53-5.7,0-8.16-1.77-1.27-4.53-2.53-6.86-3.95s-4-3.06-4.31-4.71c-.84-3.34,3-6.75,8-9.92A141.76,141.76,0,0,1,204.43,998.82Z"/></g><rect class="cls-7" x="190" y="-2" width="1540" height="883"/><rect class="cls-8" x="190" y="603.96" width="1540" height="55.19"/><rect class="cls-8" x="190" y="825.81" width="1540" height="55.19"/><rect class="cls-8" x="190" y="715.44" width="1540" height="55.19"/><rect class="cls-8" x="190" y="488.07" width="1540" height="55.19"/><polygon class="cls-8" points="190 826 190 881 0 1079 0 1023.6 0 1015.37 190 826"/><polygon class="cls-8" points="190 715 190 771 0 939.88 0 868.25 190 715"/><polygon class="cls-8" points="190 604 190 659 0 794.66 0 724.01 190 604"/><polygon class="cls-8" points="190 488 190 543 0 647.42 0 585.77 190 488"/><polygon class="cls-8" points="1730 488 1730 543 1920 647.42 1920 585.77 1730 488"/><polygon class="cls-8" points="1730 604 1730 659 1920 794.66 1920 724.01 1730 604"/><polygon class="cls-8" points="1730 715 1730 771 1920 939.88 1920 868.25 1730 715"/><polygon class="cls-8" points="1730 826 1730 881 1920 1079 1920 1023.6 1920 1015.37 1730 826"/><rect class="cls-9" x="1347.25" y="447.97" width="2.57" height="69.48"/><rect class="cls-9" x="1212.53" y="447.97" width="2.57" height="69.48"/><rect x="1314.32" y="442.73" width="314.61" height="438.27"/><path class="cls-10" d="M1364.56,864.35a63.94,63.94,0,0,0-13.75,1.4,28.48,28.48,0,0,0-11.77-2.18h-3.19a175.56,175.56,0,0,1-19.21-1.07v5.15h74.5C1382.53,865.93,1373.67,864.35,1364.56,864.35Z"/><path class="cls-10" d="M1359.31,670.59l14.77,3.41a64.31,64.31,0,0,0,3.79-8.83q2.14,5,4.58,10c4.11,8.3,9.88,13,17.15,14l10.35,1.41,3-10a73.24,73.24,0,0,0,2.78-14.26l22.66,23.78,6-20.25q3.42-11.56,5.74-23.33c1.84,8.26,3.43,23.32-4.87,35.84-1.67,2.53-6.12,9.23-2.81,17.17,2.56,6.14,8.43,9.81,15.71,9.81a26.22,26.22,0,0,0,12.73-3.5c19.71-11.44,30.77-34.3,29.41-60.27,1,1.63,1.87,3.27,2.66,4.93l6.89,14.47L1522,654.46a34,34,0,0,0,6.59-7.65,15,15,0,0,0,3,6.42,15.84,15.84,0,0,0,12.57,5.91,18.08,18.08,0,0,0,14.66-7.41,17,17,0,0,0,1.15-1.86,287.32,287.32,0,0,0,17,32.19l14.79,24.23,7.44-27.4c.42-1.55.84-3.12,1.25-4.71a113.67,113.67,0,0,0,15.2,20,173.43,173.43,0,0,1,15.65,19.06V693.32c-2.18-2.57-4.43-5.09-6.78-7.57-13.45-14.15-22.29-31.51-25.28-49.61-2.62-15.9.74-34.59,16.35-43.35-6.22-5.12-17.4-.69-20.78,6.13s-1.69,14.6-.87,22c2,18.36-1.66,36.83-6.54,54.79a266.21,266.21,0,0,1-34.81-90.19c-8.24,4.17-8.12,14.29-7,22.47q2.07,14.5,4.12,29c.37,2.61.69,5.46-.9,7.71s-5.91,3.15-7.63,1c-1.13-1.43-.62-3.35-.21-5,6.94-28.63-26.55-56-19.65-84.64.65-2.68,1.73-5.41,4.07-7.25,2.58-2,6.23-2.64,9.68-3.12,12.21-1.68,24.53-2.75,36.88-3.21-7.56-5.44-18.4-5.55-28.22-4.89-14.78,1-31.25,4.08-39.19,14.86-6.84,9.28-5,21.52-.41,31.76s11.83,19.58,15.59,30.09,3.32,23.2-5.7,31c-6.28-13.19-17.23-24.26-25.68-36.51s-14.49-27.06-9.56-40.67c-6.22,3.4-6.21,11.14-5,17.39,3.78,19.32,12.13,37.94,14.06,57.46s-4.23,41.4-23.09,52.35c-3.53,2-9.58,3-11-.45-.79-1.91.55-3.94,1.72-5.7,9.08-13.71,10-30.53,6.45-46s-11.43-30-19.19-44.24a242.38,242.38,0,0,1-10,67.49l-27.23-28.58c-4.46-4.67-9.14-9.87-9.21-15.92-2.44.89-1.59,4-.45,6.09a63.61,63.61,0,0,1,5.46,49.1c-4-.55-6.26-4.12-7.84-7.31a175.07,175.07,0,0,1-17-56.45c12.91,5.88,29.72,3.25,40.89-4.85a43.4,43.4,0,0,0,17.43-32.27c-.76,3.55-6.73,5.45-10.82,3.81-4.51-1.8-7-6-9.06-9.86l-16.12-29.66a42.61,42.61,0,0,1-6.55,42.43,15.34,15.34,0,0,1-6.44,5.23c-2.74,1-6.38.66-8.12-1.43-1.42-1.71-1.25-4-.72-6.09a14.94,14.94,0,0,1,6.57-9.39c3.59-2.12,8.92-2.27,12,.36-2.66-5.25-8.7-9.11-15.31-9.77s-13.51,1.93-17.47,6.53c-6.49,7.52-4.44,18-1.94,27.15,6.63,24.12,14.21,50.29,2.46,72.92-.59-23-11.53-45.65-30-62.22,9.36,17,17.48,35.4,15.61,54.16-1.69,17.06-13.85,34.31-32.19,39.88v12.65C1339.34,707.6,1354.23,689.24,1359.31,670.59Zm23.32-69.73a21.43,21.43,0,0,0,7.39-1.32,27.36,27.36,0,0,0,11.74-9.08,56.71,56.71,0,0,0,5.79-8.87,27.35,27.35,0,0,0,10.08,8.92,29.46,29.46,0,0,1-7.51,8,32.07,32.07,0,0,1-18.26,5.71,25.29,25.29,0,0,1-10.37-2.08l-4.46-2A20.25,20.25,0,0,0,1382.63,600.86Z"/><path class="cls-10" d="M1367.1,684.93l8.08,1.87c7.13,10.18,16.06,13.52,22.77,14.43l20.7,2.82,3.89-12.92,6.9,7.24a27.93,27.93,0,0,0,1.73,5.81c4.46,10.69,14.81,17.34,27,17.34a38.1,38.1,0,0,0,18.86-5.16,69.71,69.71,0,0,0,28.46-32.18l.21.45L1527.35,666a28.4,28.4,0,0,0,16.79,5.38,30.65,30.65,0,0,0,11.5-2.27q5.05,9.84,10.85,19.34l29.6,48.46,9.61-35.41,1,1.12a176.84,176.84,0,0,1,24.51,33.23V713.24a173.43,173.43,0,0,0-15.65-19.06,113.67,113.67,0,0,1-15.2-20c-.41,1.59-.83,3.16-1.25,4.71l-7.44,27.4-14.79-24.23a287.32,287.32,0,0,1-17-32.19,17,17,0,0,1-1.15,1.86,18.08,18.08,0,0,1-14.66,7.41,15.84,15.84,0,0,1-12.57-5.91,15,15,0,0,1-3-6.42,34,34,0,0,1-6.59,7.65l-12.13,10.46L1503,650.45c-.79-1.66-1.69-3.3-2.66-4.93,1.36,26-9.7,48.83-29.41,60.27a26.22,26.22,0,0,1-12.73,3.5c-7.28,0-13.15-3.67-15.71-9.81-3.31-7.94,1.14-14.64,2.81-17.17,8.3-12.52,6.71-27.58,4.87-35.84q-2.31,11.76-5.74,23.33l-6,20.25-22.66-23.78a73.24,73.24,0,0,1-2.78,14.26l-3,10-10.35-1.41c-7.27-1-13-5.7-17.15-14q-2.43-4.92-4.58-10a64.31,64.31,0,0,1-3.79,8.83l-14.77-3.41c-5.08,18.65-20,37-42.67,42.24v12.49C1338.84,721.13,1357.6,705.89,1367.1,684.93Z"/><path class="cls-11" d="M1367.1,684.93l8.08,1.87c7.13,10.18,16.06,13.52,22.77,14.43l20.7,2.82,3.89-12.92,6.9,7.24a27.93,27.93,0,0,0,1.73,5.81c4.46,10.69,14.81,17.34,27,17.34a38.1,38.1,0,0,0,18.86-5.16,69.71,69.71,0,0,0,28.46-32.18l.21.45L1527.35,666a28.4,28.4,0,0,0,16.79,5.38,30.65,30.65,0,0,0,11.5-2.27q5.05,9.84,10.85,19.34l29.6,48.46,9.61-35.41,1,1.12a176.84,176.84,0,0,1,24.51,33.23V713.24a173.43,173.43,0,0,0-15.65-19.06,113.67,113.67,0,0,1-15.2-20c-.41,1.59-.83,3.16-1.25,4.71l-7.44,27.4-14.79-24.23a287.32,287.32,0,0,1-17-32.19,17,17,0,0,1-1.15,1.86,18.08,18.08,0,0,1-14.66,7.41,15.84,15.84,0,0,1-12.57-5.91,15,15,0,0,1-3-6.42,34,34,0,0,1-6.59,7.65l-12.13,10.46L1503,650.45c-.79-1.66-1.69-3.3-2.66-4.93,1.36,26-9.7,48.83-29.41,60.27a26.22,26.22,0,0,1-12.73,3.5c-7.28,0-13.15-3.67-15.71-9.81-3.31-7.94,1.14-14.64,2.81-17.17,8.3-12.52,6.71-27.58,4.87-35.84q-2.31,11.76-5.74,23.33l-6,20.25-22.66-23.78a73.24,73.24,0,0,1-2.78,14.26l-3,10-10.35-1.41c-7.27-1-13-5.7-17.15-14q-2.43-4.92-4.58-10a64.31,64.31,0,0,1-3.79,8.83l-14.77-3.41c-5.08,18.65-20,37-42.67,42.24v12.49C1338.84,721.13,1357.6,705.89,1367.1,684.93Z"/><path class="cls-10" d="M1338.3,863.58h.74a28.48,28.48,0,0,1,11.77,2.18,63.94,63.94,0,0,1,13.75-1.4c9.11,0,18,1.58,26.58,3.32h240.12V861.5c-9.17,1.56-19.53,2.2-30.2,2.69-27.36,1.25-58.37,2.67-88.09,2.67-44.25,0-80-3.09-112.44-9.74l-2.84-.58c-10.48-2.17-21.32-4.41-33.13-4.41a78.6,78.6,0,0,0-12.72,1,44,44,0,0,0-12.8-1.76h-.94l-2.25,0a161.85,161.85,0,0,1-19.21-1.15v12.3a175.56,175.56,0,0,0,19.21,1.07Z"/><path class="cls-11" d="M1338.3,863.58h.74a28.48,28.48,0,0,1,11.77,2.18,63.94,63.94,0,0,1,13.75-1.4c9.11,0,18,1.58,26.58,3.32h240.12V861.5c-9.17,1.56-19.53,2.2-30.2,2.69-27.36,1.25-58.37,2.67-88.09,2.67-44.25,0-80-3.09-112.44-9.74l-2.84-.58c-10.48-2.17-21.32-4.41-33.13-4.41a78.6,78.6,0,0,0-12.72,1,44,44,0,0,0-12.8-1.76h-.94l-2.25,0a161.85,161.85,0,0,1-19.21-1.15v12.3a175.56,175.56,0,0,0,19.21,1.07Z"/><path class="cls-10" d="M1391.86,604.21a32.07,32.07,0,0,0,18.26-5.71,29.46,29.46,0,0,0,7.51-8,27.35,27.35,0,0,1-10.08-8.92,56.71,56.71,0,0,1-5.79,8.87,27.36,27.36,0,0,1-11.74,9.08,21.43,21.43,0,0,1-7.39,1.32,20.25,20.25,0,0,1-5.6-.77l4.46,2A25.29,25.29,0,0,0,1391.86,604.21Z"/><path class="cls-11" d="M1391.86,604.21a32.07,32.07,0,0,0,18.26-5.71,29.46,29.46,0,0,0,7.51-8,27.35,27.35,0,0,1-10.08-8.92,56.71,56.71,0,0,1-5.79,8.87,27.36,27.36,0,0,1-11.74,9.08,21.43,21.43,0,0,1-7.39,1.32,20.25,20.25,0,0,1-5.6-.77l4.46,2A25.29,25.29,0,0,0,1391.86,604.21Z"/><path class="cls-10" d="M1372.62,707.65a47.86,47.86,0,0,0,23.13,9.74l26.57,3.62c8.38,10.58,21.29,16.81,35.85,16.81a54.64,54.64,0,0,0,27-7.36,85.11,85.11,0,0,0,33-35l11.66-10a45.11,45.11,0,0,0,14.32,2.29c1,0,2,0,2.95-.09q2.67,4.74,5.49,9.36l49.32,80.76,11-40.61a247.62,247.62,0,0,1,18.33,35.36V735.83a176.84,176.84,0,0,0-24.51-33.23l-1-1.12-9.61,35.41-29.6-48.46q-5.77-9.48-10.85-19.34a30.65,30.65,0,0,1-11.5,2.27,28.4,28.4,0,0,1-16.79-5.38l-21.65,18.65-.21-.45A69.71,69.71,0,0,1,1477,716.36a38.1,38.1,0,0,1-18.86,5.16c-12.19,0-22.54-6.65-27-17.34a27.93,27.93,0,0,1-1.73-5.81l-6.9-7.24-3.89,12.92-20.7-2.82c-6.71-.91-15.64-4.25-22.77-14.43l-8.08-1.87c-9.5,21-28.26,36.2-50.46,40.39v19.83a18.37,18.37,0,0,1,2-3.62A85.17,85.17,0,0,0,1372.62,707.65Z"/><path class="cls-11" d="M1372.62,707.65a47.86,47.86,0,0,0,23.13,9.74l26.57,3.62c8.38,10.58,21.29,16.81,35.85,16.81a54.64,54.64,0,0,0,27-7.36,85.11,85.11,0,0,0,33-35l11.66-10a45.11,45.11,0,0,0,14.32,2.29c1,0,2,0,2.95-.09q2.67,4.74,5.49,9.36l49.32,80.76,11-40.61a247.62,247.62,0,0,1,18.33,35.36V735.83a176.84,176.84,0,0,0-24.51-33.23l-1-1.12-9.61,35.41-29.6-48.46q-5.77-9.48-10.85-19.34a30.65,30.65,0,0,1-11.5,2.27,28.4,28.4,0,0,1-16.79-5.38l-21.65,18.65-.21-.45A69.71,69.71,0,0,1,1477,716.36a38.1,38.1,0,0,1-18.86,5.16c-12.19,0-22.54-6.65-27-17.34a27.93,27.93,0,0,1-1.73-5.81l-6.9-7.24-3.89,12.92-20.7-2.82c-6.71-.91-15.64-4.25-22.77-14.43l-8.08-1.87c-9.5,21-28.26,36.2-50.46,40.39v19.83a18.37,18.37,0,0,1,2-3.62A85.17,85.17,0,0,0,1372.62,707.65Z"/><path class="cls-12" d="M1372.62,707.65a47.86,47.86,0,0,0,23.13,9.74l26.57,3.62c8.38,10.58,21.29,16.81,35.85,16.81a54.64,54.64,0,0,0,27-7.36,85.11,85.11,0,0,0,33-35l11.66-10a45.11,45.11,0,0,0,14.32,2.29c1,0,2,0,2.95-.09q2.67,4.74,5.49,9.36l49.32,80.76,11-40.61a247.62,247.62,0,0,1,18.33,35.36V735.83a176.84,176.84,0,0,0-24.51-33.23l-1-1.12-9.61,35.41-29.6-48.46q-5.77-9.48-10.85-19.34a30.65,30.65,0,0,1-11.5,2.27,28.4,28.4,0,0,1-16.79-5.38l-21.65,18.65-.21-.45A69.71,69.71,0,0,1,1477,716.36a38.1,38.1,0,0,1-18.86,5.16c-12.19,0-22.54-6.65-27-17.34a27.93,27.93,0,0,1-1.73-5.81l-6.9-7.24-3.89,12.92-20.7-2.82c-6.71-.91-15.64-4.25-22.77-14.43l-8.08-1.87c-9.5,21-28.26,36.2-50.46,40.39v19.83a18.37,18.37,0,0,1,2-3.62A85.17,85.17,0,0,0,1372.62,707.65Z"/><path class="cls-10" d="M1338.1,851.35h.94a44,44,0,0,1,12.8,1.76,78.6,78.6,0,0,1,12.72-1c11.81,0,22.65,2.24,33.13,4.41l2.84.58c32.46,6.65,68.19,9.74,112.44,9.74,29.72,0,60.73-1.42,88.09-2.67,10.67-.49,21-1.13,30.2-2.69V844.9c-10.23,2.06-22.78,2.63-31,3-27.2,1.24-58,2.65-87.34,2.65-43.13,0-77.82-3-109.17-9.41l-2.82-.58c-10.75-2.22-22.94-4.75-36.42-4.75a97.13,97.13,0,0,0-11.77.69A62.8,62.8,0,0,0,1339,835h-1.19l-2,0a146.3,146.3,0,0,1-19.21-1.28v16.43a161.85,161.85,0,0,0,19.21,1.15Z"/><path class="cls-11" d="M1338.1,851.35h.94a44,44,0,0,1,12.8,1.76,78.6,78.6,0,0,1,12.72-1c11.81,0,22.65,2.24,33.13,4.41l2.84.58c32.46,6.65,68.19,9.74,112.44,9.74,29.72,0,60.73-1.42,88.09-2.67,10.67-.49,21-1.13,30.2-2.69V844.9c-10.23,2.06-22.78,2.63-31,3-27.2,1.24-58,2.65-87.34,2.65-43.13,0-77.82-3-109.17-9.41l-2.82-.58c-10.75-2.22-22.94-4.75-36.42-4.75a97.13,97.13,0,0,0-11.77.69A62.8,62.8,0,0,0,1339,835h-1.19l-2,0a146.3,146.3,0,0,1-19.21-1.28v16.43a161.85,161.85,0,0,0,19.21,1.15Z"/><path class="cls-12" d="M1338.1,851.35h.94a44,44,0,0,1,12.8,1.76,78.6,78.6,0,0,1,12.72-1c11.81,0,22.65,2.24,33.13,4.41l2.84.58c32.46,6.65,68.19,9.74,112.44,9.74,29.72,0,60.73-1.42,88.09-2.67,10.67-.49,21-1.13,30.2-2.69V844.9c-10.23,2.06-22.78,2.63-31,3-27.2,1.24-58,2.65-87.34,2.65-43.13,0-77.82-3-109.17-9.41l-2.82-.58c-10.75-2.22-22.94-4.75-36.42-4.75a97.13,97.13,0,0,0-11.77.69A62.8,62.8,0,0,0,1339,835h-1.19l-2,0a146.3,146.3,0,0,1-19.21-1.28v16.43a161.85,161.85,0,0,0,19.21,1.15Z"/><path class="cls-10" d="M1324.55,775.3c2.47-10,4.29-16,5.5-19.61a100.76,100.76,0,0,0,46.12-27.06,64.59,64.59,0,0,0,17.39,4.91l20.64,2.81a61.86,61.86,0,0,0,44,17.77,71.33,71.33,0,0,0,35.23-9.56,101.39,101.39,0,0,0,37.7-38.78l3-2.61c1.14.18,2.29.33,3.44.45.36.61.73,1.21,1.09,1.8l69,113.07,9.9-36.49c3.54,8.45,6.67,16.8,9.54,24.67,1,2.75,2.79,7.61,4.1,12.47v-46.7a247.62,247.62,0,0,0-18.33-35.36l-11,40.61-49.32-80.76q-2.82-4.62-5.49-9.36c-1,.06-2,.09-2.95.09a45.11,45.11,0,0,1-14.32-2.29l-11.66,10a85.11,85.11,0,0,1-33,35,54.64,54.64,0,0,1-27,7.36c-14.56,0-27.47-6.23-35.85-16.81l-26.57-3.62a47.86,47.86,0,0,1-23.13-9.74,85.17,85.17,0,0,1-54,33.88,18.37,18.37,0,0,0-2,3.62V805.9c1.37-5.7,3-11.67,4.66-17.9C1322.47,783.71,1323.48,779.62,1324.55,775.3Z"/><path class="cls-11" d="M1324.55,775.3c2.47-10,4.29-16,5.5-19.61a100.76,100.76,0,0,0,46.12-27.06,64.59,64.59,0,0,0,17.39,4.91l20.64,2.81a61.86,61.86,0,0,0,44,17.77,71.33,71.33,0,0,0,35.23-9.56,101.39,101.39,0,0,0,37.7-38.78l3-2.61c1.14.18,2.29.33,3.44.45.36.61.73,1.21,1.09,1.8l69,113.07,9.9-36.49c3.54,8.45,6.67,16.8,9.54,24.67,1,2.75,2.79,7.61,4.1,12.47v-46.7a247.62,247.62,0,0,0-18.33-35.36l-11,40.61-49.32-80.76q-2.82-4.62-5.49-9.36c-1,.06-2,.09-2.95.09a45.11,45.11,0,0,1-14.32-2.29l-11.66,10a85.11,85.11,0,0,1-33,35,54.64,54.64,0,0,1-27,7.36c-14.56,0-27.47-6.23-35.85-16.81l-26.57-3.62a47.86,47.86,0,0,1-23.13-9.74,85.17,85.17,0,0,1-54,33.88,18.37,18.37,0,0,0-2,3.62V805.9c1.37-5.7,3-11.67,4.66-17.9C1322.47,783.71,1323.48,779.62,1324.55,775.3Z"/><path class="cls-12" d="M1324.55,775.3c2.47-10,4.29-16,5.5-19.61a100.76,100.76,0,0,0,46.12-27.06,64.59,64.59,0,0,0,17.39,4.91l20.64,2.81a61.86,61.86,0,0,0,44,17.77,71.33,71.33,0,0,0,35.23-9.56,101.39,101.39,0,0,0,37.7-38.78l3-2.61c1.14.18,2.29.33,3.44.45.36.61.73,1.21,1.09,1.8l69,113.07,9.9-36.49c3.54,8.45,6.67,16.8,9.54,24.67,1,2.75,2.79,7.61,4.1,12.47v-46.7a247.62,247.62,0,0,0-18.33-35.36l-11,40.61-49.32-80.76q-2.82-4.62-5.49-9.36c-1,.06-2,.09-2.95.09a45.11,45.11,0,0,1-14.32-2.29l-11.66,10a85.11,85.11,0,0,1-33,35,54.64,54.64,0,0,1-27,7.36c-14.56,0-27.47-6.23-35.85-16.81l-26.57-3.62a47.86,47.86,0,0,1-23.13-9.74,85.17,85.17,0,0,1-54,33.88,18.37,18.37,0,0,0-2,3.62V805.9c1.37-5.7,3-11.67,4.66-17.9C1322.47,783.71,1323.48,779.62,1324.55,775.3Z"/><path class="cls-13" d="M1324.55,775.3c2.47-10,4.29-16,5.5-19.61a100.76,100.76,0,0,0,46.12-27.06,64.59,64.59,0,0,0,17.39,4.91l20.64,2.81a61.86,61.86,0,0,0,44,17.77,71.33,71.33,0,0,0,35.23-9.56,101.39,101.39,0,0,0,37.7-38.78l3-2.61c1.14.18,2.29.33,3.44.45.36.61.73,1.21,1.09,1.8l69,113.07,9.9-36.49c3.54,8.45,6.67,16.8,9.54,24.67,1,2.75,2.79,7.61,4.1,12.47v-46.7a247.62,247.62,0,0,0-18.33-35.36l-11,40.61-49.32-80.76q-2.82-4.62-5.49-9.36c-1,.06-2,.09-2.95.09a45.11,45.11,0,0,1-14.32-2.29l-11.66,10a85.11,85.11,0,0,1-33,35,54.64,54.64,0,0,1-27,7.36c-14.56,0-27.47-6.23-35.85-16.81l-26.57-3.62a47.86,47.86,0,0,1-23.13-9.74,85.17,85.17,0,0,1-54,33.88,18.37,18.37,0,0,0-2,3.62V805.9c1.37-5.7,3-11.67,4.66-17.9C1322.47,783.71,1323.48,779.62,1324.55,775.3Z"/><path class="cls-10" d="M1337.85,835.05H1339a62.8,62.8,0,0,1,13.75,1.47,97.13,97.13,0,0,1,11.77-.69c13.48,0,25.67,2.53,36.42,4.75l2.82.58c31.35,6.42,66,9.41,109.17,9.41,29.34,0,60.14-1.41,87.34-2.65,8.17-.38,20.72-.95,31-3V828.18a77.68,77.68,0,0,1-10,1.83c-7.6,1-15.75,1.34-21.71,1.61-27,1.24-57.61,2.64-86.6,2.64-42,0-75.65-2.89-105.91-9.08l-2.79-.57c-10.94-2.27-24.56-5.09-39.71-5.09-3.81,0-7.44.17-11,.51a80.83,80.83,0,0,0-14.51-1.29h-1.43l-1.76,0a129.42,129.42,0,0,1-19.21-1.43v16.45a146.3,146.3,0,0,0,19.21,1.28Z"/><path class="cls-11" d="M1337.85,835.05H1339a62.8,62.8,0,0,1,13.75,1.47,97.13,97.13,0,0,1,11.77-.69c13.48,0,25.67,2.53,36.42,4.75l2.82.58c31.35,6.42,66,9.41,109.17,9.41,29.34,0,60.14-1.41,87.34-2.65,8.17-.38,20.72-.95,31-3V828.18a77.68,77.68,0,0,1-10,1.83c-7.6,1-15.75,1.34-21.71,1.61-27,1.24-57.61,2.64-86.6,2.64-42,0-75.65-2.89-105.91-9.08l-2.79-.57c-10.94-2.27-24.56-5.09-39.71-5.09-3.81,0-7.44.17-11,.51a80.83,80.83,0,0,0-14.51-1.29h-1.43l-1.76,0a129.42,129.42,0,0,1-19.21-1.43v16.45a146.3,146.3,0,0,0,19.21,1.28Z"/><path class="cls-12" d="M1337.85,835.05H1339a62.8,62.8,0,0,1,13.75,1.47,97.13,97.13,0,0,1,11.77-.69c13.48,0,25.67,2.53,36.42,4.75l2.82.58c31.35,6.42,66,9.41,109.17,9.41,29.34,0,60.14-1.41,87.34-2.65,8.17-.38,20.72-.95,31-3V828.18a77.68,77.68,0,0,1-10,1.83c-7.6,1-15.75,1.34-21.71,1.61-27,1.24-57.61,2.64-86.6,2.64-42,0-75.65-2.89-105.91-9.08l-2.79-.57c-10.94-2.27-24.56-5.09-39.71-5.09-3.81,0-7.44.17-11,.51a80.83,80.83,0,0,0-14.51-1.29h-1.43l-1.76,0a129.42,129.42,0,0,1-19.21-1.43v16.45a146.3,146.3,0,0,0,19.21,1.28Z"/><path class="cls-13" d="M1337.85,835.05H1339a62.8,62.8,0,0,1,13.75,1.47,97.13,97.13,0,0,1,11.77-.69c13.48,0,25.67,2.53,36.42,4.75l2.82.58c31.35,6.42,66,9.41,109.17,9.41,29.34,0,60.14-1.41,87.34-2.65,8.17-.38,20.72-.95,31-3V828.18a77.68,77.68,0,0,1-10,1.83c-7.6,1-15.75,1.34-21.71,1.61-27,1.24-57.61,2.64-86.6,2.64-42,0-75.65-2.89-105.91-9.08l-2.79-.57c-10.94-2.27-24.56-5.09-39.71-5.09-3.81,0-7.44.17-11,.51a80.83,80.83,0,0,0-14.51-1.29h-1.43l-1.76,0a129.42,129.42,0,0,1-19.21-1.43v16.45a146.3,146.3,0,0,0,19.21,1.28Z"/><path class="cls-10" d="M1337.61,818.75H1339a80.83,80.83,0,0,1,14.51,1.29c3.57-.34,7.2-.51,11-.51,15.15,0,28.77,2.82,39.71,5.09l2.79.57c30.26,6.19,63.91,9.08,105.91,9.08,29,0,59.59-1.4,86.6-2.64,6-.27,14.11-.64,21.71-1.61a77.68,77.68,0,0,0,10-1.83v-9c-1.31-4.86-3.09-9.72-4.1-12.47-2.87-7.87-6-16.22-9.54-24.67l-9.9,36.49-69-113.07c-.36-.59-.73-1.19-1.09-1.8-1.15-.12-2.3-.27-3.44-.45l-3,2.61a101.39,101.39,0,0,1-37.7,38.78,71.33,71.33,0,0,1-35.23,9.56,61.86,61.86,0,0,1-44-17.77l-20.64-2.81a64.59,64.59,0,0,1-17.39-4.91,100.76,100.76,0,0,1-46.12,27.06c-1.21,3.57-3,9.62-5.5,19.61-1.07,4.32-2.08,8.41-3.25,12.7-1.7,6.23-3.29,12.2-4.66,17.9v11.44a129.42,129.42,0,0,0,19.21,1.43Z"/><path class="cls-14" d="M1337.61,818.75H1339a80.83,80.83,0,0,1,14.51,1.29c3.57-.34,7.2-.51,11-.51,15.15,0,28.77,2.82,39.71,5.09l2.79.57c30.26,6.19,63.91,9.08,105.91,9.08,29,0,59.59-1.4,86.6-2.64,6-.27,14.11-.64,21.71-1.61a77.68,77.68,0,0,0,10-1.83v-9c-1.31-4.86-3.09-9.72-4.1-12.47-2.87-7.87-6-16.22-9.54-24.67l-9.9,36.49-69-113.07c-.36-.59-.73-1.19-1.09-1.8-1.15-.12-2.3-.27-3.44-.45l-3,2.61a101.39,101.39,0,0,1-37.7,38.78,71.33,71.33,0,0,1-35.23,9.56,61.86,61.86,0,0,1-44-17.77l-20.64-2.81a64.59,64.59,0,0,1-17.39-4.91,100.76,100.76,0,0,1-46.12,27.06c-1.21,3.57-3,9.62-5.5,19.61-1.07,4.32-2.08,8.41-3.25,12.7-1.7,6.23-3.29,12.2-4.66,17.9v11.44a129.42,129.42,0,0,0,19.21,1.43Z"/><path class="cls-15" d="M1337.61,818.75H1339a80.83,80.83,0,0,1,14.51,1.29c3.57-.34,7.2-.51,11-.51,15.15,0,28.77,2.82,39.71,5.09l2.79.57c30.26,6.19,63.91,9.08,105.91,9.08,29,0,59.59-1.4,86.6-2.64,6-.27,14.11-.64,21.71-1.61a77.68,77.68,0,0,0,10-1.83v-9c-1.31-4.86-3.09-9.72-4.1-12.47-2.87-7.87-6-16.22-9.54-24.67l-9.9,36.49-69-113.07c-.36-.59-.73-1.19-1.09-1.8-1.15-.12-2.3-.27-3.44-.45l-3,2.61a101.39,101.39,0,0,1-37.7,38.78,71.33,71.33,0,0,1-35.23,9.56,61.86,61.86,0,0,1-44-17.77l-20.64-2.81a64.59,64.59,0,0,1-17.39-4.91,100.76,100.76,0,0,1-46.12,27.06c-1.21,3.57-3,9.62-5.5,19.61-1.07,4.32-2.08,8.41-3.25,12.7-1.7,6.23-3.29,12.2-4.66,17.9v11.44a129.42,129.42,0,0,0,19.21,1.43Z"/><path class="cls-16" d="M1337.61,818.75H1339a80.83,80.83,0,0,1,14.51,1.29c3.57-.34,7.2-.51,11-.51,15.15,0,28.77,2.82,39.71,5.09l2.79.57c30.26,6.19,63.91,9.08,105.91,9.08,29,0,59.59-1.4,86.6-2.64,6-.27,14.11-.64,21.71-1.61a77.68,77.68,0,0,0,10-1.83v-9c-1.31-4.86-3.09-9.72-4.1-12.47-2.87-7.87-6-16.22-9.54-24.67l-9.9,36.49-69-113.07c-.36-.59-.73-1.19-1.09-1.8-1.15-.12-2.3-.27-3.44-.45l-3,2.61a101.39,101.39,0,0,1-37.7,38.78,71.33,71.33,0,0,1-35.23,9.56,61.86,61.86,0,0,1-44-17.77l-20.64-2.81a64.59,64.59,0,0,1-17.39-4.91,100.76,100.76,0,0,1-46.12,27.06c-1.21,3.57-3,9.62-5.5,19.61-1.07,4.32-2.08,8.41-3.25,12.7-1.7,6.23-3.29,12.2-4.66,17.9v11.44a129.42,129.42,0,0,0,19.21,1.43Z"/><path class="cls-17" d="M1337.61,818.75H1339a80.83,80.83,0,0,1,14.51,1.29c3.57-.34,7.2-.51,11-.51,15.15,0,28.77,2.82,39.71,5.09l2.79.57c30.26,6.19,63.91,9.08,105.91,9.08,29,0,59.59-1.4,86.6-2.64,6-.27,14.11-.64,21.71-1.61a77.68,77.68,0,0,0,10-1.83v-9c-1.31-4.86-3.09-9.72-4.1-12.47-2.87-7.87-6-16.22-9.54-24.67l-9.9,36.49-69-113.07c-.36-.59-.73-1.19-1.09-1.8-1.15-.12-2.3-.27-3.44-.45l-3,2.61a101.39,101.39,0,0,1-37.7,38.78,71.33,71.33,0,0,1-35.23,9.56,61.86,61.86,0,0,1-44-17.77l-20.64-2.81a64.59,64.59,0,0,1-17.39-4.91,100.76,100.76,0,0,1-46.12,27.06c-1.21,3.57-3,9.62-5.5,19.61-1.07,4.32-2.08,8.41-3.25,12.7-1.7,6.23-3.29,12.2-4.66,17.9v11.44a129.42,129.42,0,0,0,19.21,1.43Z"/><rect class="cls-4" x="1244.74" y="482.58" width="71.8" height="359.54" rx="31.11" ry="31.11"/><rect class="cls-4" x="1628.88" y="482.58" width="71.8" height="359.54" rx="31.11" ry="31.11"/><rect class="cls-4" x="1208.41" y="379" width="522.49" height="68.97" rx="12" ry="12"/><g class="cls-18"><path class="cls-5" d="M1274.57,634a27.07,27.07,0,0,0-5.45,18.13,29.49,29.49,0,0,0,.71,4.61,25.37,25.37,0,0,0,1.57,4.33,28.76,28.76,0,0,0,5.45,7.53c2.21,2.35,4.68,4.63,6.93,7.27.57.66,1.11,1.34,1.64,2,.27.34.52.74.77,1.11s.5.76.71,1.16a22.88,22.88,0,0,1,2.11,4.91,24.56,24.56,0,0,1,1,5.23,20.44,20.44,0,0,1-.41,5.29,15.28,15.28,0,0,1-2.08,4.83,12,12,0,0,1-3.8,3.41,13.71,13.71,0,0,0,2.83-4,15,15,0,0,0,1.1-4.58,19.29,19.29,0,0,0-.26-4.68,25.92,25.92,0,0,0-1.3-4.49c-.14-.36-.33-.71-.48-1.06a9.17,9.17,0,0,0-.52-1l-.55-1-.62-1a10.47,10.47,0,0,0-.67-.93c-.24-.3-.43-.62-.7-.91-.5-.61-1-1.2-1.57-1.79-2.18-2.34-4.65-4.55-7-7a37.64,37.64,0,0,1-3.36-4,21.38,21.38,0,0,1-1.44-2.28l-.66-1.19-.54-1.24a24.21,24.21,0,0,1-1.93-10.45,25.46,25.46,0,0,1,2.33-10.16A22.1,22.1,0,0,1,1274.57,634Z"/><path class="cls-5" d="M1265,528.38a11.42,11.42,0,0,0-7.85,5.38,15.83,15.83,0,0,0-2.56,8.91,29,29,0,0,0,1.95,9.35c1.11,3.07,2.54,6.1,3.94,9.21s2.77,6.22,4.1,9.35l2,4.71c.66,1.6,1.27,3.23,1.81,4.9a43.88,43.88,0,0,1,1.33,5.1,27.65,27.65,0,0,1,.48,5.3,13.59,13.59,0,0,1-3.73,9.65,14.41,14.41,0,0,0,1.75-9.55,36.34,36.34,0,0,0-2.78-9.4c-.67-1.52-1.38-3-2.11-4.54l-2.21-4.6c-1.46-3.07-2.88-6.17-4.28-9.27a91.89,91.89,0,0,1-3.89-9.64,28.11,28.11,0,0,1-1.47-10.67,17.07,17.07,0,0,1,4.14-10,13.73,13.73,0,0,1,4.28-3.26A9.59,9.59,0,0,1,1265,528.38Z"/><path class="cls-5" d="M1294.8,568.82a15,15,0,0,1,3.92,2.64,18.7,18.7,0,0,1,3,3.78,23.61,23.61,0,0,1,2,4.44,27.47,27.47,0,0,1,1.08,4.75,33.17,33.17,0,0,1,.23,4.88,42.54,42.54,0,0,1-.52,4.82c-.27,1.58-.64,3.13-1,4.67s-.86,3-1.33,4.52c-1.9,5.94-4.2,11.55-5.21,17.41a35.63,35.63,0,0,0-.54,8.87,25.8,25.8,0,0,0,.73,4.42,26.33,26.33,0,0,0,1.62,4.29,18.25,18.25,0,0,1-2.67-3.89,23.55,23.55,0,0,1-1.63-4.51,30.53,30.53,0,0,1-.7-4.76,35.23,35.23,0,0,1,0-4.82,49.68,49.68,0,0,1,1.76-9.37c.84-3,1.83-6,2.76-8.87,1.85-5.8,3.57-11.55,3.34-17.39a26.07,26.07,0,0,0-1.68-8.59,17.69,17.69,0,0,0-5.16-7.29Z"/><path class="cls-5" d="M1250.18,718a22.55,22.55,0,0,1,7.84,4.86,26.59,26.59,0,0,1,5.51,7.68,25.86,25.86,0,0,1,2.38,9.32,35.23,35.23,0,0,1-1,9.45,82.87,82.87,0,0,0-1.65,8.62,22.13,22.13,0,0,0,0,4.15,25.19,25.19,0,0,0,.69,4.17c1.37,5.57,4.37,10.86,7.06,16.3a66.93,66.93,0,0,1-5.74-7.12,36.33,36.33,0,0,1-4.35-8.26c-.29-.75-.49-1.52-.71-2.29s-.37-1.57-.48-2.38a22.07,22.07,0,0,1-.23-4.87,60.5,60.5,0,0,1,1.52-9.17,37.88,37.88,0,0,0,1.13-8.47,26.14,26.14,0,0,0-1.48-8.25,28.52,28.52,0,0,0-4.06-7.56A29.47,29.47,0,0,0,1250.18,718Z"/><path class="cls-5" d="M1300.57,700.56a35.76,35.76,0,0,0-7,17,32.92,32.92,0,0,0,2.29,17.52,36.7,36.7,0,0,0,2,4.06c.75,1.37,1.56,2.76,2.29,4.24a22.6,22.6,0,0,1,2.62,9.8,21.9,21.9,0,0,1-2.06,9.78,21.11,21.11,0,0,1-2.61,4.18,18.71,18.71,0,0,1-3.53,3.31,22.8,22.8,0,0,0,5-17,21.47,21.47,0,0,0-2.84-8.25,94.59,94.59,0,0,1-4.63-8.45,31.61,31.61,0,0,1-1.71-19.71A28.91,28.91,0,0,1,1300.57,700.56Z"/><path class="cls-5" d="M1643,532.35a9.19,9.19,0,0,1-2.17,4.18c-1,1.23-2.09,2.33-2.89,3.51a7.17,7.17,0,0,0-1.4,3.71,10.39,10.39,0,0,0,.53,4,15.77,15.77,0,0,0,1.82,3.71c.8,1.19,1.69,2.35,2.65,3.52s2,2.37,2.93,3.67a20.73,20.73,0,0,1,1.35,2,18.44,18.44,0,0,1,1.21,2.17,29.1,29.1,0,0,1,2.78,9.43,30.75,30.75,0,0,1-.48,9.72,29.4,29.4,0,0,1-3.48,8.94,24.29,24.29,0,0,1-6.28,7,33.05,33.05,0,0,0,6.45-25.15,29.13,29.13,0,0,0-2.6-8.16,17.73,17.73,0,0,0-1-1.87,19.87,19.87,0,0,0-1.16-1.82c-.84-1.2-1.78-2.39-2.71-3.65a36.55,36.55,0,0,1-2.67-4,17,17,0,0,1-1.84-4.73,12.1,12.1,0,0,1-.08-5.19,9.42,9.42,0,0,1,2.49-4.55,42.34,42.34,0,0,1,3.61-3A10.32,10.32,0,0,0,1643,532.35Z"/><path class="cls-5" d="M1671.67,534.93a41,41,0,0,1,6.45,9.57,45.67,45.67,0,0,1,3.65,11.11,45.17,45.17,0,0,1,.65,11.79,62.14,62.14,0,0,1-2.2,11.51c-1,3.7-2.11,7.3-2.91,10.9a53.28,53.28,0,0,0-1,5.41c-.21,1.81-.31,3.64-.34,5.48a53.34,53.34,0,0,0,4.72,21.75,41.49,41.49,0,0,1-7.86-21.63,43.89,43.89,0,0,1,.68-11.78c.71-3.85,1.8-7.55,2.77-11.18a72.61,72.61,0,0,0,2.29-10.83,51.47,51.47,0,0,0,.05-11,54.32,54.32,0,0,0-2.37-10.83A58.89,58.89,0,0,0,1671.67,534.93Z"/><path class="cls-5" d="M1665.46,618.48a111.54,111.54,0,0,0-9.13,18.88,96.49,96.49,0,0,0-3,9.91c-.79,3.35-1.67,6.77-1.12,9.55a6.13,6.13,0,0,0,.66,1.86,6.74,6.74,0,0,0,1.25,1.49,14.3,14.3,0,0,0,4,2.21c1.57.65,3.29,1.2,5,2.09a13.05,13.05,0,0,1,2.54,1.64,9.66,9.66,0,0,1,2.09,2.4,8.86,8.86,0,0,1,1,6.09,12.09,12.09,0,0,1-2.39,5.3c-2.43,3-5.67,4.69-8.85,6.22,2.71-2.27,5.57-4.48,7.22-7.35s2-6.38.34-8.56a8.66,8.66,0,0,0-3.5-2.53c-1.46-.63-3.13-1.11-4.85-1.73a17.15,17.15,0,0,1-5.26-2.74,10.16,10.16,0,0,1-2.16-2.53,10.06,10.06,0,0,1-1.14-3.09,17,17,0,0,1,.09-6c.17-.93.37-1.85.6-2.72s.43-1.75.7-2.62a66.89,66.89,0,0,1,3.79-10.12A63.24,63.24,0,0,1,1665.46,618.48Z"/><path class="cls-5" d="M1644.15,722.34A32.93,32.93,0,0,1,1661,733.15a31.6,31.6,0,0,1,3,4.19,19.07,19.07,0,0,1,1.3,2.34,8.94,8.94,0,0,1,.85,3,6.2,6.2,0,0,1-.7,3.42,11.89,11.89,0,0,1-1.74,2.41l-3.37,3.65c-2.26,2.41-4.53,4.81-6.83,7.17l-6.88,7a9.58,9.58,0,0,0-1.27,1.73,4,4,0,0,0-.42.92c-.06.16-.11.32-.18.48s-.07.33-.12.49a8,8,0,0,0,.34,4.27,18.27,18.27,0,0,0,2.07,4.27c.86,1.38,1.85,2.71,2.84,4a31.89,31.89,0,0,1-3.72-3.37,18.07,18.07,0,0,1-3-4.19,10.06,10.06,0,0,1-1.12-5.39c0-.24,0-.49.07-.73l.17-.71a7.24,7.24,0,0,1,.47-1.38,13,13,0,0,1,1.43-2.41c1.08-1.46,2.18-2.64,3.26-3.9l3.28-3.71q3.3-3.69,6.68-7.31l3.38-3.59a8,8,0,0,0,1.23-1.54,2.52,2.52,0,0,0,.34-1.35,9.86,9.86,0,0,0-1.41-3.82,38.74,38.74,0,0,0-2.46-4A42.32,42.32,0,0,0,1644.15,722.34Z"/><path class="cls-5" d="M1674.32,714.31a18.53,18.53,0,0,1,7.84,7.84,29.7,29.7,0,0,1,3.29,10.75,45.1,45.1,0,0,1-.12,11,48.06,48.06,0,0,1-2.58,10.61c-.38-3.65-.44-7.23-.59-10.75s-.32-7-.72-10.4a46.89,46.89,0,0,0-2.16-9.93A31.81,31.81,0,0,0,1674.32,714.31Z"/><path class="cls-5" d="M1223.32,398.38a42.64,42.64,0,0,1,3.36-5,18.37,18.37,0,0,1,4.59-4.22,12.86,12.86,0,0,1,6.25-1.88,9.4,9.4,0,0,1,3.41.57,9.55,9.55,0,0,1,3,1.8,22,22,0,0,1,4,5.05c.54.83,1,1.64,1.61,2.35l.85,1.08.93,1a24.9,24.9,0,0,0,9.28,5.82,34.72,34.72,0,0,0,11.05,2,40.25,40.25,0,0,0,5.69-.29c1.9-.25,3.8-.57,5.7-1,7.58-1.76,14.91-5,22.39-7.84-6.71,4.35-13.71,8.42-21.57,10.87a42.39,42.39,0,0,1-12.23,2.09,39,39,0,0,1-6.28-.46,36.34,36.34,0,0,1-6.13-1.59,31.27,31.27,0,0,1-5.74-2.84,25.13,25.13,0,0,1-4.94-4.16,26,26,0,0,1-3.65-5.21,22,22,0,0,0-3.06-4.58,6.82,6.82,0,0,0-4.39-2,10.79,10.79,0,0,0-5.24,1,17.7,17.7,0,0,0-4.71,3.24C1226,395.43,1224.7,396.92,1223.32,398.38Z"/><path class="cls-5" d="M1285.27,431.4c6.23-4.55,12.75-8.83,20.11-11.72a44.91,44.91,0,0,1,11.55-3,40.66,40.66,0,0,1,6-.24,34.49,34.49,0,0,1,6,.81,30.42,30.42,0,0,1,5.84,2,41.43,41.43,0,0,1,5.21,3,43.32,43.32,0,0,0,4.71,2.84,12.75,12.75,0,0,0,2.38.9,10,10,0,0,0,2.46.38,30.25,30.25,0,0,0,5.46-.51l5.72-.81c3.83-.48,7.65-1,11.5-1.3-3.68,1.2-7.39,2.21-11.11,3.24l-5.59,1.46a29.38,29.38,0,0,1-5.95,1.07,14.16,14.16,0,0,1-6.32-1.18,40.36,40.36,0,0,1-5.31-2.86,41.17,41.17,0,0,0-4.81-2.65,27.05,27.05,0,0,0-5.09-1.66,35.3,35.3,0,0,0-10.83-.7,50.83,50.83,0,0,0-10.88,2.13C1299.23,424.83,1292.34,428.28,1285.27,431.4Z"/><path class="cls-5" d="M1401.24,400.71a14.62,14.62,0,0,1,3.62-5.75,19.7,19.7,0,0,1,5.76-3.89,26.59,26.59,0,0,1,13.79-2,43.92,43.92,0,0,1,13.26,4.1c4.16,1.94,8,4.23,11.93,6.37a34.09,34.09,0,0,0,5.65,2.77,8.84,8.84,0,0,0,2.71.48,14.36,14.36,0,0,0,2.93-.28c2-.39,4.21-1.07,6.41-1.57s4.39-1,6.6-1.45a148.28,148.28,0,0,1,26.78-3.05c-8.79,1.82-17.48,3.78-26.06,6.11-2.14.6-4.27,1.2-6.4,1.83l-3.19.95c-1.08.33-2.19.66-3.37.92a16.64,16.64,0,0,1-3.73.45,12.63,12.63,0,0,1-3.88-.59,36,36,0,0,1-6.41-3c-3.94-2.2-7.74-4.5-11.64-6.47a47.38,47.38,0,0,0-12.06-4.43,27.25,27.25,0,0,0-6.32-.4,24.11,24.11,0,0,0-6.29,1.13A17.25,17.25,0,0,0,1401.24,400.71Z"/><path class="cls-5" d="M1335.6,394.66a32.4,32.4,0,0,1,9.17-2.62,43.51,43.51,0,0,1,18.92,1.55,32.46,32.46,0,0,1,8.62,4.09c-3.21-.25-6.25-.66-9.29-1s-6-.65-9-.9-6-.44-9.06-.6S1338.8,394.93,1335.6,394.66Z"/><path class="cls-5" d="M1414.16,427.93a8.55,8.55,0,0,0,5.89-1.06c1.8-.95,3.5-2.14,5.35-3.24a16.75,16.75,0,0,1,6.26-2.28,23.12,23.12,0,0,1,6.65.1,60,60,0,0,1,6.3,1.3l6.08,1.55q6.07,1.59,12.12,3.26c8,2.24,16.13,4.64,24,7.13a14.48,14.48,0,0,0,2.77.56,8,8,0,0,0,2.65-.23,27.82,27.82,0,0,0,2.85-.94L1498,433c4-1.41,7.9-2.82,11.92-4.07-3.67,2.07-7.4,4-11.13,5.89L1496,436.2a29.56,29.56,0,0,1-3,1.35,9.8,9.8,0,0,1-3.54.61,17.59,17.59,0,0,1-3.41-.41c-2.14-.47-4.11-1-6.15-1.48l-6.08-1.56q-6.07-1.57-12.12-3.26T1449.67,428l-6-1.81c-2-.6-3.94-1.2-5.9-1.63a22.35,22.35,0,0,0-5.84-.57,14.67,14.67,0,0,0-5.63,1.42c-1.88.79-3.76,1.81-5.81,2.5a11.17,11.17,0,0,1-3.19.64A7.06,7.06,0,0,1,1414.16,427.93Z"/><path class="cls-5" d="M1547,399.17a85.75,85.75,0,0,1,28.46-5.75,91.79,91.79,0,0,1,14.64.63c4.85.58,9.62,1.45,14.35,2.33,9.44,1.76,18.77,3.63,28.18,3.45a56.9,56.9,0,0,0,13.92-1.92,44.09,44.09,0,0,0,6.64-2.45,43.32,43.32,0,0,0,6.16-3.67,33,33,0,0,1-5.61,4.64,40.51,40.51,0,0,1-6.56,3.35,49.57,49.57,0,0,1-7.07,2.12,58.43,58.43,0,0,1-7.32,1.07,74.6,74.6,0,0,1-14.72-.34c-4.85-.55-9.63-1.41-14.36-2.29s-9.42-1.81-14.11-2.51a121.6,121.6,0,0,0-14.13-1.28A125.81,125.81,0,0,0,1547,399.17Z"/><path class="cls-5" d="M1541.84,420.3c3.27,2,6.25,4.28,9.27,6.38a69.14,69.14,0,0,0,9.21,5.61,34.54,34.54,0,0,0,10,3.19,25.83,25.83,0,0,0,10.77-.55,17.14,17.14,0,0,1-11,3.71,25.88,25.88,0,0,1-11.55-2.73,37.14,37.14,0,0,1-9.44-6.8A52.84,52.84,0,0,1,1541.84,420.3Z"/><path class="cls-5" d="M1626.56,432.09a43.87,43.87,0,0,1,16.62-12.43,47.83,47.83,0,0,1,20.71-4l1.33.05,1.33.11c.89.08,1.78.16,2.65.28,1.75.26,3.46.58,5.14.91a75.63,75.63,0,0,0,9.86,1.53,22.6,22.6,0,0,0,4.8-.18,18.86,18.86,0,0,0,4.64-1.3,12.75,12.75,0,0,0,7-6.64,10.52,10.52,0,0,1-2.07,4.81,15,15,0,0,1-4,3.58,20.25,20.25,0,0,1-5,2.13,22.6,22.6,0,0,1-5.4.75,56.22,56.22,0,0,1-10.48-.91c-1.69-.26-3.36-.54-5-.73-.82-.1-1.64-.17-2.45-.23l-1.23-.1-1.23,0a56,56,0,0,0-19.46,2.94A62.49,62.49,0,0,0,1626.56,432.09Z"/></g><rect class="cls-19" x="1203" y="445.31" width="154.58" height="74.8" rx="22" ry="22"/><rect class="cls-9" x="1250.44" y="447.97" width="2.57" height="69.48"/><rect class="cls-9" x="1260.13" y="447.97" width="2.57" height="69.48"/><rect class="cls-9" x="1269.81" y="447.97" width="2.57" height="69.48"/><rect class="cls-9" x="1279.49" y="447.97" width="2.57" height="69.48"/><rect class="cls-9" x="1289.17" y="447.97" width="2.57" height="69.48"/><rect class="cls-9" x="1298.85" y="447.97" width="2.57" height="69.48"/><rect class="cls-9" x="1308.53" y="447.97" width="2.57" height="69.48"/><rect class="cls-9" x="1318.21" y="447.97" width="2.57" height="69.48"/><rect class="cls-9" x="1327.89" y="447.97" width="2.57" height="69.48"/><rect class="cls-9" x="1337.57" y="447.97" width="2.57" height="69.48"/><rect class="cls-9" x="1347.25" y="447.97" width="2.57" height="69.48"/><rect class="cls-9" x="1212.53" y="447.97" width="2.57" height="69.48"/><rect class="cls-9" x="1222.21" y="447.97" width="2.57" height="69.48"/><rect class="cls-9" x="1231.89" y="447.97" width="2.57" height="69.48"/><rect class="cls-9" x="1241.57" y="447.97" width="2.57" height="69.48"/><rect class="cls-19" x="1203" y="808.32" width="154.58" height="74.8" rx="22" ry="22"/><rect class="cls-9" x="1250.44" y="810.98" width="2.57" height="69.48"/><rect class="cls-9" x="1260.13" y="810.98" width="2.57" height="69.48"/><rect class="cls-9" x="1269.81" y="810.98" width="2.57" height="69.48"/><rect class="cls-9" x="1279.49" y="810.98" width="2.57" height="69.48"/><rect class="cls-9" x="1289.17" y="810.98" width="2.57" height="69.48"/><rect class="cls-9" x="1298.85" y="810.98" width="2.57" height="69.48"/><rect class="cls-9" x="1308.53" y="810.98" width="2.57" height="69.48"/><rect class="cls-9" x="1318.21" y="810.98" width="2.57" height="69.48"/><rect class="cls-9" x="1327.89" y="810.98" width="2.57" height="69.48"/><rect class="cls-9" x="1337.57" y="810.98" width="2.57" height="69.48"/><rect class="cls-9" x="1347.25" y="810.98" width="2.57" height="69.48"/><rect class="cls-9" x="1347.25" y="810.98" width="2.57" height="69.48"/><rect class="cls-9" x="1212.53" y="810.98" width="2.57" height="69.48"/><rect class="cls-9" x="1212.53" y="810.98" width="2.57" height="69.48"/><rect class="cls-9" x="1222.21" y="810.98" width="2.57" height="69.48"/><rect class="cls-9" x="1231.89" y="810.98" width="2.57" height="69.48"/><rect class="cls-9" x="1241.57" y="810.98" width="2.57" height="69.48"/><rect class="cls-19" x="1576.5" y="443.69" width="154.58" height="74.8" rx="22" ry="22"/><rect class="cls-9" x="1623.95" y="446.35" width="2.57" height="69.48"/><rect class="cls-9" x="1633.63" y="446.35" width="2.57" height="69.48"/><rect class="cls-9" x="1643.31" y="446.35" width="2.57" height="69.48"/><rect class="cls-9" x="1652.99" y="446.35" width="2.57" height="69.48"/><rect class="cls-9" x="1662.67" y="446.35" width="2.57" height="69.48"/><rect class="cls-9" x="1672.35" y="446.35" width="2.57" height="69.48"/><rect class="cls-9" x="1682.03" y="446.35" width="2.57" height="69.48"/><rect class="cls-9" x="1691.71" y="446.35" width="2.57" height="69.48"/><rect class="cls-9" x="1701.39" y="446.35" width="2.57" height="69.48"/><rect class="cls-9" x="1711.07" y="446.35" width="2.57" height="69.48"/><rect class="cls-9" x="1720.75" y="446.35" width="2.57" height="69.48"/><rect class="cls-9" x="1586.03" y="446.35" width="2.57" height="69.48"/><rect class="cls-9" x="1595.71" y="446.35" width="2.57" height="69.48"/><rect class="cls-9" x="1605.39" y="446.35" width="2.57" height="69.48"/><rect class="cls-9" x="1615.07" y="446.35" width="2.57" height="69.48"/><rect class="cls-19" x="1576.5" y="806.71" width="154.58" height="74.8" rx="22" ry="22"/><rect class="cls-9" x="1623.95" y="809.37" width="2.57" height="69.48"/><rect class="cls-9" x="1633.63" y="809.37" width="2.57" height="69.48"/><rect class="cls-9" x="1643.31" y="809.37" width="2.57" height="69.48"/><rect class="cls-9" x="1652.99" y="809.37" width="2.57" height="69.48"/><rect class="cls-9" x="1662.67" y="809.37" width="2.57" height="69.48"/><rect class="cls-9" x="1672.35" y="809.37" width="2.57" height="69.48"/><rect class="cls-9" x="1682.03" y="809.37" width="2.57" height="69.48"/><rect class="cls-9" x="1691.71" y="809.37" width="2.57" height="69.48"/><rect class="cls-9" x="1701.39" y="809.37" width="2.57" height="69.48"/><rect class="cls-9" x="1711.07" y="809.37" width="2.57" height="69.48"/><rect class="cls-9" x="1720.75" y="809.37" width="2.57" height="69.48"/><rect class="cls-9" x="1720.75" y="809.37" width="2.57" height="69.48"/><rect class="cls-9" x="1586.03" y="809.37" width="2.57" height="69.48"/><rect class="cls-9" x="1586.03" y="809.37" width="2.57" height="69.48"/><rect class="cls-9" x="1595.71" y="809.37" width="2.57" height="69.48"/><rect class="cls-9" x="1605.39" y="809.37" width="2.57" height="69.48"/><rect class="cls-9" x="1615.07" y="809.37" width="2.57" height="69.48"/><rect class="cls-20" x="268.41" y="653.88" width="53.05" height="225.24"/><polygon class="cls-21" points="294.67 224.37 177.2 389.18 411.76 389.29 294.67 224.37"/><polygon class="cls-21" points="294.64 261.15 161.9 460.99 427.08 461.2 294.64 261.15"/><polygon class="cls-21" points="294.67 307.61 133.8 547.59 455.16 547.84 294.67 307.61"/><polygon class="cls-21" points="294.68 362.67 114.79 627.52 474.16 627.8 294.68 362.67"/><polygon class="cls-21" points="294.7 417 83.91 726.22 505.01 726.54 294.7 417"/><g class="cls-22"><path class="cls-23" d="M280.78,734.06a4.72,4.72,0,0,0-2,1,5.88,5.88,0,0,0-1.35,1.68,6.86,6.86,0,0,0-.83,4,11.05,11.05,0,0,0,1.29,4,28.59,28.59,0,0,0,2.41,3.75c.9,1.25,1.86,2.52,2.71,3.93a15.69,15.69,0,0,1,2,4.63,9.36,9.36,0,0,1-.24,5.12,5.91,5.91,0,0,1-3.22,3.66,6.33,6.33,0,0,0,1.89-4,9.05,9.05,0,0,0-.52-4.18c-1-2.69-3-5-4.85-7.56a24.37,24.37,0,0,1-2.53-4.24,11.54,11.54,0,0,1-1.09-5.06,7.74,7.74,0,0,1,1.9-4.84,6,6,0,0,1,2.05-1.54A4.27,4.27,0,0,1,280.78,734.06Z"/></g><g class="cls-22"><path class="cls-23" d="M301,745a4.64,4.64,0,0,1,1.81.17,5.7,5.7,0,0,1,1.67.84,7.33,7.33,0,0,1,2.39,2.94,10.31,10.31,0,0,1,.83,3.73,20,20,0,0,1-.2,3.72,67.25,67.25,0,0,1-3.6,14c-.42,1.12-.91,2.26-1.32,3.31a12.05,12.05,0,0,0-.88,3.06,7.73,7.73,0,0,0,.25,3,15,15,0,0,0,1.28,3c1.08,2,2.47,4,3.62,6.1a16.18,16.18,0,0,1,1.38,3.39,9.25,9.25,0,0,1,.3,1.81,7.71,7.71,0,0,1-.08,1.8,9.79,9.79,0,0,0-1-3.35,18.06,18.06,0,0,0-1.81-2.93c-1.37-1.87-3-3.63-4.33-5.69a15.77,15.77,0,0,1-1.74-3.4,10.16,10.16,0,0,1-.54-4,14.35,14.35,0,0,1,.94-3.78c.44-1.16.88-2.21,1.28-3.31A106.77,106.77,0,0,0,305.38,756a23,23,0,0,0,.53-3.34,9.82,9.82,0,0,0-.29-3.25,7,7,0,0,0-1.62-2.83A5.1,5.1,0,0,0,301,745Z"/></g><g class="cls-22"><path class="cls-23" d="M293.89,782c-.28.39-.59.75-.86,1.15s-.55.78-.81,1.18a23.66,23.66,0,0,0-1.36,2.45,14.52,14.52,0,0,0-.94,2.55,9.14,9.14,0,0,0-.36,2.56,6.82,6.82,0,0,0,1.61,4.5,48.75,48.75,0,0,0,4,3.82,15,15,0,0,1,2,2.42,13.39,13.39,0,0,1,1.4,2.84,14.68,14.68,0,0,1-1,11.93,11.37,11.37,0,0,1-4.05,4.26,14.72,14.72,0,0,0,3.64-10.13,14.44,14.44,0,0,0-1-5.12,11.63,11.63,0,0,0-1.22-2.25,12.22,12.22,0,0,0-1.68-2,35.39,35.39,0,0,1-4.17-4.21,9.06,9.06,0,0,1-.86-1.4,5.75,5.75,0,0,1-.33-.77,4.67,4.67,0,0,1-.26-.8,8.39,8.39,0,0,1-.25-3.26,10.21,10.21,0,0,1,.82-3,13.92,13.92,0,0,1,1.49-2.64A16.77,16.77,0,0,1,293.89,782Z"/></g><g class="cls-22"><path class="cls-23" d="M280,800.11c-.54.93-1.06,1.87-1.51,2.82a20.85,20.85,0,0,0-1.12,2.92,12.72,12.72,0,0,0-.41,5.92,19.63,19.63,0,0,0,2,5.64c.94,1.83,2,3.63,3.12,5.5a37.48,37.48,0,0,1,2.87,6,17.56,17.56,0,0,1,.84,3.32,14.33,14.33,0,0,1,.11,3.46,14.6,14.6,0,0,1-2.17,6.41,13.51,13.51,0,0,1-2.11,2.58A11.84,11.84,0,0,1,279,846.6a15.41,15.41,0,0,0,4.73-11,13.69,13.69,0,0,0-.33-2.92,18.34,18.34,0,0,0-.9-2.84c-.38-.93-.82-1.86-1.3-2.77s-1-1.83-1.51-2.75c-1.05-1.84-2.15-3.71-3.08-5.74a19.18,19.18,0,0,1-1.84-6.53,12.48,12.48,0,0,1,.22-3.45,13.63,13.63,0,0,1,1.08-3.21A18.52,18.52,0,0,1,280,800.11Z"/></g><g class="cls-22"><path class="cls-23" d="M307.3,826.41a10.38,10.38,0,0,0-2.25,4.78,9.52,9.52,0,0,0,.33,4.93,11,11,0,0,0,.49,1.13c.21.36.38.73.62,1.09.44.72,1,1.43,1.5,2.15a37.64,37.64,0,0,1,3.24,4.65,10.51,10.51,0,0,1,1.1,2.92l.09.39,0,.41a7.37,7.37,0,0,1,.05.82,9,9,0,0,1-.15,1.64,8.6,8.6,0,0,1-1.23,2.93,13.79,13.79,0,0,1-1.87,2.3c-1.34,1.37-2.77,2.5-4.05,3.75a10.27,10.27,0,0,0-2.95,4.4,6.82,6.82,0,0,1,.52-2.77,12.27,12.27,0,0,1,1.39-2.51c1.09-1.56,2.38-2.92,3.45-4.31a9.63,9.63,0,0,0,2.16-4.27,4.91,4.91,0,0,0,0-.55v-.55c0-.18-.05-.37-.06-.55l0-.27-.07-.28a8.33,8.33,0,0,0-.87-2.19c-.78-1.46-1.89-2.89-2.94-4.44a26,26,0,0,1-1.48-2.47c-.24-.43-.43-.91-.63-1.36s-.34-.95-.45-1.46a10.09,10.09,0,0,1,.46-5.92A9,9,0,0,1,307.3,826.41Z"/></g><g class="cls-22"><path class="cls-23" d="M295.33,850a4.37,4.37,0,0,1-1.62,3,16.68,16.68,0,0,1-2.8,1.9,15.33,15.33,0,0,0-2.43,1.64c-.17.15-.29.3-.45.45s-.24.31-.34.47a3.45,3.45,0,0,0-.46,1.06,7.2,7.2,0,0,0-.06,2.64c.12,1,.34,2,.52,3.09a17.75,17.75,0,0,1,.3,3.37,6.26,6.26,0,0,1-.93,3.29,9.41,9.41,0,0,0-.42-3.13c-.3-1-.68-2-1.05-3a22.35,22.35,0,0,1-1-3.21,11.43,11.43,0,0,1-.24-1.82,7.52,7.52,0,0,1,.21-2,6.07,6.07,0,0,1,.87-1.88,8.37,8.37,0,0,1,.66-.79c.25-.22.49-.46.75-.65A12.14,12.14,0,0,1,290,853c1-.37,2.05-.65,3-1.06A5,5,0,0,0,295.33,850Z"/></g><rect class="cls-24" x="250.21" y="871.93" width="89.86" height="28.24" rx="14.12" ry="14.12"/><polygon class="cls-25" points="336.76 194.15 311.95 190.33 319.8 214.16 301 197.54 294.71 221.84 287.88 197.69 269.46 214.72 276.77 190.72 252.06 195.09 271.19 178.85 248.03 169.16 272.91 165.84 258.67 145.18 281.39 155.83 280.58 130.75 293.93 152 306.81 130.46 306.56 155.55 329.04 144.4 315.26 165.37 340.2 168.14 317.27 178.33 336.76 194.15"/><circle class="cls-26" cx="346.09" cy="334.3" r="19.67"/><circle class="cls-27" cx="471.98" cy="702.84" r="19.67"/><circle class="cls-28" cx="239.21" cy="362.01" r="19.67"/><circle class="cls-29" cx="180.23" cy="539.35" r="19.67"/><circle class="cls-30" cx="312.45" cy="551.23" r="19.67"/><circle class="cls-31" cx="365.89" cy="683.05" r="19.67"/><circle class="cls-32" cx="270.09" cy="453.45" r="19.67"/><circle class="cls-33" cx="230.5" cy="619.32" r="19.67"/><circle class="cls-34" cx="124.41" cy="702.84" r="19.67"/><circle class="cls-35" cx="365.89" cy="414.26" r="19.67"/><circle class="cls-36" cx="405.08" cy="531.44" r="19.67"/><path class="cls-37" d="M284.57,310.48c-11.72-26-8.08-26.13-18.19.55,10.11-26.68,12.76-24.18-13.25-12.47,26-11.71,26.12-8.08-.56-18.18,26.68,10.1,24.18,12.75,12.47-13.26,11.71,26,8.08,26.13,18.18-.55-10.1,26.68-12.75,24.18,13.26,12.46-26,11.72-26.12,8.08.55,18.19C270.36,287.11,272.85,284.46,284.57,310.48Z"/><path class="cls-37" d="M286.92,300.2c-14.54-13.68-12.22-14.73-11.61,5.23-.61-20,1.77-19.06-11.91-4.51,13.68-14.55,14.73-12.22-5.23-11.61,20-.61,19.06,1.77,4.51-11.91,14.55,13.68,12.22,14.73,11.61-5.24.61,20-1.77,19.06,11.91,4.52-13.68,14.54-14.73,12.22,5.24,11.61C271.47,288.9,272.38,286.52,286.92,300.2Z"/><circle class="cls-38" cx="274.8" cy="288.8" r="18.51"/><path class="cls-37" d="M318.22,403.5c-11.72-26-8.09-26.12-18.19.56,10.1-26.68,12.75-24.19-13.26-12.47,26-11.72,26.13-8.08-.55-18.19,26.68,10.11,24.18,12.76,12.46-13.25,11.72,26,8.09,26.12,18.19-.56-10.1,26.68-12.76,24.19,13.26,12.47-26,11.72-26.13,8.08.55,18.19C304,380.14,306.5,377.49,318.22,403.5Z"/><path class="cls-37" d="M320.57,393.23C306,379.55,308.35,378.5,309,398.46c-.61-20,1.77-19.06-11.91-4.51,13.68-14.55,14.73-12.23-5.23-11.61,20-.62,19.05,1.77,4.51-11.92,14.54,13.69,12.22,14.73,11.61-5.23.61,20-1.77,19.06,11.91,4.51-13.68,14.55-14.73,12.23,5.23,11.62C305.12,381.93,306,379.55,320.57,393.23Z"/><circle class="cls-39" cx="308.45" cy="381.83" r="18.51"/><path class="cls-37" d="M220.83,455.36c-11.71-26-8.08-26.12-18.18.56,10.1-26.68,12.75-24.19-13.26-12.47,26-11.72,26.12-8.08-.55-18.19C215.51,435.37,213,438,201.3,412c11.72,26,8.08,26.12,18.19-.56-10.11,26.68-12.76,24.19,13.25,12.47-26,11.72-26.12,8.08.56,18.19C206.62,432,209.12,429.35,220.83,455.36Z"/><path class="cls-37" d="M223.19,445.09c-14.55-13.69-12.22-14.73-11.61,5.23-.61-20,1.77-19.06-11.91-4.51,13.68-14.55,14.73-12.23-5.24-11.62,20-.61,19.06,1.77,4.52-11.91,14.54,13.68,12.22,14.73,11.61-5.23.61,20-1.77,19.06,11.91,4.51-13.68,14.55-14.73,12.23,5.23,11.61C207.74,433.79,208.64,431.4,223.19,445.09Z"/><circle class="cls-40" cx="211.07" cy="433.68" r="18.51"/><path class="cls-37" d="M355.82,504.05c-11.72-26-8.08-26.12-18.19.56,10.11-26.68,12.76-24.19-13.25-12.47,26-11.72,26.12-8.08-.56-18.19,26.68,10.11,24.19,12.76,12.47-13.25,11.72,26,8.08,26.12,18.19-.56-10.11,26.68-12.76,24.19,13.25,12.47-26,11.72-26.12,8.08.56,18.19C341.61,480.69,344.1,478,355.82,504.05Z"/><path class="cls-37" d="M358.18,493.78C343.63,480.09,346,479.05,346.57,499c-.62-20,1.77-19.06-11.92-4.51,13.69-14.55,14.73-12.23-5.23-11.62,20-.61,19.06,1.77,4.51-11.91,14.55,13.68,12.23,14.73,11.62-5.23.61,20-1.77,19.06,11.91,4.51-13.68,14.55-14.73,12.23,5.23,11.61C342.73,482.48,343.63,480.09,358.18,493.78Z"/><circle class="cls-41" cx="346.06" cy="482.37" r="18.51"/><path class="cls-37" d="M256.07,561.05c-11.72-26-8.09-26.12-18.19.56,10.1-26.68,12.76-24.19-13.26-12.47,26-11.72,26.13-8.08-.55-18.18,26.68,10.1,24.18,12.75,12.46-13.26,11.72,26,8.09,26.12,18.19-.55C244.62,543.82,242,541.33,268,529.61c-26,11.72-26.13,8.08.55,18.19C241.85,537.69,244.35,535,256.07,561.05Z"/><path class="cls-37" d="M258.42,550.78c-14.54-13.68-12.22-14.73-11.61,5.23-.61-20,1.77-19.06-11.91-4.51,13.68-14.55,14.73-12.22-5.23-11.61,20-.61,19.05,1.77,4.51-11.91,14.54,13.68,12.22,14.72,11.61-5.24.61,20-1.77,19.06,11.91,4.52C244,541.8,243,539.48,262.93,538.87,243,539.48,243.88,537.1,258.42,550.78Z"/><circle class="cls-42" cx="246.3" cy="539.38" r="18.51"/><path class="cls-37" d="M368.49,641c-11.72-26-8.08-26.13-18.19.55,10.11-26.68,12.76-24.18-13.25-12.46,26-11.72,26.12-8.08-.56-18.19C363.17,621,360.68,623.68,349,597.67c11.72,26,8.08,26.12,18.19-.56-10.11,26.68-12.76,24.18,13.25,12.47-26,11.71-26.12,8.08.56,18.18C354.28,617.66,356.77,615,368.49,641Z"/><path class="cls-37" d="M370.85,630.74C356.3,617.06,358.62,616,359.23,636c-.61-20,1.77-19.06-11.91-4.52,13.68-14.54,14.73-12.22-5.23-11.61,20-.61,19.06,1.77,4.51-11.91,14.55,13.68,12.23,14.73,11.61-5.23.62,20-1.77,19.06,11.92,4.51-13.69,14.55-14.73,12.22,5.23,11.61C355.4,619.44,356.3,617.06,370.85,630.74Z"/><circle class="cls-43" cx="358.72" cy="619.34" r="18.51"/><path class="cls-37" d="M260,716.23c-11.71-26-8.08-26.12-18.18.56,10.1-26.68,12.75-24.19-13.26-12.47,26-11.72,26.13-8.08-.55-18.19,26.68,10.11,24.18,12.76,12.46-13.25,11.72,26,8.08,26.12,18.19-.56-10.11,26.68-12.76,24.19,13.25,12.47-26,11.72-26.12,8.08.56,18.19C245.81,692.87,248.31,690.22,260,716.23Z"/><path class="cls-37" d="M262.38,706c-14.55-13.69-12.22-14.73-11.61,5.23-.61-20,1.77-19.06-11.91-4.51,13.68-14.55,14.73-12.23-5.24-11.62,20-.61,19.06,1.78,4.52-11.91,14.54,13.69,12.22,14.73,11.61-5.23.61,20-1.77,19.06,11.91,4.51C248,697,246.93,694.66,266.89,694.05,246.93,694.66,247.83,692.27,262.38,706Z"/><circle class="cls-44" cx="250.26" cy="694.55" r="18.51"/></g><g id="Layer_3" data-name="Layer 3"><image class="cls-45" width="1974" height="1134" transform="translate(-15 -1124)" xlink:href="Spille skærm1.png"/></g></g></svg>
