<svg xmlns="http://www.w3.org/2000/svg" width="149" height="170.52" viewBox="0 0 149 170.52"><defs><style>.cls-1{fill:#fcfcfc;stroke:#f9f7f7;stroke-miterlimit:10;stroke-width:4px;}</style></defs><title>hvid pil</title><g id="Layer_2" data-name="Layer 2"><path class="cls-1" d="M146.88,76.81H138c0-36.17-28.5-65.6-63.53-65.6S10.92,40.64,10.92,76.81H2C2,35.56,34.5,2,74.44,2S146.88,35.56,146.88,76.81Z"/><path class="cls-1" d="M38,130.21l-.43-.31A66.25,66.25,0,0,1,11,76.6H2.12a75.5,75.5,0,0,0,31.63,61.78C35.19,135.67,36.72,133,38,130.21Z"/><path class="cls-1" d="M138.08,76.6c0,36.06-28.32,65.42-63.19,65.6.12,3.06,0,6.12,0,9.21C114.65,151.26,147,117.76,147,76.6Z"/><polygon class="cls-1" points="59.28 143.49 98.72 119.97 98.72 167 59.28 143.49"/></g></svg>