<svg xmlns="http://www.w3.org/2000/svg" xmlns:xlink="http://www.w3.org/1999/xlink" width="1920" height="1080" viewBox="0 0 1920 1080"><defs><style>.cls-1{opacity:0.69;}.cls-2{fill:url(#radial-gradient);}.cls-3{mask:url(#mask);}.cls-4{opacity:0.75;mix-blend-mode:screen;}.cls-5{fill:#fff;}.cls-6{isolation:isolate;}.cls-7{opacity:0.91;mix-blend-mode:multiply;}.cls-8{fill:url(#linear-gradient);}.cls-9{opacity:0.81;fill:url(#linear-gradient-2);}.cls-10{opacity:0.95;}.cls-11{fill:#ce3b3d;}.cls-12{fill:#afe268;}.cls-13{fill:#fcaee0;}.cls-14{fill:#a5cbfb;}.cls-15{fill:#a5cafc;}.cls-16{fill:#41d7c7;}.cls-17{fill:#2b307e;}.cls-18{fill:#313131;}.cls-19{fill:#ffb600;}.cls-20{fill:red;}.cls-21{fill:none;stroke:#afe268;stroke-miterlimit:10;stroke-width:25px;}.cls-22{filter:url(#luminosity-invert);}</style><radialGradient id="radial-gradient" cx="15.48" cy="13.86" fy="6.249820041805745" r="14.58" gradientUnits="userSpaceOnUse"><stop offset="0" stop-color="#fff"/><stop offset="1" stop-color="#fff" stop-opacity="0.7"/></radialGradient><filter id="luminosity-invert" filterUnits="userSpaceOnUse" color-interpolation-filters="sRGB"><feColorMatrix values="-1 0 0 0 1 0 -1 0 0 1 0 0 -1 0 1 0 0 0 1 0"/></filter><mask id="mask" x="-2.8" y="-2" width="35" height="33" maskUnits="userSpaceOnUse"><g class="cls-22"><image width="35" height="33" transform="translate(-2.8 -2)" xlink:href="Information2.png"/></g></mask><linearGradient id="linear-gradient" x1="957.39" y1="1069.55" x2="964.69" y2="3.54" gradientUnits="userSpaceOnUse"><stop offset="0" stop-color="#cce0f4"/><stop offset="0" stop-color="#c7dbf1"/><stop offset="0.05" stop-color="#bdd1eb" stop-opacity="0.99"/><stop offset="0.13" stop-color="#a4b4db" stop-opacity="0.96"/><stop offset="0.25" stop-color="#7a87c2" stop-opacity="0.92"/><stop offset="0.38" stop-color="#41489e" stop-opacity="0.87"/><stop offset="0.51" stop-color="#000076" stop-opacity="0.8"/><stop offset="0.82" stop-color="#000076"/></linearGradient><linearGradient id="linear-gradient-2" x1="960.46" y1="1116.28" x2="962.86" y2="8.63" gradientUnits="userSpaceOnUse"><stop offset="0" stop-color="#cce0f4"/><stop offset="0" stop-color="#c7dbf1"/><stop offset="0" stop-color="#bed4e7" stop-opacity="0.98"/><stop offset="0" stop-color="#a7c2cb" stop-opacity="0.92"/><stop offset="0" stop-color="#81a49e" stop-opacity="0.82"/><stop offset="0" stop-color="#4c7b5f" stop-opacity="0.69"/><stop offset="0" stop-color="#094610" stop-opacity="0.52"/><stop offset="0" stop-color="#003f05" stop-opacity="0.5"/><stop offset="0" stop-color="#0d4812" stop-opacity="0.97"/><stop offset="0" stop-color="#0e4913"/><stop offset="0.09" stop-color="#3b6b3f"/><stop offset="0.31" stop-color="#acc1ae"/><stop offset="0.45" stop-color="#fff"/><stop offset="0.87" stop-color="#fff"/></linearGradient><symbol id="Snowflake_3" data-name="Snowflake 3" viewBox="0 0 29.52 28.79"><g class="cls-1"><path class="cls-2" d="M27.62,16.4a32,32,0,0,0-6.73-.66c-.88-.55-1.72-1.1-2.51-1.65q1.17-.75,2.46-1.5a29.93,29.93,0,0,0,8.68-.83c-2.72-.15-5-.2-7-.12-.93,0-1.79.1-2.57.21.49-.37,1-.8,1.53-1.27,1.21-1.09,2.53-2.42,4-4a32.81,32.81,0,0,0-5.24,4.31c-1,.24-2,.44-2.93.62.21-.93.44-1.88.7-2.85A30.32,30.32,0,0,0,23.54,2c-2,1.81-3.67,3.39-5,4.82C18,7.41,17.48,8,17,8.57c.06-.59.09-1.22.1-1.9,0-1.4-.06-3-.2-5a32,32,0,0,0-.54,6.18c-.55.88-1.09,1.71-1.63,2.5-.51-.8-1-1.63-1.52-2.5A30.41,30.41,0,0,0,12.6,0c-.2,2.43-.33,4.44-.34,6.13,0,.9,0,1.7.1,2.44-.34-.44-.72-.89-1.13-1.35-1.09-1.22-2.43-2.55-4-4a31.84,31.84,0,0,0,4.33,5.29c.24,1,.44,2,.61,2.93-.93-.21-1.9-.45-2.9-.72A31,31,0,0,0,2.69,5.25c1.79,2,3.35,3.63,4.78,4.94a24.47,24.47,0,0,0,2,1.66q-.93-.12-2-.18c-1.67-.1-3.6-.08-5.85,0a31.73,31.73,0,0,0,7,.71c.85.53,1.66,1.06,2.43,1.58-.81.52-1.67,1-2.57,1.56A31,31,0,0,0,0,16.32c2.66.13,4.93.19,6.85.11q1.41-.06,2.58-.21c-.51.38-1,.81-1.56,1.3C6.62,18.63,5.27,20,3.75,21.65a31.17,31.17,0,0,0,5.46-4.46c1-.22,1.93-.42,2.85-.59-.2.92-.43,1.86-.7,2.84a30.69,30.69,0,0,0-5.49,6.64c2-1.8,3.66-3.38,5-4.81.63-.69,1.19-1.34,1.66-2-.08.63-.14,1.3-.18,2-.09,1.64-.08,3.53,0,5.72A31.65,31.65,0,0,0,13,20.19c.54-.86,1.08-1.68,1.61-2.45.52.79,1,1.63,1.53,2.5A30.23,30.23,0,0,0,17,28.79c.14-2.68.19-4.95.11-6.89a24.68,24.68,0,0,0-.21-2.6c.38.5.82,1,1.29,1.56,1.1,1.23,2.45,2.56,4.06,4.05a31.83,31.83,0,0,0-4.37-5.34c-.23-1-.42-1.95-.6-2.87.91.19,1.85.42,2.81.68a29.73,29.73,0,0,0,6.72,5.52c-1.82-2-3.4-3.67-4.84-5q-1-1-2-1.68.93.12,2,.18C23.6,16.49,25.46,16.48,27.62,16.4Z"/><g class="cls-3"><g class="cls-4"><path class="cls-5" d="M27.62,16.4a32,32,0,0,0-6.73-.66c-.88-.55-1.72-1.1-2.51-1.65q1.17-.75,2.46-1.5a29.93,29.93,0,0,0,8.68-.83c-2.72-.15-5-.2-7-.12-.93,0-1.79.1-2.57.21.49-.37,1-.8,1.53-1.27,1.21-1.09,2.53-2.42,4-4a32.81,32.81,0,0,0-5.24,4.31c-1,.24-2,.44-2.93.62.21-.93.44-1.88.7-2.85A30.32,30.32,0,0,0,23.54,2c-2,1.81-3.67,3.39-5,4.82C18,7.41,17.48,8,17,8.57c.06-.59.09-1.22.1-1.9,0-1.4-.06-3-.2-5a32,32,0,0,0-.54,6.18c-.55.88-1.09,1.71-1.63,2.5-.51-.8-1-1.63-1.52-2.5A30.41,30.41,0,0,0,12.6,0c-.2,2.43-.33,4.44-.34,6.13,0,.9,0,1.7.1,2.44-.34-.44-.72-.89-1.13-1.35-1.09-1.22-2.43-2.55-4-4a31.84,31.84,0,0,0,4.33,5.29c.24,1,.44,2,.61,2.93-.93-.21-1.9-.45-2.9-.72A31,31,0,0,0,2.69,5.25c1.79,2,3.35,3.63,4.78,4.94a24.47,24.47,0,0,0,2,1.66q-.93-.12-2-.18c-1.67-.1-3.6-.08-5.85,0a31.73,31.73,0,0,0,7,.71c.85.53,1.66,1.06,2.43,1.58-.81.52-1.67,1-2.57,1.56A31,31,0,0,0,0,16.32c2.66.13,4.93.19,6.85.11q1.41-.06,2.58-.21c-.51.38-1,.81-1.56,1.3C6.62,18.63,5.27,20,3.75,21.65a31.17,31.17,0,0,0,5.46-4.46c1-.22,1.93-.42,2.85-.59-.2.92-.43,1.86-.7,2.84a30.69,30.69,0,0,0-5.49,6.64c2-1.8,3.66-3.38,5-4.81.63-.69,1.19-1.34,1.66-2-.08.63-.14,1.3-.18,2-.09,1.64-.08,3.53,0,5.72A31.65,31.65,0,0,0,13,20.19c.54-.86,1.08-1.68,1.61-2.45.52.79,1,1.63,1.53,2.5A30.23,30.23,0,0,0,17,28.79c.14-2.68.19-4.95.11-6.89a24.68,24.68,0,0,0-.21-2.6c.38.5.82,1,1.29,1.56,1.1,1.23,2.45,2.56,4.06,4.05a31.83,31.83,0,0,0-4.37-5.34c-.23-1-.42-1.95-.6-2.87.91.19,1.85.42,2.81.68a29.73,29.73,0,0,0,6.72,5.52c-1.82-2-3.4-3.67-4.84-5q-1-1-2-1.68.93.12,2,.18C23.6,16.49,25.46,16.48,27.62,16.4Z"/></g></g></g></symbol></defs><title>Information</title><g class="cls-6"><g id="Layer_3" data-name="Layer 3"><image class="cls-7" width="1974" height="1134" transform="translate(-15 -14)" xlink:href="Information1.png"/><rect class="cls-8" x="1.5" y="2.5" width="1919" height="1079"/><path d="M1920,3V1081H2V3H1920m1-1H1V1082H1921V2Z"/><path class="cls-9" d="M1,656S334,361,569,537s579,203,643,193,459-270,709-165v512H1"/><use id="Snowflake_3-3" data-name="Snowflake 3" width="29.52" height="28.79" transform="translate(752.81 506.34) scale(0.99 0.99)" xlink:href="#Snowflake_3"/><g class="cls-10"><rect class="cls-11" x="526.57" y="442" width="886.41" height="561.06"/></g><g class="cls-10"><rect class="cls-11" x="428.27" y="248.13" width="1107.73" height="200.73"/></g><path class="cls-12" d="M473.68,339.36q4.8,3.5,9.31,6.95a54.59,54.59,0,0,1,7.76,7.13,22.66,22.66,0,0,1,4.63,7.83A15.12,15.12,0,0,1,490,377.46a27.3,27.3,0,0,1-9.19,4.62,38,38,0,0,1-11.59,1.46,39.37,39.37,0,0,1-12.33-2.22,37.09,37.09,0,0,1-11.36-6.43,34.19,34.19,0,0,1-8.85-11.34c.6-.78,1.44-1.73,2.51-2.86s2.22-2.3,3.48-3.51,2.49-2.41,3.71-3.62,2.32-2.32,3.31-3.33a41.63,41.63,0,0,0,4.51,6.13,51.33,51.33,0,0,0,6.85,6.67,24.58,24.58,0,0,0,7.26,4.2c2.35.82,4.26.38,5.7-1.34a1.77,1.77,0,0,0,.18-2.4,11.37,11.37,0,0,0-2.8-2.57,44.72,44.72,0,0,0-4.63-2.74q-2.68-1.41-5.19-3-2.06-1.29-4.68-3.16t-5.31-4c-1.79-1.41-3.51-2.85-5.14-4.33a46.77,46.77,0,0,1-4.17-4.21,19,19,0,0,1-5.14-12.39,22.42,22.42,0,0,1,3.31-12.27,26.84,26.84,0,0,1,9.71-9.24,25.61,25.61,0,0,1,23.86-.7,53.41,53.41,0,0,1,9.25,5.61,59.68,59.68,0,0,1,7.83,7,57,57,0,0,1,5.53,6.78q-1.49.93-3.88,2.63c-1.6,1.13-3.29,2.33-5.08,3.62s-3.6,2.55-5.42,3.8-3.43,2.26-4.8,3a31,31,0,0,1-2.11-2.51l-2.86-3.69c-1-1.32-2.13-2.65-3.31-4a33.88,33.88,0,0,0-3.42-3.39,8.44,8.44,0,0,0-3.14-1.81,2.61,2.61,0,0,0-2.63.64,3.37,3.37,0,0,0-.91,4.27,15.49,15.49,0,0,0,3.71,4.55,47.18,47.18,0,0,0,5.71,4.33Q471.63,337.83,473.68,339.36Z"/><path class="cls-12" d="M541.4,389.74a32.71,32.71,0,0,1-.63-3.45q-.4-2.62-1-6.08c-.38-2.3-.79-4.73-1.2-7.31s-.82-4.94-1.2-7.13l-8.45.82c-3.2.31-6.05.55-8.56.7-.23,1-.46,2.36-.69,4s-.46,3.33-.68,5l-.63,4.51c-.19,1.36-.33,2.27-.4,2.74H498.8c.31-2.1.88-5.36,1.72-9.76s1.82-9.35,3-14.85,2.35-11.25,3.65-17.3,2.55-11.7,3.77-17,2.3-10,3.25-14,1.66-6.86,2.11-8.42h5.2c2.63,0,5.44,0,8.45.06s5.8.06,8.39.06h5c.23,1.09.66,3.14,1.31,6.14s1.41,6.54,2.28,10.63,1.85,8.6,2.92,13.51,2.13,9.87,3.19,14.9,2.12,9.94,3.14,14.73,1.94,9.12,2.74,13,1.47,7.1,2,9.71.84,4.22.92,4.85Zm-17.93-37.18q2.85.12,5.82.18c2,0,3.88.1,5.71.18-.53-2.73-1.07-5.42-1.6-8.07s-1-5.16-1.54-7.54-1-4.56-1.43-6.55-.84-3.64-1.14-5c-.3,1.4-.67,3.09-1.08,5.08s-.9,4.17-1.43,6.55-1.08,4.85-1.66,7.42S524,350,523.47,352.56Z"/><path class="cls-12" d="M603.29,302.3c1.52-.08,3.34-.12,5.48-.12h6.51c2.2,0,4.28,0,6.22.06s3.48.06,4.62.06q-.23,2.81-.8,9.29t-1.2,14.79q-.61,8.3-1.37,17.42T621.44,361q-.57,8.07-1,14.2c-.3,4.1-.49,6.88-.57,8.36H604.09q-2.18-5.49-3.89-9.64t-3.71-9.12l-3.83-9.53c-1.21-3-2.28-5.68-3.19-7.95s-1.49-3.74-1.72-4.44c-.15,2.89-.34,6.43-.57,10.64s-.47,8.36-.74,12.45-.49,7.77-.68,11.05-.33,5.41-.4,6.43H564.69q.22-5.73.63-13.27t.85-15.67q.47-8.12.86-16.3t.8-15.14q.39-7,.63-12.16t.34-7.42c1.22.08,2.78.14,4.68.17s3.87.1,5.88.18,4,.14,5.83.17,3.36.06,4.51.06c.22.7.78,2.17,1.65,4.39s2,4.93,3.26,8.12,2.72,6.7,4.28,10.52,3.14,7.64,4.74,11.46q0-6.32-.06-12.22c0-3.93-.06-7.54-.06-10.81s0-6.06,0-8.36S603.36,303.23,603.29,302.3Z"/><path class="cls-12" d="M686.53,320.42c-1.07.08-3.07.19-6,.35s-6.34.31-10.22.47q-.34,5.25-.63,11.39T669.06,345q-.34,6.19-.69,12.21t-.57,11.17c-.15,3.43-.31,6.47-.46,9.11s-.26,4.68-.34,6.08H648.27q.12-2.57.06-9.29t-.23-15.49q-.17-8.76-.4-18.41t-.34-18.06l-10.5.41c-2.9.11-4.65.21-5.26.29V302.3c1-.08,2.84-.12,5.54-.12s5.84,0,9.42-.06,7.4-.05,11.48-.05h11.7q5.6,0,10.11.05t6.68.18Z"/><path class="cls-12" d="M723.75,389.74q-.22-.83-.63-3.45t-1-6.08c-.38-2.3-.78-4.73-1.2-7.31s-.82-4.94-1.2-7.13l-8.45.82c-3.19.31-6,.55-8.56.7-.23,1-.46,2.36-.69,4s-.45,3.33-.68,5l-.63,4.51c-.19,1.36-.32,2.27-.4,2.74H681.16c.3-2.1.87-5.36,1.71-9.76s1.83-9.35,3-14.85,2.36-11.25,3.65-17.3,2.55-11.7,3.77-17,2.3-10,3.26-14,1.65-6.86,2.11-8.42h5.2q3.93,0,8.45.06t8.39.06h5q.34,1.63,1.32,6.14t2.28,10.63q1.31,6.15,2.91,13.51t3.2,14.9q1.59,7.54,3.14,14.73t2.74,13c.8,3.86,1.46,7.1,2,9.71s.83,4.22.91,4.85Zm-17.93-37.18c1.9.08,3.85.14,5.83.18s3.88.1,5.71.18q-.81-4.1-1.6-8.07t-1.54-7.54c-.5-2.38-1-4.56-1.43-6.55s-.84-3.64-1.14-5q-.46,2.1-1.09,5.08c-.42,2-.89,4.17-1.43,6.55s-1.08,4.85-1.65,7.42S706.35,350,705.82,352.56Z"/><path class="cls-12" d="M763,301.36q3.32,1.53,7.08,3.51l7.76,4.09c-1.29,1.72-2.81,3.76-4.56,6.14s-3.54,4.75-5.37,7.13-3.6,4.56-5.31,6.55a20.64,20.64,0,0,1-4.51,4.15c-1.52-.94-3-1.89-4.34-2.87a16.26,16.26,0,0,0-3-1.81c.23-.47.65-1.36,1.26-2.69s1.29-2.88,2-4.67,1.6-3.69,2.52-5.67l2.62-5.73q1.26-2.75,2.23-4.91C762.14,303.14,762.65,302.07,763,301.36Z"/><path class="cls-12" d="M820.58,339.36q4.8,3.5,9.31,6.95a55.14,55.14,0,0,1,7.76,7.13,22.66,22.66,0,0,1,4.63,7.83,15.12,15.12,0,0,1-5.37,16.19,27.3,27.3,0,0,1-9.19,4.62,38.06,38.06,0,0,1-11.59,1.46,39.49,39.49,0,0,1-12.34-2.22,37.21,37.21,0,0,1-11.36-6.43,34.19,34.19,0,0,1-8.85-11.34c.61-.78,1.45-1.73,2.51-2.86s2.23-2.3,3.49-3.51,2.49-2.41,3.71-3.62,2.32-2.32,3.31-3.33a40.9,40.9,0,0,0,4.51,6.13A50.74,50.74,0,0,0,808,363a24.54,24.54,0,0,0,7.25,4.2c2.36.82,4.27.38,5.71-1.34a1.76,1.76,0,0,0,.17-2.4,11.3,11.3,0,0,0-2.79-2.57,44.72,44.72,0,0,0-4.63-2.74q-2.68-1.41-5.19-3-2.07-1.29-4.69-3.16t-5.31-4c-1.78-1.41-3.5-2.85-5.13-4.33a46.77,46.77,0,0,1-4.17-4.21A18.92,18.92,0,0,1,784,327.08a22.34,22.34,0,0,1,3.31-12.27,26.76,26.76,0,0,1,9.71-9.24,25.27,25.27,0,0,1,14-3.27,25.6,25.6,0,0,1,9.82,2.57,53.78,53.78,0,0,1,9.25,5.61,59.58,59.58,0,0,1,7.82,7,57.17,57.17,0,0,1,5.54,6.78q-1.49.93-3.88,2.63c-1.6,1.13-3.29,2.33-5.08,3.62s-3.6,2.55-5.43,3.8-3.42,2.26-4.79,3a29.07,29.07,0,0,1-2.11-2.51l-2.86-3.69c-1-1.32-2.13-2.65-3.31-4a32.9,32.9,0,0,0-3.43-3.39A8.37,8.37,0,0,0,809.5,322a2.6,2.6,0,0,0-2.62.64,3.39,3.39,0,0,0-.92,4.27,15.54,15.54,0,0,0,3.72,4.55,47.18,47.18,0,0,0,5.71,4.33Q818.53,337.83,820.58,339.36Z"/><path class="cls-12" d="M912.5,383.31c-1.07.08-2.8.14-5.2.17s-5.1.06-8.1.06-6.17,0-9.48-.06-6.41-.05-9.31-.05-5.44,0-7.65-.06-3.69-.06-4.45-.06q.11-2.34.11-8.3t0-13.85q-.06-7.89-.12-16.84t-.17-17.18q-.12-8.24-.17-15t-.17-10.11h21.69c-.07.93-.19,2.59-.34,5s-.34,5.25-.57,8.6-.5,7.05-.8,11.1-.63,8.24-1,12.57-.67,8.65-1,13-.61,8.4-.91,12.22c2.28-.24,4.73-.45,7.36-.65s5.2-.38,7.71-.58,4.85-.39,7-.58,4-.37,5.54-.53Z"/><path class="cls-12" d="M935.68,302.18c.07,1.25.15,2.69.23,4.33s.19,3.19.34,4.67H915.93c.15-1.56.32-2.94.51-4.15s.36-2.82.51-4.85ZM916.5,383.54q.11-2.34.11-7.54c0-3.46,0-7.42-.06-11.86s-.07-9.18-.11-14.21-.1-9.89-.17-14.61-.14-9-.17-13-.1-7-.17-9.3h20.32q-.12,1.88-.4,7t-.63,12q-.33,6.84-.8,14.61t-.85,15q-.41,7.2-.74,13.1c-.23,3.93-.39,6.88-.46,8.82Z"/><path class="cls-12" d="M995.28,320.42c-1.06.08-3.06.19-6,.35s-6.34.31-10.22.47q-.35,5.25-.63,11.39T977.81,345q-.33,6.19-.68,12.21t-.57,11.17c-.15,3.43-.31,6.47-.46,9.11s-.27,4.68-.34,6.08H957q.12-2.57.06-9.29t-.23-15.49q-.17-8.76-.4-18.41t-.34-18.06l-10.51.41c-2.89.11-4.64.21-5.25.29V302.3c1-.08,2.84-.12,5.54-.12s5.84,0,9.42-.06,7.4-.05,11.48-.05h11.7q5.6,0,10.1.05t6.68.18Z"/><path class="cls-12" d="M1056.14,320.42c-1.06.08-3.06.19-6,.35s-6.34.31-10.22.47q-.35,5.25-.63,11.39t-.63,12.34q-.33,6.19-.68,12.21t-.57,11.17q-.24,5.14-.46,9.11c-.15,2.65-.27,4.68-.34,6.08h-18.73q.12-2.57.06-9.29t-.23-15.49q-.18-8.76-.4-18.41t-.34-18.06l-10.51.41c-2.89.11-4.64.21-5.25.29V302.3c1-.08,2.84-.12,5.54-.12s5.84,0,9.42-.06,7.4-.05,11.48-.05h11.7q5.6,0,10.1.05t6.68.18Z"/><path class="cls-12" d="M1106.84,383.31c-1.06.08-2.8.14-5.19.17s-5.1.06-8.11.06-6.17,0-9.48-.06-6.41-.05-9.3-.05-5.45,0-7.65-.06-3.7-.06-4.46-.06q.12-2.34.12-8.3t-.06-13.85q-.06-7.89-.12-16.84t-.17-17.18q-.11-8.24-.17-15c0-4.48-.09-7.85-.17-10.11h21.7c-.08.93-.2,2.59-.35,5s-.34,5.25-.57,8.6-.49,7.05-.8,11.1-.62,8.24-1,12.57-.66,8.65-1,13-.61,8.4-.91,12.22c2.28-.24,4.74-.45,7.36-.65s5.2-.38,7.71-.58,4.85-.39,7-.58,4-.37,5.54-.53Z"/><path class="cls-12" d="M1155.89,321.53l-6.46-.12c-2.43,0-5.08-.1-7.93-.17l-8.39-.24q-.34,3.39-.69,7.07t-.68,7.54c2.43-.15,5.08-.27,7.93-.35s5.35-.23,7.48-.46q0,1.4-.06,4.5c0,2.06-.07,4.25-.11,6.54s-.12,4.47-.23,6.49-.21,3.39-.28,4.09c-.84-.15-1.91-.31-3.2-.47s-2.73-.29-4.28-.4l-4.69-.36c-1.56-.11-3-.25-4.39-.4-.16,1.63-.31,3.25-.46,4.85s-.3,3.17-.46,4.73l8.11-.47q4.34-.22,8.57-.41c2.81-.11,5.44-.19,7.87-.23s4.42,0,5.94.06v20.22h-47.27c.07-1.56.13-4.34.17-8.36s.08-8.63.11-13.85.06-10.79.06-16.71V327.55c0-5.45,0-10.41-.06-14.85s-.09-7.83-.17-10.17l2.91-.06,7.2-.11,9.82-.12q5.41-.06,10.68-.06c3.49,0,6.75,0,9.76.12s5.38.19,7.13.35v18.94Q1158.68,321.59,1155.89,321.53Z"/><path class="cls-12" d="M1240.33,337.84c0,1.09,0,2.65-.12,4.67s-.15,4.09-.23,6.2-.15,4.09-.22,6-.12,3.19-.12,4l-4.57-.35v15.43c0,4.52-.07,7.8-.22,9.82H1217q.12-2.69.4-9.7t.63-16.13c-2.74-.16-5.56-.25-8.45-.29s-5.67-.1-8.34-.18q-.23,3.15-.34,7.19c-.07,2.69-.17,5.28-.28,7.77s-.21,4.78-.29,6.84-.15,3.53-.23,4.39h-15.87c.08-1.56.11-4.35.11-8.36V361.21c0-5.21,0-10.81,0-16.77s-.08-11.67-.12-17.13-.07-10.42-.11-14.9-.1-7.85-.17-10.11h20.44c0,.93-.08,2.61-.23,5s-.31,5.26-.46,8.53-.36,6.9-.63,10.87-.51,8-.74,12.16c2.67-.16,5.41-.29,8.22-.41s5.6-.25,8.34-.41c.15-3.82.29-7.54.4-11.16s.21-7,.29-10.17.13-6,.17-8.48,0-4.48-.06-6h15v12.8c0,3.16,0,6.66.06,10.52s.09,7.85.17,12c1.14,0,2.18,0,3.14.06S1239.72,337.76,1240.33,337.84Z"/><path class="cls-12" d="M1286.74,321.53l-6.45-.12c-2.43,0-5.08-.1-7.93-.17L1264,321q-.33,3.39-.68,7.07t-.69,7.54c2.44-.15,5.08-.27,7.94-.35s5.35-.23,7.48-.46q0,1.4-.06,4.5c0,2.06-.08,4.25-.11,6.54s-.12,4.47-.23,6.49-.21,3.39-.29,4.09c-.83-.15-1.9-.31-3.19-.47s-2.73-.29-4.29-.4l-4.68-.36c-1.56-.11-3-.25-4.39-.4-.16,1.63-.31,3.25-.46,4.85s-.31,3.17-.46,4.73l8.11-.47c2.89-.15,5.75-.29,8.56-.41s5.45-.19,7.88-.23,4.42,0,5.94.06v20.22h-47.27c.07-1.56.13-4.34.17-8.36s.07-8.63.11-13.85.06-10.79.06-16.71V327.55c0-5.45,0-10.41-.06-14.85s-.09-7.83-.17-10.17l2.91-.06,7.2-.11,9.82-.12q5.42-.06,10.67-.06t9.77.12c3,.08,5.38.19,7.13.35v18.94C1289.92,321.59,1288.61,321.57,1286.74,321.53Z"/><path class="cls-12" d="M1338.87,383.31c-1.07.08-2.8.14-5.2.17s-5.1.06-8.1.06-6.17,0-9.48-.06-6.41-.05-9.31-.05-5.44,0-7.65-.06-3.69-.06-4.45-.06q.1-2.34.11-8.3t0-13.85q-.06-7.89-.12-16.84t-.17-17.18q-.12-8.24-.17-15t-.17-10.11h21.69c-.07.93-.19,2.59-.34,5s-.34,5.25-.57,8.6-.5,7.05-.8,11.1-.63,8.24-1,12.57-.67,8.65-1,13-.61,8.4-.91,12.22c2.28-.24,4.73-.45,7.36-.65s5.2-.38,7.71-.58,4.85-.39,7-.58,4-.37,5.54-.53Z"/><path class="cls-12" d="M1345,307.09c0-.78.89-1.54,2.68-2.28a34.57,34.57,0,0,1,7-1.87,64.11,64.11,0,0,1,9.77-.87,65.87,65.87,0,0,1,11.07.7,48.36,48.36,0,0,1,10.79,2.86,29,29,0,0,1,9.08,5.61,23.16,23.16,0,0,1,5.94,8.94,27.71,27.71,0,0,1,1.26,12.86,47.55,47.55,0,0,1-4,14.5,35.74,35.74,0,0,1-8.22,11.39,34.32,34.32,0,0,1-12.22,7.19,38.19,38.19,0,0,1-15.76,1.76c-.3,3.51-.53,6.62-.68,9.35s-.31,4.83-.46,6.31h-16.56c0-.86,0-2.57.06-5.14s.06-5.67.06-9.29V357.06q0-6.6,0-13.32t.06-13.15V319.13c0-3.35,0-6.11.06-8.3S1345,307.4,1345,307.09Zm37.33,28.17a8.64,8.64,0,0,0-1.14-4.91,10.84,10.84,0,0,0-3.54-3.56,18,18,0,0,0-5.31-2.22,30.7,30.7,0,0,0-6.45-.88q-.45,5.61-.91,11.87t-1,12.68a23.92,23.92,0,0,0,7-.53,16.47,16.47,0,0,0,5.71-2.45,13.19,13.19,0,0,0,3.94-4.21A12.92,12.92,0,0,0,1382.37,335.26Z"/><path class="cls-12" d="M1449.35,321.53l-6.46-.12c-2.43,0-5.08-.1-7.93-.17l-8.39-.24q-.35,3.39-.69,7.07t-.68,7.54c2.43-.15,5.08-.27,7.93-.35s5.35-.23,7.48-.46q0,1.4-.06,4.5c0,2.06-.07,4.25-.11,6.54s-.12,4.47-.23,6.49-.21,3.39-.28,4.09c-.84-.15-1.91-.31-3.2-.47s-2.73-.29-4.28-.4l-4.69-.36c-1.56-.11-3-.25-4.39-.4-.16,1.63-.31,3.25-.46,4.85s-.3,3.17-.46,4.73l8.11-.47q4.34-.22,8.57-.41c2.81-.11,5.44-.19,7.87-.23s4.42,0,5.94.06v20.22h-47.27c.07-1.56.13-4.34.17-8.36s.08-8.63.11-13.85.06-10.79.06-16.71V327.55c0-5.45,0-10.41-.06-14.85s-.09-7.83-.17-10.17l2.91-.06,7.2-.11,9.82-.12q5.41-.06,10.68-.06c3.49,0,6.75,0,9.76.12s5.38.19,7.13.35v18.94Q1452.14,321.59,1449.35,321.53Z"/><path class="cls-12" d="M1496.33,355.25q3,1.53,5.94,3c2,1,3.88,1.93,5.71,2.87l5,2.57q2.28,1.17,4,2.1c-.53,1-1.25,2.36-2.17,4s-1.88,3.39-2.91,5.14-2,3.43-2.91,5-1.64,2.78-2.17,3.56q-1.38-.93-4.63-3.21t-7.42-5.15q-4.17-2.85-8.79-6.13t-8.74-6.08c-.15,1.4-.26,3.15-.34,5.26s-.15,4.19-.23,6.25-.15,3.94-.23,5.61-.15,2.87-.22,3.57h-15.88q.12-2.34.12-8.13V362.15q0-7.61-.06-16.19t-.11-16.54q-.06-7.95-.12-14.44t-.17-9.88c0-.77.82-1.46,2.46-2a26.64,26.64,0,0,1,6.5-1.23,72.3,72.3,0,0,1,9.2-.12,63.16,63.16,0,0,1,10.5,1.41,60.2,60.2,0,0,1,10.51,3.33,33.25,33.25,0,0,1,9.13,5.67,25.84,25.84,0,0,1,6.34,8.41,25.44,25.44,0,0,1,2.23,11.46,21.49,21.49,0,0,1-1.66,7.77,25.82,25.82,0,0,1-4.17,6.78,24.69,24.69,0,0,1-6.39,5.32A31.86,31.86,0,0,1,1496.33,355.25Zm-17-15.78a33.24,33.24,0,0,0,7,1,15.44,15.44,0,0,0,5.6-.7,7.8,7.8,0,0,0,3.82-2.69,9.11,9.11,0,0,0,1.66-5,10.41,10.41,0,0,0-4.34-9.65,14.28,14.28,0,0,0-5.25-2.28,30.34,30.34,0,0,0-6.62-.7c-.23,3-.5,6.14-.8,9.53S1479.7,335.89,1479.32,339.47Z"/><path class="cls-12" d="M967.61,496.31q1.11-.06,2.55-.06h3l3.06,0,2.81,0a17.41,17.41,0,0,1-.61,3.18,21.33,21.33,0,0,1-1.41,3.65,21,21,0,0,1-2.29,3.64,17.14,17.14,0,0,1-3.16,3.15,14.72,14.72,0,0,1-4,2.21,13.68,13.68,0,0,1-5,.76,17,17,0,0,1-8.69-2.08,13.22,13.22,0,0,1-5.06-5.23,17.08,17.08,0,0,1-1.86-7.23,29.14,29.14,0,0,1,.79-8.14,34.4,34.4,0,0,1,3-8,29.71,29.71,0,0,1,4.81-6.77,20,20,0,0,1,6.09-4.41,11.92,11.92,0,0,1,6.89-1,11.23,11.23,0,0,1,5.57,2.3,12.39,12.39,0,0,1,3.19,4,13.94,13.94,0,0,1,1.38,4.53,26.85,26.85,0,0,1,.21,4c-.73,0-1.55,0-2.45.06l-2.75.12-2.79.13c-.92,0-1.77.06-2.54.06-.08-2-.51-3.25-1.29-3.86a2.24,2.24,0,0,0-2.72,0,10.52,10.52,0,0,0-3.22,3.64,24.94,24.94,0,0,0-2.69,7.07,16.84,16.84,0,0,0-.55,5.67,9.75,9.75,0,0,0,1.07,3.86,3.84,3.84,0,0,0,2.05,1.86,3.16,3.16,0,0,0,2.51-.18,6.3,6.3,0,0,0,2.42-2.33A13.11,13.11,0,0,0,967.61,496.31Z"/><path class="cls-12" d="M1001.84,516.15c-.08-.29-.19-.89-.33-1.81s-.32-2-.52-3.18-.42-2.48-.65-3.83-.44-2.59-.64-3.73l-4.53.43c-1.71.16-3.25.28-4.59.36-.13.53-.25,1.24-.37,2.12s-.24,1.74-.37,2.6l-.33,2.36c-.11.71-.18,1.19-.22,1.43H979c.17-1.1.47-2.8.92-5.11s1-4.9,1.59-7.77,1.27-5.9,2-9.07,1.37-6.13,2-8.91,1.23-5.22,1.74-7.34.89-3.6,1.13-4.41h2.79l4.53,0,4.5,0h2.7c.12.57.35,1.64.7,3.21s.75,3.43,1.22,5.57,1,4.51,1.57,7.08,1.14,5.17,1.71,7.8,1.13,5.21,1.68,7.72,1,4.78,1.47,6.8.79,3.71,1.07,5.08.45,2.21.49,2.54Zm-9.61-19.47q1.53.06,3.12.09t3.06.09c-.28-1.43-.57-2.84-.85-4.22s-.56-2.71-.83-3.95-.52-2.39-.76-3.43-.45-1.91-.62-2.6c-.16.73-.35,1.62-.58,2.66s-.48,2.18-.76,3.43-.59,2.54-.89,3.89S992.52,495.33,992.23,496.68Z"/><path class="cls-12" d="M1038,479.84l-3.21.18c-1.57.09-3.4.17-5.48.25-.12,1.83-.24,3.83-.34,6s-.21,4.3-.34,6.46-.24,4.29-.36,6.4-.23,4-.31,5.84-.16,3.39-.24,4.78-.15,2.45-.19,3.18h-10c0-.89.05-2.52,0-4.86s-.06-5.06-.12-8.12-.13-6.27-.22-9.64-.14-6.52-.18-9.46l-5.63.21c-1.55.06-2.49.12-2.82.16V470.35q.79-.06,3-.06l5.05,0q2.88,0,6.16,0H1029c2,0,3.81,0,5.42,0s2.81.05,3.58.09Z"/><path class="cls-12" d="M1056.34,496.31c.74,0,1.58-.06,2.54-.06h3l3.06,0,2.82,0a18.3,18.3,0,0,1-.61,3.18,21.33,21.33,0,0,1-1.41,3.65,21.06,21.06,0,0,1-2.3,3.64,17.4,17.4,0,0,1-3.15,3.15,14.87,14.87,0,0,1-4,2.21,13.72,13.72,0,0,1-5,.76,17.11,17.11,0,0,1-8.7-2.08,13.19,13.19,0,0,1-5-5.23,17.08,17.08,0,0,1-1.87-7.23,29.16,29.16,0,0,1,.8-8.14,33.53,33.53,0,0,1,3-8,29.71,29.71,0,0,1,4.81-6.77,19.73,19.73,0,0,1,6.09-4.41,11.9,11.9,0,0,1,6.89-1,11.31,11.31,0,0,1,5.57,2.3,12.22,12.22,0,0,1,3.18,4,13.47,13.47,0,0,1,1.38,4.53,26.85,26.85,0,0,1,.21,4c-.73,0-1.55,0-2.44.06l-2.76.12-2.79.13c-.91,0-1.76.06-2.54.06-.08-2-.51-3.25-1.28-3.86a2.26,2.26,0,0,0-2.73,0,10.41,10.41,0,0,0-3.21,3.64,25.23,25.23,0,0,0-2.7,7.07,17.1,17.1,0,0,0-.55,5.67,9.75,9.75,0,0,0,1.07,3.86,3.89,3.89,0,0,0,2.06,1.86,3.17,3.17,0,0,0,2.51-.18,6.28,6.28,0,0,0,2.41-2.33A13.3,13.3,0,0,0,1056.34,496.31Z"/><path class="cls-12" d="M1101,489c0,.57,0,1.39-.06,2.45s-.09,2.14-.12,3.25-.09,2.14-.13,3.12-.06,1.67-.06,2.08l-2.45-.18v8.08c0,2.37,0,4.08-.12,5.14h-9.55c0-.93.11-2.63.21-5.08s.22-5.26.34-8.45q-2.2-.12-4.53-.15t-4.47-.09c-.08,1.1-.14,2.35-.19,3.76s-.09,2.77-.15,4.07-.11,2.51-.15,3.59-.08,1.84-.12,2.29H1071c0-.81.07-2.27.07-4.38v-7.25c0-2.74,0-5.66,0-8.79s0-6.11-.07-9,0-5.46-.06-7.81-.05-4.11-.09-5.29h11c0,.49,0,1.37-.12,2.63s-.17,2.76-.25,4.47-.19,3.61-.33,5.7-.28,4.2-.4,6.36q2.14-.12,4.41-.21t4.47-.21q.12-3,.21-5.85c.06-1.9.11-3.68.16-5.33s.07-3.13.09-4.44,0-2.35,0-3.12h8v6.7c0,1.66,0,3.49,0,5.51s0,4.12.09,6.28q.92,0,1.68,0T1101,489Z"/><path class="cls-12" d="M1121.86,506.05l4.22-.28,4.47-.3c1.43-.11,2.69-.21,3.77-.31s1.78-.18,2.11-.22v1.81c0,.72,0,1.46,0,2.24s0,1.51,0,2.2v1.71H1114.2c0-.4-.1-1.24-.18-2.51a18.78,18.78,0,0,1,.64-6.82A15.16,15.16,0,0,1,1117,499a14.73,14.73,0,0,1,3.09-3c1.12-.79,2.13-1.54,3-2.23.61-.49,1.3-1.07,2.05-1.75a14.73,14.73,0,0,0,2-2.17,6.48,6.48,0,0,0,1.17-2.27,2.08,2.08,0,0,0-.59-2,1.3,1.3,0,0,0-1.62-.3,4.65,4.65,0,0,0-1.71,1.59,11.55,11.55,0,0,0-1.41,2.79,12.1,12.1,0,0,0-.7,3.21c-.62-.37-1.29-.8-2-1.29s-1.45-1-2.15-1.43l-2-1.35-1.56-1.07a12.9,12.9,0,0,1,1.23-3.49,17.69,17.69,0,0,1,2.57-3.89,15.26,15.26,0,0,1,3.76-3.19,9.28,9.28,0,0,1,4.87-1.31,10.43,10.43,0,0,1,4.5.79,9.32,9.32,0,0,1,3.19,2.27,10.23,10.23,0,0,1,1.92,3.21,11,11,0,0,1,.71,3.71,12.15,12.15,0,0,1-.55,3.76,10.15,10.15,0,0,1-1.75,3.34,18.83,18.83,0,0,1-3.73,3.58q-2.08,1.5-4,2.94a27.31,27.31,0,0,0-3.46,3A7,7,0,0,0,1121.86,506.05Z"/><path class="cls-12" d="M1163.49,494.84c0,.29,0,.92,0,1.9s0,2.05-.09,3.21-.07,2.28-.09,3.34a20.57,20.57,0,0,0,0,2.14l-1.75,0-3.58.09c-.08,1.47-.16,2.84-.24,4.13s-.15,2.36-.19,3.21h-5.63c0-.61,0-1.56-.09-2.84s-.14-2.75-.22-4.38c-1.26,0-2.51,0-3.73,0l-3.34.06-2.51.06-1.31,0a30,30,0,0,0-.07-3.24c-.08-1.47-.17-3.16-.27-5.05s-.23-3.91-.37-6-.27-4.18-.4-6.18l-.33-5.51c-.11-1.67-.16-3-.16-4h10.41q-.06.92-.15,3.18c-.06,1.51-.12,3.25-.18,5.21s-.14,4-.22,6.21-.16,4.24-.24,6.16a7.07,7.07,0,0,1,1.19-.16,10.22,10.22,0,0,0,1.26-.15c0-1.31-.09-2.52-.13-3.64s-.06-2.12-.06-3c1.06,0,2.28,0,3.64.09l4.32.21c0,.49-.08,1.21-.12,2.15s-.1,2-.18,3.24c1.22-.16,2.27-.28,3.15-.37S1163.25,494.84,1163.49,494.84Z"/><path class="cls-12" d="M1201.82,492.27a13,13,0,0,1,6,4.1,8.72,8.72,0,0,1,1.8,5.7,7.84,7.84,0,0,1-3.15,6,20.24,20.24,0,0,1-7.63,3.55,44.78,44.78,0,0,1-10.34,1.28,64.15,64.15,0,0,1-11.39-.82q.06-.85.06-3.06V483.15q0-3.37,0-6t0-4.17v-1.62c0-.41.42-.78,1.25-1.1a15.91,15.91,0,0,1,3.34-.8,31.14,31.14,0,0,1,4.75-.27,38.18,38.18,0,0,1,5.45.46,30.13,30.13,0,0,1,5.41,1.34,16.78,16.78,0,0,1,4.69,2.48,11.7,11.7,0,0,1,3.27,3.83,10.7,10.7,0,0,1,1.17,5.39,12.51,12.51,0,0,1-1.26,5.36A12.3,12.3,0,0,1,1201.82,492.27Zm-4,9.31a3.11,3.11,0,0,0-1.07-2.7,6.88,6.88,0,0,0-2.82-1.31,15.5,15.5,0,0,0-3.64-.4c-1.31,0-2.45,0-3.43.06-.12,1.43-.23,2.81-.33,4.13s-.22,2.58-.34,3.77a22.74,22.74,0,0,0,3.92.4,15.68,15.68,0,0,0,3.73-.37,7,7,0,0,0,2.82-1.29A3,3,0,0,0,1197.78,501.58Zm-9.43-22c-.08,1.27-.18,2.6-.3,4s-.25,2.8-.37,4.23a15,15,0,0,0,3.55.18,7.37,7.37,0,0,0,2.85-.73,5.08,5.08,0,0,0,1.93-1.72,5.19,5.19,0,0,0,.79-2.75,2.74,2.74,0,0,0-.67-2.08,4.31,4.31,0,0,0-1.93-1.17,8.78,8.78,0,0,0-2.72-.33A15.58,15.58,0,0,0,1188.35,479.59Z"/><path class="cls-12" d="M1235.22,480.42l-3.45-.06-4.26-.09-4.5-.12c-.12,1.18-.24,2.41-.37,3.7s-.24,2.6-.37,3.95q2-.12,4.26-.18c1.53,0,2.87-.13,4-.25,0,.49,0,1.28,0,2.36s0,2.22-.06,3.43-.06,2.33-.12,3.4-.12,1.77-.16,2.14c-.45-.08-1-.16-1.71-.25s-1.46-.15-2.3-.21l-2.51-.18c-.83-.07-1.62-.14-2.35-.22-.09.86-.17,1.71-.25,2.54s-.16,1.67-.25,2.48l4.35-.24c1.55-.08,3.08-.16,4.59-.22s2.92-.1,4.23-.12,2.37,0,3.18,0V512.9H1211.8c0-.81.07-2.27.1-4.37s0-4.52.06-7.26,0-5.65,0-8.76v-8.94c0-2.85,0-5.45,0-7.77s0-4.1-.09-5.33l1.56,0,3.85-.06,5.27-.06,5.73,0c1.87,0,3.62,0,5.23.06s2.89.1,3.83.18v9.92Z"/><path class="cls-12" d="M1263.3,480.42l-3.46-.06-4.29-.09-4.5-.12c-.12,1.18-.24,2.4-.37,3.67s-.24,2.57-.36,3.92l4.28-.15c1.51-.07,2.84-.16,4-.28,0,.49,0,1.29,0,2.39s0,2.24-.06,3.43-.06,2.3-.12,3.36-.11,1.78-.15,2.15c-.45,0-1-.1-1.72-.19l-2.29-.24-2.51-.22c-.84-.06-1.63-.13-2.36-.21-.17,1.67-.32,3.29-.46,4.84s-.28,3-.4,4.31-.22,2.49-.31,3.49-.14,1.81-.18,2.42h-8.14c0-.81.07-2.26.09-4.34s0-4.49.06-7.23,0-5.65.06-8.76,0-6.09,0-9,0-5.48,0-7.8,0-4.11-.06-5.33l1.56,0,3.86-.06,5.23-.06q2.88,0,5.7,0c1.88,0,3.62.05,5.23.09s2.89.1,3.83.18v9.92Z"/><path class="cls-12" d="M1282,470.35a15.61,15.61,0,0,1,7.44,1.74,13.69,13.69,0,0,1,4.9,4.57,20.37,20.37,0,0,1,2.73,6.73,38.17,38.17,0,0,1,.85,8.27,30,30,0,0,1-1.1,8.29,21.93,21.93,0,0,1-3.18,6.83,15.32,15.32,0,0,1-5,4.59,12.26,12.26,0,0,1-6.62,1.53,14.47,14.47,0,0,1-12.06-6.39,20.63,20.63,0,0,1-2.91-6.65,33.85,33.85,0,0,1-1-8.2,33,33,0,0,1,1-8.33,21.58,21.58,0,0,1,3-6.83,14.44,14.44,0,0,1,5-4.56A13.59,13.59,0,0,1,1282,470.35Zm0,33.37a3.84,3.84,0,0,0,2.58-.83,7.19,7.19,0,0,0,2-2.45,14.53,14.53,0,0,0,1.22-3.64,21.88,21.88,0,0,0,.43-4.47,26.47,26.47,0,0,0-.34-4.38,13.44,13.44,0,0,0-1.07-3.61,6.43,6.43,0,0,0-1.9-2.45,4.89,4.89,0,0,0-2.88-.95,4.33,4.33,0,0,0-2.69.89,6.69,6.69,0,0,0-1.93,2.45,14.15,14.15,0,0,0-1.16,3.64,23.11,23.11,0,0,0-.4,4.41,24.77,24.77,0,0,0,.37,4.44,12.55,12.55,0,0,0,1.13,3.55,7.11,7.11,0,0,0,1.93,2.42A4.6,4.6,0,0,0,1282,503.72Z"/><path class="cls-12" d="M1319.57,498.09l3.18,1.56,3.06,1.5,2.7,1.35c.81.4,1.53.77,2.14,1.1-.28.53-.67,1.23-1.16,2.11s-1,1.78-1.56,2.69l-1.57,2.64c-.48.83-.87,1.46-1.16,1.86-.49-.32-1.31-.88-2.48-1.68s-2.49-1.69-4-2.69-3.06-2.07-4.71-3.22-3.22-2.2-4.69-3.18c-.08.73-.14,1.65-.18,2.75s-.08,2.2-.12,3.28-.08,2.06-.13,2.94-.08,1.5-.12,1.87h-8.51q.06-1.23.06-4.26v-7q0-4,0-8.48t-.06-8.67q0-4.16-.06-7.56c0-2.26,0-4-.09-5.17,0-.41.43-.77,1.31-1.07a14.8,14.8,0,0,1,3.49-.65,39.51,39.51,0,0,1,4.93-.06,34.1,34.1,0,0,1,5.64.74,33.56,33.56,0,0,1,5.63,1.74,18.17,18.17,0,0,1,4.9,3,13.74,13.74,0,0,1,3.4,4.41,13.11,13.11,0,0,1,1.19,6,11,11,0,0,1-.89,4.07,13.34,13.34,0,0,1-2.23,3.55,12.94,12.94,0,0,1-3.43,2.79A17.33,17.33,0,0,1,1319.57,498.09Zm-9.13-8.27a18.58,18.58,0,0,0,3.74.55,8.46,8.46,0,0,0,3-.37,4.18,4.18,0,0,0,2-1.4,4.77,4.77,0,0,0,.89-2.64,5.56,5.56,0,0,0-.52-3,5.74,5.74,0,0,0-1.81-2.08,7.56,7.56,0,0,0-2.81-1.19,16.14,16.14,0,0,0-3.56-.37c-.12,1.55-.26,3.21-.42,5S1310.65,487.94,1310.44,489.82Z"/><path class="cls-12" d="M1356.09,480.42l-3.46-.06-4.25-.09-4.5-.12c-.13,1.18-.25,2.41-.37,3.7s-.24,2.6-.37,3.95q2-.12,4.26-.18c1.53,0,2.87-.13,4-.25,0,.49,0,1.28,0,2.36s0,2.22-.06,3.43-.06,2.33-.13,3.4-.11,1.77-.15,2.14c-.45-.08-1-.16-1.71-.25s-1.46-.15-2.3-.21l-2.51-.18c-.84-.07-1.62-.14-2.36-.22-.08.86-.16,1.71-.24,2.54s-.17,1.67-.25,2.48l4.35-.24c1.55-.08,3.08-.16,4.59-.22s2.92-.1,4.23-.12,2.37,0,3.18,0V512.9h-25.35c0-.81.07-2.27.09-4.37s0-4.52.06-7.26,0-5.65,0-8.76v-8.94c0-2.85,0-5.45,0-7.77s0-4.1-.09-5.33l1.56,0,3.86-.06,5.27-.06,5.72,0c1.88,0,3.63,0,5.24.06s2.89.1,3.83.18v9.92Z"/><path class="cls-12" d="M976.25,553.32l-3.22.18-5.48.25q-.18,2.75-.33,6t-.34,6.46q-.18,3.24-.37,6.39t-.3,5.85c-.09,1.8-.17,3.39-.25,4.78s-.14,2.45-.18,3.18h-10c0-.9,0-2.52,0-4.87s-.06-5-.13-8.11-.13-6.28-.21-9.64-.14-6.52-.18-9.46l-5.64.21c-1.55.06-2.49.11-2.81.15V543.83q.8-.06,3-.06c1.44,0,3.13,0,5.05,0s4,0,6.15,0h6.28c2,0,3.8,0,5.42,0s2.8.06,3.58.1Z"/><path class="cls-12" d="M1009.56,562.44c0,.57,0,1.39-.06,2.45s-.09,2.14-.13,3.25-.08,2.14-.12,3.12-.06,1.67-.06,2.08l-2.45-.18v8.08c0,2.37,0,4.08-.12,5.14h-9.55c0-.94.11-2.63.21-5.08s.22-5.27.34-8.45q-2.21-.12-4.53-.15c-1.56,0-3-.05-4.47-.09-.09,1.1-.15,2.35-.19,3.76s-.09,2.77-.15,4.07-.11,2.5-.15,3.58-.09,1.85-.13,2.3h-8.51c0-.81.07-2.27.07-4.38v-7.25c0-2.74,0-5.67,0-8.79s0-6.11-.06-9,0-5.46-.06-7.81,0-4.11-.09-5.29h11c0,.49,0,1.36-.12,2.63s-.17,2.76-.25,4.47-.19,3.61-.33,5.69-.28,4.21-.4,6.37q2.15-.12,4.41-.21c1.51-.06,3-.13,4.47-.22q.12-3,.21-5.84c.06-1.9.11-3.68.15-5.33s.08-3.13.1-4.44,0-2.35,0-3.12h8v6.7c0,1.65,0,3.49,0,5.51s.05,4.12.09,6.28q.92,0,1.68,0T1009.56,562.44Z"/><path class="cls-12" d="M1034.45,553.9l-3.46-.06-4.26-.09-4.5-.13c-.12,1.19-.24,2.42-.37,3.71s-.24,2.6-.36,3.95c1.3-.08,2.72-.15,4.25-.19s2.87-.12,4-.24c0,.49,0,1.27,0,2.36s0,2.22-.06,3.42-.06,2.34-.12,3.4-.11,1.78-.16,2.15c-.44-.08-1-.17-1.71-.25s-1.46-.15-2.3-.21l-2.5-.19c-.84-.06-1.63-.13-2.36-.21-.09.86-.17,1.7-.25,2.54s-.16,1.66-.24,2.48l4.34-.24c1.55-.09,3.09-.16,4.6-.22s2.91-.1,4.22-.12,2.37,0,3.19,0v10.59H1011q.06-1.21.09-4.38t.06-7.25q0-4.11,0-8.76v-8.94c0-2.85,0-5.45,0-7.77s0-4.11-.09-5.33l1.56,0,3.86-.06,5.26-.06,5.73,0c1.87,0,3.62,0,5.23.06s2.89.1,3.83.18v9.92Z"/><path class="cls-12" d="M1079.05,553.32l-3.21.18-5.48.25q-.18,2.75-.34,6t-.33,6.46q-.2,3.24-.37,6.39c-.12,2.11-.23,4.06-.31,5.85s-.16,3.39-.24,4.78-.15,2.45-.19,3.18h-10c0-.9,0-2.52,0-4.87s-.06-5-.12-8.11-.13-6.28-.21-9.64-.15-6.52-.19-9.46l-5.63.21q-2.33.09-2.82.15V543.83q.8-.06,3-.06c1.45,0,3.14,0,5,0s4,0,6.16,0h6.27c2,0,3.81,0,5.42,0s2.81.06,3.58.1Z"/><path class="cls-12" d="M1092.16,543.77c0,.65.08,1.4.12,2.26s.1,1.67.18,2.45h-10.9c.09-.82.18-1.54.28-2.17s.19-1.48.28-2.54Zm-10.29,42.61c0-.81.06-2.13.06-4s0-3.89,0-6.21,0-4.81-.06-7.44,0-5.19-.09-7.66-.07-4.73-.09-6.79-.06-3.69-.1-4.87h10.9c0,.65-.11,1.88-.21,3.67s-.22,3.89-.34,6.28-.26,4.94-.43,7.65-.31,5.33-.46,7.84-.27,4.8-.39,6.86-.21,3.6-.25,4.62Z"/><path class="cls-12" d="M1127.82,547.5c.1,1.39.23,3,.37,5s.28,4,.4,6.34.25,4.65.4,7,.27,4.72.4,7,.23,4.36.33,6.22.2,3.43.28,4.74.12,2.16.12,2.57h-10.9c0-.9-.08-2-.12-3.43s-.09-2.86-.15-4.44-.12-3.17-.16-4.8-.08-3.16-.12-4.56-.08-2.64-.12-3.68-.06-1.76-.06-2.17c-.33.73-.73,1.56-1.2,2.48s-1,1.84-1.47,2.75l-1.53,2.76-1.38,2.48c-.57-.78-1.14-1.64-1.71-2.6s-1.11-1.9-1.62-2.82-1-1.78-1.47-2.57-.87-1.44-1.2-1.93c0,1.06-.09,2.29-.15,3.7s-.11,2.89-.15,4.44-.09,3.12-.16,4.69-.12,3-.18,4.34-.11,2.47-.15,3.43-.08,1.61-.12,1.93h-11.33c.12-2,.27-4.27.46-7s.37-5.46.58-8.36.4-5.8.58-8.72.36-5.62.52-8.11.31-4.66.43-6.5.2-3.14.24-3.91h10.78c.25.81.58,1.84,1,3.09s.89,2.51,1.38,3.79,1,2.52,1.47,3.68.9,2.05,1.22,2.66c1-2.32,2-4.57,2.85-6.73s1.66-4.06,2.36-5.7h9.06Q1127.67,545.42,1127.82,547.5Z"/><path class="cls-12" d="M1156.42,553.9l-3.46-.06-4.26-.09-4.5-.13c-.12,1.19-.24,2.42-.37,3.71s-.24,2.6-.36,3.95c1.3-.08,2.72-.15,4.25-.19s2.87-.12,4-.24c0,.49,0,1.27,0,2.36s0,2.22-.06,3.42-.06,2.34-.12,3.4-.11,1.78-.16,2.15c-.44-.08-1-.17-1.71-.25s-1.46-.15-2.3-.21l-2.5-.19c-.84-.06-1.63-.13-2.36-.21-.09.86-.17,1.7-.25,2.54s-.16,1.66-.24,2.48l4.34-.24c1.55-.09,3.09-.16,4.6-.22s2.91-.1,4.22-.12,2.37,0,3.19,0v10.59H1133q.06-1.21.09-4.38t.06-7.25q0-4.11,0-8.76v-8.94c0-2.85,0-5.45,0-7.77s-.05-4.11-.09-5.33l1.56,0,3.86-.06,5.26-.06,5.73,0c1.87,0,3.62,0,5.23.06s2.89.1,3.83.18v9.92Z"/><path class="cls-12" d="M1190.92,571.56c1.06.54,2.12,1.06,3.18,1.57s2.09,1,3.07,1.5l2.69,1.34c.82.41,1.53.78,2.14,1.1-.28.54-.67,1.24-1.16,2.12s-1,1.77-1.56,2.69l-1.56,2.63c-.49.84-.88,1.46-1.17,1.87l-2.47-1.68-4-2.7q-2.23-1.5-4.71-3.21t-4.68-3.18c-.09.73-.15,1.65-.19,2.75s-.08,2.2-.12,3.28-.08,2.06-.12,2.94-.09,1.5-.13,1.86h-8.51c0-.81.07-2.23.07-4.25v-7c0-2.66,0-5.48,0-8.48s0-5.89-.06-8.67,0-5.29-.06-7.56,0-4-.09-5.17q0-.62,1.32-1.08a14.76,14.76,0,0,1,3.49-.64,39.32,39.32,0,0,1,4.92-.06,35.16,35.16,0,0,1,5.64.73,32.43,32.43,0,0,1,5.63,1.75,17.92,17.92,0,0,1,4.9,3,13.52,13.52,0,0,1,3.4,4.41,13.06,13.06,0,0,1,1.19,6,11,11,0,0,1-.88,4.07,13.63,13.63,0,0,1-2.24,3.55,13.35,13.35,0,0,1-3.43,2.79A17.31,17.31,0,0,1,1190.92,571.56Zm-9.12-8.26a18.49,18.49,0,0,0,3.73.55,8.4,8.4,0,0,0,3-.37,4.13,4.13,0,0,0,2-1.41,4.74,4.74,0,0,0,.89-2.63,5.56,5.56,0,0,0-.52-3,5.73,5.73,0,0,0-1.8-2.08,7.86,7.86,0,0,0-2.82-1.2,16.68,16.68,0,0,0-3.55-.36c-.13,1.55-.27,3.21-.43,5S1182,561.42,1181.8,563.3Z"/><path class="cls-12" d="M1233.05,544.68a91,91,0,0,1,1.59,19.23,38.68,38.68,0,0,1-2.45,12.92,15.67,15.67,0,0,1-5.45,7.29,13,13,0,0,1-7.41,2.26,13.54,13.54,0,0,1-7.25-1.9c-2.06-1.26-3.69-3.5-4.87-6.7a45.09,45.09,0,0,1-2.17-13.07,146.71,146.71,0,0,1,.88-21h10.47c0,.09-.05.62-.15,1.6s-.22,2.25-.37,3.82-.27,3.36-.39,5.36-.21,4-.25,6.09,0,4.09.12,6.06a36.5,36.5,0,0,0,.68,5.27,11.16,11.16,0,0,0,1.38,3.71,2.64,2.64,0,0,0,2.29,1.4,2.6,2.6,0,0,0,2.27-1.37,11.48,11.48,0,0,0,1.34-3.62,30.28,30.28,0,0,0,.62-5.08q.12-2.85.06-5.85c0-2-.14-4-.28-5.87s-.29-3.65-.43-5.18-.27-2.77-.4-3.73-.18-1.48-.18-1.57h5.3c1,0,1.88,0,2.78,0Z"/><path class="cls-12" d="M1258.09,543.83q1.23-.06,2.94-.06h3.49c1.19,0,2.3,0,3.34,0l2.48,0c-.08,1-.23,2.6-.43,4.86s-.42,4.85-.64,7.75-.47,5.94-.74,9.12-.5,6.19-.7,9-.39,5.3-.55,7.44-.27,3.61-.31,4.38h-8.45c-.77-1.92-1.47-3.6-2.08-5s-1.28-3-2-4.78-1.4-3.39-2-5l-1.72-4.16c-.48-1.18-.79-2-.91-2.33-.09,1.51-.19,3.37-.31,5.58s-.26,4.37-.4,6.52-.26,4.07-.37,5.78-.17,2.84-.21,3.37H1237.4q.12-3,.33-7c.15-2.63.3-5.37.46-8.2s.32-5.69.46-8.55.29-5.5.43-7.93.26-4.55.34-6.36.14-3.12.18-3.89c.65,0,1.49.07,2.51.09l3.15.09,3.13.09,2.42,0c.12.37.41,1.14.88,2.3s1,2.58,1.75,4.26,1.46,3.51,2.3,5.51,1.68,4,2.54,6q0-3.31,0-6.4c0-2.06,0-3.95,0-5.66s0-3.18,0-4.38S1258.13,544.32,1258.09,543.83Z"/><path class="cls-12" d="M1291.22,563.24c1.71,1.22,3.37,2.44,5,3.64a28.93,28.93,0,0,1,4.16,3.73,11.66,11.66,0,0,1,2.48,4.11,7.3,7.3,0,0,1-.12,4.74,7.55,7.55,0,0,1-2.76,3.74,14.79,14.79,0,0,1-4.92,2.42,21,21,0,0,1-6.22.76,21.78,21.78,0,0,1-6.61-1.16,20.1,20.1,0,0,1-6.09-3.37,17.93,17.93,0,0,1-4.75-5.94c.33-.41.77-.91,1.35-1.5s1.19-1.2,1.86-1.84,1.34-1.26,2-1.89l1.78-1.75a21,21,0,0,0,2.42,3.22,27.52,27.52,0,0,0,3.67,3.49,13.45,13.45,0,0,0,3.89,2.2,2.61,2.61,0,0,0,3.06-.7.91.91,0,0,0,.09-1.26,5.67,5.67,0,0,0-1.5-1.35,23.1,23.1,0,0,0-2.48-1.44,29.34,29.34,0,0,1-2.78-1.59c-.74-.45-1.57-1-2.51-1.65s-1.89-1.35-2.85-2.08-1.88-1.49-2.76-2.27a26,26,0,0,1-2.23-2.2,9.81,9.81,0,0,1-2.76-6.49,11.47,11.47,0,0,1,1.78-6.43,14.23,14.23,0,0,1,5.2-4.84,13.8,13.8,0,0,1,7.54-1.71,14,14,0,0,1,5.26,1.34,29.05,29.05,0,0,1,5,2.94,32.73,32.73,0,0,1,4.2,3.68,31,31,0,0,1,3,3.55c-.53.32-1.23.78-2.09,1.38l-2.72,1.89c-1,.68-1.93,1.34-2.91,2s-1.84,1.19-2.57,1.6a15,15,0,0,1-1.13-1.32l-1.53-1.93c-.56-.69-1.15-1.39-1.78-2.08a17.72,17.72,0,0,0-1.84-1.78,4.68,4.68,0,0,0-1.68-1,1.44,1.44,0,0,0-1.41.34,1.75,1.75,0,0,0-.49,2.24,8.22,8.22,0,0,0,2,2.38,25.3,25.3,0,0,0,3.06,2.27C1289.55,562.08,1290.48,562.71,1291.22,563.24Z"/><path class="cls-12" d="M1332.43,543.83a15.61,15.61,0,0,1,7.44,1.74,13.55,13.55,0,0,1,4.89,4.56,20.3,20.3,0,0,1,2.73,6.74,38.13,38.13,0,0,1,.86,8.26,30.1,30.1,0,0,1-1.11,8.3,22,22,0,0,1-3.18,6.83,15.32,15.32,0,0,1-5,4.59,12.41,12.41,0,0,1-6.61,1.53,14.51,14.51,0,0,1-12.07-6.4,20.35,20.35,0,0,1-2.9-6.64,33.44,33.44,0,0,1-1-8.21,32.93,32.93,0,0,1,1-8.32,21.37,21.37,0,0,1,3-6.83,14.41,14.41,0,0,1,5-4.56A13.63,13.63,0,0,1,1332.43,543.83Zm0,33.37a3.89,3.89,0,0,0,2.57-.83,7.08,7.08,0,0,0,2-2.45,14.53,14.53,0,0,0,1.22-3.64,21.88,21.88,0,0,0,.43-4.47,26.47,26.47,0,0,0-.34-4.38,13.44,13.44,0,0,0-1.07-3.61,6.43,6.43,0,0,0-1.9-2.45,4.88,4.88,0,0,0-2.87-1,4.36,4.36,0,0,0-2.7.89,6.79,6.79,0,0,0-1.93,2.45,14.15,14.15,0,0,0-1.16,3.64,23.11,23.11,0,0,0-.4,4.41,24.77,24.77,0,0,0,.37,4.44,12.55,12.55,0,0,0,1.13,3.55,7.11,7.11,0,0,0,1.93,2.42A4.63,4.63,0,0,0,1332.43,577.2Z"/><path class="cls-12" d="M1379.39,544.68a91,91,0,0,1,1.59,19.23,38.68,38.68,0,0,1-2.45,12.92,15.67,15.67,0,0,1-5.45,7.29,13,13,0,0,1-7.41,2.26,13.54,13.54,0,0,1-7.25-1.9c-2.06-1.26-3.69-3.5-4.87-6.7a45.09,45.09,0,0,1-2.17-13.07,146.71,146.71,0,0,1,.88-21h10.47c0,.09,0,.62-.15,1.6s-.22,2.25-.37,3.82-.27,3.36-.4,5.36-.2,4-.24,6.09,0,4.09.12,6.06a35.15,35.15,0,0,0,.68,5.27,11.39,11.39,0,0,0,1.37,3.71,2.66,2.66,0,0,0,2.3,1.4,2.6,2.6,0,0,0,2.27-1.37,11.48,11.48,0,0,0,1.34-3.62,30.28,30.28,0,0,0,.62-5.08q.12-2.85.06-5.85c0-2-.14-4-.28-5.87s-.29-3.65-.43-5.18-.27-2.77-.4-3.73-.18-1.48-.18-1.57h5.3c1,0,1.88,0,2.78,0Z"/><path class="cls-12" d="M1413.19,553.32l-3.22.18-5.48.25q-.18,2.75-.33,6t-.34,6.46q-.18,3.24-.37,6.39t-.3,5.85c-.08,1.8-.17,3.39-.25,4.78s-.14,2.45-.18,3.18h-10c0-.9,0-2.52,0-4.87s-.06-5-.13-8.11-.13-6.28-.21-9.64-.14-6.52-.18-9.46l-5.64.21c-1.55.06-2.49.11-2.81.15V543.83q.79-.06,3-.06c1.44,0,3.13,0,5,0s4,0,6.15,0h6.28c2,0,3.8,0,5.42,0s2.8.06,3.58.1Z"/><path class="cls-13" d="M800.78,490.2a23.52,23.52,0,0,1-5.35-.58,18.31,18.31,0,0,1-13.32-11.3c-6.58-17.23,15.48-38.91,15.71-39.12h0c6-5.59,13.51-7.85,20.65-6.2a21.17,21.17,0,0,1,15,13.53c4.29,11.21.7,25.61-8.51,34.23A38.34,38.34,0,0,1,800.78,490.2Zm6.54-40.83,9.51,10.16h0Z"/><path class="cls-13" d="M788.47,490.2a38.29,38.29,0,0,1-24.15-9.44c-9.22-8.62-12.81-23-8.52-34.23a21.17,21.17,0,0,1,15-13.53c7.14-1.65,14.67.61,20.65,6.2h0c.23.21,22.29,21.89,15.71,39.12a18.31,18.31,0,0,1-13.32,11.3A23.52,23.52,0,0,1,788.47,490.2Z"/><rect class="cls-14" x="748.39" y="490.25" width="91.04" height="88.3"/><rect class="cls-15" x="741.22" y="477.39" width="105.38" height="25.72"/><rect class="cls-13" x="787" y="477.47" width="15.41" height="101.16"/><rect class="cls-13" x="748.03" y="522.23" width="91.04" height="10.78"/><rect class="cls-16" x="641.86" y="489.85" width="91.04" height="88.3"/><rect class="cls-16" x="634.69" y="476.99" width="105.38" height="25.72"/><rect class="cls-17" x="680.47" y="477.08" width="15.41" height="101.16"/><rect class="cls-17" x="641.5" y="521.84" width="91.04" height="10.78"/><path class="cls-17" d="M694.24,490.78a24.08,24.08,0,0,1-5.34-.58,18.31,18.31,0,0,1-13.32-11.3C669,461.69,691,440,691.28,439.78h0c6-5.6,13.51-7.86,20.66-6.21a21.19,21.19,0,0,1,15,13.54c4.28,11.21.7,25.6-8.52,34.22A38.3,38.3,0,0,1,694.24,490.78Z"/><path class="cls-17" d="M681.94,490.78a38.3,38.3,0,0,1-24.16-9.45c-9.22-8.62-12.8-23-8.52-34.23a21.19,21.19,0,0,1,15-13.53c7.15-1.65,14.68.61,20.66,6.21.28.26,22.28,21.91,15.7,39.12a18.3,18.3,0,0,1-13.31,11.3A24.23,24.23,0,0,1,681.94,490.78Z"/><rect class="cls-11" x="534.62" y="489.28" width="91.04" height="88.3"/><rect class="cls-11" x="527.45" y="476.42" width="105.38" height="25.84"/><rect class="cls-12" x="572.75" y="476.5" width="15.41" height="101.16"/><rect class="cls-12" x="534.26" y="521.26" width="91.04" height="10.78"/><path class="cls-12" d="M586.53,489.48a23.52,23.52,0,0,1-5.35-.58,18.33,18.33,0,0,1-13.32-11.3c-6.56-17.19,15.34-38.78,15.71-39.12h0c6-5.59,13.51-7.86,20.65-6.21a21.17,21.17,0,0,1,15,13.53c4.29,11.22.7,25.62-8.51,34.24A38.39,38.39,0,0,1,586.53,489.48Z"/><path class="cls-12" d="M574.22,489.48A38.37,38.37,0,0,1,550.06,480c-9.21-8.62-12.8-23-8.51-34.23a21.16,21.16,0,0,1,15-13.54c7.14-1.65,14.67.61,20.65,6.21h0c.23.21,22.29,21.89,15.71,39.12a18.33,18.33,0,0,1-13.32,11.3A23.58,23.58,0,0,1,574.22,489.48Z"/><circle class="cls-18" cx="691.11" cy="716.71" r="51.43"/><path class="cls-18" d="M691.11,768.3a51.59,51.59,0,1,1,51.58-51.59A51.64,51.64,0,0,1,691.11,768.3Zm0-102.85a51.27,51.27,0,1,0,51.26,51.26A51.33,51.33,0,0,0,691.11,665.45Z"/><rect class="cls-18" x="660.44" y="656.34" width="39.61" height="17.89" transform="translate(-116.49 145.13) rotate(-11.22)"/><path class="cls-18" d="M662.44,678.1l-3.55-17.85.16,0,39-7.74,0,.16,3.51,17.7Zm-3.17-17.6,3.42,17.23,38.53-7.65-3.42-17.23Z"/><path class="cls-18" d="M682.85,685c-11.83-45.51-11.24-74.53,1.66-81.71,5-2.75,11.34-2.13,19,1.87,7.49,3.91,16.22,11.06,26,21.27l-2.78,2.64c-18-18.9-32.33-26.87-40.31-22.43-10.9,6.07-10.83,35,.19,77.39Z"/><path class="cls-19" d="M731.33,644.1l-3.12-6.36-4.88,5.17,1.26-7-7,1.35,5.16-4.89-6.48-3,7.09-1-3.46-6.18,6.3,3.34.88-7,3.12,6.37,4.88-5.17-1.27,7,7-1.35-5.17,4.89,6.49,3-7.09,1,3.46,6.18-6.31-3.34ZM729.09,632l.32.65.09-.72.65.34-.36-.63.73-.1-.66-.3.52-.5-.71.13.13-.71-.5.53-.32-.65-.09.72-.65-.35.36.64-.73.1.66.3-.53.5.72-.14-.13.72Z"/><rect class="cls-19" x="722.33" y="627.98" width="13.42" height="7.03" transform="translate(-207.73 401.81) rotate(-27.12)"/><path class="cls-20" d="M697.1,827.57,706,817a29.4,29.4,0,0,0-10.82-5.89l-.78,14.57A15.44,15.44,0,0,1,697.1,827.57Z"/><path class="cls-20" d="M686.87,809.89a29.27,29.27,0,0,0-12.65,2.86l6.14,12.4a15.57,15.57,0,0,1,6.51-1.43l.77,0,.74-13.81C687.88,809.91,687.37,809.89,686.87,809.89Z"/><path class="cls-20" d="M709.23,832.31h.15a6.52,6.52,0,0,1,1.55.18l4.1-1.7a29.55,29.55,0,0,0-4.34-8.72l-9.44,11.22a16.1,16.1,0,0,1,.89,2.86l1.37-.57A6.88,6.88,0,0,1,709.23,832.31Z"/><path class="cls-20" d="M662.63,822.66l9,13.37a15.52,15.52,0,0,1,3.2-6.61l-6.43-13A29.68,29.68,0,0,0,662.63,822.66Z"/><path class="cls-20" d="M716.28,838.87c0-.39,0-.78,0-1.17l-.1,0A8.16,8.16,0,0,1,716.28,838.87Z"/><path class="cls-20" d="M657.44,839.32a6.91,6.91,0,0,0,11.57,5.1l-9.93-14.76A29.2,29.2,0,0,0,657.44,839.32Z"/><polygon class="cls-20" points="717.6 897.58 703.89 903.27 704.07 911.51 717.78 905.81 717.6 897.58"/><polygon class="cls-20" points="717.93 912.81 704.23 918.5 704.39 925.78 718.1 920.08 717.93 912.81"/><polygon class="cls-20" points="716.61 853.19 702.9 858.89 703.06 865.96 716.77 860.26 716.61 853.19"/><path class="cls-20" d="M716.29,839.07c0-.07,0-.13,0-.2,0,.15,0,.3,0,.45A6.91,6.91,0,0,1,703.53,843l-1,.4.18,8.14,13.7-5.69Z"/><polygon class="cls-20" points="716.93 867.62 703.22 873.32 703.38 880.24 717.08 874.54 716.93 867.62"/><path class="cls-20" d="M709.38,832.31h-.15a6.88,6.88,0,0,0-5.72,3.27l7.42-3.09A6.52,6.52,0,0,0,709.38,832.31Z"/><path class="cls-20" d="M703.53,843a6.91,6.91,0,0,0,12.76-3.67c0-.15,0-.3,0-.45a8.16,8.16,0,0,0-.14-1.12Z"/><polygon class="cls-20" points="717.28 883.39 703.57 889.09 703.72 895.56 717.42 889.86 717.28 883.39"/><polygon class="cls-20" points="718.24 926.51 704.53 932.21 704.69 939.11 718.39 933.41 718.24 926.51"/><path class="cls-20" d="M705.73,945a6.9,6.9,0,0,0,5.92,3.37h.16a6.92,6.92,0,0,0,6.76-7.07l0-1.62Z"/><path class="cls-5" d="M718.39,933.41l-13.7,5.7,0,2.46a6.85,6.85,0,0,0,1,3.39l12.8-5.32Z"/><polygon class="cls-5" points="718.1 920.08 704.39 925.78 704.53 932.21 718.24 926.51 718.1 920.08"/><polygon class="cls-5" points="717.78 905.81 704.07 911.51 704.23 918.5 717.93 912.81 717.78 905.81"/><polygon class="cls-5" points="717.42 889.86 703.72 895.56 703.89 903.27 717.6 897.58 717.42 889.86"/><polygon class="cls-5" points="717.08 874.54 703.38 880.24 703.57 889.09 717.28 883.39 717.08 874.54"/><polygon class="cls-5" points="716.77 860.26 703.06 865.96 703.22 873.32 716.93 867.62 716.77 860.26"/><polygon class="cls-5" points="716.44 845.84 702.74 851.53 702.9 858.89 716.61 853.19 716.44 845.84"/><path class="cls-5" d="M702.47,839.49v-.11a6.83,6.83,0,0,1,1-3.8l-1.37.57a15.71,15.71,0,0,1,.32,3.17C702.46,839.38,702.47,839.43,702.47,839.49Z"/><path class="cls-5" d="M716.14,837.75l.1,0a29.15,29.15,0,0,0-1.21-6.91l-4.1,1.7A6.92,6.92,0,0,1,716.14,837.75Z"/><path class="cls-5" d="M702.47,839.49l.09,3.9,1-.4A6.76,6.76,0,0,1,702.47,839.49Z"/><path class="cls-5" d="M710.93,832.49l-7.42,3.09a6.83,6.83,0,0,0-1,3.8v.11a6.76,6.76,0,0,0,1.06,3.5l12.61-5.24A6.92,6.92,0,0,0,710.93,832.49Z"/><path class="cls-5" d="M706,817l-8.9,10.58a15.48,15.48,0,0,1,4.15,5.72l9.44-11.22A30.12,30.12,0,0,0,706,817Z"/><path class="cls-5" d="M695.18,811.1a28.89,28.89,0,0,0-6.8-1.17l-.74,13.81a15.5,15.5,0,0,1,6.76,1.93Z"/><polygon class="cls-5" points="693.75 831.55 694.07 831.82 694.11 831.13 693.75 831.55"/><path class="cls-5" d="M668.4,816.43l6.43,13a15.66,15.66,0,0,1,5.53-4.27l-6.14-12.4A29.5,29.5,0,0,0,668.4,816.43Z"/><path class="cls-5" d="M659.08,829.66,669,844.42a6.86,6.86,0,0,0,2.26-5.1,15.5,15.5,0,0,1,.36-3.29l-9-13.37A29.37,29.37,0,0,0,659.08,829.66Z"/><rect class="cls-12" x="872.58" y="531.72" width="66.8" height="12.99"/><rect class="cls-12" x="872.58" y="511.31" width="66.8" height="12.99"/><rect class="cls-12" x="872.58" y="698.72" width="66.8" height="12.99"/><rect class="cls-12" x="872.58" y="678.31" width="66.8" height="12.99"/><rect class="cls-12" x="872.58" y="882.41" width="66.8" height="12.99"/><rect class="cls-12" x="872.58" y="862" width="66.8" height="12.99"/><path class="cls-12" d="M1072.92,682v1.79c0,.8,0,1.67.07,2.6s.07,1.85.1,2.76,0,1.64,0,2.2a13,13,0,0,0-1.66-.06l-3.21,0c-1.26,0-2.61.06-4.06.1s-2.84.08-4.16.1l-3.5,0a19.81,19.81,0,0,1-2.11-.07v-1.81c0-.83,0-1.71.06-2.67s.09-1.89.13-2.82.11-1.7.19-2.31l1.89,0c1,0,2,0,3.31,0h4q2.15,0,4,0c1.26,0,2.33,0,3.22.07A14.65,14.65,0,0,1,1072.92,682Z"/><path class="cls-12" d="M1104.42,666.77c1.73,0,3.4,0,5-.07,0,.65-.09,1.93-.13,3.83s-.11,4.16-.19,6.76-.19,5.38-.3,8.34-.2,5.81-.29,8.54-.17,5.17-.26,7.31-.15,3.71-.19,4.71h-8.25c0-.61.07-1.62.1-3s0-3.06,0-4.94V685.34c-1,1.6-2,3-2.76,4.12s-1.31,1.85-1.53,2.11c-.26-.21-.68-.57-1.26-1.07s-1.22-1.06-1.89-1.69l-2.11-2q-1.11-1-2-2c.48-.56,1.23-1.6,2.27-3.12s2.15-3.18,3.31-5,2.3-3.62,3.38-5.42a50.44,50.44,0,0,0,2.47-4.51v-.07C1101.15,666.7,1102.69,666.72,1104.42,666.77Z"/><path class="cls-12" d="M1149.16,706.06c-.6,0-1.59.07-3,.09s-2.9,0-4.61,0-3.51,0-5.39,0l-5.29,0q-2.48,0-4.35,0l-2.54,0c0-.87.07-2.41.07-4.61s0-4.78,0-7.7,0-6-.07-9.35,0-6.5-.1-9.55-.07-5.82-.09-8.31-.06-4.36-.1-5.62h12.34c0,.52-.11,1.44-.2,2.76s-.19,2.91-.32,4.78-.28,3.91-.46,6.17-.35,4.57-.55,7-.38,4.8-.55,7.2-.35,4.67-.52,6.79c1.3-.13,2.69-.25,4.19-.36l4.38-.32,4-.33c1.23-.1,2.28-.2,3.14-.29Z"/><path class="cls-12" d="M1162.35,661c0,.69.08,1.49.13,2.4s.1,1.78.19,2.6h-11.56c.09-.87.19-1.64.29-2.31s.21-1.57.3-2.69Zm-10.91,45.2c0-.87.06-2.26.06-4.19s0-4.13,0-6.59,0-5.1-.07-7.89-.05-5.5-.09-8.12-.08-5-.1-7.21,0-3.91-.1-5.16h11.56c0,.69-.12,2-.22,3.89s-.23,4.13-.36,6.66-.28,5.24-.46,8.12-.33,5.65-.48,8.31-.3,5.09-.43,7.27-.21,3.82-.26,4.91Z"/><path class="cls-12" d="M1189.88,671.73l-3.67-.06c-1.4,0-2.92,0-4.54-.1l-4.78-.13q-.2,1.89-.39,3.9c-.13,1.34-.26,2.73-.39,4.16,1.43,0,3-.1,4.55-.17s3-.16,4.22-.29c0,.52,0,1.36,0,2.53s0,2.39-.07,3.64-.06,2.45-.13,3.57-.11,1.88-.16,2.28l-1.82-.2c-.73-.09-1.54-.17-2.43-.26s-1.78-.16-2.66-.23-1.73-.14-2.51-.22q-.25,2.65-.48,5.13c-.15,1.64-.29,3.17-.42,4.57s-.24,2.65-.33,3.71-.15,1.91-.19,2.56H1165c0-.86.07-2.4.1-4.61s0-4.76.06-7.66,0-6,.07-9.29,0-6.46,0-9.51,0-5.82,0-8.28,0-4.35-.06-5.65l1.66,0,4.09-.06,5.55-.07c2,0,4,0,6,0l5.55.1c1.71.05,3.06.11,4.06.2v10.52C1191.66,671.77,1190.92,671.76,1189.88,671.73Z"/><path class="cls-12" d="M1219.4,671.73l-3.67-.06c-1.39,0-2.89,0-4.51-.1l-4.78-.13q-.2,1.89-.39,3.93c-.13,1.37-.26,2.76-.39,4.19,1.39-.09,2.89-.15,4.52-.19s3-.13,4.25-.26c0,.52,0,1.35,0,2.5s0,2.36-.07,3.63-.06,2.48-.13,3.61-.12,1.88-.16,2.27c-.48-.09-1.08-.17-1.82-.26s-1.54-.16-2.43-.23l-2.66-.19c-.89-.07-1.73-.14-2.5-.23q-.14,1.37-.27,2.7c-.08.88-.17,1.76-.25,2.63,1.42-.09,3-.18,4.61-.26s3.27-.17,4.87-.23,3.09-.11,4.48-.13,2.51,0,3.37,0v11.24h-26.88c0-.87.08-2.42.1-4.65s0-4.79.06-7.69,0-6,0-9.29v-9.48q0-4.55,0-8.25c0-2.47,0-4.35-.1-5.65l1.66,0,4.09-.07L1206,661l6.07,0q3,0,5.55.06c1.71.05,3.06.11,4.06.2v10.52C1221.21,671.77,1220.46,671.76,1219.4,671.73Z"/><path class="cls-12" d="M1073.36,871.76v1.79c0,.8,0,1.66.06,2.6s.08,1.85.1,2.76,0,1.64,0,2.2a11.48,11.48,0,0,0-1.53-.06c-.8,0-1.81,0-3,.06,0,1.13,0,2.1,0,2.93a14.93,14.93,0,0,1-.1,1.55h-1.79c-.8,0-1.66,0-2.59.07s-1.85.08-2.76.1l-2.21,0a11.48,11.48,0,0,0,.06-1.53c0-.8,0-1.8-.06-3-1.13,0-2.1.07-2.92.07a14.37,14.37,0,0,1-1.76-.07v-1.82c0-.82,0-1.71.07-2.66s.08-1.89.13-2.82.1-1.7.19-2.31l1.49,0q1.11,0,2.67,0c-.05-1.09-.07-2-.07-2.8a13.4,13.4,0,0,1,.07-1.68h1.82c.82,0,1.71,0,2.66.06s1.89.1,2.82.16l2.31.17c0,.26,0,.75,0,1.49s0,1.62,0,2.66c1.13,0,2.07,0,2.83,0A14.08,14.08,0,0,1,1073.36,871.76Z"/><path class="cls-12" d="M1104.21,846.37c1.73,0,3.4,0,5-.07,0,.65-.09,1.93-.13,3.84s-.11,4.15-.2,6.75-.18,5.38-.29,8.34-.2,5.82-.29,8.54-.17,5.17-.26,7.31-.15,3.71-.19,4.71h-8.25c0-.61.07-1.61.1-3s0-3,0-4.94V864.94q-1.56,2.4-2.76,4.13c-.8,1.14-1.31,1.85-1.53,2.11l-1.27-1.07c-.58-.5-1.21-1.06-1.88-1.69l-2.11-2c-.74-.7-1.41-1.37-2-2,.47-.56,1.23-1.6,2.27-3.11s2.14-3.19,3.31-5,2.3-3.63,3.38-5.43,1.9-3.3,2.47-4.51v-.07C1100.94,846.3,1102.48,846.33,1104.21,846.37Z"/><path class="cls-12" d="M1149,885.66c-.6,0-1.59.08-3,.1s-2.9,0-4.61,0l-5.39,0c-1.89,0-3.65,0-5.3,0s-3.09,0-4.35,0l-2.53,0c0-.87.07-2.4.07-4.61s0-4.77,0-7.7,0-6-.06-9.35-.06-6.49-.1-9.55-.07-5.82-.1-8.31,0-4.36-.09-5.62h12.34c0,.52-.11,1.44-.2,2.76s-.19,2.92-.32,4.78-.29,3.92-.46,6.17-.36,4.58-.55,7-.38,4.8-.55,7.21-.35,4.66-.52,6.78c1.3-.13,2.69-.24,4.19-.35l4.38-.33c1.43-.11,2.76-.21,4-.32l3.15-.29Z"/><path class="cls-12" d="M1162.14,840.59c0,.69.08,1.49.13,2.4s.1,1.78.19,2.6H1150.9c.09-.87.18-1.63.29-2.31s.21-1.56.3-2.69Zm-10.91,45.2c0-.87.06-2.26.06-4.19s0-4.12,0-6.59,0-5.1-.07-7.89,0-5.5-.09-8.12-.08-5-.1-7.21-.06-3.9-.1-5.16h11.56c0,.69-.12,2-.23,3.9s-.22,4.12-.35,6.65-.29,5.24-.46,8.12-.33,5.65-.49,8.31-.29,5.09-.42,7.28-.22,3.82-.26,4.9Z"/><path class="cls-12" d="M1189.67,851.34l-3.67-.07-4.55-.09-4.77-.14q-.2,1.89-.39,3.9c-.13,1.34-.26,2.73-.39,4.16l4.55-.16c1.6-.07,3-.17,4.22-.3,0,.52,0,1.37,0,2.54s-.05,2.38-.07,3.63-.06,2.45-.13,3.57-.12,1.89-.16,2.28c-.48,0-1.08-.11-1.82-.2l-2.43-.26c-.89-.08-1.78-.16-2.67-.22s-1.72-.14-2.5-.23q-.25,2.65-.48,5.13c-.16,1.64-.3,3.17-.43,4.58s-.23,2.64-.32,3.7-.15,1.92-.2,2.56h-8.63c0-.86.07-2.4.09-4.61s0-4.76.07-7.66,0-6,.06-9.29,0-6.46,0-9.51,0-5.81,0-8.28,0-4.35-.06-5.65l1.65,0,4.1-.07,5.55-.06c2,0,4,0,6,0s3.84.05,5.55.09,3.06.11,4.06.2v10.52Z"/><path class="cls-12" d="M1219.19,851.34l-3.67-.07-4.51-.09-4.78-.14q-.2,1.89-.39,3.93c-.13,1.37-.26,2.76-.39,4.19,1.39-.08,2.89-.15,4.52-.19s3-.13,4.25-.26c0,.52,0,1.35,0,2.5s0,2.36-.07,3.64-.06,2.47-.13,3.6-.12,1.88-.16,2.27c-.48-.08-1.08-.17-1.82-.26s-1.55-.16-2.43-.22l-2.67-.2c-.88-.06-1.72-.14-2.5-.23-.08.91-.17,1.81-.26,2.7s-.17,1.76-.26,2.63l4.61-.26c1.65-.09,3.27-.16,4.88-.23s3.09-.11,4.48-.13,2.51,0,3.37,0v11.24h-26.88c0-.87.07-2.41.09-4.64s0-4.8.07-7.7,0-6,0-9.29v-9.48q0-4.54,0-8.25c0-2.46,0-4.35-.1-5.65l1.66,0,4.09-.06,5.58-.07,6.08,0q3,0,5.55.06c1.71.05,3.06.11,4.06.2v10.52Z"/><path class="cls-21" d="M1047.59,58.17c-35.67,33.35-102.82,129-86.89,170.71s108.93,13.71,144.6-19.64S1157,115,1141,73.32,1083.27,24.82,1047.59,58.17Z"/><path class="cls-21" d="M866.88,58.17c35.67,33.35,102.83,129,86.89,170.71s-108.92,13.71-144.59-19.64S757.5,115,773.44,73.32,831.21,24.82,866.88,58.17Z"/><image class="cls-7" width="1974" height="1134" transform="translate(-17 -1123)" xlink:href="Information3.png"/></g></g></svg>
