<svg xmlns="http://www.w3.org/2000/svg" width="710" height="800" viewBox="0 0 710 800"><defs><style>.cls-1{fill:#bf000f;}.cls-2{fill:#333;}.cls-3{fill:#543607;}.cls-4{fill:#fff;}.cls-5{fill:#f2a78c;}.cls-6{fill:#beb6c1;}.cls-7{fill:#e6e6e6;}.cls-8{fill:#d40005;}.cls-9{fill:#f9f9f7;}.cls-10{fill:#ffa506;}</style></defs><title>Julemand</title><g id="Layer_3" data-name="Layer 3"><ellipse class="cls-1" cx="32.59" cy="462.45" rx="32.59" ry="32.79"/><polygon class="cls-2" points="181.25 675.19 180.99 765.49 58.9 765.13 119.07 720.16 119.21 675.01 181.25 675.19"/><path class="cls-3" d="M710,596.72c1.94,26.11-1.84,36.45-10.74,51.12-8.89,13.79-22.89,31.91-41.08,53.22-36.25,43.59-89.63,94.55-149.07,98.94S396.3,814.08,360,784.09C341.85,769,327.86,742.77,319,707.18c-8.9-34.65-12.68-78.69-10.74-108.19,1.94-35.25,9.4-52.83,20.83-72.38,11.44-18.68,26.87-39.32,45-60.61,36.45-43.7,83.52-84.26,135-70.29s98.58,22.69,135,51.92c18.17,15.17,33.6,37.34,45,66C700.6,541.54,708.06,576,710,596.72Z"/><ellipse class="cls-1" cx="346.18" cy="462.45" rx="32.59" ry="32.79"/><path class="cls-1" d="M8.49,418c0-116.15,63.06-210.3,140.85-210.3S290.19,301.89,290.19,418"/><path class="cls-1" d="M87.88,419.45c0-116.14,63.06-210.3,140.84-210.3s140.85,94.16,140.85,210.3"/><ellipse class="cls-1" cx="189.38" cy="355.13" rx="140.85" ry="158.7"/><rect class="cls-4" x="176.39" y="199.96" width="30.21" height="314.57" rx="12" ry="12"/><ellipse class="cls-5" cx="114.12" cy="115.14" rx="5.88" ry="9.9"/><ellipse class="cls-5" cx="264.64" cy="114.43" rx="5.88" ry="9.9"/><path class="cls-6" d="M269.82,155.52c0,61.49-37.23,152.07-80.84,151.18C153,306,108.78,217,108.78,155.52S144.56,59.29,189,59.29C247.34,59.29,269.82,94,269.82,155.52Z"/><path class="cls-5" d="M255.07,114.71c0,34.34-30.25,84.91-65.68,84.42-29.2-.41-65.16-50.08-65.16-84.42S153.31,61,189.43,61C236.8,61,255.07,80.37,255.07,114.71Z"/><path class="cls-1" d="M109.65,68.48S132.83,16.88,182,8.4s54.09-16.26,113.8,7.06,55.5,79.18,55.5,79.18,11.24,105.32-19.67,123c-12.63,2.37-40.16-145-78-149.16C194.3,62,109.65,68.48,109.65,68.48Z"/><rect class="cls-7" x="108.95" y="62.83" width="160.87" height="40.29" rx="12" ry="12"/><rect class="cls-6" x="147.59" y="106.65" width="24.59" height="7.78" rx="3.84" ry="3.84"/><rect class="cls-6" x="210.11" y="106.65" width="24.59" height="7.78" rx="3.84" ry="3.84"/><ellipse class="cls-2" cx="159.88" cy="121.85" rx="2.46" ry="2.47"/><ellipse class="cls-2" cx="222.4" cy="121.85" rx="2.46" ry="2.47"/><path class="cls-8" d="M210.11,163.2a19,19,0,1,1-37.94,0"/><path class="cls-6" d="M136,156s14.35-14.94,26.81-15.22c13.39-.3,28.62,1.4,28.62,15.22s-15.82,14.64-29,14.22C150.61,169.85,136,156,136,156Z"/><path class="cls-6" d="M244.81,156S230.46,141.06,218,140.78c-13.39-.3-28.61,1.4-28.61,15.22s15.82,14.64,29,14.22C230.19,169.85,244.81,156,244.81,156Z"/><ellipse class="cls-7" cx="332.69" cy="225.76" rx="17.91" ry="18.03"/><rect class="cls-7" x="314.78" y="402.65" width="63.22" height="34.82" rx="12" ry="12"/><rect class="cls-2" x="54.86" y="395.77" width="268.35" height="13.43" rx="6.64" ry="6.64"/><rect class="cls-9" x="167.26" y="387.29" width="49.17" height="30.4" rx="12" ry="12"/><path class="cls-10" d="M207.23,422.7H176.46a14.25,14.25,0,0,1-14.19-14.27V396.55a14.26,14.26,0,0,1,14.19-14.28h30.77a14.25,14.25,0,0,1,14.18,14.28v11.88A14.24,14.24,0,0,1,207.23,422.7Zm-30.77-30.4a4.24,4.24,0,0,0-4.22,4.25v11.88a4.23,4.23,0,0,0,4.22,4.24h30.77a4.24,4.24,0,0,0,4.22-4.24V396.55a4.25,4.25,0,0,0-4.22-4.25Z"/><polygon class="cls-2" points="180.95 675.01 119.61 675.01 90.47 492.93 180.95 492.93 180.95 675.01"/><polygon class="cls-2" points="200.12 675.01 261.46 675.01 290.59 492.93 200.12 492.93 200.12 675.01"/><rect x="462.34" y="345.56" width="1.53" height="1.54"/><rect class="cls-2" x="134.18" y="476.72" width="119.61" height="52.46"/><rect class="cls-7" x="78.97" y="447.4" width="115.01" height="45.52" rx="12" ry="12"/><rect class="cls-7" x="193.22" y="447.4" width="115.01" height="45.52" rx="12" ry="12"/><polygon class="cls-2" points="199.99 675.19 200.25 765.49 320.64 765.13 261.3 720.16 261.17 675.01 199.99 675.19"/><rect class="cls-7" x="191.68" y="661.89" width="88.94" height="37.81" rx="12" ry="12"/><rect class="cls-7" x="100.44" y="661.89" width="88.94" height="37.81" rx="12" ry="12"/><polygon class="cls-3" points="341.37 447.66 309.08 399.39 284.48 435.73 347.96 479.25 341.37 447.66"/><path class="cls-10" d="M274.7,739.09a9,9,0,0,1-8.84-7.68,8.47,8.47,0,0,1,1.66-6.41l1.21.94a7,7,0,0,0-1.35,5.25,7.39,7.39,0,0,0,2.81,4.8,7.1,7.1,0,0,0,10-1.12l1.22,1A8.45,8.45,0,0,1,274.7,739.09Z"/><path class="cls-10" d="M297.57,758.59a9.08,9.08,0,0,1-5.43-1.76c-4.31-3.2-5-9.66-1.52-14.41l1.24.91c-3,4.07-2.44,9.56,1.19,12.25s9,1.57,12-2.49l1.24.91A10.91,10.91,0,0,1,297.57,758.59Z"/><path class="cls-10" d="M104.08,740.75l-.64,0a8.36,8.36,0,0,1-5.86-3l1.17-1a6.85,6.85,0,0,0,4.8,2.45,7.3,7.3,0,0,0,5.27-1.74,7.43,7.43,0,0,0,2.61-4.91,6.94,6.94,0,0,0-1.56-5.18l1.17-1A8.47,8.47,0,0,1,113,732.7a9,9,0,0,1-8.87,8Z"/><path class="cls-10" d="M82.72,758.68a11,11,0,0,1-8.46-4.19l1.2-1c3.15,3.92,8.57,4.8,12.07,2a7.8,7.8,0,0,0,2.82-5.71,9.69,9.69,0,0,0-2.17-6.58l1.19-1a11.19,11.19,0,0,1,2.51,7.64,9.29,9.29,0,0,1-3.38,6.82A9.1,9.1,0,0,1,82.72,758.68Z"/><rect class="cls-7" x="0.77" y="402.65" width="63.22" height="34.82" rx="12" ry="12"/></g></svg>
