<svg xmlns="http://www.w3.org/2000/svg" width="1920" height="1080" viewBox="0 0 1920 1080"><defs><style>.cls-1{fill:#bf000f;stroke:#020202;stroke-miterlimit:10;opacity:0.5;}.cls-2{fill:#313131;}.cls-3{fill:#ffb600;}</style></defs><title>Level failed</title><g id="Layer_2" data-name="Layer 2"><rect class="cls-1" x="-0.5" y="-2.5" width="1917" height="1084"/><circle class="cls-2" cx="942.18" cy="745" r="332.79"/><path class="cls-2" d="M942.18,1078.82c-184.07,0-333.82-149.75-333.82-333.82S758.11,411.18,942.18,411.18,1276,560.93,1276,745,1126.25,1078.82,942.18,1078.82Zm0-665.57c-182.93,0-331.75,148.82-331.75,331.75s148.82,331.76,331.75,331.76S1273.93,927.93,1273.93,745,1125.11,413.25,942.18,413.25Z"/><rect class="cls-2" x="743.75" y="354.34" width="256.31" height="115.75" transform="translate(-63.56 177.6) rotate(-11.22)"/><path class="cls-2" d="M756.65,495.15,733.72,379.58l1-.2,252.42-50.09.2,1,22.74,114.55Zm-20.5-113.94,22.13,111.51,249.38-49.49L985.53,331.72Z"/><path class="cls-2" d="M888.75,539.63C812.18,245.14,816,57.37,899.47,10.91c32-17.84,73.43-13.78,123,12.07,48.48,25.29,105,71.59,167.89,137.63l-17.95,17.11C1055.81,55.38,963.17,3.84,911.53,32.58c-70.56,39.27-70.1,226.49,1.23,500.81Z"/><path class="cls-3" d="M1202.46,275.12,1182.3,234l-31.62,33.42,8.21-45-45.48,8.69,33.44-31.64-42-19.35,45.9-6.2-22.43-40,40.82,21.62,5.68-45.38L1195,151.28l31.62-33.42-8.21,45,45.48-8.69-33.44,31.64,42,19.35-45.9,6.2,22.43,40-40.83-21.62ZM1188,196.85l2.07,4.22.58-4.65,4.18,2.21-2.3-4.09,4.7-.64-4.3-2,3.43-3.24-4.66.89.84-4.61-3.23,3.42-2.07-4.21-.58,4.65-4.18-2.22,2.3,4.1-4.7.63,4.29,2-3.42,3.24,4.66-.89-.84,4.6Z"/><rect class="cls-3" x="1144.25" y="170.79" width="86.81" height="45.47" transform="translate(42.37 562.73) rotate(-27.12)"/><path class="cls-3" d="M708.26,692.21c-1,.07-2.55.12-4.75.15s-4.66,0-7.41,0-5.64,0-8.66,0-5.87-.05-8.51-.05-5,0-7,0-3.37,0-4.07,0q.1-2.1.1-7.42t-.05-12.37q0-7-.1-15T667.65,642q-.1-7.37-.15-13.36c0-4-.09-7-.16-9h19.84c-.07.83-.18,2.31-.32,4.43s-.31,4.68-.52,7.68-.45,6.3-.73,9.91-.57,7.37-.89,11.23-.61,7.72-.89,11.59-.55,7.5-.83,10.91q3.13-.31,6.73-.58l7-.52c2.3-.17,4.44-.35,6.42-.52s3.67-.33,5.06-.47Z"/><path class="cls-3" d="M753.1,637l-5.89-.11q-3.35,0-7.26-.15l-7.67-.21c-.21,2-.42,4.12-.63,6.32s-.42,4.43-.63,6.73q3.35-.21,7.26-.31t6.84-.42c0,.83,0,2.17,0,4s-.07,3.79-.11,5.84-.1,4-.21,5.8-.19,3-.26,3.65c-.77-.14-1.74-.27-2.92-.41s-2.49-.27-3.92-.37l-4.28-.31c-1.42-.11-2.76-.23-4-.37-.14,1.46-.28,2.91-.41,4.33s-.28,2.84-.42,4.23c2.29-.14,4.77-.28,7.41-.42s5.26-.26,7.83-.36,5-.17,7.2-.21,4,0,5.43.05v18.06H713.17c.07-1.39.12-3.87.16-7.46s.07-7.71.1-12.37.05-9.64.05-14.93V642.41q0-7.32-.05-13.26t-.15-9.09l2.66,0c1.7,0,3.89-.07,6.57-.1l9-.11q5,0,9.76,0c3.21,0,6.18,0,8.93.1s4.92.18,6.53.32v16.91Z"/><path class="cls-3" d="M816.53,619.85q-.1.84-.78,4.08T814,632q-1.1,4.81-2.45,10.71t-2.77,12.11q-1.41,6.21-2.82,12.32t-2.56,11.22l-2,8.87q-.84,3.76-1.15,5.22H775.39c-.41-1.39-1.06-3.74-1.93-7s-1.84-7.12-2.92-11.44-2.19-8.9-3.34-13.78-2.23-9.53-3.24-14-1.88-8.5-2.61-12.16-1.23-6.42-1.51-8.3c1.11-.14,2.47-.29,4.07-.47l5-.52,5-.52c1.6-.18,3-.33,4.07-.47q.21,1.88.83,5.37c.42,2.34.93,5,1.52,7.89s1.2,6,1.83,9.29,1.26,6.44,1.93,9.5,1.27,5.92,1.82,8.56,1,4.8,1.36,6.47q.73-2.71,1.78-7.25t2.19-9.76q1.14-5.22,2.3-10.76t2.14-10.28q1-4.75,1.72-8.2c.48-2.29.8-3.86.94-4.7Z"/><path class="cls-3" d="M861.26,637l-5.89-.11q-3.35,0-7.26-.15l-7.67-.21c-.21,2-.42,4.12-.63,6.32s-.42,4.43-.63,6.73q3.35-.21,7.26-.31t6.84-.42q0,1.25-.06,4c0,1.84-.07,3.79-.1,5.84s-.1,4-.21,5.8-.19,3-.26,3.65c-.77-.14-1.74-.27-2.92-.41s-2.49-.27-3.92-.37l-4.28-.31c-1.43-.11-2.77-.23-4-.37-.14,1.46-.28,2.91-.42,4.33s-.27,2.84-.41,4.23q3.44-.21,7.41-.42c2.64-.13,5.25-.26,7.83-.36s5-.17,7.2-.21,4,0,5.43.05v18.06H821.33c.07-1.39.12-3.87.16-7.46s.07-7.71.1-12.37,0-9.64,0-14.93V642.41q0-7.32,0-13.26c0-4-.09-7-.16-9.09l2.67,0c1.7,0,3.89-.07,6.57-.1l9-.11q5,0,9.76,0c3.2,0,6.18,0,8.93.1s4.92.18,6.53.32v16.91Z"/><path class="cls-3" d="M908.92,692.21c-1,.07-2.56.12-4.75.15s-4.66,0-7.41,0-5.64,0-8.67,0-5.86-.05-8.5-.05-5,0-7,0-3.38,0-4.07,0q.11-2.1.1-7.42t0-12.37q0-7-.1-15T868.31,642q-.1-7.37-.16-13.36c0-4-.09-7-.15-9h19.83c-.07.83-.17,2.31-.31,4.43s-.31,4.68-.52,7.68-.46,6.3-.73,9.91-.58,7.37-.89,11.23-.61,7.72-.89,11.59-.56,7.5-.83,10.91q3.14-.31,6.73-.58l7.05-.52c2.29-.17,4.44-.35,6.42-.52s3.67-.33,5.06-.47Z"/><path class="cls-3" d="M971.15,637l-5.9-.11c-2.27,0-4.7-.08-7.31-.15l-7.67-.21q-.32,3-.63,6.26T949,649.5c2.3-.06,4.73-.15,7.31-.26s4.84-.26,6.79-.47q0,1.26-.06,4.08c0,1.87-.07,3.82-.1,5.84s-.1,3.93-.21,5.74-.19,3-.26,3.66c-.77-.07-1.74-.17-2.92-.31s-2.49-.28-3.92-.42-2.85-.26-4.28-.37-2.77-.22-4-.36q-.42,4.27-.78,8.24c-.25,2.65-.47,5.1-.68,7.36s-.38,4.25-.52,6-.25,3.08-.32,4.12H931.16q.11-2.09.16-7.41t.1-12.32q.06-7,.11-14.93t0-15.3q-.06-7.35-.06-13.31c0-4,0-7-.1-9.08l2.66-.05c1.71,0,3.9-.07,6.58-.11l8.93-.1c3.26,0,6.5,0,9.7,0s6.18.09,8.93.15,4.92.18,6.53.32v16.91Z"/><path class="cls-3" d="M1005,698c-.14-.49-.33-1.52-.57-3.08s-.54-3.38-.89-5.43-.71-4.23-1.1-6.53-.74-4.42-1.09-6.37l-7.73.74q-4.38.4-7.83.62-.32,1.36-.63,3.6c-.2,1.5-.41,3-.62,4.44s-.4,2.8-.58,4-.29,2-.36,2.45H966c.28-1.87.8-4.78,1.57-8.71s1.67-8.36,2.71-13.26,2.16-10.06,3.34-15.45,2.33-10.46,3.45-15.2,2.1-8.9,3-12.52,1.52-6.13,1.93-7.52h4.75q3.6,0,7.73,0c2.75,0,5.31.05,7.67.05h4.6q.32,1.47,1.2,5.49c.59,2.68,1.28,5.84,2.09,9.5s1.68,7.67,2.66,12,1.95,8.83,2.92,13.32,1.93,8.87,2.87,13.15,1.78,8.14,2.51,11.59,1.34,6.33,1.82,8.66.77,3.78.84,4.34Zm-16.39-33.2c1.74.07,3.51.12,5.33.15s3.55.09,5.21.16q-.72-3.66-1.46-7.2c-.48-2.37-.95-4.61-1.41-6.74s-.88-4.07-1.3-5.84-.77-3.26-1-4.44c-.28,1.25-.62,2.77-1,4.54s-.82,3.73-1.3,5.85-1,4.33-1.52,6.63S989.07,662.45,988.58,664.75Z"/><path class="cls-3" d="M1044.33,619.75c.07,1.11.14,2.4.21,3.86s.17,2.86.31,4.18h-18.58c.14-1.39.29-2.63.47-3.71s.33-2.52.47-4.33Zm-17.54,72.66q.11-2.08.11-6.73t-.06-10.6q0-5.94-.1-12.68t-.16-13q-.11-6.32-.15-11.59t-.16-8.3h18.58q-.11,1.66-.36,6.26c-.18,3.07-.37,6.63-.58,10.7s-.45,8.43-.73,13.06-.54,9.08-.78,13.36-.47,8.18-.68,11.69-.35,6.14-.42,7.88Z"/><path class="cls-3" d="M1089.54,692.21c-1,.07-2.56.12-4.75.15s-4.67,0-7.42,0-5.63,0-8.66,0-5.87-.05-8.51-.05-5,0-7,0-3.37,0-4.07,0q.11-2.1.11-7.42t-.06-12.37q0-7-.1-15t-.16-15.35q-.11-7.37-.15-13.36c0-4-.09-7-.16-9h19.84c-.07.83-.18,2.31-.32,4.43s-.31,4.68-.52,7.68-.45,6.3-.73,9.91-.57,7.37-.89,11.23-.61,7.72-.88,11.59-.56,7.5-.84,10.91q3.13-.31,6.73-.58l7-.52c2.3-.17,4.44-.35,6.42-.52s3.67-.33,5.07-.47Z"/><path class="cls-3" d="M1134.38,637l-5.9-.11q-3.35,0-7.26-.15l-7.67-.21c-.21,2-.42,4.12-.63,6.32s-.42,4.43-.63,6.73q3.35-.21,7.26-.31t6.84-.42c0,.83,0,2.17-.05,4s-.07,3.79-.11,5.84-.1,4-.21,5.8-.19,3-.26,3.65c-.76-.14-1.74-.27-2.92-.41s-2.49-.27-3.92-.37l-4.28-.31c-1.42-.11-2.76-.23-4-.37-.14,1.46-.27,2.91-.41,4.33s-.28,2.84-.42,4.23l7.41-.42c2.65-.13,5.26-.26,7.83-.36s5-.17,7.21-.21,4,0,5.42.05v18.06h-43.22c.07-1.39.12-3.87.16-7.46s.07-7.71.1-12.37.06-9.64.06-14.93V642.41q0-7.32-.06-13.26t-.15-9.09l2.66,0c1.7,0,3.9-.07,6.58-.1l9-.11c3.31,0,6.56,0,9.77,0s6.17,0,8.92.1,4.93.18,6.53.32v16.91Z"/><path class="cls-3" d="M1145.6,620.17a15.46,15.46,0,0,1,6.11-1.1,39.09,39.09,0,0,1,8.61,1,49.66,49.66,0,0,1,9.76,3.29,56,56,0,0,1,9.66,5.64,39.29,39.29,0,0,1,8.25,8,37.2,37.2,0,0,1,5.58,10.65,35.2,35.2,0,0,1,1.62,13.41,35.72,35.72,0,0,1-3.45,13.68,26.62,26.62,0,0,1-9.24,10.49,42.31,42.31,0,0,1-15.86,6.11q-9.66,1.88-23.34.42c.07-1,.11-2.7.11-5.17V642.88q0-5.7-.06-10c0-2.89,0-6.1,0-9.65A3.29,3.29,0,0,1,1145.6,620.17Zm30.9,40.3a20.63,20.63,0,0,0-.73-7.62,21.1,21.1,0,0,0-3-6.16A19.46,19.46,0,0,0,1168,642a31.44,31.44,0,0,0-6-3.34q-.42,4.38-.84,9.39c-.27,3.34-.57,6.74-.88,10.18s-.61,6.84-.89,10.18-.56,6.47-.84,9.4a24.25,24.25,0,0,0,8.41-2,16.1,16.1,0,0,0,5.43-4,15.47,15.47,0,0,0,3-5.32A24.85,24.85,0,0,0,1176.5,660.47Z"/><path class="cls-3" d="M1214.92,679.36V682c0,1.12,0,2.28.11,3.5s.12,2.44.15,3.65,0,2.29,0,3.19c-.55,0-1.46,0-2.71.05s-2.63,0-4.12,0h-8.1c.21-1.87.42-4,.63-6.52s.38-4.65.52-6.53c.7,0,1.67,0,2.93-.05s2.54,0,3.86,0,2.59,0,3.81,0S1214.22,679.36,1214.92,679.36Zm-13.15-3.44c.06-1.18.1-3.08.1-5.69v-8.88q0-5,0-10.49t-.16-10.8q-.11-5.28-.16-9.66t-.15-7.1h15.87c-.07,1-.16,2.73-.26,5.27s-.23,5.5-.37,8.88-.28,7-.42,10.85-.28,7.59-.41,11.18-.3,6.83-.47,9.76-.3,5.15-.37,6.68Z"/></g></svg>