<svg xmlns="http://www.w3.org/2000/svg" width="600" height="150" viewBox="0 0 600 150"><defs><style>.cls-1{fill:#fcfcfc;opacity:0.3;}.cls-2{opacity:0.5;}.cls-3{fill:#bf000f;}.cls-4{fill:red;}.cls-5{fill:#fff;}</style></defs><title>Liv</title><g id="Layer_2" data-name="Layer 2"><rect class="cls-1" y="0.1" width="600" height="147.87" rx="71.42" ry="71.42"/><g class="cls-2"><ellipse class="cls-3" cx="343.22" cy="38.25" rx="43.71" ry="38.25"/><polygon class="cls-3" points="301.78 146.5 227.98 63.98 375.58 63.98 301.78 146.5"/><ellipse class="cls-3" cx="260.34" cy="38.25" rx="43.71" ry="38.25"/><path class="cls-3" d="M290.42,52.79l5.87,3.74c1.31.84,2.73-.79,2-2.05A287.74,287.74,0,0,0,281,26.38l-2,2.05a254.51,254.51,0,0,1,41.59,33.9l2.13-2.12a98.1,98.1,0,0,0-21.26-15.92c-.89-.5-2.42.11-2.26,1.29a74.66,74.66,0,0,0,4.54,17.7l2.51-1.46-11.37-9.3a1.5,1.5,0,0,0-2.12,2.12,116.1,116.1,0,0,0,12.66,12.82,1.5,1.5,0,0,0,2.12-2.12L298,54.72l-1.81,2.35a51.08,51.08,0,0,1,11,8.44l2.12-2.12L301.61,56c-1.19-1.16-3.31.35-2.36,1.81a12.8,12.8,0,0,0,5.63,4.92,1.5,1.5,0,0,0,1.51-2.59,10,10,0,0,1-3.06-3l-2.06,2,13.31,9.17c1.39.95,3.15-1.28,1.82-2.36A115.08,115.08,0,0,1,303,53.21l-2.12,2.12L308.37,63l2.12-2.12L296.64,47.75a1.5,1.5,0,0,0-2.12,2.12l7.61,8.7L304,56.22l-6.9-4.84c-1.59-1.12-3.06,1.47-1.51,2.59l9.23,6.64L306.29,58l-9-6a1.51,1.51,0,0,0-2.2,1.7,31.72,31.72,0,0,0,5.38,9.59l1.82-2.36-8.06-4.32a1.5,1.5,0,0,0-1.82,2.35l10.71,10.34L305,66.93l-13.27-8.47a1.5,1.5,0,0,0-1.82,2.35l4.67,4.4,2.12-2.12-6.89-6.27L288,59.17l3.85,2.63L293,59.06l-3.84-1.56c-1.4-.57-2.52,1.55-1.46,2.51l8.89,8c1.5,1.35,3.21,3.52,5.27,4,4,.88,8-4.87,10.59-7.12a1.51,1.51,0,0,0-1.06-2.56A20.69,20.69,0,0,0,301.16,65l2.26,1.3c.1-1.93-.95-2.75-2.61-3.6-4-2.05-9.48-2.6-13.79-3.73V61.9l19.83-4.57-.79-2.89-3.49,1.05a1.51,1.51,0,0,0,0,2.89l3.12,2.22,1.3-2.26a40.3,40.3,0,0,1-17.73-3.49c-1.72-.78-3.24,1.62-1.52,2.59A120.5,120.5,0,0,1,306.11,70l1.82-2.36A116.87,116.87,0,0,0,290,59.61l-.79,2.89a20.19,20.19,0,0,1,5.18,2.3l1.15-2.74a26,26,0,0,1-10.95-7.42l-1.46,2.51a74.36,74.36,0,0,1,14.95,4.69,1.5,1.5,0,0,0,1.51-2.59L285.36,48.54l-1.16,2.74a28.66,28.66,0,0,1,13.93,8.16l1.06-2.56a6.72,6.72,0,0,1-5.76-2.1c-1.42-1.31-3.55.81-2.13,2.12a10.63,10.63,0,0,0,7.89,3,1.51,1.51,0,0,0,1.06-2.56A31.55,31.55,0,0,0,285,48.39c-1.75-.47-2.45,1.77-1.16,2.74l14.23,10.71,1.51-2.59a77.59,77.59,0,0,0-15.66-5,1.51,1.51,0,0,0-1.46,2.5A29.37,29.37,0,0,0,294.74,65c1.64.6,2.55-1.87,1.15-2.74a22.56,22.56,0,0,0-5.9-2.6c-1.87-.55-2.59,2.25-.79,2.89a112.22,112.22,0,0,1,17.21,7.77c1.43.8,3.17-1.23,1.82-2.36a125.74,125.74,0,0,0-19-13.06l-1.52,2.59A43.72,43.72,0,0,0,307,61.34a1.51,1.51,0,0,0,1.29-2.26,8.89,8.89,0,0,0-4.91-3.59v2.89l3.48-1.05a1.5,1.5,0,0,0-.79-2.89L286.22,59a1.51,1.51,0,0,0,0,2.89c1.58.41,14.29,2.79,14.2,4.44a1.51,1.51,0,0,0,2.26,1.29,17.57,17.57,0,0,1,8.69-2.36l-1.06-2.56-4.08,3.57c-2.82,2.47-3.3,2.84-6.8.24s-6.48-5.81-9.63-8.63l-1.45,2.51L292.18,62c1.67.68,2.48-1.84,1.16-2.74l-3.85-2.63c-1.4-1-3.07,1.21-1.82,2.36l6.89,6.27c1.42,1.3,3.53-.79,2.12-2.12L292,58.69l-1.82,2.36,13.28,8.47a1.51,1.51,0,0,0,1.82-2.36L294.58,56.82l-1.81,2.36,8.05,4.32a1.5,1.5,0,0,0,1.82-2.35A26.92,26.92,0,0,1,298,52.88l-2.2,1.69,8.94,6c1.62,1.09,3.06-1.48,1.52-2.59l-9.24-6.64L295.54,54l6.9,4.84c1.46,1,2.88-1.14,1.82-2.36l-7.62-8.7-2.12,2.12L308.37,63a1.5,1.5,0,0,0,2.12-2.12L303,53.21c-1.36-1.4-3.4.69-2.12,2.12a114.29,114.29,0,0,0,13.4,12.72l1.82-2.35-13.31-9.17c-1.21-.83-2.92.84-2.05,2.06a16.67,16.67,0,0,0,4.14,4.11l1.51-2.59a10.18,10.18,0,0,1-4.55-3.84l-2.36,1.82,7.65,7.42a1.5,1.5,0,0,0,2.12-2.12,53.91,53.91,0,0,0-11.58-8.91,1.51,1.51,0,0,0-1.82,2.36l9.48,10.62,2.12-2.12a117,117,0,0,1-12.66-12.82l-2.12,2.12L304,64c1,.83,3.11.09,2.5-1.46a71.69,71.69,0,0,1-4.43-16.91l-2.26,1.3A94.78,94.78,0,0,1,320.5,62.33a1.5,1.5,0,0,0,2.13-2.12,258.87,258.87,0,0,0-42.2-34.37c-1.23-.8-2.92.82-2.06,2.05A287.74,287.74,0,0,1,295.75,56l2.05-2.05-5.86-3.74c-1.63-1.05-3.14,1.55-1.52,2.59Z"/><path class="cls-3" d="M300.31,50.43a18.48,18.48,0,0,1-.74,9h2.89c-.37-1.51,2.91-5.45,3.71-6.75,1-1.68-1.48-3.05-2.59-1.52-1.46,2-2,4.18-3.19,6.31-1.52,2.64-4,4.49-6.42,6.27l2.2,1.69a34.67,34.67,0,0,1,5.67-12.92L299.25,51a60.1,60.1,0,0,1-7.05,11.89l2.59,1.52a79.61,79.61,0,0,1,8-12.47l-2.51-1.46a52.77,52.77,0,0,1-6.56,11.7l2.75,1.16a43.58,43.58,0,0,1,7.3-11.92l-2.35-1.82-7,13.72L297,64.86a64.37,64.37,0,0,1,8.85-14.69l-2.56-1.06c.2,4.21-3.69,9.55-5.68,13.17l2.8.75a39.25,39.25,0,0,1,1.89-11.88l-2.9-.8-3.6,11.75c-.58,1.89,2.18,2.53,2.9.8a68.85,68.85,0,0,1,6-11.4L302,50.74c.64,5.74-2.78,12.2-4.7,17.5h2.89c-.5-3.1,2.21-7.85,3.39-10.5,1.29-2.9,2.75-5.71,4.29-8.49l-2.74-.35c.74,4.13-1.57,8.26-3,12l-3.64,9.49,2.95.4c-.42-3.15,2.22-7.08,3.55-9.86,1.42-3,2.94-5.84,4.52-8.71l-2.79-.76c.4,4.21-2.51,9.32-4.18,13l2.8.76a19.85,19.85,0,0,1,2.88-8.11h-2.59c1.37,2.22-1.63,8.5-2.42,10.59-.69,1.82,2.18,2.56,2.89.8a54.42,54.42,0,0,1,6.05-11l-2.75-1.16A26.55,26.55,0,0,1,307,63.55l2.8.76,1.05-3.44-2.75-1.16a20.42,20.42,0,0,1-1.62,4.92c-.81,1.72,1.61,3.21,2.59,1.51a8.06,8.06,0,0,1,3.21-3.48L310,61.36a22.16,22.16,0,0,1-3.61,9.77c-1.05,1.62,1.55,3.13,2.59,1.51a25.3,25.3,0,0,0,4-11.28,1.51,1.51,0,0,0-2.26-1.29,13.64,13.64,0,0,0-4.28,4.56L309,66.14A24.81,24.81,0,0,0,311,60.51a1.5,1.5,0,0,0-2.74-1.15,8.9,8.9,0,0,0-1.46,5,1.51,1.51,0,0,0,2.79.76,30.3,30.3,0,0,0,2.7-8A1.51,1.51,0,0,0,309.51,56a57.92,57.92,0,0,0-6.35,11.74l2.89.8c1.31-3.47,4.31-9.36,2.12-12.91a1.52,1.52,0,0,0-2.59,0,23.46,23.46,0,0,0-3.29,9.63c-.18,1.46,2.2,2.08,2.79.76,2-4.37,5.05-9.63,4.59-14.52-.13-1.38-2-2.16-2.8-.75-2.15,3.9-4.18,7.87-6,11.93-1.14,2.54-2.84,5.29-2.46,8.15a1.51,1.51,0,0,0,2.95.4c1.61-4.22,3.24-8.43,4.84-12.66,1.36-3.57,2.47-6.61,1.8-10.42a1.52,1.52,0,0,0-2.75-.36A106.39,106.39,0,0,0,299.77,59c-1.34,3.25-3.09,6.55-2.52,10.09.25,1.6,2.44,1.23,2.89,0,2.05-5.64,5.49-12.16,4.81-18.3a1.52,1.52,0,0,0-2.8-.75,73.69,73.69,0,0,0-6.31,12.11l2.9.8,3.6-11.75c.56-1.86-2.32-2.64-2.9-.8a42.68,42.68,0,0,0-2,12.68,1.51,1.51,0,0,0,2.79.76c2.29-4.18,6.33-9.72,6.09-14.68-.06-1.16-1.69-2.15-2.56-1.06a67.38,67.38,0,0,0-9.32,15.29c-.75,1.73,1.7,3.27,2.59,1.52l7-13.73c.73-1.43-1.19-3.18-2.36-1.82a48.67,48.67,0,0,0-8.08,13.25c-.67,1.66,1.85,2.47,2.74,1.16a55.81,55.81,0,0,0,6.86-12.42c.5-1.36-1.58-2.64-2.5-1.46a83.46,83.46,0,0,0-8.47,13.07,1.5,1.5,0,0,0,2.59,1.52,60.68,60.68,0,0,0,7-11.89A1.5,1.5,0,0,0,299.25,51a36.64,36.64,0,0,0-6,13.64c-.24,1.14,1.07,2.55,2.21,1.7a29.55,29.55,0,0,0,6.52-5.9c1.76-2.4,2.41-5.35,4.16-7.75l-2.59-1.52c-1.63,2.67-4.81,5.78-4,9.06a1.51,1.51,0,0,0,2.89,0,22,22,0,0,0,.74-10.61c-.31-1.91-3.2-1.1-2.89.79Z"/><path class="cls-3" d="M290.21,71.88A168.32,168.32,0,0,1,296.3,49.6c2.46-7,4.91-15.93,10.77-20.89l-2.35-1.82q-9.71,19.67-21,38.44l2.59,1.51A315.9,315.9,0,0,1,312.07,23l-2.74-.36c.64,4.58-3.81,10.48-5.83,14.39-2.17,4.19-4.35,8.37-6.58,12.53-4.32,8.07-8.81,16-13.6,23.83l2.59,1.52a191.54,191.54,0,0,1,22.64-36.18l-2.35-1.82L282.78,82.19l2.74.35c-.93-4.19,4.26-11.23,6.22-14.93q3.43-6.48,7.16-12.79c5-8.49,10.45-16.7,16.2-24.7l-2.79-.76c-.11,3.87-2.95,7.4-4.86,10.58q-2.73,4.53-5.5,9-5.32,8.61-10.82,17.09l2.74,1.15A87.78,87.78,0,0,1,308.4,42l-2.5-1.46c-7.54,18-15.54,35.74-24.78,52.91L283.71,95a437.41,437.41,0,0,1,32-57.69L313,36.16c-1.38,6.18-4.94,11.51-8.07,16.92l-9.36,16.2,2.74,1.15a65.37,65.37,0,0,1,11.18-22.49l-2.75-1.16a192.56,192.56,0,0,1-14.84,30.11L294.61,78a118.65,118.65,0,0,1,18.23-35.11l-2.74-1.15a128.81,128.81,0,0,1-11.21,22.48l2.74,1.15a113.53,113.53,0,0,1,14.9-29.09l-2.8-.75c0,5.5-5.22,11.74-7.91,16.41l-8.75,15.18,2.74,1.16a126.41,126.41,0,0,1,17.57-32.43l-2.79-.76c.06,5.44-3.17,10.44-5.39,15.25L303,63.77c-3.6,7.81-6.83,16-11.49,23.25l2.59,1.52a546.72,546.72,0,0,1,32.46-60.2L324,26.82q-15.09,31.24-32.23,61.41l2.79.75c-.19-5.7,2.25-11.25,4.29-16.49,2.15-5.54,4.6-11,7.24-16.29l-2.59-1.51a68.2,68.2,0,0,1-5.94,10.1l2.59,1.51a39.25,39.25,0,0,1,10.38-13.49L308,51.35a233,233,0,0,1-13.1,30.17l2.74,1.16a145.71,145.71,0,0,1,14.46-30.35l-2.74-1.16a79.71,79.71,0,0,1-7.87,14.5l2.59,1.52a69.22,69.22,0,0,1,12.5-19.47l-2.5-1.46a244,244,0,0,1-15.13,31l2.74,1.16a77.56,77.56,0,0,1,13.87-28.88l-2.74-1.16a158.73,158.73,0,0,1-10.66,23.77l2.75,1.16A138.21,138.21,0,0,1,317.48,50.1l-2.74-1.16a202.13,202.13,0,0,1-12.56,26l2.74,1.15a96.29,96.29,0,0,1,13.22-26l-2.74-1.15a162.19,162.19,0,0,1-10.33,24.78l2.74,1.16a83.9,83.9,0,0,1,9.46-22.6l-2.59-1.52a250.89,250.89,0,0,1-16.45,25.93l2.79.75c.12-8.26,4-15.39,8-22.42l-2.59-1.51A133,133,0,0,1,298,69.29l2.74,1.16a154.85,154.85,0,0,1,10.55-20.89c.93-1.54-1.1-2.86-2.35-1.82l-6.66,5.54c-1.49,1.24.64,3.35,2.12,2.13l6.66-5.55L308.7,48a159.87,159.87,0,0,0-10.85,21.61c-.67,1.62,1.88,2.55,2.74,1.16A133.87,133.87,0,0,0,309,55c.77-1.72-1.62-3.23-2.59-1.51-4.24,7.52-8.27,15.11-8.4,23.93a1.52,1.52,0,0,0,2.8.76,250.75,250.75,0,0,0,16.45-25.92,1.5,1.5,0,0,0-2.59-1.52,86.57,86.57,0,0,0-9.76,23.32c-.41,1.6,1.94,2.71,2.74,1.15a165.63,165.63,0,0,0,10.63-25.49c.55-1.72-1.81-2.47-2.74-1.16A99,99,0,0,0,302,75.3c-.54,1.63,1.9,2.62,2.74,1.16a206.36,206.36,0,0,0,12.86-26.72c.66-1.66-1.85-2.5-2.74-1.16A143.11,143.11,0,0,0,302,72.51c-.66,1.58,1.94,2.62,2.74,1.16a162.71,162.71,0,0,0,11-24.49c.61-1.74-1.8-2.4-2.74-1.16a79.71,79.71,0,0,0-14.18,29.6,1.51,1.51,0,0,0,2.75,1.15A248.28,248.28,0,0,0,317,47.05c.57-1.4-1.55-2.52-2.51-1.45a71.47,71.47,0,0,0-13,20.07,1.5,1.5,0,0,0,2.59,1.52A83.81,83.81,0,0,0,312.28,52c.67-1.62-1.87-2.54-2.74-1.15a148.86,148.86,0,0,0-14.76,31.06A1.51,1.51,0,0,0,297.52,83a236.6,236.6,0,0,0,13.4-30.89c.54-1.54-1.47-2.35-2.51-1.46a41,41,0,0,0-10.85,14.1,1.5,1.5,0,0,0,2.59,1.51,68.2,68.2,0,0,0,5.94-10.1c.83-1.73-1.72-3.25-2.59-1.51-2.76,5.56-5.3,11.22-7.55,17-2.15,5.54-4.59,11.25-4.39,17.29a1.52,1.52,0,0,0,2.8.76q17.13-30.16,32.23-61.4A1.5,1.5,0,0,0,324,26.82,546,546,0,0,0,291.54,87a1.5,1.5,0,0,0,2.59,1.52c5.36-8.34,9-17.85,13.14-26.83l6.58-14.27c1.85-4,3.79-7.8,3.74-12.31a1.52,1.52,0,0,0-2.8-.76,128.77,128.77,0,0,0-17.87,33.15c-.59,1.62,1.91,2.6,2.74,1.15l10.7-18.55c2.57-4.47,6.39-9.19,6.37-14.55a1.51,1.51,0,0,0-2.79-.76,116.13,116.13,0,0,0-15.2,29.8c-.57,1.66,1.86,2.56,2.74,1.16A132.22,132.22,0,0,0,313,42.57c.66-1.72-1.81-2.39-2.74-1.15a121,121,0,0,0-18.53,35.82,1.51,1.51,0,0,0,2.74,1.16,198.36,198.36,0,0,0,15.15-30.82c.66-1.72-1.81-2.38-2.74-1.15a67.44,67.44,0,0,0-11.48,23.21,1.5,1.5,0,0,0,2.74,1.15L308.43,53c3-5.14,6.13-10.16,7.44-16a1.5,1.5,0,0,0-2.74-1.15,437.93,437.93,0,0,0-32,57.68c-.79,1.73,1.66,3.25,2.59,1.52,9.36-17.4,17.44-35.42,25.08-53.64.57-1.36-1.59-2.58-2.51-1.45A92.26,92.26,0,0,0,291,66.41c-.62,1.66,1.86,2.52,2.74,1.16q6.54-10.11,12.83-20.36c3.23-5.29,8.58-11.43,8.76-17.85,0-1.6-2-1.88-2.8-.75A325.44,325.44,0,0,0,294,57.27q-4.1,7.14-7.79,14.5c-1.83,3.63-4.52,7.4-3.59,11.57a1.51,1.51,0,0,0,2.74.36l23.42-45.32c.73-1.43-1.25-3.22-2.36-1.82a195,195,0,0,0-23.11,36.78,1.5,1.5,0,0,0,2.59,1.52C291.68,65.45,297,55.79,302.17,46q3.74-7.08,7.37-14.22c1.72-3.36,3.22-6.19,2.69-10-.2-1.41-2.1-1.28-2.75-.36a316.59,316.59,0,0,0-25.79,43.9,1.5,1.5,0,0,0,2.59,1.51q11.31-18.78,21-38.44A1.51,1.51,0,0,0,305,26.58c-5.45,4.62-7.82,12.24-10.27,18.73a166.91,166.91,0,0,0-7.36,25.77c-.39,1.88,2.5,2.69,2.89.8Z"/></g><path class="cls-4" d="M298.55,42.2l7.29-7.57a22.55,22.55,0,0,0-8-4.92l-1.26,10.94A12.5,12.5,0,0,1,298.55,42.2Z"/><path class="cls-4" d="M291.5,28.43A22.76,22.76,0,0,0,281.69,30l4.14,9.62a12.14,12.14,0,0,1,5.05-.79l.59,0,1.19-10.37C292.28,28.48,291.89,28.45,291.5,28.43Z"/><path class="cls-4" d="M307.62,46.32h.12a5.12,5.12,0,0,1,1.18.21l3.21-1.1a21.72,21.72,0,0,0-2.93-6.76l-7.74,8a11.51,11.51,0,0,1,.55,2.19l1.08-.37A5.32,5.32,0,0,1,307.62,46.32Z"/><path class="cls-4" d="M272.35,37l6.29,10.47a11.75,11.75,0,0,1,2.76-4.84l-4.34-10.06A22.51,22.51,0,0,0,272.35,37Z"/><path class="cls-4" d="M312.73,51.58c0-.3,0-.59,0-.89l-.08,0A6.11,6.11,0,0,1,312.73,51.58Z"/><path class="cls-4" d="M267.63,49.29a5.25,5.25,0,0,0,5,5.52,5.34,5.34,0,0,0,3.65-1.16l-6.94-11.56A21.56,21.56,0,0,0,267.63,49.29Z"/><polygon class="cls-4" points="311.07 95.86 300.32 99.55 300.08 105.76 310.84 102.08 311.07 95.86"/><polygon class="cls-4" points="310.64 107.36 299.89 111.04 299.68 116.53 310.44 112.84 310.64 107.36"/><polygon class="cls-4" points="312.33 62.38 301.57 66.06 301.37 71.4 312.13 67.71 312.33 62.38"/><path class="cls-4" d="M312.73,51.72a.66.66,0,0,1,0-.14c0,.11,0,.22,0,.33a5.32,5.32,0,0,1-9.94,2.2l-.76.26-.23,6.14,10.76-3.68Z"/><polygon class="cls-4" points="311.92 73.26 301.16 76.94 300.97 82.17 311.73 78.48 311.92 73.26"/><path class="cls-4" d="M307.74,46.32h-.12a5.32,5.32,0,0,0-4.53,2.2l5.83-2A5.12,5.12,0,0,0,307.74,46.32Z"/><path class="cls-4" d="M302.77,54.11a5.32,5.32,0,0,0,9.94-2.2c0-.11,0-.22,0-.33a6.11,6.11,0,0,0-.06-.86Z"/><polygon class="cls-4" points="311.48 85.16 300.72 88.84 300.53 93.73 311.29 90.04 311.48 85.16"/><polygon class="cls-4" points="310.26 117.7 299.5 121.38 299.31 126.58 310.06 122.9 310.26 117.7"/><path class="cls-4" d="M299.84,131a5.3,5.3,0,0,0,4.38,2.8h.12a5.27,5.27,0,0,0,5.5-5l.05-1.22Z"/><path class="cls-5" d="M310.06,122.9l-10.76,3.68-.06,1.86a5,5,0,0,0,.6,2.6l10.05-3.44Z"/><polygon class="cls-5" points="310.44 112.84 299.68 116.53 299.5 121.38 310.26 117.7 310.44 112.84"/><polygon class="cls-5" points="310.84 102.08 300.08 105.76 299.89 111.04 310.64 107.36 310.84 102.08"/><polygon class="cls-5" points="311.29 90.04 300.53 93.73 300.32 99.55 311.07 95.86 311.29 90.04"/><polygon class="cls-5" points="311.73 78.48 300.97 82.17 300.72 88.84 311.48 85.16 311.73 78.48"/><polygon class="cls-5" points="312.13 67.71 301.37 71.4 301.16 76.94 311.92 73.26 312.13 67.71"/><polygon class="cls-5" points="312.54 56.83 301.78 60.51 301.57 66.06 312.33 62.38 312.54 56.83"/><path class="cls-5" d="M302.12,51.43v-.09a5.2,5.2,0,0,1,1-2.82l-1.08.37a11.27,11.27,0,0,1,.11,2.4Z"/><path class="cls-5" d="M312.67,50.72l.08,0a21.77,21.77,0,0,0-.62-5.26l-3.21,1.1A5.24,5.24,0,0,1,312.67,50.72Z"/><path class="cls-5" d="M302.12,51.43,302,54.37l.76-.26A5,5,0,0,1,302.12,51.43Z"/><path class="cls-5" d="M308.92,46.53l-5.83,2a5.2,5.2,0,0,0-1,2.82v.09a5,5,0,0,0,.65,2.68l9.9-3.39A5.24,5.24,0,0,0,308.92,46.53Z"/><path class="cls-5" d="M305.84,34.63l-7.29,7.57a11.89,11.89,0,0,1,2.91,4.5l7.74-8A22.4,22.4,0,0,0,305.84,34.63Z"/><path class="cls-5" d="M297.82,29.71a22.66,22.66,0,0,0-5.16-1.18L291.47,38.9a12.11,12.11,0,0,1,5.09,1.75Z"/><polygon class="cls-5" points="295.8 45.06 296.03 45.27 296.09 44.75 295.8 45.06"/><path class="cls-5" d="M277.06,32.54,281.4,42.6a12.08,12.08,0,0,1,4.43-3L281.69,30A22.53,22.53,0,0,0,277.06,32.54Z"/><path class="cls-5" d="M269.32,42.09l6.94,11.56a5.16,5.16,0,0,0,2-3.74,12.5,12.5,0,0,1,.42-2.47L272.35,37A22,22,0,0,0,269.32,42.09Z"/><g class="cls-2"><ellipse class="cls-3" cx="148.69" cy="39.65" rx="43.71" ry="38.25"/><polygon class="cls-3" points="107.25 147.9 33.44 65.38 181.04 65.38 107.25 147.9"/><ellipse class="cls-3" cx="65.8" cy="39.65" rx="43.71" ry="38.25"/><path class="cls-3" d="M95.89,54.19l5.86,3.74c1.31.84,2.73-.78,2-2a289.59,289.59,0,0,0-17.37-28.1l-2.06,2A255.1,255.1,0,0,1,126,63.73l2.12-2.12a98.1,98.1,0,0,0-21.26-15.92c-.89-.5-2.42.11-2.26,1.29a75,75,0,0,0,4.54,17.7l2.51-1.45-11.37-9.31A1.5,1.5,0,0,0,98.13,56,116.29,116.29,0,0,0,110.8,68.87a1.5,1.5,0,0,0,2.12-2.13l-9.48-10.62-1.82,2.35a51.08,51.08,0,0,1,11,8.44l2.12-2.12-7.64-7.42c-1.19-1.16-3.31.35-2.36,1.82a12.84,12.84,0,0,0,5.63,4.91,1.5,1.5,0,0,0,1.51-2.59,10,10,0,0,1-3.06-3l-2.05,2.06,13.31,9.16c1.38,1,3.15-1.28,1.82-2.36a114.38,114.38,0,0,1-13.41-12.72l-2.12,2.12,7.49,7.67L116,62.28,102.11,49.15A1.5,1.5,0,0,0,100,51.27L107.6,60l1.82-2.36-6.9-4.84c-1.59-1.12-3.07,1.47-1.52,2.59L110.23,62l1.52-2.59-8.94-6a1.52,1.52,0,0,0-2.21,1.7A31.61,31.61,0,0,0,106,64.67l1.82-2.35L99.74,58c-1.46-.79-3.08,1.14-1.81,2.35l10.7,10.34,1.82-2.35L97.17,59.86a1.5,1.5,0,0,0-1.82,2.35l4.67,4.4,2.12-2.12-6.88-6.27-1.82,2.35,3.85,2.63,1.16-2.74L94.61,58.9c-1.41-.57-2.53,1.55-1.46,2.51l8.88,8c1.5,1.34,3.21,3.51,5.28,4,3.94.88,8-4.87,10.58-7.12a1.51,1.51,0,0,0-1.06-2.56,20.73,20.73,0,0,0-10.2,2.77l2.25,1.3c.11-1.93-.95-2.74-2.6-3.6-4-2-9.49-2.6-13.8-3.73V63.3l19.84-4.57-.8-2.89-3.49,1a1.51,1.51,0,0,0,0,2.89L111.15,62l1.3-2.26a40.33,40.33,0,0,1-17.73-3.49c-1.72-.77-3.23,1.63-1.51,2.59a119.92,119.92,0,0,1,18.36,12.6l1.82-2.36A116.76,116.76,0,0,0,95.46,61l-.8,2.89a20.38,20.38,0,0,1,5.18,2.3L101,63.46a26,26,0,0,1-11-7.42l-1.46,2.51a74.47,74.47,0,0,1,14.94,4.69A1.5,1.5,0,0,0,105,60.65L90.82,49.94l-1.16,2.74a28.77,28.77,0,0,1,13.94,8.16l1.06-2.56a6.73,6.73,0,0,1-5.77-2.1c-1.42-1.31-3.54.81-2.12,2.12a10.6,10.6,0,0,0,7.89,3,1.52,1.52,0,0,0,1.06-2.56,31.58,31.58,0,0,0-15.26-8.93c-1.75-.47-2.45,1.77-1.15,2.74l14.22,10.71L105,60.65a77.19,77.19,0,0,0-15.66-5,1.51,1.51,0,0,0-1.46,2.51,29.41,29.41,0,0,0,12.28,8.18c1.64.61,2.55-1.87,1.15-2.74A22.65,22.65,0,0,0,95.46,61c-1.88-.54-2.6,2.25-.8,2.89a111.36,111.36,0,0,1,17.21,7.77c1.43.8,3.18-1.22,1.82-2.35a124.58,124.58,0,0,0-19-13.07l-1.51,2.59a43.68,43.68,0,0,0,19.24,3.9,1.51,1.51,0,0,0,1.3-2.25,8.85,8.85,0,0,0-4.92-3.6v2.89l3.49-1.05a1.5,1.5,0,0,0-.8-2.89L91.68,60.41a1.51,1.51,0,0,0,0,2.89c1.58.42,14.29,2.8,14.2,4.44A1.51,1.51,0,0,0,108.14,69a17.67,17.67,0,0,1,8.69-2.36l-1.06-2.56-4.08,3.57c-2.82,2.48-3.3,2.84-6.8.24s-6.48-5.81-9.62-8.63L93.81,61.8l3.84,1.55c1.66.68,2.47-1.84,1.15-2.74L95,58c-1.4-1-3.07,1.22-1.81,2.36L100,66.61c1.42,1.3,3.53-.79,2.12-2.12l-4.67-4.4-1.81,2.36,13.27,8.47a1.51,1.51,0,0,0,1.82-2.36l-10.7-10.34-1.82,2.36,8,4.33a1.51,1.51,0,0,0,1.82-2.36,26.57,26.57,0,0,1-4.6-8.27L101.29,56l8.94,6c1.62,1.09,3.06-1.48,1.52-2.59l-9.23-6.64L101,55.37l6.9,4.84c1.47,1,2.88-1.14,1.82-2.36l-7.61-8.7L100,51.27,113.83,64.4A1.5,1.5,0,0,0,116,62.28l-7.49-7.67c-1.36-1.39-3.4.69-2.12,2.12a115.08,115.08,0,0,0,13.4,12.72l1.82-2.35-13.31-9.17c-1.21-.83-2.91.84-2,2.06a16.84,16.84,0,0,0,4.14,4.11l1.51-2.59a10.29,10.29,0,0,1-4.55-3.84L105,59.49l7.64,7.42a1.5,1.5,0,0,0,2.12-2.12,53.91,53.91,0,0,0-11.58-8.91,1.51,1.51,0,0,0-1.82,2.36l9.49,10.63,2.12-2.13a116.2,116.2,0,0,1-12.67-12.82L98.13,56l11.37,9.31c1,.83,3.12.09,2.51-1.46A71.71,71.71,0,0,1,107.57,47l-2.26,1.3A94.84,94.84,0,0,1,126,63.73a1.5,1.5,0,0,0,2.12-2.12,259.39,259.39,0,0,0-42.2-34.37c-1.22-.8-2.92.82-2,2.06a287.2,287.2,0,0,1,17.37,28.1l2.05-2.06L97.4,51.6c-1.63-1.05-3.14,1.55-1.51,2.59Z"/><path class="cls-3" d="M105.77,51.83a18.36,18.36,0,0,1-.74,9h2.89c-.36-1.5,2.91-5.44,3.72-6.75,1-1.68-1.48-3-2.6-1.52-1.45,2-2,4.18-3.19,6.32-1.51,2.63-4,4.48-6.42,6.26l2.21,1.69a34.56,34.56,0,0,1,5.66-12.92l-2.59-1.51a60.68,60.68,0,0,1-7,11.89l2.59,1.51a80.51,80.51,0,0,1,8-12.46l-2.51-1.46c-1.54,4.27-4,8-6.55,11.7l2.74,1.15a43.52,43.52,0,0,1,7.31-11.92L106.88,51l-7,13.72,2.59,1.52a64.55,64.55,0,0,1,8.84-14.69l-2.56-1.06c.2,4.21-3.69,9.55-5.67,13.17l2.79.75a39.56,39.56,0,0,1,1.89-11.88l-2.89-.8-3.6,11.75c-.58,1.89,2.18,2.53,2.89.8a69.61,69.61,0,0,1,6-11.4l-2.79-.76c.64,5.74-2.77,12.2-4.7,17.5h2.89c-.5-3.1,2.22-7.85,3.39-10.5,1.3-2.9,2.75-5.71,4.3-8.48l-2.74-.36c.73,4.13-1.58,8.26-3,12l-3.63,9.49,2.94.4c-.41-3.14,2.23-7.08,3.56-9.85,1.41-3,2.94-5.85,4.52-8.72l-2.8-.76c.4,4.21-2.51,9.32-4.17,13l2.79.75a19.85,19.85,0,0,1,2.88-8.11H111c1.37,2.22-1.63,8.5-2.42,10.59-.69,1.82,2.18,2.56,2.89.8a54.91,54.91,0,0,1,6-11l-2.74-1.16a27.1,27.1,0,0,1-2.4,7.25l2.8.75,1-3.44-2.74-1.15A20,20,0,0,1,111.9,66c-.81,1.72,1.61,3.21,2.6,1.51a8,8,0,0,1,3.2-3.48l-2.26-1.3a22.27,22.27,0,0,1-3.6,9.77c-1.06,1.62,1.54,3.13,2.59,1.51a25.37,25.37,0,0,0,4-11.28,1.5,1.5,0,0,0-2.25-1.29A13.66,13.66,0,0,0,111.9,66l2.6,1.51a24.79,24.79,0,0,0,1.92-5.63,1.5,1.5,0,0,0-2.74-1.15,9,9,0,0,0-1.46,4.95,1.51,1.51,0,0,0,2.8.76,30.52,30.52,0,0,0,2.69-8A1.51,1.51,0,0,0,115,57.35a58.41,58.41,0,0,0-6.35,11.74l2.89.8c1.32-3.47,4.31-9.36,2.12-12.9A1.52,1.52,0,0,0,111,57a23.51,23.51,0,0,0-3.29,9.62c-.17,1.46,2.2,2.08,2.8.76,2-4.36,5-9.63,4.58-14.52-.13-1.38-2-2.16-2.79-.75-2.16,3.9-4.19,7.87-6,11.94-1.15,2.53-2.84,5.28-2.47,8.14a1.51,1.51,0,0,0,3,.4c1.61-4.22,3.24-8.43,4.85-12.66,1.35-3.57,2.47-6.6,1.79-10.42a1.52,1.52,0,0,0-2.74-.36,105.67,105.67,0,0,0-5.47,11.22c-1.34,3.24-3.09,6.54-2.52,10.08.26,1.6,2.44,1.24,2.89,0,2.05-5.63,5.5-12.16,4.81-18.3a1.52,1.52,0,0,0-2.8-.75,73.64,73.64,0,0,0-6.3,12.11l2.89.8,3.6-11.75c.57-1.85-2.31-2.64-2.89-.8a42.69,42.69,0,0,0-2,12.68,1.51,1.51,0,0,0,2.8.76C108,61,112,55.47,111.79,50.51c-.06-1.16-1.69-2.15-2.56-1.06a67,67,0,0,0-9.31,15.29c-.76,1.73,1.7,3.27,2.59,1.52l7-13.73c.73-1.43-1.19-3.18-2.35-1.81A48.22,48.22,0,0,0,99,64c-.68,1.66,1.84,2.48,2.74,1.16a56,56,0,0,0,6.86-12.42c.49-1.36-1.59-2.63-2.51-1.46a84.53,84.53,0,0,0-8.47,13.08,1.5,1.5,0,0,0,2.59,1.51,60.39,60.39,0,0,0,7-11.89,1.5,1.5,0,0,0-2.59-1.51,36.39,36.39,0,0,0-6,13.64c-.25,1.13,1.06,2.54,2.2,1.69a29.35,29.35,0,0,0,6.53-5.9c1.75-2.4,2.41-5.34,4.16-7.75L109,52.59c-1.63,2.67-4.81,5.78-4,9.07a1.51,1.51,0,0,0,2.89,0A21.87,21.87,0,0,0,108.66,51c-.31-1.9-3.2-1.1-2.89.79Z"/><path class="cls-3" d="M95.67,73.28A168.36,168.36,0,0,1,101.77,51c2.46-7,4.91-15.93,10.77-20.89l-2.36-1.82q-9.71,19.67-21,38.44l2.59,1.51a315,315,0,0,1,25.8-43.89L114.8,24c.64,4.58-3.81,10.49-5.84,14.4q-3.24,6.27-6.57,12.52c-4.32,8.07-8.82,16-13.61,23.83l2.59,1.52A192.09,192.09,0,0,1,114,40.08l-2.36-1.82L88.25,83.59,91,84c-.94-4.2,4.26-11.24,6.21-14.94q3.43-6.48,7.16-12.79c5-8.48,10.45-16.7,16.21-24.7l-2.8-.76c-.11,3.87-3,7.4-4.86,10.58q-2.73,4.53-5.5,9Q102.1,59,96.59,67.46l2.74,1.15a87.57,87.57,0,0,1,14.54-25.17L111.36,42C103.82,60,95.82,77.72,86.58,94.9l2.6,1.51a436.84,436.84,0,0,1,32-57.69l-2.74-1.16c-1.38,6.18-4.94,11.51-8.07,16.92L101,70.68l2.74,1.15a65.46,65.46,0,0,1,11.18-22.49l-2.74-1.15a193.78,193.78,0,0,1-14.84,30.1l2.74,1.15a118.41,118.41,0,0,1,18.23-35.11l-2.75-1.15a128.81,128.81,0,0,1-11.21,22.48l2.74,1.15A113.78,113.78,0,0,1,122,37.73l-2.8-.76c0,5.5-5.21,11.75-7.9,16.41l-8.75,15.18,2.74,1.16a126.07,126.07,0,0,1,17.56-32.43l-2.79-.76c.06,5.44-3.16,10.44-5.38,15.25L108.5,65.17c-3.6,7.81-6.83,16-11.5,23.26l2.59,1.51a546.72,546.72,0,0,1,32.46-60.2l-2.59-1.52Q114.39,59.47,97.23,89.63l2.8.75c-.2-5.7,2.25-11.25,4.28-16.49,2.15-5.54,4.6-11,7.25-16.29L109,56.09a69.14,69.14,0,0,1-6,10.1l2.59,1.52A39.22,39.22,0,0,1,116,54.21l-2.51-1.46a232.38,232.38,0,0,1-13.1,30.18l2.74,1.15A145.48,145.48,0,0,1,117.6,53.73l-2.74-1.15A80.63,80.63,0,0,1,107,67.07l2.59,1.52a69.39,69.39,0,0,1,12.51-19.47l-2.51-1.46a242.62,242.62,0,0,1-15.13,31l2.74,1.16a77.56,77.56,0,0,1,13.87-28.88l-2.74-1.16a160.27,160.27,0,0,1-10.65,23.78l2.74,1.15A138.93,138.93,0,0,1,122.94,51.5l-2.74-1.16a199.53,199.53,0,0,1-12.56,26l2.74,1.15a96.52,96.52,0,0,1,13.22-26l-2.74-1.16a162.19,162.19,0,0,1-10.33,24.78l2.75,1.16a83.9,83.9,0,0,1,9.46-22.6l-2.6-1.52a250.89,250.89,0,0,1-16.45,25.93l2.79.76c.13-8.27,4-15.4,8-22.43l-2.59-1.51a132.41,132.41,0,0,1-8.42,15.82l2.75,1.15A153.12,153.12,0,0,1,116.76,51c.92-1.54-1.11-2.86-2.36-1.82l-6.66,5.55c-1.49,1.23.65,3.35,2.12,2.12l6.66-5.55-2.35-1.82a159.35,159.35,0,0,0-10.86,21.61c-.66,1.62,1.88,2.55,2.75,1.16a133,133,0,0,0,8.41-15.82c.77-1.72-1.62-3.23-2.59-1.51-4.23,7.52-8.26,15.11-8.4,23.94a1.51,1.51,0,0,0,2.8.75,252.54,252.54,0,0,0,16.46-25.92,1.51,1.51,0,0,0-2.6-1.52,87,87,0,0,0-9.76,23.32c-.4,1.6,1.94,2.71,2.74,1.16a166.16,166.16,0,0,0,10.63-25.5c.55-1.72-1.81-2.47-2.74-1.16a99.24,99.24,0,0,0-13.52,26.76c-.53,1.62,1.9,2.61,2.74,1.15a205.06,205.06,0,0,0,12.86-26.72c.66-1.66-1.85-2.49-2.74-1.16a143.06,143.06,0,0,0-12.84,23.93c-.67,1.58,1.93,2.63,2.74,1.16a163.66,163.66,0,0,0,11-24.49c.62-1.74-1.8-2.39-2.74-1.15A79.42,79.42,0,0,0,104.29,79,1.51,1.51,0,0,0,107,80.18a248.25,248.25,0,0,0,15.43-31.72c.57-1.41-1.54-2.53-2.5-1.46a71.64,71.64,0,0,0-13,20.07,1.5,1.5,0,0,0,2.59,1.52,83.85,83.85,0,0,0,8.18-15.22c.67-1.62-1.88-2.54-2.74-1.15a148.4,148.4,0,0,0-14.77,31.06A1.51,1.51,0,0,0,103,84.44a236.6,236.6,0,0,0,13.4-30.89c.54-1.53-1.47-2.35-2.51-1.46A41.16,41.16,0,0,0,103,66.19a1.5,1.5,0,0,0,2.59,1.52,69.77,69.77,0,0,0,6-10.11c.82-1.72-1.73-3.25-2.59-1.51-2.76,5.56-5.3,11.22-7.55,17-2.16,5.54-4.6,11.25-4.39,17.29a1.51,1.51,0,0,0,2.79.76Q117,61,132.05,29.74a1.5,1.5,0,0,0-2.59-1.52A546.86,546.86,0,0,0,97,88.43a1.5,1.5,0,0,0,2.59,1.51c5.36-8.34,9-17.85,13.14-26.83l6.58-14.27c1.85-4,3.79-7.79,3.74-12.31a1.52,1.52,0,0,0-2.8-.75,129.32,129.32,0,0,0-17.87,33.14c-.58,1.62,1.91,2.6,2.75,1.16l10.69-18.56c2.58-4.46,6.39-9.19,6.37-14.55a1.51,1.51,0,0,0-2.79-.76A116,116,0,0,0,104.2,66c-.56,1.65,1.86,2.55,2.74,1.15A132.88,132.88,0,0,0,118.46,44c.65-1.72-1.81-2.4-2.74-1.16A120.71,120.71,0,0,0,97.18,78.65c-.52,1.64,1.88,2.58,2.75,1.15A197,197,0,0,0,115.07,49c.67-1.72-1.81-2.38-2.74-1.15A67.44,67.44,0,0,0,100.85,71a1.5,1.5,0,0,0,2.74,1.15l10.3-17.81c3-5.14,6.13-10.16,7.44-16a1.5,1.5,0,0,0-2.74-1.15,437.41,437.41,0,0,0-32,57.69c-.79,1.72,1.67,3.24,2.6,1.51C98.53,79,106.61,61,114.25,42.78c.58-1.37-1.58-2.59-2.5-1.46a92,92,0,0,0-15.31,26.5c-.61,1.65,1.86,2.52,2.74,1.15Q105.72,58.88,112,48.61c3.23-5.28,8.58-11.43,8.76-17.85,0-1.6-2-1.88-2.79-.75A327,327,0,0,0,99.47,58.67q-4.08,7.15-7.79,14.5c-1.82,3.63-4.52,7.4-3.59,11.57a1.52,1.52,0,0,0,2.75.36l23.41-45.32c.73-1.42-1.24-3.22-2.36-1.82A195,195,0,0,0,88.78,74.74a1.5,1.5,0,0,0,2.59,1.52c5.78-9.41,11.12-19.07,16.26-28.83q3.74-7.09,7.38-14.23c1.71-3.36,3.21-6.19,2.68-10-.2-1.41-2.1-1.28-2.74-.36a315.66,315.66,0,0,0-25.8,43.9,1.5,1.5,0,0,0,2.59,1.51q11.33-18.78,21-38.44A1.51,1.51,0,0,0,110.41,28c-5.45,4.62-7.82,12.24-10.27,18.72a168.35,168.35,0,0,0-7.36,25.77c-.38,1.89,2.51,2.69,2.89.8Z"/></g><path class="cls-4" d="M104,43.61l7.3-7.58a22.59,22.59,0,0,0-8-4.92L102,42.05A11.6,11.6,0,0,1,104,43.61Z"/><path class="cls-4" d="M97,29.83a22.8,22.8,0,0,0-9.82,1.59L91.29,41a12.14,12.14,0,0,1,5-.79l.59,0,1.19-10.37C97.74,29.89,97.35,29.85,97,29.83Z"/><path class="cls-4" d="M113.08,47.72h.12a5.71,5.71,0,0,1,1.18.21l3.21-1.1a21.72,21.72,0,0,0-2.93-6.76l-7.74,8a11.53,11.53,0,0,1,.56,2.19l1.07-.37A5.32,5.32,0,0,1,113.08,47.72Z"/><path class="cls-4" d="M77.82,38.37l6.29,10.48A11.61,11.61,0,0,1,86.86,44L82.52,33.94A22.72,22.72,0,0,0,77.82,38.37Z"/><path class="cls-4" d="M118.19,53c0-.3,0-.59,0-.89l-.08,0A6.11,6.11,0,0,1,118.19,53Z"/><path class="cls-4" d="M73.09,50.69a5.25,5.25,0,0,0,5,5.52,5.33,5.33,0,0,0,3.64-1.16L74.78,43.49A21.8,21.8,0,0,0,73.09,50.69Z"/><polygon class="cls-4" points="116.54 97.27 105.78 100.95 105.55 107.16 116.31 103.48 116.54 97.27"/><polygon class="cls-4" points="116.11 108.76 105.35 112.44 105.14 117.93 115.9 114.25 116.11 108.76"/><polygon class="cls-4" points="117.79 63.78 107.03 67.46 106.83 72.8 117.59 69.12 117.79 63.78"/><path class="cls-4" d="M118.19,53.12V53c0,.11,0,.22,0,.33a5.33,5.33,0,0,1-10,2.2l-.76.26-.23,6.14L118,58.23Z"/><polygon class="cls-4" points="117.38 74.66 106.63 78.35 106.43 83.57 117.19 79.89 117.38 74.66"/><path class="cls-4" d="M113.2,47.72h-.12a5.32,5.32,0,0,0-4.53,2.2l5.83-2A5.71,5.71,0,0,0,113.2,47.72Z"/><path class="cls-4" d="M108.23,55.51a5.33,5.33,0,0,0,10-2.2c0-.11,0-.22,0-.33a6.11,6.11,0,0,0-.06-.86Z"/><polygon class="cls-4" points="116.94 86.56 106.18 90.24 106 95.13 116.76 91.44 116.94 86.56"/><polygon class="cls-4" points="115.72 119.1 104.96 122.78 104.77 127.98 115.53 124.3 115.72 119.1"/><path class="cls-4" d="M105.3,132.44a5.29,5.29,0,0,0,4.39,2.8h.12a5.28,5.28,0,0,0,5.5-5l0-1.22Z"/><path class="cls-5" d="M115.53,124.3,104.77,128l-.07,1.86a5.09,5.09,0,0,0,.6,2.6l10-3.44Z"/><polygon class="cls-5" points="115.9 114.25 105.14 117.93 104.96 122.78 115.72 119.1 115.9 114.25"/><polygon class="cls-5" points="116.31 103.48 105.55 107.16 105.35 112.44 116.11 108.76 116.31 103.48"/><polygon class="cls-5" points="116.76 91.44 106 95.13 105.78 100.95 116.54 97.27 116.76 91.44"/><polygon class="cls-5" points="117.19 79.89 106.43 83.57 106.18 90.24 116.94 86.56 117.19 79.89"/><polygon class="cls-5" points="117.59 69.12 106.83 72.8 106.63 78.35 117.38 74.66 117.59 69.12"/><polygon class="cls-5" points="118 58.23 107.24 61.91 107.03 67.46 117.79 63.78 118 58.23"/><path class="cls-5" d="M107.58,52.83v-.09a5.2,5.2,0,0,1,1-2.82l-1.07.37a12,12,0,0,1,.1,2.41Z"/><path class="cls-5" d="M118.13,52.12l.08,0a21.34,21.34,0,0,0-.62-5.26l-3.21,1.1A5.25,5.25,0,0,1,118.13,52.12Z"/><path class="cls-5" d="M107.58,52.83l-.11,2.94.76-.26A5.17,5.17,0,0,1,107.58,52.83Z"/><path class="cls-5" d="M114.38,47.93l-5.83,2a5.2,5.2,0,0,0-1,2.82v.09a5.17,5.17,0,0,0,.65,2.68l9.9-3.39A5.25,5.25,0,0,0,114.38,47.93Z"/><path class="cls-5" d="M111.31,36,104,43.61a11.78,11.78,0,0,1,2.91,4.49l7.74-8A22.35,22.35,0,0,0,111.31,36Z"/><path class="cls-5" d="M103.28,31.11a22.53,22.53,0,0,0-5.16-1.18L96.93,40.3A12,12,0,0,1,102,42.05Z"/><polygon class="cls-5" points="101.26 46.46 101.49 46.67 101.55 46.15 101.26 46.46"/><path class="cls-5" d="M82.52,33.94,86.86,44a12,12,0,0,1,4.43-3l-4.14-9.62A22.53,22.53,0,0,0,82.52,33.94Z"/><path class="cls-5" d="M74.78,43.49l6.94,11.56a5.17,5.17,0,0,0,2-3.74,11,11,0,0,1,.42-2.46L77.82,38.37A22.19,22.19,0,0,0,74.78,43.49Z"/><g class="cls-2"><ellipse class="cls-3" cx="536.96" cy="41.65" rx="43.71" ry="38.25" transform="translate(-0.09 1.19) rotate(-0.13)"/><polygon class="cls-3" points="495.79 150 421.78 67.67 569.38 67.3 495.79 150"/><ellipse class="cls-3" cx="454.07" cy="41.86" rx="43.71" ry="38.25" transform="translate(-0.09 1.01) rotate(-0.13)"/><path class="cls-3" d="M484.19,56.32l5.87,3.73c1.32.83,2.74-.79,2.06-2a288.53,288.53,0,0,0-17.45-28.06l-2.05,2A255.36,255.36,0,0,1,514.3,65.78l2.12-2.12a98.44,98.44,0,0,0-21.3-15.87,1.53,1.53,0,0,0-2.21,1.7,73.47,73.47,0,0,0,4.54,17.29L500,65.32,488.56,56a1.5,1.5,0,0,0-2.12,2.12A116.29,116.29,0,0,0,499.14,71a1.5,1.5,0,0,0,2.12-2.12l-9.51-10.61-1.82,2.36a50.87,50.87,0,0,1,11,8.41l2.12-2.12-7.66-7.41c-1.19-1.15-3.32.35-2.36,1.82a12.92,12.92,0,0,0,5.64,4.91,1.5,1.5,0,0,0,1.51-2.59,10.12,10.12,0,0,1-3.07-3l-2.05,2.06,13.33,9.13c1.39.95,3.15-1.29,1.82-2.36a113.57,113.57,0,0,1-13.44-12.69l-2.12,2.12,7.52,7.66,2.12-2.13L490.4,51.27a1.5,1.5,0,0,0-2.12,2.12l7.64,8.68,1.82-2.35-6.91-4.82c-1.6-1.12-3.07,1.47-1.52,2.59l9.25,6.61,1.51-2.59-8.95-6a1.52,1.52,0,0,0-2.21,1.69,31.82,31.82,0,0,0,5.4,9.58l1.82-2.35-8.06-4.31c-1.47-.78-3.09,1.14-1.82,2.36L497,72.78l1.81-2.36L485.5,62a1.5,1.5,0,0,0-1.82,2.35l4.68,4.39,2.12-2.12-6.9-6.26-1.82,2.36,3.86,2.62,1.15-2.74L482.93,61c-1.4-.57-2.53,1.55-1.46,2.51l8.9,7.94c1.51,1.34,3.22,3.51,5.29,4,3.95.88,8-4.88,10.57-7.14a1.51,1.51,0,0,0-1.06-2.56A20.64,20.64,0,0,0,495,68.54l2.26,1.3c.09-1.93-1-2.74-2.62-3.59-4-2-9.49-2.58-13.8-3.7v2.89l19.82-4.62-.79-2.89L496.35,59a1.51,1.51,0,0,0,0,2.89l3.13,2.21,1.3-2.26A40.47,40.47,0,0,1,483,58.39c-1.72-.77-3.24,1.62-1.52,2.59a120.46,120.46,0,0,1,18.4,12.55l1.82-2.36a117.21,117.21,0,0,0-17.95-8L483,66a20.57,20.57,0,0,1,5.19,2.29l1.15-2.74a26,26,0,0,1-11-7.39L476.9,60.7a73.9,73.9,0,0,1,15,4.65,1.5,1.5,0,0,0,1.51-2.59L479.12,52.09,478,54.83a28.68,28.68,0,0,1,14,8.12L493,60.39a6.79,6.79,0,0,1-5.78-2.08c-1.41-1.31-3.54.81-2.12,2.12a10.67,10.67,0,0,0,7.9,3A1.52,1.52,0,0,0,494,60.83a31.54,31.54,0,0,0-15.28-8.89c-1.74-.47-2.45,1.76-1.15,2.74l14.25,10.67,1.51-2.59a78,78,0,0,0-15.67-4.95,1.51,1.51,0,0,0-1.46,2.5,29.31,29.31,0,0,0,12.29,8.16c1.65.6,2.56-1.88,1.16-2.74a22.83,22.83,0,0,0-5.9-2.59c-1.88-.54-2.6,2.26-.8,2.89a111.81,111.81,0,0,1,17.23,7.73c1.43.79,3.18-1.23,1.82-2.36a125,125,0,0,0-19-13L481.52,61a43.72,43.72,0,0,0,19.26,3.85,1.51,1.51,0,0,0,1.29-2.26A8.86,8.86,0,0,0,497.15,59v2.89l3.48-1.06a1.5,1.5,0,0,0-.79-2.89L480,62.55a1.51,1.51,0,0,0,0,2.89c1.58.41,14.3,2.76,14.22,4.4a1.5,1.5,0,0,0,2.25,1.29,17.69,17.69,0,0,1,8.69-2.38l-1.06-2.56L500,69.77c-2.82,2.48-3.3,2.85-6.8.26s-6.49-5.79-9.65-8.61l-1.46,2.51L486,65.48c1.66.67,2.47-1.84,1.15-2.74l-3.85-2.62c-1.41-1-3.08,1.21-1.82,2.35l6.9,6.26c1.42,1.29,3.54-.79,2.12-2.12l-4.68-4.39L484,64.58,497.28,73a1.5,1.5,0,0,0,1.82-2.35L488.37,60.35l-1.82,2.35L494.62,67a1.51,1.51,0,0,0,1.82-2.36,26.79,26.79,0,0,1-4.64-8.25l-2.2,1.69,9,6c1.62,1.09,3.06-1.48,1.51-2.59l-9.24-6.61-1.52,2.59,6.91,4.82c1.47,1,2.89-1.14,1.82-2.36l-7.64-8.68-2.12,2.12,13.89,13.1a1.5,1.5,0,0,0,2.12-2.13l-7.52-7.65c-1.36-1.39-3.4.69-2.12,2.12a113.57,113.57,0,0,0,13.44,12.69l1.82-2.35L496.57,60c-1.21-.83-2.92.84-2.05,2.05a16.88,16.88,0,0,0,4.15,4.11l1.51-2.59a10.24,10.24,0,0,1-4.56-3.83l-2.35,1.81L500.93,69a1.5,1.5,0,0,0,2.12-2.12A53.57,53.57,0,0,0,491.45,58a1.5,1.5,0,0,0-1.82,2.35L499.14,71l2.12-2.12A116.29,116.29,0,0,1,488.56,56l-2.12,2.12,11.39,9.28c1,.83,3.12.09,2.51-1.46a72.72,72.72,0,0,1-4.53-17.29l-2.21,1.69a95.42,95.42,0,0,1,20.7,15.4,1.5,1.5,0,0,0,2.12-2.12A258.87,258.87,0,0,0,474.13,29.4c-1.22-.79-2.92.82-2.05,2.05a286.51,286.51,0,0,1,17.44,28.06l2.06-2-5.87-3.73c-1.64-1-3.14,1.55-1.52,2.59Z"/><path class="cls-3" d="M494.07,53.94a18.3,18.3,0,0,1-.72,9h2.9c-.37-1.5,2.89-5.44,3.69-6.76,1-1.68-1.48-3.05-2.59-1.51-1.45,2-2,4.18-3.18,6.32-1.5,2.63-4,4.49-6.4,6.28L490,69A34.59,34.59,0,0,1,495.61,56L493,54.53a60.41,60.41,0,0,1-7,11.91L488.59,68a79.52,79.52,0,0,1,8-12.48L494.05,54a53.24,53.24,0,0,1-6.53,11.72l2.74,1.15a43.77,43.77,0,0,1,7.28-11.94l-2.36-1.82-6.93,13.74,2.59,1.51a64.86,64.86,0,0,1,8.81-14.7l-2.56-1.06c.21,4.21-3.66,9.55-5.64,13.18l2.79.75a40,40,0,0,1,1.86-11.89l-2.89-.79-3.57,11.75c-.58,1.9,2.19,2.54,2.89.8a69.24,69.24,0,0,1,6-11.41l-2.8-.76c.66,5.74-2.74,12.21-4.65,17.51H494c-.49-3,1.95-7.22,3.11-9.89,1.35-3.12,2.88-6.14,4.52-9.11l-2.74-.36c.75,4.13-1.55,8.27-3,12l-3.61,9.5h2.89c-.4-3,2.32-6.8,3.59-9.47,1.4-3,2.92-5.85,4.49-8.72l-2.79-.76c.41,4.2-2.48,9.33-4.14,13l2.79.76A19.67,19.67,0,0,1,502,60.59h-2.59c1.38,2.22-1.61,8.5-2.39,10.6-.69,1.82,2.19,2.56,2.89.8a54.45,54.45,0,0,1,6-11l-2.74-1.16A27.05,27.05,0,0,1,500.76,67l2.8.76,1-3.45-2.75-1.15a20.51,20.51,0,0,1-1.6,4.92c-.81,1.72,1.61,3.21,2.59,1.51A8,8,0,0,1,506,66.14l-2.26-1.3a22.16,22.16,0,0,1-3.58,9.78c-1,1.62,1.55,3.13,2.59,1.51a25.3,25.3,0,0,0,4-11.29,1.5,1.5,0,0,0-2.25-1.29,13.54,13.54,0,0,0-4.27,4.57l2.59,1.51A24.76,24.76,0,0,0,504.75,64,1.51,1.51,0,0,0,502,62.84a9,9,0,0,0-1.45,5,1.51,1.51,0,0,0,2.79.76,30.2,30.2,0,0,0,2.68-8,1.51,1.51,0,0,0-2.74-1.16A57.94,57.94,0,0,0,497,71.19l2.89.8c1.3-3.47,4.29-9.38,2.09-12.91a1.51,1.51,0,0,0-2.59,0,23.43,23.43,0,0,0-3.27,9.63c-.17,1.45,2.2,2.08,2.8.76,2-4.37,5-9.64,4.55-14.53-.14-1.38-2-2.17-2.8-.76-2.29,4.17-4.43,8.41-6.35,12.77-1.14,2.57-2.41,4.89-2,7.74.22,1.63,2.44,1.19,2.89,0,1.61-4.23,3.23-8.44,4.82-12.67,1.35-3.58,2.45-6.62,1.77-10.43a1.52,1.52,0,0,0-2.75-.36,106.47,106.47,0,0,0-5.43,11.23c-1.33,3.24-3.08,6.55-2.5,10.09.26,1.6,2.44,1.24,2.89,0,2-5.64,5.47-12.17,4.76-18.31a1.51,1.51,0,0,0-2.79-.75,73.26,73.26,0,0,0-6.28,12.12l2.89.8,3.57-11.76c.57-1.85-2.32-2.63-2.89-.79a42.61,42.61,0,0,0-2,12.68,1.51,1.51,0,0,0,2.8.76c2.28-4.18,6.3-9.74,6-14.69-.06-1.16-1.69-2.16-2.56-1.06a67.36,67.36,0,0,0-9.28,15.31c-.74,1.73,1.71,3.27,2.59,1.51l6.93-13.74c.73-1.43-1.19-3.19-2.35-1.81a48.38,48.38,0,0,0-8.05,13.26c-.67,1.66,1.85,2.48,2.74,1.16a56.16,56.16,0,0,0,6.83-12.43c.49-1.36-1.59-2.65-2.51-1.46A83.66,83.66,0,0,0,486,66.44,1.5,1.5,0,0,0,488.59,68a60.41,60.41,0,0,0,7-11.91A1.5,1.5,0,0,0,493,54.53a36.42,36.42,0,0,0-5.93,13.66c-.24,1.13,1.06,2.54,2.2,1.69A29.57,29.57,0,0,0,495.8,64c1.75-2.41,2.4-5.36,4.14-7.77l-2.59-1.51c-1.62,2.67-4.8,5.79-4,9.07a1.52,1.52,0,0,0,2.9,0A22,22,0,0,0,497,53.14c-.31-1.9-3.2-1.09-2.89.8Z"/><path class="cls-3" d="M484,75.41a168.65,168.65,0,0,1,6-22.29c2.45-7,4.87-15.94,10.72-20.92l-2.36-1.82q-9.65,19.7-20.93,38.49l2.59,1.52a316.6,316.6,0,0,1,25.69-44L503,26.07c.66,4.64-3.73,10.4-5.8,14.41Q494,46.77,490.69,53c-4.3,8.08-8.78,16.06-13.54,23.87l2.59,1.51a192.27,192.27,0,0,1,22.54-36.23l-2.35-1.82-23.3,45.38,2.74.36c-.95-4.19,4.23-11.24,6.18-15q3.4-6.49,7.13-12.81c5-8.49,10.4-16.73,16.13-24.74L506,32.84c-.1,3.86-2.93,7.4-4.83,10.59q-2.71,4.53-5.48,9-5.29,8.61-10.77,17.11l2.74,1.16a87.34,87.34,0,0,1,14.47-25.21l-2.51-1.46c-7.5,18-15.45,35.78-24.64,53l2.59,1.51a436.35,436.35,0,0,1,31.86-57.77l-2.75-1.15c-1.36,6.18-4.9,11.51-8,16.94l-9.33,16.21L492.1,74a65.17,65.17,0,0,1,11.11-22.52l-2.74-1.16a192.9,192.9,0,0,1-14.76,30.14l2.74,1.16a118.32,118.32,0,0,1,18.14-35.16l-2.74-1.15a129.12,129.12,0,0,1-11.16,22.5l2.74,1.16A113.62,113.62,0,0,1,510.25,39.8L507.46,39c0,5.5-5.19,11.76-7.86,16.43l-8.72,15.2,2.74,1.16a126.09,126.09,0,0,1,17.49-32.47l-2.8-.76C508.39,44,505.18,49,503,53.87l-6.13,13.4c-3.58,7.81-6.79,16-11.44,23.28L488,92.06A544.26,544.26,0,0,1,520.3,31.78l-2.59-1.51q-15,31.28-32.08,61.48l2.8.76c-.21-5.7,2.22-11.26,4.24-16.5,2.14-5.56,4.57-11,7.2-16.31l-2.59-1.52a68.28,68.28,0,0,1-5.92,10.12L494,69.82A39.41,39.41,0,0,1,504.3,56.29l-2.51-1.46a230.32,230.32,0,0,1-13,30.21l2.74,1.16A145.22,145.22,0,0,1,505.9,55.81l-2.74-1.15a80.91,80.91,0,0,1-7.83,14.51l2.59,1.52a69.27,69.27,0,0,1,12.45-19.5l-2.51-1.46a243.29,243.29,0,0,1-15.05,31l2.74,1.15A77.69,77.69,0,0,1,509.35,53l-2.74-1.16A159.73,159.73,0,0,1,496,75.65l2.74,1.16a139.39,139.39,0,0,1,12.48-23.25l-2.74-1.15a200.78,200.78,0,0,1-12.49,26l2.74,1.15A96.26,96.26,0,0,1,511.9,53.53l-2.74-1.16A161.79,161.79,0,0,1,498.9,77.18l2.74,1.16A84.2,84.2,0,0,1,511,55.71l-2.59-1.51a252,252,0,0,1-16.39,26l2.8.75c.1-8.26,4-15.4,7.92-22.44L500.19,57a133.65,133.65,0,0,1-8.37,15.83L494.56,74A154.33,154.33,0,0,1,505.06,53c.92-1.54-1.11-2.87-2.36-1.82l-6.65,5.57c-1.48,1.24.65,3.35,2.12,2.12l6.65-5.57-2.35-1.81a158.65,158.65,0,0,0-10.8,21.63c-.66,1.62,1.88,2.55,2.74,1.16a131.57,131.57,0,0,0,8.37-15.84c.77-1.72-1.62-3.24-2.59-1.51-4.21,7.52-8.23,15.14-8.33,24a1.51,1.51,0,0,0,2.79.76,249.86,249.86,0,0,0,16.39-26,1.5,1.5,0,0,0-2.59-1.51,86.36,86.36,0,0,0-9.7,23.34c-.41,1.6,1.94,2.72,2.74,1.16a167.17,167.17,0,0,0,10.56-25.53c.55-1.71-1.81-2.47-2.74-1.15A99,99,0,0,0,495.86,78.8,1.51,1.51,0,0,0,498.6,80a205.64,205.64,0,0,0,12.79-26.75c.65-1.66-1.85-2.5-2.74-1.16a143,143,0,0,0-12.78,24c-.66,1.58,1.94,2.63,2.74,1.16A163.7,163.7,0,0,0,509.5,52.65c.61-1.74-1.8-2.4-2.74-1.15a79.52,79.52,0,0,0-14.1,29.63,1.5,1.5,0,0,0,2.74,1.15,249,249,0,0,0,15.36-31.76c.56-1.4-1.55-2.52-2.51-1.45a71.38,71.38,0,0,0-12.92,20.1,1.5,1.5,0,0,0,2.59,1.52,83.8,83.8,0,0,0,8.13-15.24c.67-1.62-1.88-2.54-2.74-1.15a148.61,148.61,0,0,0-14.68,31.1,1.51,1.51,0,0,0,2.74,1.16,238,238,0,0,0,13.32-30.93c.53-1.53-1.47-2.35-2.51-1.46A41.25,41.25,0,0,0,491.36,68.3,1.5,1.5,0,0,0,494,69.82a68.79,68.79,0,0,0,5.92-10.12c.82-1.73-1.73-3.25-2.59-1.52-2.74,5.57-5.27,11.24-7.5,17-2.14,5.54-4.57,11.26-4.35,17.3a1.51,1.51,0,0,0,2.79.76q17.05-30.21,32.08-61.49a1.5,1.5,0,0,0-2.59-1.51A544.26,544.26,0,0,0,485.4,90.55,1.5,1.5,0,0,0,488,92.06c5.34-8.35,9-17.87,13.07-26.85l6.55-14.3c1.84-4,3.76-7.8,3.7-12.31a1.51,1.51,0,0,0-2.79-.76A129.08,129.08,0,0,0,490.73,71c-.58,1.62,1.91,2.61,2.74,1.16L504.12,53.6c2.56-4.46,6.37-9.2,6.34-14.56a1.52,1.52,0,0,0-2.8-.76,116.29,116.29,0,0,0-15.12,29.84c-.56,1.66,1.87,2.56,2.74,1.16a133,133,0,0,0,11.46-23.23c.65-1.72-1.81-2.4-2.74-1.15a120.53,120.53,0,0,0-18.44,35.87,1.51,1.51,0,0,0,2.74,1.16,197.86,197.86,0,0,0,15.06-30.86c.67-1.72-1.81-2.39-2.74-1.16A67.79,67.79,0,0,0,489.2,73.15a1.51,1.51,0,0,0,2.74,1.16L502.2,56.47c3-5.15,6.1-10.18,7.4-16a1.51,1.51,0,0,0-2.74-1.15A435.72,435.72,0,0,0,475,97.05c-.79,1.72,1.66,3.24,2.59,1.51,9.31-17.42,17.35-35.46,24.94-53.69.57-1.37-1.59-2.59-2.51-1.46a92.16,92.16,0,0,0-15.23,26.53c-.61,1.66,1.86,2.53,2.74,1.16Q494,61,500.3,50.7c3.22-5.29,8.56-11.45,8.72-17.86,0-1.6-2-1.89-2.8-.76a325.53,325.53,0,0,0-18.43,28.71q-4.07,7.16-7.75,14.52c-1.81,3.63-4.5,7.41-3.56,11.58a1.52,1.52,0,0,0,2.74.36l23.3-45.38c.73-1.43-1.25-3.23-2.36-1.82a194.49,194.49,0,0,0-23,36.84,1.5,1.5,0,0,0,2.59,1.51c5.75-9.42,11.06-19.09,16.18-28.87q3.72-7.1,7.34-14.25c1.69-3.31,3.2-6.21,2.66-10-.2-1.4-2.1-1.29-2.74-.36a316.6,316.6,0,0,0-25.69,44c-.82,1.73,1.59,3.2,2.59,1.52Q491.36,51.58,501,31.9a1.51,1.51,0,0,0-2.35-1.82c-5.44,4.63-7.8,12.26-10.23,18.75a168,168,0,0,0-7.29,25.79c-.38,1.88,2.51,2.69,2.89.79Z"/></g><path class="cls-4" d="M492.37,45.71l7.3-7.57a22.61,22.61,0,0,0-8-4.93l-1.26,10.95A11.55,11.55,0,0,1,492.37,45.71Z"/><path class="cls-4" d="M485.33,31.93a22.81,22.81,0,0,0-9.82,1.6l4.14,9.61a12.14,12.14,0,0,1,5.05-.79l.59,0L486.48,32Z"/><path class="cls-4" d="M501.44,49.82h.12a5.6,5.6,0,0,1,1.18.21l3.22-1.1A22.08,22.08,0,0,0,503,42.17l-7.73,8a12.42,12.42,0,0,1,.55,2.2l1.07-.37A5.33,5.33,0,0,1,501.44,49.82Z"/><path class="cls-4" d="M466.18,40.48,472.47,51a11.61,11.61,0,0,1,2.75-4.84L470.88,36A22.5,22.5,0,0,0,466.18,40.48Z"/><path class="cls-4" d="M506.55,55.08l0-.88-.09,0A6.11,6.11,0,0,1,506.55,55.08Z"/><path class="cls-4" d="M461.45,52.79a5.25,5.25,0,0,0,5,5.52,5.33,5.33,0,0,0,3.64-1.16l-6.94-11.56A22.17,22.17,0,0,0,461.45,52.79Z"/><polygon class="cls-4" points="504.9 99.37 494.14 103.05 493.91 109.26 504.67 105.58 504.9 99.37"/><polygon class="cls-4" points="504.47 110.86 493.71 114.54 493.5 120.03 504.26 116.35 504.47 110.86"/><polygon class="cls-4" points="506.15 65.88 495.39 69.56 495.19 74.9 505.95 71.22 506.15 65.88"/><path class="cls-4" d="M506.55,55.23v-.15c0,.11,0,.22,0,.33a5.32,5.32,0,0,1-10,2.2l-.76.26L495.6,64l10.76-3.69Z"/><polygon class="cls-4" points="505.75 76.77 494.99 80.45 494.79 85.67 505.55 81.99 505.75 76.77"/><path class="cls-4" d="M501.56,49.82h-.12A5.33,5.33,0,0,0,496.91,52l5.83-2A5.6,5.6,0,0,0,501.56,49.82Z"/><path class="cls-4" d="M496.59,57.61a5.32,5.32,0,0,0,10-2.2c0-.11,0-.22,0-.33a6.11,6.11,0,0,0-.06-.86Z"/><polygon class="cls-4" points="505.3 88.66 494.54 92.35 494.36 97.23 505.12 93.55 505.3 88.66"/><polygon class="cls-4" points="504.08 121.2 493.32 124.88 493.13 130.09 503.89 126.4 504.08 121.2"/><path class="cls-4" d="M493.66,134.54a5.29,5.29,0,0,0,4.39,2.8h.12a5.27,5.27,0,0,0,5.5-5l0-1.23Z"/><path class="cls-5" d="M503.89,126.4l-10.76,3.69-.07,1.85a5.07,5.07,0,0,0,.6,2.6l10-3.44Z"/><polygon class="cls-5" points="504.26 116.35 493.5 120.03 493.32 124.88 504.08 121.2 504.26 116.35"/><polygon class="cls-5" points="504.67 105.58 493.91 109.26 493.71 114.54 504.47 110.86 504.67 105.58"/><polygon class="cls-5" points="505.12 93.55 494.36 97.23 494.14 103.05 504.9 99.37 505.12 93.55"/><polygon class="cls-5" points="505.55 81.99 494.79 85.67 494.54 92.35 505.3 88.66 505.55 81.99"/><polygon class="cls-5" points="505.95 71.22 495.19 74.9 494.99 80.45 505.75 76.77 505.95 71.22"/><polygon class="cls-5" points="506.36 60.33 495.6 64.02 495.39 69.56 506.15 65.88 506.36 60.33"/><path class="cls-5" d="M495.94,54.93v-.09a5.16,5.16,0,0,1,1-2.81l-1.07.37a11.94,11.94,0,0,1,.1,2.4Z"/><path class="cls-5" d="M506.49,54.22l.09,0a22.36,22.36,0,0,0-.62-5.27L502.74,50A5.27,5.27,0,0,1,506.49,54.22Z"/><path class="cls-5" d="M495.94,54.93l-.11,2.94.76-.26A5.17,5.17,0,0,1,495.94,54.93Z"/><path class="cls-5" d="M502.74,50l-5.83,2a5.16,5.16,0,0,0-1,2.81v.09a5.17,5.17,0,0,0,.65,2.68l9.9-3.39A5.27,5.27,0,0,0,502.74,50Z"/><path class="cls-5" d="M499.67,38.14l-7.3,7.57a11.8,11.8,0,0,1,2.92,4.49l7.73-8A22.28,22.28,0,0,0,499.67,38.14Z"/><path class="cls-5" d="M491.64,33.21A22.53,22.53,0,0,0,486.48,32L485.29,42.4a11.89,11.89,0,0,1,5.09,1.76Z"/><polygon class="cls-5" points="489.62 48.56 489.86 48.78 489.92 48.26 489.62 48.56"/><path class="cls-5" d="M470.88,36l4.34,10.07a12,12,0,0,1,4.43-3l-4.14-9.61A22.49,22.49,0,0,0,470.88,36Z"/><path class="cls-5" d="M463.14,45.59l6.94,11.56a5.17,5.17,0,0,0,2-3.74,11.1,11.1,0,0,1,.42-2.46l-6.29-10.47A22.13,22.13,0,0,0,463.14,45.59Z"/></g></svg>
