<svg xmlns="http://www.w3.org/2000/svg" width="170.31" height="146.5" viewBox="0 0 170.31 146.5"><defs><style>.cls-1{fill:#bf000f;}.cls-2{fill:red;}.cls-3{fill:#fff;}</style></defs><title>Liv</title><g id="Layer_2" data-name="Layer 2"><ellipse class="cls-1" cx="126.6" cy="38.25" rx="43.71" ry="38.25"/><polygon class="cls-1" points="85.15 146.5 11.35 63.98 158.96 63.98 85.15 146.5"/><ellipse class="cls-1" cx="43.71" cy="38.25" rx="43.71" ry="38.25"/><path class="cls-1" d="M73.8,52.79l5.86,3.74c1.31.84,2.73-.79,2-2.05a289.59,289.59,0,0,0-17.37-28.1l-2.06,2.05a254.58,254.58,0,0,1,41.6,33.9L106,60.21A98.1,98.1,0,0,0,84.74,44.29c-.89-.5-2.42.11-2.26,1.29A75.14,75.14,0,0,0,87,63.28l2.51-1.46-11.37-9.3A1.5,1.5,0,0,0,76,54.64,117.08,117.08,0,0,0,88.71,67.46a1.5,1.5,0,0,0,2.12-2.12L81.35,54.72l-1.82,2.35a51.08,51.08,0,0,1,11,8.44l2.12-2.12L85,56c-1.19-1.16-3.31.35-2.36,1.81a12.8,12.8,0,0,0,5.63,4.92,1.5,1.5,0,0,0,1.51-2.59,10,10,0,0,1-3.06-3l-2,2L98,68.29c1.38.95,3.15-1.28,1.82-2.36A114.38,114.38,0,0,1,86.37,53.21l-2.12,2.12L91.74,63l2.12-2.12L80,47.75a1.5,1.5,0,0,0-2.13,2.12l7.62,8.7,1.82-2.35-6.9-4.84c-1.59-1.12-3.07,1.47-1.52,2.59l9.23,6.64L89.66,58l-8.94-6a1.52,1.52,0,0,0-2.21,1.7,31.72,31.72,0,0,0,5.38,9.59l1.82-2.36-8.06-4.32a1.5,1.5,0,0,0-1.81,2.35l10.7,10.34,1.82-2.35L75.08,58.46a1.5,1.5,0,0,0-1.82,2.35l4.67,4.4,2.12-2.12-6.88-6.27-1.82,2.35L75.2,61.8l1.15-2.74L72.52,57.5C71.11,56.93,70,59.05,71.06,60l8.88,8c1.5,1.35,3.21,3.52,5.28,4,3.94.88,8-4.87,10.58-7.12a1.51,1.51,0,0,0-1.06-2.56A20.62,20.62,0,0,0,84.54,65l2.25,1.3c.11-1.93-1-2.75-2.6-3.6-4-2.05-9.49-2.6-13.8-3.73V61.9l19.84-4.57-.8-2.89-3.49,1.05a1.51,1.51,0,0,0,0,2.89l3.12,2.22,1.3-2.26a40.33,40.33,0,0,1-17.73-3.49c-1.72-.78-3.23,1.62-1.51,2.59A119.92,119.92,0,0,1,89.48,70l1.82-2.36a116.76,116.76,0,0,0-17.93-8.07l-.8,2.89a20,20,0,0,1,5.18,2.3l1.16-2.74a26.07,26.07,0,0,1-11-7.42L66.5,57.15a74.47,74.47,0,0,1,14.94,4.69A1.5,1.5,0,0,0,83,59.25L68.73,48.54l-1.16,2.74a28.69,28.69,0,0,1,13.94,8.16l1.06-2.56a6.73,6.73,0,0,1-5.77-2.1c-1.42-1.31-3.54.81-2.12,2.12a10.6,10.6,0,0,0,7.89,3,1.52,1.52,0,0,0,1.06-2.56,31.63,31.63,0,0,0-15.26-8.93c-1.75-.47-2.45,1.77-1.16,2.74L81.44,61.84,83,59.25a77.19,77.19,0,0,0-15.66-5,1.51,1.51,0,0,0-1.46,2.5A29.44,29.44,0,0,0,78.11,65c1.64.6,2.55-1.87,1.15-2.74a22.65,22.65,0,0,0-5.89-2.6c-1.88-.55-2.6,2.25-.8,2.89a111.36,111.36,0,0,1,17.21,7.77c1.43.8,3.18-1.23,1.82-2.36a125.24,125.24,0,0,0-19-13.06l-1.51,2.59a43.68,43.68,0,0,0,19.24,3.9,1.51,1.51,0,0,0,1.29-2.26,8.82,8.82,0,0,0-4.91-3.59v2.89l3.49-1.05a1.5,1.5,0,0,0-.8-2.89L69.59,59a1.51,1.51,0,0,0,0,2.89c1.58.41,14.29,2.79,14.2,4.44a1.51,1.51,0,0,0,2.26,1.29,17.57,17.57,0,0,1,8.69-2.36l-1.06-2.56L89.6,66.28c-2.82,2.47-3.3,2.84-6.8.24s-6.48-5.81-9.62-8.63L71.72,60.4,75.56,62c1.66.68,2.47-1.84,1.15-2.74l-3.85-2.63c-1.4-1-3.07,1.21-1.81,2.36l6.88,6.27c1.42,1.3,3.53-.79,2.12-2.12l-4.67-4.4-1.81,2.36,13.27,8.47a1.51,1.51,0,0,0,1.82-2.36L78,56.82l-1.82,2.36,8,4.32A1.5,1.5,0,0,0,86,61.15a26.92,26.92,0,0,1-4.61-8.27l-2.2,1.69,8.94,6c1.62,1.09,3.06-1.48,1.52-2.59l-9.23-6.64L78.91,54l6.9,4.84c1.47,1,2.88-1.14,1.82-2.36L80,47.75l-2.13,2.12L91.74,63a1.5,1.5,0,0,0,2.12-2.12l-7.49-7.67c-1.36-1.4-3.4.69-2.12,2.12a115.08,115.08,0,0,0,13.4,12.72l1.82-2.35L86.16,56.53c-1.21-.83-2.91.84-2,2.06a16.84,16.84,0,0,0,4.14,4.11l1.51-2.59a10.23,10.23,0,0,1-4.55-3.84l-2.35,1.82,7.64,7.42a1.5,1.5,0,0,0,2.12-2.12A53.91,53.91,0,0,0,81,54.48a1.51,1.51,0,0,0-1.82,2.36l9.49,10.62,2.12-2.12A117.08,117.08,0,0,1,78.16,52.52L76,54.64,87.41,64c1,.83,3.11.09,2.51-1.46a71.71,71.71,0,0,1-4.44-16.91l-2.26,1.3a94.84,94.84,0,0,1,20.66,15.45A1.5,1.5,0,0,0,106,60.21,258.87,258.87,0,0,0,63.8,25.84c-1.22-.8-2.92.82-2,2.05A289.59,289.59,0,0,1,79.12,56l2-2.05L75.31,50.2c-1.63-1.05-3.14,1.55-1.51,2.59Z"/><path class="cls-1" d="M83.68,50.43a18.36,18.36,0,0,1-.74,9h2.89C85.47,58,88.74,54,89.54,52.71c1-1.68-1.47-3.05-2.59-1.52-1.45,2-2,4.18-3.19,6.31-1.51,2.64-4,4.49-6.42,6.27l2.21,1.69a34.49,34.49,0,0,1,5.66-12.92L82.62,51a60.1,60.1,0,0,1-7.05,11.89l2.59,1.52a80.34,80.34,0,0,1,8-12.47L83.65,50.5c-1.54,4.27-4,8-6.55,11.7l2.74,1.16a43.37,43.37,0,0,1,7.31-11.92l-2.36-1.82-7,13.72,2.59,1.52a64.34,64.34,0,0,1,8.84-14.69L86.7,49.11C86.9,53.32,83,58.66,81,62.28l2.8.75a39.56,39.56,0,0,1,1.89-11.88l-2.89-.8L79.22,62.1c-.58,1.89,2.18,2.53,2.89.8a69.61,69.61,0,0,1,6-11.4l-2.79-.76c.64,5.74-2.77,12.2-4.7,17.5h2.89c-.5-3.1,2.22-7.85,3.39-10.5,1.29-2.9,2.75-5.71,4.3-8.49l-2.74-.35c.73,4.13-1.58,8.26-3,12l-3.63,9.49,2.94.4c-.41-3.15,2.23-7.08,3.56-9.86,1.41-3,2.94-5.84,4.52-8.71L90,51.45c.4,4.21-2.51,9.32-4.17,13l2.79.76a19.85,19.85,0,0,1,2.88-8.11H89c1.37,2.22-1.63,8.5-2.42,10.59-.69,1.82,2.18,2.56,2.89.8a54.91,54.91,0,0,1,6-11l-2.74-1.16a26.91,26.91,0,0,1-2.4,7.24l2.8.76,1.05-3.44-2.74-1.16a20.45,20.45,0,0,1-1.63,4.92c-.81,1.72,1.61,3.21,2.6,1.51a8,8,0,0,1,3.2-3.48l-2.26-1.3a22.27,22.27,0,0,1-3.6,9.77c-1.06,1.62,1.54,3.13,2.59,1.51a25.41,25.41,0,0,0,4-11.28,1.5,1.5,0,0,0-2.25-1.29,13.57,13.57,0,0,0-4.29,4.56l2.6,1.51a24.79,24.79,0,0,0,1.92-5.63,1.5,1.5,0,0,0-2.74-1.15,9,9,0,0,0-1.46,5,1.51,1.51,0,0,0,2.79.76,30.3,30.3,0,0,0,2.7-8A1.51,1.51,0,0,0,92.88,56a58.41,58.41,0,0,0-6.35,11.74l2.89.8c1.31-3.47,4.31-9.36,2.12-12.91a1.52,1.52,0,0,0-2.59,0,23.6,23.6,0,0,0-3.29,9.63c-.17,1.46,2.2,2.08,2.8.76,2-4.37,5.05-9.63,4.58-14.52-.13-1.38-2-2.16-2.79-.75-2.16,3.9-4.19,7.87-6,11.93-1.15,2.54-2.84,5.29-2.47,8.15a1.51,1.51,0,0,0,2.95.4C86.32,67,88,62.75,89.56,58.52,90.91,55,92,51.91,91.35,48.1a1.51,1.51,0,0,0-2.74-.36A106.47,106.47,0,0,0,83.14,59C81.8,62.2,80.05,65.5,80.62,69c.26,1.6,2.44,1.23,2.89,0,2-5.64,5.5-12.16,4.81-18.3a1.52,1.52,0,0,0-2.8-.75,73.64,73.64,0,0,0-6.3,12.11l2.89.8,3.6-11.75c.57-1.86-2.31-2.64-2.89-.8a42.37,42.37,0,0,0-2,12.68,1.51,1.51,0,0,0,2.8.76c2.29-4.18,6.32-9.72,6.08-14.68C89.64,48,88,47,87.14,48.05a67,67,0,0,0-9.31,15.29c-.76,1.73,1.7,3.27,2.59,1.52l7-13.73C88.11,49.7,86.19,48,85,49.31A48.43,48.43,0,0,0,77,62.56c-.68,1.66,1.84,2.47,2.74,1.16A56.21,56.21,0,0,0,86.55,51.3C87,49.94,85,48.66,84,49.84a84.92,84.92,0,0,0-8.47,13.07,1.5,1.5,0,0,0,2.59,1.52,60.68,60.68,0,0,0,7-11.89A1.5,1.5,0,0,0,82.62,51a36.46,36.46,0,0,0-6,13.64c-.25,1.14,1.06,2.55,2.2,1.7a29.6,29.6,0,0,0,6.53-5.9c1.75-2.4,2.41-5.35,4.15-7.75L87,51.19c-1.63,2.67-4.81,5.78-4,9.06a1.51,1.51,0,0,0,2.89,0,22,22,0,0,0,.74-10.61c-.31-1.91-3.2-1.1-2.89.79Z"/><path class="cls-1" d="M73.58,71.88A169.87,169.87,0,0,1,79.67,49.6c2.47-7,4.91-15.93,10.78-20.89l-2.36-1.82q-9.7,19.67-21,38.44l2.59,1.51A315,315,0,0,1,95.45,23l-2.74-.36c.64,4.58-3.81,10.48-5.84,14.39q-3.24,6.29-6.57,12.53c-4.32,8.07-8.82,16-13.61,23.83l2.59,1.52A192.56,192.56,0,0,1,91.92,38.68l-2.35-1.82L66.15,82.19l2.75.35c-.94-4.19,4.26-11.23,6.21-14.93q3.44-6.48,7.16-12.79c5-8.49,10.45-16.7,16.21-24.7l-2.8-.76c-.11,3.87-3,7.4-4.86,10.58q-2.73,4.53-5.5,9Q80,57.58,74.5,66.06l2.74,1.15A87.57,87.57,0,0,1,91.78,42l-2.51-1.46c-7.54,18-15.54,35.74-24.78,52.91L67.09,95a436.2,436.2,0,0,1,32-57.69l-2.74-1.16C95,42.34,91.41,47.67,88.28,53.08l-9.37,16.2,2.74,1.15A65.37,65.37,0,0,1,92.83,47.94l-2.74-1.16A193.45,193.45,0,0,1,75.25,76.89L78,78A118.41,118.41,0,0,1,96.22,42.93l-2.75-1.15A128.81,128.81,0,0,1,82.26,64.26L85,65.41A113.85,113.85,0,0,1,99.9,36.32l-2.8-.75c0,5.5-5.21,11.74-7.9,16.41L80.45,67.16l2.74,1.16a126.07,126.07,0,0,1,17.56-32.43L98,35.13c.06,5.44-3.16,10.44-5.38,15.25L86.41,63.77c-3.6,7.81-6.83,16-11.5,23.25l2.59,1.52A546.72,546.72,0,0,1,110,28.34l-2.59-1.52Q92.29,58.07,75.14,88.23l2.8.75c-.2-5.7,2.25-11.25,4.28-16.49,2.15-5.54,4.6-11,7.25-16.29l-2.59-1.51a69.14,69.14,0,0,1-5.95,10.1l2.59,1.51A39.28,39.28,0,0,1,93.91,52.81L91.4,51.35A231.66,231.66,0,0,1,78.3,81.52L81,82.68A145.24,145.24,0,0,1,95.51,52.33l-2.75-1.16a79.71,79.71,0,0,1-7.87,14.5l2.59,1.52A69.25,69.25,0,0,1,100,47.72l-2.51-1.46a244,244,0,0,1-15.13,31l2.74,1.16A77.56,77.56,0,0,1,99,49.54l-2.74-1.16A159.69,159.69,0,0,1,85.57,72.15l2.74,1.16A138.93,138.93,0,0,1,100.85,50.1l-2.74-1.16A199.53,199.53,0,0,1,85.55,75l2.74,1.15a96.58,96.58,0,0,1,13.22-26l-2.74-1.15A162.19,162.19,0,0,1,88.44,73.69l2.75,1.16a83.9,83.9,0,0,1,9.46-22.6l-2.6-1.52A250.89,250.89,0,0,1,81.6,76.66l2.79.75c.13-8.26,4-15.39,8-22.42l-2.59-1.51a131.52,131.52,0,0,1-8.42,15.81l2.75,1.16A152.55,152.55,0,0,1,94.67,49.56c.92-1.54-1.11-2.86-2.36-1.82l-6.66,5.54c-1.49,1.24.65,3.35,2.12,2.13l6.66-5.55L92.08,48A158.77,158.77,0,0,0,81.22,69.65c-.66,1.62,1.88,2.55,2.74,1.16A132.41,132.41,0,0,0,92.38,55c.77-1.72-1.62-3.23-2.59-1.51-4.23,7.52-8.26,15.11-8.4,23.93a1.52,1.52,0,0,0,2.8.76,252.54,252.54,0,0,0,16.46-25.92,1.51,1.51,0,0,0-2.6-1.52,86.9,86.9,0,0,0-9.76,23.32c-.4,1.6,1.94,2.71,2.74,1.15a165.63,165.63,0,0,0,10.63-25.49c.55-1.72-1.81-2.47-2.74-1.16A99.33,99.33,0,0,0,85.4,75.3a1.51,1.51,0,0,0,2.74,1.16A205.06,205.06,0,0,0,101,49.74c.66-1.66-1.85-2.5-2.74-1.16A143.06,143.06,0,0,0,85.42,72.51c-.67,1.58,1.93,2.62,2.74,1.16a163.66,163.66,0,0,0,11-24.49c.62-1.74-1.8-2.4-2.74-1.16A79.54,79.54,0,0,0,82.2,77.62a1.5,1.5,0,0,0,2.74,1.15,247,247,0,0,0,15.43-31.72c.57-1.4-1.54-2.52-2.5-1.45a71.5,71.5,0,0,0-13,20.07,1.5,1.5,0,0,0,2.59,1.52A83.85,83.85,0,0,0,95.66,52c.67-1.62-1.88-2.54-2.74-1.15A148.4,148.4,0,0,0,78.15,81.88,1.51,1.51,0,0,0,80.89,83a236.6,236.6,0,0,0,13.4-30.89c.54-1.54-1.47-2.35-2.51-1.46a41.16,41.16,0,0,0-10.85,14.1,1.5,1.5,0,0,0,2.59,1.51,69.14,69.14,0,0,0,6-10.1c.82-1.73-1.73-3.25-2.59-1.51-2.76,5.56-5.3,11.22-7.55,17-2.16,5.54-4.6,11.25-4.39,17.29a1.51,1.51,0,0,0,2.79.76Q94.86,59.58,110,28.34a1.5,1.5,0,0,0-2.59-1.52A547.63,547.63,0,0,0,74.91,87a1.5,1.5,0,0,0,2.59,1.52c5.36-8.34,9-17.85,13.14-26.83l6.58-14.27c1.85-4,3.79-7.8,3.74-12.31a1.52,1.52,0,0,0-2.8-.76A129.38,129.38,0,0,0,80.29,67.52c-.58,1.62,1.91,2.6,2.75,1.15L93.73,50.12c2.58-4.47,6.39-9.19,6.37-14.55a1.51,1.51,0,0,0-2.79-.76,116.13,116.13,0,0,0-15.2,29.8c-.56,1.66,1.86,2.56,2.74,1.16a133,133,0,0,0,11.52-23.2c.65-1.72-1.81-2.39-2.74-1.15A120.78,120.78,0,0,0,75.09,77.24c-.52,1.65,1.88,2.59,2.75,1.16A197.42,197.42,0,0,0,93,47.58c.67-1.72-1.81-2.38-2.74-1.15A67.44,67.44,0,0,0,78.76,69.64a1.5,1.5,0,0,0,2.74,1.15L91.8,53c3-5.14,6.13-10.16,7.44-16a1.5,1.5,0,0,0-2.74-1.15,437.93,437.93,0,0,0-32,57.68c-.79,1.73,1.67,3.25,2.6,1.52,9.35-17.4,17.43-35.42,25.07-53.64.58-1.36-1.58-2.58-2.5-1.45A92.05,92.05,0,0,0,74.35,66.41c-.61,1.66,1.86,2.52,2.74,1.16q6.54-10.11,12.83-20.36c3.23-5.29,8.58-11.43,8.76-17.85,0-1.6-2-1.88-2.79-.75A325.55,325.55,0,0,0,77.38,57.27q-4.08,7.14-7.79,14.5c-1.82,3.63-4.52,7.4-3.59,11.57a1.52,1.52,0,0,0,2.75.36L92.16,38.38c.73-1.43-1.24-3.22-2.36-1.82A195,195,0,0,0,66.69,73.34a1.5,1.5,0,0,0,2.59,1.52C75.06,65.45,80.4,55.79,85.54,46q3.73-7.08,7.38-14.22c1.71-3.36,3.21-6.19,2.68-10-.2-1.41-2.1-1.28-2.74-.36a315.66,315.66,0,0,0-25.8,43.9,1.5,1.5,0,0,0,2.59,1.51Q81,48.06,90.68,28.4a1.51,1.51,0,0,0-2.36-1.82C82.87,31.2,80.5,38.82,78.05,45.31a168,168,0,0,0-7.36,25.77c-.38,1.88,2.51,2.69,2.89.8Z"/><path class="cls-2" d="M81.92,42.2l7.3-7.57a22.59,22.59,0,0,0-8-4.92L79.93,40.65A12.06,12.06,0,0,1,81.92,42.2Z"/><path class="cls-2" d="M74.88,28.43A22.8,22.8,0,0,0,65.06,30l4.14,9.62a12.14,12.14,0,0,1,5-.79l.59,0L76,28.53C75.65,28.48,75.26,28.45,74.88,28.43Z"/><path class="cls-2" d="M91,46.32h.12a5.12,5.12,0,0,1,1.18.21l3.21-1.1a21.72,21.72,0,0,0-2.93-6.76l-7.74,8a11.53,11.53,0,0,1,.56,2.19l1.07-.37A5.32,5.32,0,0,1,91,46.32Z"/><path class="cls-2" d="M55.73,37,62,47.44a11.62,11.62,0,0,1,2.75-4.84L60.43,32.54A22.46,22.46,0,0,0,55.73,37Z"/><path class="cls-2" d="M96.1,51.58c0-.3,0-.59,0-.89l-.08,0A6.11,6.11,0,0,1,96.1,51.58Z"/><path class="cls-2" d="M51,49.29a5.25,5.25,0,0,0,5,5.52,5.33,5.33,0,0,0,3.64-1.16L52.69,42.09A21.8,21.8,0,0,0,51,49.29Z"/><polygon class="cls-2" points="94.45 95.86 83.69 99.55 83.46 105.76 94.22 102.08 94.45 95.86"/><polygon class="cls-2" points="94.02 107.36 83.26 111.04 83.05 116.53 93.81 112.84 94.02 107.36"/><polygon class="cls-2" points="95.7 62.38 84.94 66.06 84.74 71.4 95.5 67.71 95.7 62.38"/><path class="cls-2" d="M96.1,51.72v-.14c0,.11,0,.22,0,.33a5.33,5.33,0,0,1-10,2.2l-.76.26-.23,6.14,10.76-3.68Z"/><polygon class="cls-2" points="95.29 73.26 84.53 76.94 84.34 82.17 95.1 78.48 95.29 73.26"/><path class="cls-2" d="M91.11,46.32H91a5.32,5.32,0,0,0-4.53,2.2l5.83-2A5.12,5.12,0,0,0,91.11,46.32Z"/><path class="cls-2" d="M86.14,54.11a5.33,5.33,0,0,0,10-2.2c0-.11,0-.22,0-.33a6.11,6.11,0,0,0-.06-.86Z"/><polygon class="cls-2" points="94.85 85.16 84.09 88.84 83.91 93.73 94.67 90.04 94.85 85.16"/><polygon class="cls-2" points="93.63 117.7 82.87 121.38 82.68 126.58 93.44 122.9 93.63 117.7"/><path class="cls-2" d="M83.21,131a5.31,5.31,0,0,0,4.39,2.8h.12a5.25,5.25,0,0,0,5.49-5l.05-1.22Z"/><path class="cls-3" d="M93.44,122.9l-10.76,3.68-.07,1.86a5.09,5.09,0,0,0,.6,2.6l10.05-3.44Z"/><polygon class="cls-3" points="93.81 112.84 83.05 116.53 82.87 121.38 93.63 117.7 93.81 112.84"/><polygon class="cls-3" points="94.22 102.08 83.46 105.76 83.26 111.04 94.02 107.36 94.22 102.08"/><polygon class="cls-3" points="94.67 90.04 83.91 93.73 83.69 99.55 94.45 95.86 94.67 90.04"/><polygon class="cls-3" points="95.1 78.48 84.34 82.17 84.09 88.84 94.85 85.16 95.1 78.48"/><polygon class="cls-3" points="95.5 67.71 84.74 71.4 84.53 76.94 95.29 73.26 95.5 67.71"/><polygon class="cls-3" points="95.91 56.83 85.15 60.51 84.94 66.06 95.7 62.38 95.91 56.83"/><path class="cls-3" d="M85.49,51.43v-.09a5.2,5.2,0,0,1,1-2.82l-1.07.37a12,12,0,0,1,.1,2.4Z"/><path class="cls-3" d="M96,50.72l.08,0a21.28,21.28,0,0,0-.62-5.26l-3.21,1.1A5.24,5.24,0,0,1,96,50.72Z"/><path class="cls-3" d="M85.49,51.43l-.11,2.94.76-.26A5.19,5.19,0,0,1,85.49,51.43Z"/><path class="cls-3" d="M92.29,46.53l-5.83,2a5.2,5.2,0,0,0-1,2.82v.09a5.19,5.19,0,0,0,.65,2.68L96,50.72A5.24,5.24,0,0,0,92.29,46.53Z"/><path class="cls-3" d="M89.22,34.63l-7.3,7.57a11.89,11.89,0,0,1,2.91,4.5l7.74-8A22.35,22.35,0,0,0,89.22,34.63Z"/><path class="cls-3" d="M81.19,29.71A22.53,22.53,0,0,0,76,28.53L74.84,38.9a12.06,12.06,0,0,1,5.09,1.75Z"/><polygon class="cls-3" points="79.17 45.06 79.4 45.27 79.46 44.75 79.17 45.06"/><path class="cls-3" d="M60.43,32.54,64.77,42.6a12.08,12.08,0,0,1,4.43-3L65.06,30A22.53,22.53,0,0,0,60.43,32.54Z"/><path class="cls-3" d="M52.69,42.09l6.94,11.56a5.17,5.17,0,0,0,2-3.74A11.19,11.19,0,0,1,62,47.44L55.73,37A22,22,0,0,0,52.69,42.09Z"/></g></svg>
