<svg xmlns="http://www.w3.org/2000/svg" xmlns:xlink="http://www.w3.org/1999/xlink" width="1920" height="1080" viewBox="0 0 1920 1080"><defs><style>.cls-1{isolation:isolate;}.cls-2{opacity:0.91;mix-blend-mode:multiply;}.cls-3{fill:url(#linear-gradient);}.cls-4{opacity:0.69;}.cls-5{fill:url(#radial-gradient);}.cls-6{mask:url(#mask);}.cls-7{opacity:0.75;}.cls-43,.cls-7{mix-blend-mode:screen;}.cls-8{fill:#fff;}.cls-9{fill:url(#radial-gradient-2);}.cls-10{mask:url(#mask-2);}.cls-11{fill:url(#radial-gradient-3);}.cls-12{mask:url(#mask-3);}.cls-13{fill:url(#radial-gradient-4);}.cls-14{mask:url(#mask-4);}.cls-15{fill:url(#radial-gradient-5);}.cls-16{mask:url(#mask-5);}.cls-17{fill:url(#radial-gradient-6);}.cls-18{mask:url(#mask-6);}.cls-19{fill:url(#radial-gradient-7);}.cls-20{mask:url(#mask-7);}.cls-21{fill:url(#radial-gradient-8);}.cls-22{mask:url(#mask-8);}.cls-23{fill:url(#radial-gradient-9);}.cls-24{mask:url(#mask-9);}.cls-25{fill:url(#radial-gradient-10);}.cls-26{mask:url(#mask-10);}.cls-27{fill:url(#radial-gradient-11);}.cls-28{mask:url(#mask-11);}.cls-29{fill:url(#radial-gradient-12);}.cls-30{mask:url(#mask-12);}.cls-31{fill:url(#radial-gradient-13);}.cls-32{mask:url(#mask-13);}.cls-33{fill:url(#radial-gradient-14);}.cls-34{mask:url(#mask-14);}.cls-35{fill:url(#radial-gradient-15);}.cls-36{mask:url(#mask-15);}.cls-37{fill:url(#radial-gradient-16);}.cls-38{mask:url(#mask-16);}.cls-39{fill:url(#radial-gradient-17);}.cls-40{mask:url(#mask-17);}.cls-41{fill:url(#linear-gradient-2);}.cls-42{mask:url(#mask-18);}.cls-43{opacity:0.42;}.cls-44{opacity:0.81;fill:url(#linear-gradient-3);}.cls-45{fill:url(#linear-gradient-4);}.cls-46{fill:url(#radial-gradient-18);}.cls-47{fill:url(#radial-gradient-19);}.cls-48{fill:url(#radial-gradient-20);}.cls-49{fill:url(#radial-gradient-21);}.cls-50{fill:url(#radial-gradient-22);}.cls-51{fill:url(#radial-gradient-23);}.cls-52{fill:url(#radial-gradient-24);}.cls-53{fill:url(#radial-gradient-25);}.cls-54{fill:url(#radial-gradient-26);}.cls-55{fill:url(#radial-gradient-27);}.cls-56{fill:url(#radial-gradient-28);}.cls-57{fill:url(#radial-gradient-29);}.cls-58{fill:url(#radial-gradient-30);}.cls-59{fill:url(#radial-gradient-31);}.cls-60{fill:url(#radial-gradient-32);}.cls-61{fill:url(#radial-gradient-33);}.cls-62{fill:url(#radial-gradient-34);}.cls-63{fill:url(#radial-gradient-35);}.cls-64{filter:url(#luminosity-invert);}</style><linearGradient id="linear-gradient" x1="956.39" y1="1065.55" x2="963.69" y2="-0.46" gradientUnits="userSpaceOnUse"><stop offset="0" stop-color="#cce0f4"/><stop offset="0" stop-color="#c7dbf1"/><stop offset="0.05" stop-color="#bdd1eb" stop-opacity="0.99"/><stop offset="0.13" stop-color="#a4b4db" stop-opacity="0.96"/><stop offset="0.25" stop-color="#7a87c2" stop-opacity="0.92"/><stop offset="0.38" stop-color="#41489e" stop-opacity="0.87"/><stop offset="0.51" stop-color="#000076" stop-opacity="0.8"/><stop offset="0.82" stop-color="#000076"/></linearGradient><radialGradient id="radial-gradient" cx="-7571.88" cy="-4010.99" fy="-4018.5946244456763" r="14.58" gradientTransform="translate(8292 4493.48) scale(0.99 0.99)" gradientUnits="userSpaceOnUse"><stop offset="0" stop-color="#fff"/><stop offset="1" stop-color="#fff" stop-opacity="0.7"/></radialGradient><filter id="luminosity-invert" filterUnits="userSpaceOnUse" color-interpolation-filters="sRGB"><feColorMatrix values="-1 0 0 0 1 0 -1 0 0 1 0 0 -1 0 1 0 0 0 1 0"/></filter><mask id="mask" x="749.03" y="493.35" width="34.78" height="32.78" maskUnits="userSpaceOnUse"><g class="cls-64"><image width="35" height="33" transform="translate(749.03 493.35) scale(0.99 0.99)" xlink:href="Startskærm 22.png"/></g></mask><radialGradient id="radial-gradient-2" cx="-7571.88" cy="-4010.99" fy="-4018.5946244456773" r="14.58" gradientTransform="translate(8292 4035.48) scale(0.99 0.99)" xlink:href="#radial-gradient"/><mask id="mask-2" x="749.03" y="35.35" width="34.78" height="32.78" maskUnits="userSpaceOnUse"><g class="cls-64"><image width="35" height="33" transform="translate(749.03 35.35) scale(0.99 0.99)" xlink:href="Startskærm 23.png"/></g></mask><radialGradient id="radial-gradient-3" cx="-7571.88" cy="-4010.99" fy="-4018.5946244456773" r="14.58" gradientTransform="translate(7779 4065.48) scale(0.99 0.99)" xlink:href="#radial-gradient"/><mask id="mask-3" x="236.03" y="65.35" width="34.78" height="32.78" maskUnits="userSpaceOnUse"><g class="cls-64"><image width="35" height="33" transform="translate(236.03 65.35) scale(0.99 0.99)" xlink:href="Startskærm 24.png"/></g></mask><radialGradient id="radial-gradient-4" cx="-7571.88" cy="-4010.99" fy="-4018.5946244456773" r="14.58" gradientTransform="translate(9380 4089.48) scale(0.99 0.99)" xlink:href="#radial-gradient"/><mask id="mask-4" x="1837.03" y="89.35" width="34.78" height="32.78" maskUnits="userSpaceOnUse"><g class="cls-64"><image width="35" height="33" transform="translate(1837.03 89.35) scale(0.99 0.99)" xlink:href="Startskærm 25.png"/></g></mask><radialGradient id="radial-gradient-5" cx="-7571.88" cy="-4010.99" fy="-4018.5946244456773" r="14.58" gradientTransform="translate(9327 4431.48) scale(0.99 0.99)" xlink:href="#radial-gradient"/><mask id="mask-5" x="1784.03" y="431.35" width="34.78" height="32.78" maskUnits="userSpaceOnUse"><g class="cls-64"><image width="35" height="33" transform="translate(1784.03 431.35) scale(0.99 0.99)" xlink:href="Startskærm 26.png"/></g></mask><radialGradient id="radial-gradient-6" cx="-7571.88" cy="-4010.99" fy="-4018.5946244456773" r="14.58" gradientTransform="translate(9062 4457.48) scale(0.99 0.99)" xlink:href="#radial-gradient"/><mask id="mask-6" x="1519.03" y="457.35" width="34.78" height="32.78" maskUnits="userSpaceOnUse"><g class="cls-64"><image width="35" height="33" transform="translate(1519.03 457.35) scale(0.99 0.99)" xlink:href="Startskærm 27.png"/></g></mask><radialGradient id="radial-gradient-7" cx="-7571.88" cy="-4010.99" fy="-4018.5946244456773" r="14.58" gradientTransform="translate(8930 4281.48) scale(0.99 0.99)" xlink:href="#radial-gradient"/><mask id="mask-7" x="1387.03" y="281.35" width="34.78" height="32.78" maskUnits="userSpaceOnUse"><g class="cls-64"><image width="35" height="33" transform="translate(1387.03 281.35) scale(0.99 0.99)" xlink:href="Startskærm 28.png"/></g></mask><radialGradient id="radial-gradient-8" cx="-7571.88" cy="-4010.99" fy="-4018.5946244456773" r="14.58" gradientTransform="translate(8461 4266.48) scale(0.99 0.99)" xlink:href="#radial-gradient"/><mask id="mask-8" x="918.03" y="266.35" width="34.78" height="32.78" maskUnits="userSpaceOnUse"><g class="cls-64"><image width="35" height="33" transform="translate(918.03 266.35) scale(0.99 0.99)" xlink:href="Startskærm 29.png"/></g></mask><radialGradient id="radial-gradient-9" cx="-7571.88" cy="-4010.99" fy="-4018.5946244456773" r="14.58" gradientTransform="translate(8125 4250.48) scale(0.99 0.99)" xlink:href="#radial-gradient"/><mask id="mask-9" x="582.03" y="250.35" width="34.78" height="32.78" maskUnits="userSpaceOnUse"><g class="cls-64"><image width="35" height="33" transform="translate(582.03 250.35) scale(0.99 0.99)" xlink:href="Startskærm 210.png"/></g></mask><radialGradient id="radial-gradient-10" cx="-7571.88" cy="-4010.99" r="14.58" gradientTransform="translate(8549 4047.48) scale(0.99 0.99)" xlink:href="#radial-gradient"/><mask id="mask-10" x="1006.03" y="47.35" width="34.78" height="32.78" maskUnits="userSpaceOnUse"><g class="cls-64"><image width="35" height="33" transform="translate(1006.03 47.35) scale(0.99 0.99)" xlink:href="Startskærm 211.png"/></g></mask><radialGradient id="radial-gradient-11" cx="-7571.88" cy="-4010.99" fy="-4018.5946244456773" r="14.58" gradientTransform="translate(8790 4075.48) scale(0.99 0.99)" xlink:href="#radial-gradient"/><mask id="mask-11" x="1247.03" y="75.35" width="34.78" height="32.78" maskUnits="userSpaceOnUse"><g class="cls-64"><image width="35" height="33" transform="translate(1247.03 75.35) scale(0.99 0.99)" xlink:href="Startskærm 212.png"/></g></mask><radialGradient id="radial-gradient-12" cx="-7571.88" cy="-4010.99" fy="-4018.5946244456773" r="14.58" gradientTransform="translate(9118 4080.48) scale(0.99 0.99)" xlink:href="#radial-gradient"/><mask id="mask-12" x="1575.03" y="80.35" width="34.78" height="32.78" maskUnits="userSpaceOnUse"><g class="cls-64"><image width="35" height="33" transform="translate(1575.03 80.35) scale(0.99 0.99)" xlink:href="Startskærm 213.png"/></g></mask><radialGradient id="radial-gradient-13" cx="-7571.88" cy="-4010.99" fy="-4018.5946244456773" r="14.58" gradientTransform="translate(7659 4281.48) scale(0.99 0.99)" xlink:href="#radial-gradient"/><mask id="mask-13" x="116.03" y="281.35" width="34.78" height="32.78" maskUnits="userSpaceOnUse"><g class="cls-64"><image width="35" height="33" transform="translate(116.03 281.35) scale(0.99 0.99)" xlink:href="Startskærm 214.png"/></g></mask><radialGradient id="radial-gradient-14" cx="-7571.88" cy="-4010.99" fy="-4018.5946244456773" r="14.58" gradientTransform="translate(8071 4075.48) scale(0.99 0.99)" xlink:href="#radial-gradient"/><mask id="mask-14" x="528.03" y="75.35" width="34.78" height="32.78" maskUnits="userSpaceOnUse"><g class="cls-64"><image width="35" height="33" transform="translate(528.03 75.35) scale(0.99 0.99)" xlink:href="Startskærm 215.png"/></g></mask><radialGradient id="radial-gradient-15" cx="-7571.88" cy="-4010.99" fy="-4018.5946244456773" r="14.58" gradientTransform="translate(7594 4498.48) scale(0.99 0.99)" xlink:href="#radial-gradient"/><mask id="mask-15" x="51.03" y="498.35" width="34.78" height="32.78" maskUnits="userSpaceOnUse"><g class="cls-64"><image width="35" height="33" transform="translate(51.03 498.35) scale(0.99 0.99)" xlink:href="Startskærm 216.png"/></g></mask><radialGradient id="radial-gradient-16" cx="-7571.88" cy="-4010.99" fy="-4018.5946244456773" r="14.58" gradientTransform="translate(7579 4020.48) scale(0.99 0.99)" xlink:href="#radial-gradient"/><mask id="mask-16" x="36.03" y="20.35" width="34.78" height="32.78" maskUnits="userSpaceOnUse"><g class="cls-64"><image width="35" height="33" transform="translate(36.03 20.35) scale(0.99 0.99)" xlink:href="Startskærm 217.png"/></g></mask><radialGradient id="radial-gradient-17" cx="-7571.88" cy="-4010.99" r="14.58" gradientTransform="translate(9147 4290.48) scale(0.99 0.99)" xlink:href="#radial-gradient"/><mask id="mask-17" x="1604.03" y="290.35" width="34.78" height="32.78" maskUnits="userSpaceOnUse"><g class="cls-64"><image width="35" height="33" transform="translate(1604.03 290.35) scale(0.99 0.99)" xlink:href="Startskærm 218.png"/></g></mask><linearGradient id="linear-gradient-2" x1="1588.15" y1="182.65" x2="1881.87" y2="211.34" gradientUnits="userSpaceOnUse"><stop offset="0" stop-color="#cce0f4"/><stop offset="0" stop-color="#c7dbf1"/><stop offset="0" stop-color="#cadbe8" stop-opacity="0.98"/><stop offset="0" stop-color="#d1dad0" stop-opacity="0.91"/><stop offset="0" stop-color="#ddd9a9" stop-opacity="0.8"/><stop offset="0" stop-color="#eed774" stop-opacity="0.65"/><stop offset="0" stop-color="#ffd53f" stop-opacity="0.5"/><stop offset="0.44" stop-color="#ffd019" stop-opacity="0.6"/><stop offset="0.77" stop-color="#ffba3f"/></linearGradient><mask id="mask-18" x="1619" y="34" width="199" height="314" maskUnits="userSpaceOnUse"><g class="cls-64"><image width="199" height="314" transform="translate(1619 34)" xlink:href="Startskærm 220.png"/></g></mask><linearGradient id="linear-gradient-3" x1="959.46" y1="1103.28" x2="961.86" y2="-4.37" gradientUnits="userSpaceOnUse"><stop offset="0" stop-color="#cce0f4"/><stop offset="0" stop-color="#c7dbf1"/><stop offset="0" stop-color="#bed4e7" stop-opacity="0.98"/><stop offset="0" stop-color="#a7c2cb" stop-opacity="0.92"/><stop offset="0" stop-color="#81a49e" stop-opacity="0.82"/><stop offset="0" stop-color="#4c7b5f" stop-opacity="0.69"/><stop offset="0" stop-color="#094610" stop-opacity="0.52"/><stop offset="0" stop-color="#003f05" stop-opacity="0.5"/><stop offset="0" stop-color="#0d4812" stop-opacity="0.97"/><stop offset="0" stop-color="#0e4913"/><stop offset="0.09" stop-color="#3b6b3f"/><stop offset="0.31" stop-color="#acc1ae"/><stop offset="0.45" stop-color="#fff"/><stop offset="0.87" stop-color="#fff"/></linearGradient><linearGradient id="linear-gradient-4" x1="958.49" y1="1112.16" x2="960.75" y2="67.61" xlink:href="#linear-gradient-3"/><radialGradient id="radial-gradient-18" cx="1235.42" cy="520.42" r="17.54" gradientTransform="translate(-7.95 18.99) rotate(-0.33)" gradientUnits="userSpaceOnUse"><stop offset="0" stop-color="#fff"/><stop offset="0.18" stop-color="#fff" stop-opacity="0.78"/><stop offset="0.48" stop-color="#fff" stop-opacity="0.45"/><stop offset="0.73" stop-color="#fff" stop-opacity="0.21"/><stop offset="0.91" stop-color="#fff" stop-opacity="0.06"/><stop offset="1" stop-color="#fff" stop-opacity="0"/></radialGradient><radialGradient id="radial-gradient-19" cx="1043.6" cy="597.56" r="19.2" xlink:href="#radial-gradient-18"/><radialGradient id="radial-gradient-20" cx="1124.9" cy="680.32" r="19.2" xlink:href="#radial-gradient-18"/><radialGradient id="radial-gradient-21" cx="1046.51" cy="699.19" r="19.2" xlink:href="#radial-gradient-18"/><radialGradient id="radial-gradient-22" cx="1180.07" cy="578.69" r="19.2" xlink:href="#radial-gradient-18"/><radialGradient id="radial-gradient-23" cx="1142.32" cy="516.26" r="19.2" xlink:href="#radial-gradient-18"/><radialGradient id="radial-gradient-24" cx="1193.14" cy="356.57" r="19.2" xlink:href="#radial-gradient-18"/><radialGradient id="radial-gradient-25" cx="1108.93" cy="416.09" r="19.2" xlink:href="#radial-gradient-18"/><radialGradient id="radial-gradient-26" cx="1212.01" cy="450.93" r="19.2" xlink:href="#radial-gradient-18"/><radialGradient id="radial-gradient-27" cx="1268.63" cy="657.09" r="19.2" xlink:href="#radial-gradient-18"/><radialGradient id="radial-gradient-28" cx="1046.69" cy="545.1" r="17.54" xlink:href="#radial-gradient-18"/><radialGradient id="radial-gradient-29" cx="1305.11" cy="645.27" r="17.54" xlink:href="#radial-gradient-18"/><radialGradient id="radial-gradient-30" cx="1199.13" cy="690.28" r="17.54" xlink:href="#radial-gradient-18"/><radialGradient id="radial-gradient-31" cx="1231.07" cy="597.37" r="17.54" xlink:href="#radial-gradient-18"/><radialGradient id="radial-gradient-32" cx="1123.64" cy="588.65" r="17.54" xlink:href="#radial-gradient-18"/><radialGradient id="radial-gradient-33" cx="1146.87" cy="436.22" r="17.54" xlink:href="#radial-gradient-18"/><radialGradient id="radial-gradient-34" cx="1142.51" cy="363.63" r="17.54" xlink:href="#radial-gradient-18"/><radialGradient id="radial-gradient-35" cx="812.78" cy="232.44" r="86.65" gradientTransform="translate(362.59 -15.94) rotate(4.8)" gradientUnits="userSpaceOnUse"><stop offset="0" stop-color="#fff"/><stop offset="0" stop-color="#fff" stop-opacity="0.99"/><stop offset="0.08" stop-color="#fff" stop-opacity="0.78"/><stop offset="0.17" stop-color="#fff" stop-opacity="0.6"/><stop offset="0.26" stop-color="#fff" stop-opacity="0.44"/><stop offset="0.35" stop-color="#fff" stop-opacity="0.3"/><stop offset="0.45" stop-color="#fff" stop-opacity="0.19"/><stop offset="0.56" stop-color="#fff" stop-opacity="0.11"/><stop offset="0.67" stop-color="#fff" stop-opacity="0.05"/><stop offset="0.81" stop-color="#fff" stop-opacity="0.01"/><stop offset="1" stop-color="#fff" stop-opacity="0"/></radialGradient></defs><title>Startskærm 2</title><g class="cls-1"><g id="Layer_3" data-name="Layer 3"><image class="cls-2" width="1974" height="1134" transform="translate(-16 -18)" xlink:href="Startskærm 21.png"/><rect class="cls-3" x="0.5" y="-1.5" width="1919" height="1079"/><path d="M1919-1V1077H1V-1H1919m1-1H0V1078H1920V-2Z"/><g class="cls-4"><path class="cls-5" d="M779.26,511.62a32.34,32.34,0,0,0-6.69-.65c-.87-.55-1.7-1.09-2.5-1.64.78-.49,1.6-1,2.45-1.48a30.2,30.2,0,0,0,8.62-.83c-2.69-.15-5-.2-6.93-.12a23.88,23.88,0,0,0-2.56.21c.49-.38,1-.8,1.53-1.27,1.2-1.07,2.51-2.4,4-4a32.58,32.58,0,0,0-5.21,4.28c-1,.24-2,.44-2.91.62.2-.92.43-1.86.69-2.84a29.71,29.71,0,0,0,5.47-6.63c-2,1.8-3.64,3.37-5,4.79-.57.62-1.07,1.2-1.51,1.76.06-.58.08-1.2.09-1.88,0-1.39-.06-3-.2-4.92a32.29,32.29,0,0,0-.53,6.14c-.55.87-1.08,1.69-1.62,2.48-.5-.79-1-1.62-1.51-2.49a30.86,30.86,0,0,0-.64-7.83c-.19,2.41-.32,4.4-.33,6.09a22.53,22.53,0,0,0,.09,2.41c-.33-.43-.71-.88-1.12-1.34-1.09-1.21-2.42-2.52-4-4a32.41,32.41,0,0,0,4.31,5.25c.24,1,.44,2,.61,2.91-.93-.21-1.89-.44-2.89-.71a30.91,30.91,0,0,0-6.5-5.41c1.77,2,3.33,3.6,4.74,4.91.68.62,1.33,1.18,1.95,1.65-.62-.08-1.28-.14-2-.18a56.26,56.26,0,0,0-5.81,0,31.39,31.39,0,0,0,7,.7c.84.53,1.65,1.05,2.41,1.58-.81.51-1.66,1-2.55,1.54a31,31,0,0,0-8.41.78c2.64.14,4.9.19,6.81.12.93,0,1.78-.11,2.56-.21-.5.37-1,.81-1.55,1.28-1.24,1.11-2.59,2.48-4.09,4.11a31.56,31.56,0,0,0,5.42-4.42c1-.23,1.92-.42,2.84-.59-.21.91-.44,1.85-.7,2.81a30.27,30.27,0,0,0-5.45,6.6c2-1.79,3.63-3.35,4.94-4.78.63-.68,1.18-1.33,1.66-2-.09.62-.15,1.29-.19,2-.09,1.63-.08,3.51,0,5.68a31.17,31.17,0,0,0,.68-6.81c.54-.85,1.07-1.66,1.6-2.44.51.8,1,1.62,1.52,2.49a30.19,30.19,0,0,0,.81,8.49c.14-2.65.19-4.92.12-6.84q-.06-1.41-.21-2.58c.37.5.81,1,1.28,1.55,1.09,1.21,2.43,2.54,4,4a31.42,31.42,0,0,0-4.34-5.31c-.23-1-.42-1.93-.59-2.85.9.2,1.83.42,2.79.68a29.64,29.64,0,0,0,6.67,5.49c-1.8-2-3.38-3.66-4.81-5a22.82,22.82,0,0,0-2-1.67q.93.12,2,.18C775.26,511.72,777.12,511.71,779.26,511.62Z"/><g class="cls-6"><g class="cls-7"><path class="cls-8" d="M779.26,511.62a32.34,32.34,0,0,0-6.69-.65c-.87-.55-1.7-1.09-2.5-1.64.78-.49,1.6-1,2.45-1.48a30.2,30.2,0,0,0,8.62-.83c-2.69-.15-5-.2-6.93-.12a23.88,23.88,0,0,0-2.56.21c.49-.38,1-.8,1.53-1.27,1.2-1.07,2.51-2.4,4-4a32.58,32.58,0,0,0-5.21,4.28c-1,.24-2,.44-2.91.62.2-.92.43-1.86.69-2.84a29.71,29.71,0,0,0,5.47-6.63c-2,1.8-3.64,3.37-5,4.79-.57.62-1.07,1.2-1.51,1.76.06-.58.08-1.2.09-1.88,0-1.39-.06-3-.2-4.92a32.29,32.29,0,0,0-.53,6.14c-.55.87-1.08,1.69-1.62,2.48-.5-.79-1-1.62-1.51-2.49a30.86,30.86,0,0,0-.64-7.83c-.19,2.41-.32,4.4-.33,6.09a22.53,22.53,0,0,0,.09,2.41c-.33-.43-.71-.88-1.12-1.34-1.09-1.21-2.42-2.52-4-4a32.41,32.41,0,0,0,4.31,5.25c.24,1,.44,2,.61,2.91-.93-.21-1.89-.44-2.89-.71a30.91,30.91,0,0,0-6.5-5.41c1.77,2,3.33,3.6,4.74,4.91.68.62,1.33,1.18,1.95,1.65-.62-.08-1.28-.14-2-.18a56.26,56.26,0,0,0-5.81,0,31.39,31.39,0,0,0,7,.7c.84.53,1.65,1.05,2.41,1.58-.81.51-1.66,1-2.55,1.54a31,31,0,0,0-8.41.78c2.64.14,4.9.19,6.81.12.93,0,1.78-.11,2.56-.21-.5.37-1,.81-1.55,1.28-1.24,1.11-2.59,2.48-4.09,4.11a31.56,31.56,0,0,0,5.42-4.42c1-.23,1.92-.42,2.84-.59-.21.91-.44,1.85-.7,2.81a30.27,30.27,0,0,0-5.45,6.6c2-1.79,3.63-3.35,4.94-4.78.63-.68,1.18-1.33,1.66-2-.09.62-.15,1.29-.19,2-.09,1.63-.08,3.51,0,5.68a31.17,31.17,0,0,0,.68-6.81c.54-.85,1.07-1.66,1.6-2.44.51.8,1,1.62,1.52,2.49a30.19,30.19,0,0,0,.81,8.49c.14-2.65.19-4.92.12-6.84q-.06-1.41-.21-2.58c.37.5.81,1,1.28,1.55,1.09,1.21,2.43,2.54,4,4a31.42,31.42,0,0,0-4.34-5.31c-.23-1-.42-1.93-.59-2.85.9.2,1.83.42,2.79.68a29.64,29.64,0,0,0,6.67,5.49c-1.8-2-3.38-3.66-4.81-5a22.82,22.82,0,0,0-2-1.67q.93.12,2,.18C775.26,511.72,777.12,511.71,779.26,511.62Z"/></g></g></g><g class="cls-4"><path class="cls-9" d="M779.26,53.62a32.34,32.34,0,0,0-6.69-.65c-.87-.55-1.7-1.09-2.5-1.64.78-.49,1.6-1,2.45-1.48a30.2,30.2,0,0,0,8.62-.83c-2.69-.15-5-.2-6.93-.12a23.88,23.88,0,0,0-2.56.21c.49-.38,1-.8,1.53-1.27,1.2-1.07,2.51-2.4,4-4A32.58,32.58,0,0,0,772,48.14c-1,.24-2,.44-2.91.62.2-.92.43-1.86.69-2.84a29.71,29.71,0,0,0,5.47-6.63c-2,1.8-3.64,3.37-5,4.79-.57.62-1.07,1.2-1.51,1.76.06-.58.08-1.2.09-1.88,0-1.39-.06-3-.2-4.92a32.29,32.29,0,0,0-.53,6.14c-.55.87-1.08,1.69-1.62,2.48-.5-.79-1-1.62-1.51-2.49a30.86,30.86,0,0,0-.64-7.83c-.19,2.41-.32,4.4-.33,6.09a22.53,22.53,0,0,0,.09,2.41c-.33-.43-.71-.88-1.12-1.34-1.09-1.21-2.42-2.52-4-4a32.41,32.41,0,0,0,4.31,5.25c.24,1,.44,2,.61,2.91C763,48.46,762,48.23,761,48a30.91,30.91,0,0,0-6.5-5.41c1.77,2,3.33,3.6,4.74,4.91.68.62,1.33,1.18,1.95,1.65-.62-.08-1.28-.14-2-.18a56.26,56.26,0,0,0-5.81,0,31.39,31.39,0,0,0,7,.7c.84.53,1.65,1,2.41,1.58-.81.51-1.66,1-2.55,1.54a31,31,0,0,0-8.41.78c2.64.14,4.9.19,6.81.12.93,0,1.78-.11,2.56-.21-.5.37-1,.81-1.55,1.28-1.24,1.11-2.59,2.48-4.09,4.11A31.56,31.56,0,0,0,761,54.42c1-.23,1.92-.42,2.84-.59-.21.91-.44,1.85-.7,2.81a30.27,30.27,0,0,0-5.45,6.6c2-1.79,3.63-3.35,4.94-4.78.63-.68,1.18-1.33,1.66-2-.09.62-.15,1.29-.19,2-.09,1.63-.08,3.51,0,5.68a31.17,31.17,0,0,0,.68-6.81c.54-.85,1.07-1.66,1.6-2.44.51.8,1,1.62,1.52,2.49a30.19,30.19,0,0,0,.81,8.49c.14-2.65.19-4.92.12-6.84q-.06-1.41-.21-2.58c.37.5.81,1,1.28,1.55,1.09,1.21,2.43,2.54,4,4a31.42,31.42,0,0,0-4.34-5.31c-.23-1-.42-1.93-.59-2.85.9.2,1.83.42,2.79.68a29.64,29.64,0,0,0,6.67,5.49c-1.8-2-3.38-3.66-4.81-5a22.82,22.82,0,0,0-2-1.67q.93.12,2,.18C775.26,53.72,777.12,53.71,779.26,53.62Z"/><g class="cls-10"><g class="cls-7"><path class="cls-8" d="M779.26,53.62a32.34,32.34,0,0,0-6.69-.65c-.87-.55-1.7-1.09-2.5-1.64.78-.49,1.6-1,2.45-1.48a30.2,30.2,0,0,0,8.62-.83c-2.69-.15-5-.2-6.93-.12a23.88,23.88,0,0,0-2.56.21c.49-.38,1-.8,1.53-1.27,1.2-1.07,2.51-2.4,4-4A32.58,32.58,0,0,0,772,48.14c-1,.24-2,.44-2.91.62.2-.92.43-1.86.69-2.84a29.71,29.71,0,0,0,5.47-6.63c-2,1.8-3.64,3.37-5,4.79-.57.62-1.07,1.2-1.51,1.76.06-.58.08-1.2.09-1.88,0-1.39-.06-3-.2-4.92a32.29,32.29,0,0,0-.53,6.14c-.55.87-1.08,1.69-1.62,2.48-.5-.79-1-1.62-1.51-2.49a30.86,30.86,0,0,0-.64-7.83c-.19,2.41-.32,4.4-.33,6.09a22.53,22.53,0,0,0,.09,2.41c-.33-.43-.71-.88-1.12-1.34-1.09-1.21-2.42-2.52-4-4a32.41,32.41,0,0,0,4.31,5.25c.24,1,.44,2,.61,2.91C763,48.46,762,48.23,761,48a30.91,30.91,0,0,0-6.5-5.41c1.77,2,3.33,3.6,4.74,4.91.68.62,1.33,1.18,1.95,1.65-.62-.08-1.28-.14-2-.18a56.26,56.26,0,0,0-5.81,0,31.39,31.39,0,0,0,7,.7c.84.53,1.65,1,2.41,1.58-.81.51-1.66,1-2.55,1.54a31,31,0,0,0-8.41.78c2.64.14,4.9.19,6.81.12.93,0,1.78-.11,2.56-.21-.5.37-1,.81-1.55,1.28-1.24,1.11-2.59,2.48-4.09,4.11A31.56,31.56,0,0,0,761,54.42c1-.23,1.92-.42,2.84-.59-.21.91-.44,1.85-.7,2.81a30.27,30.27,0,0,0-5.45,6.6c2-1.79,3.63-3.35,4.94-4.78.63-.68,1.18-1.33,1.66-2-.09.62-.15,1.29-.19,2-.09,1.63-.08,3.51,0,5.68a31.17,31.17,0,0,0,.68-6.81c.54-.85,1.07-1.66,1.6-2.44.51.8,1,1.62,1.52,2.49a30.19,30.19,0,0,0,.81,8.49c.14-2.65.19-4.92.12-6.84q-.06-1.41-.21-2.58c.37.5.81,1,1.28,1.55,1.09,1.21,2.43,2.54,4,4a31.42,31.42,0,0,0-4.34-5.31c-.23-1-.42-1.93-.59-2.85.9.2,1.83.42,2.79.68a29.64,29.64,0,0,0,6.67,5.49c-1.8-2-3.38-3.66-4.81-5a22.82,22.82,0,0,0-2-1.67q.93.12,2,.18C775.26,53.72,777.12,53.71,779.26,53.62Z"/></g></g></g><g class="cls-4"><path class="cls-11" d="M266.26,83.62a32.34,32.34,0,0,0-6.69-.65c-.87-.55-1.7-1.09-2.5-1.64.78-.49,1.6-1,2.45-1.48a30.2,30.2,0,0,0,8.62-.83c-2.69-.15-5-.2-6.93-.12a23.88,23.88,0,0,0-2.56.21c.49-.38,1-.8,1.53-1.27,1.2-1.07,2.51-2.4,4-4A32.58,32.58,0,0,0,259,78.14c-1,.24-2,.44-2.91.62.2-.92.43-1.86.69-2.84a29.71,29.71,0,0,0,5.47-6.63c-2,1.8-3.64,3.37-4.95,4.79-.57.62-1.07,1.2-1.51,1.76.06-.58.08-1.2.09-1.88,0-1.39-.06-3-.2-4.92a32.29,32.29,0,0,0-.53,6.14c-.55.87-1.08,1.69-1.62,2.48-.5-.79-1-1.62-1.51-2.49a30.86,30.86,0,0,0-.64-7.83c-.19,2.41-.32,4.4-.33,6.09a22.53,22.53,0,0,0,.09,2.41c-.33-.43-.71-.88-1.12-1.34-1.09-1.21-2.42-2.52-4-4a32.41,32.41,0,0,0,4.31,5.25c.24,1,.44,2,.61,2.91C250,78.46,249,78.23,248,78a30.91,30.91,0,0,0-6.5-5.41c1.77,2,3.33,3.6,4.74,4.91.68.62,1.33,1.18,2,1.65-.62-.08-1.28-.14-2-.18a56.26,56.26,0,0,0-5.81,0,31.39,31.39,0,0,0,7,.7c.84.53,1.65,1,2.41,1.58-.81.51-1.66,1-2.55,1.54a31,31,0,0,0-8.41.78c2.64.14,4.9.19,6.81.12.93,0,1.78-.11,2.56-.21-.5.37-1,.81-1.55,1.28-1.24,1.11-2.59,2.48-4.09,4.11A31.56,31.56,0,0,0,248,84.42c1-.23,1.92-.42,2.84-.59-.21.91-.44,1.85-.7,2.81a30.27,30.27,0,0,0-5.45,6.6c2-1.79,3.63-3.35,4.94-4.78.63-.68,1.18-1.33,1.66-1.95-.09.62-.15,1.29-.19,2-.09,1.63-.08,3.51,0,5.68a31.17,31.17,0,0,0,.68-6.81c.54-.85,1.07-1.66,1.6-2.44.51.8,1,1.62,1.52,2.49a30.19,30.19,0,0,0,.81,8.49c.14-2.65.19-4.92.12-6.84q-.06-1.41-.21-2.58c.37.5.81,1,1.28,1.55,1.09,1.21,2.43,2.54,4,4a31.42,31.42,0,0,0-4.34-5.31c-.23-1-.42-1.93-.59-2.85.9.2,1.83.42,2.79.68a29.64,29.64,0,0,0,6.67,5.49c-1.8-2-3.38-3.66-4.81-5a22.82,22.82,0,0,0-2-1.67q.93.12,2,.18C262.26,83.72,264.12,83.71,266.26,83.62Z"/><g class="cls-12"><g class="cls-7"><path class="cls-8" d="M266.26,83.62a32.34,32.34,0,0,0-6.69-.65c-.87-.55-1.7-1.09-2.5-1.64.78-.49,1.6-1,2.45-1.48a30.2,30.2,0,0,0,8.62-.83c-2.69-.15-5-.2-6.93-.12a23.88,23.88,0,0,0-2.56.21c.49-.38,1-.8,1.53-1.27,1.2-1.07,2.51-2.4,4-4A32.58,32.58,0,0,0,259,78.14c-1,.24-2,.44-2.91.62.2-.92.43-1.86.69-2.84a29.71,29.71,0,0,0,5.47-6.63c-2,1.8-3.64,3.37-4.95,4.79-.57.62-1.07,1.2-1.51,1.76.06-.58.08-1.2.09-1.88,0-1.39-.06-3-.2-4.92a32.29,32.29,0,0,0-.53,6.14c-.55.87-1.08,1.69-1.62,2.48-.5-.79-1-1.62-1.51-2.49a30.86,30.86,0,0,0-.64-7.83c-.19,2.41-.32,4.4-.33,6.09a22.53,22.53,0,0,0,.09,2.41c-.33-.43-.71-.88-1.12-1.34-1.09-1.21-2.42-2.52-4-4a32.41,32.41,0,0,0,4.31,5.25c.24,1,.44,2,.61,2.91C250,78.46,249,78.23,248,78a30.91,30.91,0,0,0-6.5-5.41c1.77,2,3.33,3.6,4.74,4.91.68.62,1.33,1.18,2,1.65-.62-.08-1.28-.14-2-.18a56.26,56.26,0,0,0-5.81,0,31.39,31.39,0,0,0,7,.7c.84.53,1.65,1,2.41,1.58-.81.51-1.66,1-2.55,1.54a31,31,0,0,0-8.41.78c2.64.14,4.9.19,6.81.12.93,0,1.78-.11,2.56-.21-.5.37-1,.81-1.55,1.28-1.24,1.11-2.59,2.48-4.09,4.11A31.56,31.56,0,0,0,248,84.42c1-.23,1.92-.42,2.84-.59-.21.91-.44,1.85-.7,2.81a30.27,30.27,0,0,0-5.45,6.6c2-1.79,3.63-3.35,4.94-4.78.63-.68,1.18-1.33,1.66-1.95-.09.62-.15,1.29-.19,2-.09,1.63-.08,3.51,0,5.68a31.17,31.17,0,0,0,.68-6.81c.54-.85,1.07-1.66,1.6-2.44.51.8,1,1.62,1.52,2.49a30.19,30.19,0,0,0,.81,8.49c.14-2.65.19-4.92.12-6.84q-.06-1.41-.21-2.58c.37.5.81,1,1.28,1.55,1.09,1.21,2.43,2.54,4,4a31.42,31.42,0,0,0-4.34-5.31c-.23-1-.42-1.93-.59-2.85.9.2,1.83.42,2.79.68a29.64,29.64,0,0,0,6.67,5.49c-1.8-2-3.38-3.66-4.81-5a22.82,22.82,0,0,0-2-1.67q.93.12,2,.18C262.26,83.72,264.12,83.71,266.26,83.62Z"/></g></g></g><g class="cls-4"><path class="cls-13" d="M1867.26,107.62a32.34,32.34,0,0,0-6.69-.65c-.87-.55-1.7-1.09-2.5-1.64.78-.49,1.6-1,2.45-1.48a30.2,30.2,0,0,0,8.62-.83c-2.69-.15-5-.2-6.93-.12a23.88,23.88,0,0,0-2.56.21c.49-.38,1-.8,1.53-1.27,1.2-1.07,2.51-2.4,4-4a32.58,32.58,0,0,0-5.21,4.28c-1,.24-2,.44-2.91.62.2-.92.43-1.86.69-2.84a29.71,29.71,0,0,0,5.47-6.63c-2,1.8-3.64,3.37-5,4.79-.57.62-1.07,1.2-1.51,1.76.06-.58.08-1.2.09-1.88,0-1.39-.06-3-.2-4.92a32.29,32.29,0,0,0-.53,6.14c-.55.87-1.08,1.69-1.62,2.48-.5-.79-1-1.62-1.51-2.49a30.86,30.86,0,0,0-.64-7.83c-.19,2.41-.32,4.4-.33,6.09a22.53,22.53,0,0,0,.09,2.41c-.33-.43-.71-.88-1.12-1.34-1.09-1.21-2.42-2.52-4-4a32.41,32.41,0,0,0,4.31,5.25c.24,1,.44,2,.61,2.91-.93-.21-1.89-.44-2.89-.71a30.91,30.91,0,0,0-6.5-5.41c1.77,2,3.33,3.6,4.74,4.91.68.62,1.33,1.18,2,1.65-.62-.08-1.28-.14-2-.18a56.26,56.26,0,0,0-5.81,0,31.39,31.39,0,0,0,7,.7c.84.53,1.65,1,2.41,1.58-.81.51-1.66,1-2.55,1.54a31,31,0,0,0-8.41.78c2.64.14,4.9.19,6.81.12.93,0,1.78-.11,2.56-.21-.5.37-1,.81-1.55,1.28-1.24,1.11-2.59,2.48-4.09,4.11a31.56,31.56,0,0,0,5.42-4.42c1-.23,1.92-.42,2.84-.59-.21.91-.44,1.85-.7,2.81a30.27,30.27,0,0,0-5.45,6.6c2-1.79,3.63-3.35,4.94-4.78.63-.68,1.18-1.33,1.66-1.95-.09.62-.15,1.29-.19,2-.09,1.63-.08,3.51,0,5.68a31.17,31.17,0,0,0,.68-6.81c.54-.85,1.07-1.66,1.6-2.44.51.8,1,1.62,1.52,2.49a30.19,30.19,0,0,0,.81,8.49c.14-2.65.19-4.92.12-6.84q-.06-1.41-.21-2.58c.37.5.81,1,1.28,1.55,1.09,1.21,2.43,2.54,4,4a31.42,31.42,0,0,0-4.34-5.31c-.23-1-.42-1.93-.59-2.85.9.2,1.83.42,2.79.68a29.64,29.64,0,0,0,6.67,5.49c-1.8-2-3.38-3.66-4.81-5a22.82,22.82,0,0,0-2-1.67q.93.12,2,.18C1863.26,107.72,1865.12,107.71,1867.26,107.62Z"/><g class="cls-14"><g class="cls-7"><path class="cls-8" d="M1867.26,107.62a32.34,32.34,0,0,0-6.69-.65c-.87-.55-1.7-1.09-2.5-1.64.78-.49,1.6-1,2.45-1.48a30.2,30.2,0,0,0,8.62-.83c-2.69-.15-5-.2-6.93-.12a23.88,23.88,0,0,0-2.56.21c.49-.38,1-.8,1.53-1.27,1.2-1.07,2.51-2.4,4-4a32.58,32.58,0,0,0-5.21,4.28c-1,.24-2,.44-2.91.62.2-.92.43-1.86.69-2.84a29.71,29.71,0,0,0,5.47-6.63c-2,1.8-3.64,3.37-5,4.79-.57.62-1.07,1.2-1.51,1.76.06-.58.08-1.2.09-1.88,0-1.39-.06-3-.2-4.92a32.29,32.29,0,0,0-.53,6.14c-.55.87-1.08,1.69-1.62,2.48-.5-.79-1-1.62-1.51-2.49a30.86,30.86,0,0,0-.64-7.83c-.19,2.41-.32,4.4-.33,6.09a22.53,22.53,0,0,0,.09,2.41c-.33-.43-.71-.88-1.12-1.34-1.09-1.21-2.42-2.52-4-4a32.41,32.41,0,0,0,4.31,5.25c.24,1,.44,2,.61,2.91-.93-.21-1.89-.44-2.89-.71a30.91,30.91,0,0,0-6.5-5.41c1.77,2,3.33,3.6,4.74,4.91.68.62,1.33,1.18,2,1.65-.62-.08-1.28-.14-2-.18a56.26,56.26,0,0,0-5.81,0,31.39,31.39,0,0,0,7,.7c.84.53,1.65,1,2.41,1.58-.81.51-1.66,1-2.55,1.54a31,31,0,0,0-8.41.78c2.64.14,4.9.19,6.81.12.93,0,1.78-.11,2.56-.21-.5.37-1,.81-1.55,1.28-1.24,1.11-2.59,2.48-4.09,4.11a31.56,31.56,0,0,0,5.42-4.42c1-.23,1.92-.42,2.84-.59-.21.91-.44,1.85-.7,2.81a30.27,30.27,0,0,0-5.45,6.6c2-1.79,3.63-3.35,4.94-4.78.63-.68,1.18-1.33,1.66-1.95-.09.62-.15,1.29-.19,2-.09,1.63-.08,3.51,0,5.68a31.17,31.17,0,0,0,.68-6.81c.54-.85,1.07-1.66,1.6-2.44.51.8,1,1.62,1.52,2.49a30.19,30.19,0,0,0,.81,8.49c.14-2.65.19-4.92.12-6.84q-.06-1.41-.21-2.58c.37.5.81,1,1.28,1.55,1.09,1.21,2.43,2.54,4,4a31.42,31.42,0,0,0-4.34-5.31c-.23-1-.42-1.93-.59-2.85.9.2,1.83.42,2.79.68a29.64,29.64,0,0,0,6.67,5.49c-1.8-2-3.38-3.66-4.81-5a22.82,22.82,0,0,0-2-1.67q.93.12,2,.18C1863.26,107.72,1865.12,107.71,1867.26,107.62Z"/></g></g></g><g class="cls-4"><path class="cls-15" d="M1814.26,449.62a32.34,32.34,0,0,0-6.69-.65c-.87-.55-1.7-1.09-2.5-1.64.78-.49,1.6-1,2.45-1.48a30.2,30.2,0,0,0,8.62-.83c-2.69-.15-5-.2-6.93-.12a23.88,23.88,0,0,0-2.56.21c.49-.38,1-.8,1.53-1.27,1.2-1.07,2.51-2.4,4-4a32.58,32.58,0,0,0-5.21,4.28c-1,.24-2,.44-2.91.62.2-.92.43-1.86.69-2.84a29.71,29.71,0,0,0,5.47-6.63c-2,1.8-3.64,3.37-5,4.79-.57.62-1.07,1.2-1.51,1.76.06-.58.08-1.2.09-1.88,0-1.39-.06-3-.2-4.92a32.29,32.29,0,0,0-.53,6.14c-.55.87-1.08,1.69-1.62,2.48-.5-.79-1-1.62-1.51-2.49a30.86,30.86,0,0,0-.64-7.83c-.19,2.41-.32,4.4-.33,6.09a22.53,22.53,0,0,0,.09,2.41c-.33-.43-.71-.88-1.12-1.34-1.09-1.21-2.42-2.52-4-4a32.41,32.41,0,0,0,4.31,5.25c.24,1,.44,2,.61,2.91-.93-.21-1.89-.44-2.89-.71a30.91,30.91,0,0,0-6.5-5.41c1.77,2,3.33,3.6,4.74,4.91.68.62,1.33,1.18,2,1.65-.62-.08-1.28-.14-2-.18a56.26,56.26,0,0,0-5.81,0,31.39,31.39,0,0,0,7,.7c.84.53,1.65,1.05,2.41,1.58-.81.51-1.66,1-2.55,1.54a31,31,0,0,0-8.41.78c2.64.14,4.9.19,6.81.12.93,0,1.78-.11,2.56-.21-.5.37-1,.81-1.55,1.28-1.24,1.11-2.59,2.48-4.09,4.11a31.56,31.56,0,0,0,5.42-4.42c1-.23,1.92-.42,2.84-.59-.21.91-.44,1.85-.7,2.81a30.27,30.27,0,0,0-5.45,6.6c2-1.79,3.63-3.35,4.94-4.78.63-.68,1.18-1.33,1.66-1.95-.09.62-.15,1.29-.19,2-.09,1.63-.08,3.51,0,5.68a31.17,31.17,0,0,0,.68-6.81c.54-.85,1.07-1.66,1.6-2.44.51.8,1,1.62,1.52,2.49a30.19,30.19,0,0,0,.81,8.49c.14-2.65.19-4.92.12-6.84q-.06-1.41-.21-2.58c.37.5.81,1,1.28,1.55,1.09,1.21,2.43,2.54,4,4a31.42,31.42,0,0,0-4.34-5.31c-.23-1-.42-1.93-.59-2.85.9.2,1.83.42,2.79.68a29.64,29.64,0,0,0,6.67,5.49c-1.8-2-3.38-3.66-4.81-5a22.82,22.82,0,0,0-2-1.67q.93.12,2,.18C1810.26,449.72,1812.12,449.71,1814.26,449.62Z"/><g class="cls-16"><g class="cls-7"><path class="cls-8" d="M1814.26,449.62a32.34,32.34,0,0,0-6.69-.65c-.87-.55-1.7-1.09-2.5-1.64.78-.49,1.6-1,2.45-1.48a30.2,30.2,0,0,0,8.62-.83c-2.69-.15-5-.2-6.93-.12a23.88,23.88,0,0,0-2.56.21c.49-.38,1-.8,1.53-1.27,1.2-1.07,2.51-2.4,4-4a32.58,32.58,0,0,0-5.21,4.28c-1,.24-2,.44-2.91.62.2-.92.43-1.86.69-2.84a29.71,29.71,0,0,0,5.47-6.63c-2,1.8-3.64,3.37-5,4.79-.57.62-1.07,1.2-1.51,1.76.06-.58.08-1.2.09-1.88,0-1.39-.06-3-.2-4.92a32.29,32.29,0,0,0-.53,6.14c-.55.87-1.08,1.69-1.62,2.48-.5-.79-1-1.62-1.51-2.49a30.86,30.86,0,0,0-.64-7.83c-.19,2.41-.32,4.4-.33,6.09a22.53,22.53,0,0,0,.09,2.41c-.33-.43-.71-.88-1.12-1.34-1.09-1.21-2.42-2.52-4-4a32.41,32.41,0,0,0,4.31,5.25c.24,1,.44,2,.61,2.91-.93-.21-1.89-.44-2.89-.71a30.91,30.91,0,0,0-6.5-5.41c1.77,2,3.33,3.6,4.74,4.91.68.62,1.33,1.18,2,1.65-.62-.08-1.28-.14-2-.18a56.26,56.26,0,0,0-5.81,0,31.39,31.39,0,0,0,7,.7c.84.53,1.65,1.05,2.41,1.58-.81.51-1.66,1-2.55,1.54a31,31,0,0,0-8.41.78c2.64.14,4.9.19,6.81.12.93,0,1.78-.11,2.56-.21-.5.37-1,.81-1.55,1.28-1.24,1.11-2.59,2.48-4.09,4.11a31.56,31.56,0,0,0,5.42-4.42c1-.23,1.92-.42,2.84-.59-.21.91-.44,1.85-.7,2.81a30.27,30.27,0,0,0-5.45,6.6c2-1.79,3.63-3.35,4.94-4.78.63-.68,1.18-1.33,1.66-1.95-.09.62-.15,1.29-.19,2-.09,1.63-.08,3.51,0,5.68a31.17,31.17,0,0,0,.68-6.81c.54-.85,1.07-1.66,1.6-2.44.51.8,1,1.62,1.52,2.49a30.19,30.19,0,0,0,.81,8.49c.14-2.65.19-4.92.12-6.84q-.06-1.41-.21-2.58c.37.5.81,1,1.28,1.55,1.09,1.21,2.43,2.54,4,4a31.42,31.42,0,0,0-4.34-5.31c-.23-1-.42-1.93-.59-2.85.9.2,1.83.42,2.79.68a29.64,29.64,0,0,0,6.67,5.49c-1.8-2-3.38-3.66-4.81-5a22.82,22.82,0,0,0-2-1.67q.93.12,2,.18C1810.26,449.72,1812.12,449.71,1814.26,449.62Z"/></g></g></g><g class="cls-4"><path class="cls-17" d="M1549.26,475.62a32.34,32.34,0,0,0-6.69-.65c-.87-.55-1.7-1.09-2.5-1.64.78-.49,1.6-1,2.45-1.48a30.2,30.2,0,0,0,8.62-.83c-2.69-.15-5-.2-6.93-.12a23.88,23.88,0,0,0-2.56.21c.49-.38,1-.8,1.53-1.27,1.2-1.07,2.51-2.4,4-4a32.58,32.58,0,0,0-5.21,4.28c-1,.24-2,.44-2.91.62.2-.92.43-1.86.69-2.84a29.71,29.71,0,0,0,5.47-6.63c-2,1.8-3.64,3.37-5,4.79-.57.62-1.07,1.2-1.51,1.76.06-.58.08-1.2.09-1.88,0-1.39-.06-3-.2-4.92a32.29,32.29,0,0,0-.53,6.14c-.55.87-1.08,1.69-1.62,2.48-.5-.79-1-1.62-1.51-2.49a30.86,30.86,0,0,0-.64-7.83c-.19,2.41-.32,4.4-.33,6.09a22.53,22.53,0,0,0,.09,2.41c-.33-.43-.71-.88-1.12-1.34-1.09-1.21-2.42-2.52-4-4a32.41,32.41,0,0,0,4.31,5.25c.24,1,.44,2,.61,2.91-.93-.21-1.89-.44-2.89-.71a30.91,30.91,0,0,0-6.5-5.41c1.77,2,3.33,3.6,4.74,4.91.68.62,1.33,1.18,2,1.65-.62-.08-1.28-.14-2-.18a56.26,56.26,0,0,0-5.81,0,31.39,31.39,0,0,0,7,.7c.84.53,1.65,1.05,2.41,1.58-.81.51-1.66,1-2.55,1.54a31,31,0,0,0-8.41.78c2.64.14,4.9.19,6.81.12.93,0,1.78-.11,2.56-.21-.5.37-1,.81-1.55,1.28-1.24,1.11-2.59,2.48-4.09,4.11a31.56,31.56,0,0,0,5.42-4.42c1-.23,1.92-.42,2.84-.59-.21.91-.44,1.85-.7,2.81a30.27,30.27,0,0,0-5.45,6.6c2-1.79,3.63-3.35,4.94-4.78.63-.68,1.18-1.33,1.66-1.95-.09.62-.15,1.29-.19,2-.09,1.63-.08,3.51,0,5.68a31.17,31.17,0,0,0,.68-6.81c.54-.85,1.07-1.66,1.6-2.44.51.8,1,1.62,1.52,2.49a30.19,30.19,0,0,0,.81,8.49c.14-2.65.19-4.92.12-6.84q-.06-1.41-.21-2.58c.37.5.81,1,1.28,1.55,1.09,1.21,2.43,2.54,4,4a31.42,31.42,0,0,0-4.34-5.31c-.23-1-.42-1.93-.59-2.85.9.2,1.83.42,2.79.68a29.64,29.64,0,0,0,6.67,5.49c-1.8-2-3.38-3.66-4.81-5a22.82,22.82,0,0,0-2-1.67q.93.12,2,.18C1545.26,475.72,1547.12,475.71,1549.26,475.62Z"/><g class="cls-18"><g class="cls-7"><path class="cls-8" d="M1549.26,475.62a32.34,32.34,0,0,0-6.69-.65c-.87-.55-1.7-1.09-2.5-1.64.78-.49,1.6-1,2.45-1.48a30.2,30.2,0,0,0,8.62-.83c-2.69-.15-5-.2-6.93-.12a23.88,23.88,0,0,0-2.56.21c.49-.38,1-.8,1.53-1.27,1.2-1.07,2.51-2.4,4-4a32.58,32.58,0,0,0-5.21,4.28c-1,.24-2,.44-2.91.62.2-.92.43-1.86.69-2.84a29.71,29.71,0,0,0,5.47-6.63c-2,1.8-3.64,3.37-5,4.79-.57.62-1.07,1.2-1.51,1.76.06-.58.08-1.2.09-1.88,0-1.39-.06-3-.2-4.92a32.29,32.29,0,0,0-.53,6.14c-.55.87-1.08,1.69-1.62,2.48-.5-.79-1-1.62-1.51-2.49a30.86,30.86,0,0,0-.64-7.83c-.19,2.41-.32,4.4-.33,6.09a22.53,22.53,0,0,0,.09,2.41c-.33-.43-.71-.88-1.12-1.34-1.09-1.21-2.42-2.52-4-4a32.41,32.41,0,0,0,4.31,5.25c.24,1,.44,2,.61,2.91-.93-.21-1.89-.44-2.89-.71a30.91,30.91,0,0,0-6.5-5.41c1.77,2,3.33,3.6,4.74,4.91.68.62,1.33,1.18,2,1.65-.62-.08-1.28-.14-2-.18a56.26,56.26,0,0,0-5.81,0,31.39,31.39,0,0,0,7,.7c.84.53,1.65,1.05,2.41,1.58-.81.51-1.66,1-2.55,1.54a31,31,0,0,0-8.41.78c2.64.14,4.9.19,6.81.12.93,0,1.78-.11,2.56-.21-.5.37-1,.81-1.55,1.28-1.24,1.11-2.59,2.48-4.09,4.11a31.56,31.56,0,0,0,5.42-4.42c1-.23,1.92-.42,2.84-.59-.21.91-.44,1.85-.7,2.81a30.27,30.27,0,0,0-5.45,6.6c2-1.79,3.63-3.35,4.94-4.78.63-.68,1.18-1.33,1.66-1.95-.09.62-.15,1.29-.19,2-.09,1.63-.08,3.51,0,5.68a31.17,31.17,0,0,0,.68-6.81c.54-.85,1.07-1.66,1.6-2.44.51.8,1,1.62,1.52,2.49a30.19,30.19,0,0,0,.81,8.49c.14-2.65.19-4.92.12-6.84q-.06-1.41-.21-2.58c.37.5.81,1,1.28,1.55,1.09,1.21,2.43,2.54,4,4a31.42,31.42,0,0,0-4.34-5.31c-.23-1-.42-1.93-.59-2.85.9.2,1.83.42,2.79.68a29.64,29.64,0,0,0,6.67,5.49c-1.8-2-3.38-3.66-4.81-5a22.82,22.82,0,0,0-2-1.67q.93.12,2,.18C1545.26,475.72,1547.12,475.71,1549.26,475.62Z"/></g></g></g><g class="cls-4"><path class="cls-19" d="M1417.26,299.62a32.34,32.34,0,0,0-6.69-.65c-.87-.55-1.7-1.09-2.5-1.64.78-.49,1.6-1,2.45-1.48a30.2,30.2,0,0,0,8.62-.83c-2.69-.15-5-.2-6.93-.12a23.88,23.88,0,0,0-2.56.21c.49-.38,1-.8,1.53-1.27,1.2-1.07,2.51-2.4,4-4a32.58,32.58,0,0,0-5.21,4.28c-1,.24-2,.44-2.91.62.2-.92.43-1.86.69-2.84a29.71,29.71,0,0,0,5.47-6.63c-2,1.8-3.64,3.37-5,4.79-.57.62-1.07,1.2-1.51,1.76.06-.58.08-1.2.09-1.88,0-1.39-.06-3-.2-4.92a32.29,32.29,0,0,0-.53,6.14c-.55.87-1.08,1.69-1.62,2.48-.5-.79-1-1.62-1.51-2.49a30.86,30.86,0,0,0-.64-7.83c-.19,2.41-.32,4.4-.33,6.09a22.53,22.53,0,0,0,.09,2.41c-.33-.43-.71-.88-1.12-1.34-1.09-1.21-2.42-2.52-4-4a32.41,32.41,0,0,0,4.31,5.25c.24,1,.44,2,.61,2.91-.93-.21-1.89-.44-2.89-.71a30.91,30.91,0,0,0-6.5-5.41c1.77,2,3.33,3.6,4.74,4.91.68.62,1.33,1.18,2,1.65-.62-.08-1.28-.14-2-.18a56.26,56.26,0,0,0-5.81,0,31.39,31.39,0,0,0,7,.7c.84.53,1.65,1.05,2.41,1.58-.81.51-1.66,1-2.55,1.54a31,31,0,0,0-8.41.78c2.64.14,4.9.19,6.81.12.93,0,1.78-.11,2.56-.21-.5.37-1,.81-1.55,1.28-1.24,1.11-2.59,2.48-4.09,4.11a31.56,31.56,0,0,0,5.42-4.42c1-.23,1.92-.42,2.84-.59-.21.91-.44,1.85-.7,2.81a30.27,30.27,0,0,0-5.45,6.6c2-1.79,3.63-3.35,4.94-4.78.63-.68,1.18-1.33,1.66-1.95-.09.62-.15,1.29-.19,2-.09,1.63-.08,3.51,0,5.68a31.17,31.17,0,0,0,.68-6.81c.54-.85,1.07-1.66,1.6-2.44.51.8,1,1.62,1.52,2.49a30.19,30.19,0,0,0,.81,8.49c.14-2.65.19-4.92.12-6.84q-.06-1.41-.21-2.58c.37.5.81,1,1.28,1.55,1.09,1.21,2.43,2.54,4,4a31.42,31.42,0,0,0-4.34-5.31c-.23-1-.42-1.93-.59-2.85.9.2,1.83.42,2.79.68a29.64,29.64,0,0,0,6.67,5.49c-1.8-2-3.38-3.66-4.81-5a22.82,22.82,0,0,0-2-1.67q.93.12,2,.18C1413.26,299.72,1415.12,299.71,1417.26,299.62Z"/><g class="cls-20"><g class="cls-7"><path class="cls-8" d="M1417.26,299.62a32.34,32.34,0,0,0-6.69-.65c-.87-.55-1.7-1.09-2.5-1.64.78-.49,1.6-1,2.45-1.48a30.2,30.2,0,0,0,8.62-.83c-2.69-.15-5-.2-6.93-.12a23.88,23.88,0,0,0-2.56.21c.49-.38,1-.8,1.53-1.27,1.2-1.07,2.51-2.4,4-4a32.58,32.58,0,0,0-5.21,4.28c-1,.24-2,.44-2.91.62.2-.92.43-1.86.69-2.84a29.71,29.71,0,0,0,5.47-6.63c-2,1.8-3.64,3.37-5,4.79-.57.62-1.07,1.2-1.51,1.76.06-.58.08-1.2.09-1.88,0-1.39-.06-3-.2-4.92a32.29,32.29,0,0,0-.53,6.14c-.55.87-1.08,1.69-1.62,2.48-.5-.79-1-1.62-1.51-2.49a30.86,30.86,0,0,0-.64-7.83c-.19,2.41-.32,4.4-.33,6.09a22.53,22.53,0,0,0,.09,2.41c-.33-.43-.71-.88-1.12-1.34-1.09-1.21-2.42-2.52-4-4a32.41,32.41,0,0,0,4.31,5.25c.24,1,.44,2,.61,2.91-.93-.21-1.89-.44-2.89-.71a30.91,30.91,0,0,0-6.5-5.41c1.77,2,3.33,3.6,4.74,4.91.68.62,1.33,1.18,2,1.65-.62-.08-1.28-.14-2-.18a56.26,56.26,0,0,0-5.81,0,31.39,31.39,0,0,0,7,.7c.84.53,1.65,1.05,2.41,1.58-.81.51-1.66,1-2.55,1.54a31,31,0,0,0-8.41.78c2.64.14,4.9.19,6.81.12.93,0,1.78-.11,2.56-.21-.5.37-1,.81-1.55,1.28-1.24,1.11-2.59,2.48-4.09,4.11a31.56,31.56,0,0,0,5.42-4.42c1-.23,1.92-.42,2.84-.59-.21.91-.44,1.85-.7,2.81a30.27,30.27,0,0,0-5.45,6.6c2-1.79,3.63-3.35,4.94-4.78.63-.68,1.18-1.33,1.66-1.95-.09.62-.15,1.29-.19,2-.09,1.63-.08,3.51,0,5.68a31.17,31.17,0,0,0,.68-6.81c.54-.85,1.07-1.66,1.6-2.44.51.8,1,1.62,1.52,2.49a30.19,30.19,0,0,0,.81,8.49c.14-2.65.19-4.92.12-6.84q-.06-1.41-.21-2.58c.37.5.81,1,1.28,1.55,1.09,1.21,2.43,2.54,4,4a31.42,31.42,0,0,0-4.34-5.31c-.23-1-.42-1.93-.59-2.85.9.2,1.83.42,2.79.68a29.64,29.64,0,0,0,6.67,5.49c-1.8-2-3.38-3.66-4.81-5a22.82,22.82,0,0,0-2-1.67q.93.12,2,.18C1413.26,299.72,1415.12,299.71,1417.26,299.62Z"/></g></g></g><g class="cls-4"><path class="cls-21" d="M948.26,284.62a32.34,32.34,0,0,0-6.69-.65c-.87-.55-1.7-1.09-2.5-1.64.78-.49,1.6-1,2.45-1.48a30.2,30.2,0,0,0,8.62-.83c-2.69-.15-5-.2-6.93-.12a23.88,23.88,0,0,0-2.56.21c.49-.38,1-.8,1.53-1.27,1.2-1.07,2.51-2.4,4-4a32.58,32.58,0,0,0-5.21,4.28c-1,.24-2,.44-2.91.62.2-.92.43-1.86.69-2.84a29.71,29.71,0,0,0,5.47-6.63c-2,1.8-3.64,3.37-5,4.79-.57.62-1.07,1.2-1.51,1.76.06-.58.08-1.2.09-1.88,0-1.39-.06-3-.2-4.92a32.29,32.29,0,0,0-.53,6.14c-.55.87-1.08,1.69-1.62,2.48-.5-.79-1-1.62-1.51-2.49a30.86,30.86,0,0,0-.64-7.83c-.19,2.41-.32,4.4-.33,6.09a22.53,22.53,0,0,0,.09,2.41c-.33-.43-.71-.88-1.12-1.34-1.09-1.21-2.42-2.52-4-4a32.41,32.41,0,0,0,4.31,5.25c.24,1,.44,2,.61,2.91-.93-.21-1.89-.44-2.89-.71a30.91,30.91,0,0,0-6.5-5.41c1.77,2,3.33,3.6,4.74,4.91.68.62,1.33,1.18,1.95,1.65-.62-.08-1.28-.14-2-.18a56.26,56.26,0,0,0-5.81,0,31.39,31.39,0,0,0,7,.7c.84.53,1.65,1.05,2.41,1.58-.81.51-1.66,1-2.55,1.54a31,31,0,0,0-8.41.78c2.64.14,4.9.19,6.81.12.93,0,1.78-.11,2.56-.21-.5.37-1,.81-1.55,1.28-1.24,1.11-2.59,2.48-4.09,4.11a31.56,31.56,0,0,0,5.42-4.42c1-.23,1.92-.42,2.84-.59-.21.91-.44,1.85-.7,2.81a30.27,30.27,0,0,0-5.45,6.6c2-1.79,3.63-3.35,4.94-4.78.63-.68,1.18-1.33,1.66-1.95-.09.62-.15,1.29-.19,2-.09,1.63-.08,3.51,0,5.68a31.17,31.17,0,0,0,.68-6.81c.54-.85,1.07-1.66,1.6-2.44.51.8,1,1.62,1.52,2.49a30.19,30.19,0,0,0,.81,8.49c.14-2.65.19-4.92.12-6.84q-.06-1.41-.21-2.58c.37.5.81,1,1.28,1.55,1.09,1.21,2.43,2.54,4,4a31.42,31.42,0,0,0-4.34-5.31c-.23-1-.42-1.93-.59-2.85.9.2,1.83.42,2.79.68a29.64,29.64,0,0,0,6.67,5.49c-1.8-2-3.38-3.66-4.81-5a22.82,22.82,0,0,0-2-1.67q.93.12,2,.18C944.26,284.72,946.12,284.71,948.26,284.62Z"/><g class="cls-22"><g class="cls-7"><path class="cls-8" d="M948.26,284.62a32.34,32.34,0,0,0-6.69-.65c-.87-.55-1.7-1.09-2.5-1.64.78-.49,1.6-1,2.45-1.48a30.2,30.2,0,0,0,8.62-.83c-2.69-.15-5-.2-6.93-.12a23.88,23.88,0,0,0-2.56.21c.49-.38,1-.8,1.53-1.27,1.2-1.07,2.51-2.4,4-4a32.58,32.58,0,0,0-5.21,4.28c-1,.24-2,.44-2.91.62.2-.92.43-1.86.69-2.84a29.71,29.71,0,0,0,5.47-6.63c-2,1.8-3.64,3.37-5,4.79-.57.62-1.07,1.2-1.51,1.76.06-.58.08-1.2.09-1.88,0-1.39-.06-3-.2-4.92a32.29,32.29,0,0,0-.53,6.14c-.55.87-1.08,1.69-1.62,2.48-.5-.79-1-1.62-1.51-2.49a30.86,30.86,0,0,0-.64-7.83c-.19,2.41-.32,4.4-.33,6.09a22.53,22.53,0,0,0,.09,2.41c-.33-.43-.71-.88-1.12-1.34-1.09-1.21-2.42-2.52-4-4a32.41,32.41,0,0,0,4.31,5.25c.24,1,.44,2,.61,2.91-.93-.21-1.89-.44-2.89-.71a30.91,30.91,0,0,0-6.5-5.41c1.77,2,3.33,3.6,4.74,4.91.68.62,1.33,1.18,1.95,1.65-.62-.08-1.28-.14-2-.18a56.26,56.26,0,0,0-5.81,0,31.39,31.39,0,0,0,7,.7c.84.53,1.65,1.05,2.41,1.58-.81.51-1.66,1-2.55,1.54a31,31,0,0,0-8.41.78c2.64.14,4.9.19,6.81.12.93,0,1.78-.11,2.56-.21-.5.37-1,.81-1.55,1.28-1.24,1.11-2.59,2.48-4.09,4.11a31.56,31.56,0,0,0,5.42-4.42c1-.23,1.92-.42,2.84-.59-.21.91-.44,1.85-.7,2.81a30.27,30.27,0,0,0-5.45,6.6c2-1.79,3.63-3.35,4.94-4.78.63-.68,1.18-1.33,1.66-1.95-.09.62-.15,1.29-.19,2-.09,1.63-.08,3.51,0,5.68a31.17,31.17,0,0,0,.68-6.81c.54-.85,1.07-1.66,1.6-2.44.51.8,1,1.62,1.52,2.49a30.19,30.19,0,0,0,.81,8.49c.14-2.65.19-4.92.12-6.84q-.06-1.41-.21-2.58c.37.5.81,1,1.28,1.55,1.09,1.21,2.43,2.54,4,4a31.42,31.42,0,0,0-4.34-5.31c-.23-1-.42-1.93-.59-2.85.9.2,1.83.42,2.79.68a29.64,29.64,0,0,0,6.67,5.49c-1.8-2-3.38-3.66-4.81-5a22.82,22.82,0,0,0-2-1.67q.93.12,2,.18C944.26,284.72,946.12,284.71,948.26,284.62Z"/></g></g></g><g class="cls-4"><path class="cls-23" d="M612.26,268.62a32.34,32.34,0,0,0-6.69-.65c-.87-.55-1.7-1.09-2.5-1.64.78-.49,1.6-1,2.45-1.48a30.2,30.2,0,0,0,8.62-.83c-2.69-.15-5-.2-6.93-.12a23.88,23.88,0,0,0-2.56.21c.49-.38,1-.8,1.53-1.27,1.2-1.07,2.51-2.4,4-4a32.58,32.58,0,0,0-5.21,4.28c-1,.24-2,.44-2.91.62.2-.92.43-1.86.69-2.84a29.71,29.71,0,0,0,5.47-6.63c-2,1.8-3.64,3.37-5,4.79-.57.62-1.07,1.2-1.51,1.76.06-.58.08-1.2.09-1.88,0-1.39-.06-3-.2-4.92a32.29,32.29,0,0,0-.53,6.14c-.55.87-1.08,1.69-1.62,2.48-.5-.79-1-1.62-1.51-2.49a30.86,30.86,0,0,0-.64-7.83c-.19,2.41-.32,4.4-.33,6.09a22.53,22.53,0,0,0,.09,2.41c-.33-.43-.71-.88-1.12-1.34-1.09-1.21-2.42-2.52-4-4a32.41,32.41,0,0,0,4.31,5.25c.24,1,.44,2,.61,2.91-.93-.21-1.89-.44-2.89-.71a30.91,30.91,0,0,0-6.5-5.41c1.77,2,3.33,3.6,4.74,4.91.68.62,1.33,1.18,1.95,1.65-.62-.08-1.28-.14-2-.18a56.26,56.26,0,0,0-5.81,0,31.39,31.39,0,0,0,7,.7c.84.53,1.65,1.05,2.41,1.58-.81.51-1.66,1-2.55,1.54a31,31,0,0,0-8.41.78c2.64.14,4.9.19,6.81.12.93,0,1.78-.11,2.56-.21-.5.37-1,.81-1.55,1.28-1.24,1.11-2.59,2.48-4.09,4.11a31.56,31.56,0,0,0,5.42-4.42c1-.23,1.92-.42,2.84-.59-.21.91-.44,1.85-.7,2.81a30.27,30.27,0,0,0-5.45,6.6c2-1.79,3.63-3.35,4.94-4.78.63-.68,1.18-1.33,1.66-1.95-.09.62-.15,1.29-.19,2-.09,1.63-.08,3.51,0,5.68a31.17,31.17,0,0,0,.68-6.81c.54-.85,1.07-1.66,1.6-2.44.51.8,1,1.62,1.52,2.49a30.19,30.19,0,0,0,.81,8.49c.14-2.65.19-4.92.12-6.84q-.06-1.41-.21-2.58c.37.5.81,1,1.28,1.55,1.09,1.21,2.43,2.54,4,4a31.42,31.42,0,0,0-4.34-5.31c-.23-1-.42-1.93-.59-2.85.9.2,1.83.42,2.79.68a29.64,29.64,0,0,0,6.67,5.49c-1.8-2-3.38-3.66-4.81-5a22.82,22.82,0,0,0-2-1.67q.93.12,2,.18C608.26,268.72,610.12,268.71,612.26,268.62Z"/><g class="cls-24"><g class="cls-7"><path class="cls-8" d="M612.26,268.62a32.34,32.34,0,0,0-6.69-.65c-.87-.55-1.7-1.09-2.5-1.64.78-.49,1.6-1,2.45-1.48a30.2,30.2,0,0,0,8.62-.83c-2.69-.15-5-.2-6.93-.12a23.88,23.88,0,0,0-2.56.21c.49-.38,1-.8,1.53-1.27,1.2-1.07,2.51-2.4,4-4a32.58,32.58,0,0,0-5.21,4.28c-1,.24-2,.44-2.91.62.2-.92.43-1.86.69-2.84a29.71,29.71,0,0,0,5.47-6.63c-2,1.8-3.64,3.37-5,4.79-.57.62-1.07,1.2-1.51,1.76.06-.58.08-1.2.09-1.88,0-1.39-.06-3-.2-4.92a32.29,32.29,0,0,0-.53,6.14c-.55.87-1.08,1.69-1.62,2.48-.5-.79-1-1.62-1.51-2.49a30.86,30.86,0,0,0-.64-7.83c-.19,2.41-.32,4.4-.33,6.09a22.53,22.53,0,0,0,.09,2.41c-.33-.43-.71-.88-1.12-1.34-1.09-1.21-2.42-2.52-4-4a32.41,32.41,0,0,0,4.31,5.25c.24,1,.44,2,.61,2.91-.93-.21-1.89-.44-2.89-.71a30.91,30.91,0,0,0-6.5-5.41c1.77,2,3.33,3.6,4.74,4.91.68.62,1.33,1.18,1.95,1.65-.62-.08-1.28-.14-2-.18a56.26,56.26,0,0,0-5.81,0,31.39,31.39,0,0,0,7,.7c.84.53,1.65,1.05,2.41,1.58-.81.51-1.66,1-2.55,1.54a31,31,0,0,0-8.41.78c2.64.14,4.9.19,6.81.12.93,0,1.78-.11,2.56-.21-.5.37-1,.81-1.55,1.28-1.24,1.11-2.59,2.48-4.09,4.11a31.56,31.56,0,0,0,5.42-4.42c1-.23,1.92-.42,2.84-.59-.21.91-.44,1.85-.7,2.81a30.27,30.27,0,0,0-5.45,6.6c2-1.79,3.63-3.35,4.94-4.78.63-.68,1.18-1.33,1.66-1.95-.09.62-.15,1.29-.19,2-.09,1.63-.08,3.51,0,5.68a31.17,31.17,0,0,0,.68-6.81c.54-.85,1.07-1.66,1.6-2.44.51.8,1,1.62,1.52,2.49a30.19,30.19,0,0,0,.81,8.49c.14-2.65.19-4.92.12-6.84q-.06-1.41-.21-2.58c.37.5.81,1,1.28,1.55,1.09,1.21,2.43,2.54,4,4a31.42,31.42,0,0,0-4.34-5.31c-.23-1-.42-1.93-.59-2.85.9.2,1.83.42,2.79.68a29.64,29.64,0,0,0,6.67,5.49c-1.8-2-3.38-3.66-4.81-5a22.82,22.82,0,0,0-2-1.67q.93.12,2,.18C608.26,268.72,610.12,268.71,612.26,268.62Z"/></g></g></g><g class="cls-4"><path class="cls-25" d="M1036.26,65.62a32.34,32.34,0,0,0-6.69-.65c-.87-.55-1.7-1.09-2.5-1.64.78-.49,1.6-1,2.45-1.48a30.2,30.2,0,0,0,8.62-.83c-2.69-.15-5-.2-6.93-.12a23.88,23.88,0,0,0-2.56.21c.49-.38,1-.8,1.53-1.27,1.2-1.07,2.51-2.4,4-4a32.58,32.58,0,0,0-5.21,4.28c-1,.24-2,.44-2.91.62.2-.92.43-1.86.69-2.84a29.71,29.71,0,0,0,5.47-6.63c-2,1.8-3.64,3.37-5,4.79-.57.62-1.07,1.2-1.51,1.76.06-.58.08-1.2.09-1.88,0-1.39-.06-3-.2-4.92a32.29,32.29,0,0,0-.53,6.14c-.55.87-1.08,1.69-1.62,2.48-.5-.79-1-1.62-1.51-2.49a30.86,30.86,0,0,0-.64-7.83c-.19,2.41-.32,4.4-.33,6.09a22.53,22.53,0,0,0,.09,2.41c-.33-.43-.71-.88-1.12-1.34-1.09-1.21-2.42-2.52-4-4a32.41,32.41,0,0,0,4.31,5.25c.24,1,.44,2,.61,2.91-.93-.21-1.89-.44-2.89-.71a30.91,30.91,0,0,0-6.5-5.41c1.77,2,3.33,3.6,4.74,4.91.68.62,1.33,1.18,1.95,1.65-.62-.08-1.28-.14-2-.18a56.26,56.26,0,0,0-5.81,0,31.39,31.39,0,0,0,7,.7c.84.53,1.65,1,2.41,1.58-.81.51-1.66,1-2.55,1.54a31,31,0,0,0-8.41.78c2.64.14,4.9.19,6.81.12.93,0,1.78-.11,2.56-.21-.5.37-1,.81-1.55,1.28-1.24,1.11-2.59,2.48-4.09,4.11a31.56,31.56,0,0,0,5.42-4.42c1-.23,1.92-.42,2.84-.59-.21.91-.44,1.85-.7,2.81a30.27,30.27,0,0,0-5.45,6.6c2-1.79,3.63-3.35,4.94-4.78.63-.68,1.18-1.33,1.66-1.95-.09.62-.15,1.29-.19,2-.09,1.63-.08,3.51,0,5.68a31.17,31.17,0,0,0,.68-6.81c.54-.85,1.07-1.66,1.6-2.44.51.8,1,1.62,1.52,2.49a30.19,30.19,0,0,0,.81,8.49c.14-2.65.19-4.92.12-6.84q-.06-1.41-.21-2.58c.37.5.81,1,1.28,1.55,1.09,1.21,2.43,2.54,4,4a31.42,31.42,0,0,0-4.34-5.31c-.23-1-.42-1.93-.59-2.85.9.2,1.83.42,2.79.68a29.64,29.64,0,0,0,6.67,5.49c-1.8-2-3.38-3.66-4.81-5a22.82,22.82,0,0,0-2-1.67q.93.12,2,.18C1032.26,65.72,1034.12,65.71,1036.26,65.62Z"/><g class="cls-26"><g class="cls-7"><path class="cls-8" d="M1036.26,65.62a32.34,32.34,0,0,0-6.69-.65c-.87-.55-1.7-1.09-2.5-1.64.78-.49,1.6-1,2.45-1.48a30.2,30.2,0,0,0,8.62-.83c-2.69-.15-5-.2-6.93-.12a23.88,23.88,0,0,0-2.56.21c.49-.38,1-.8,1.53-1.27,1.2-1.07,2.51-2.4,4-4a32.58,32.58,0,0,0-5.21,4.28c-1,.24-2,.44-2.91.62.2-.92.43-1.86.69-2.84a29.71,29.71,0,0,0,5.47-6.63c-2,1.8-3.64,3.37-5,4.79-.57.62-1.07,1.2-1.51,1.76.06-.58.08-1.2.09-1.88,0-1.39-.06-3-.2-4.92a32.29,32.29,0,0,0-.53,6.14c-.55.87-1.08,1.69-1.62,2.48-.5-.79-1-1.62-1.51-2.49a30.86,30.86,0,0,0-.64-7.83c-.19,2.41-.32,4.4-.33,6.09a22.53,22.53,0,0,0,.09,2.41c-.33-.43-.71-.88-1.12-1.34-1.09-1.21-2.42-2.52-4-4a32.41,32.41,0,0,0,4.31,5.25c.24,1,.44,2,.61,2.91-.93-.21-1.89-.44-2.89-.71a30.91,30.91,0,0,0-6.5-5.41c1.77,2,3.33,3.6,4.74,4.91.68.62,1.33,1.18,1.95,1.65-.62-.08-1.28-.14-2-.18a56.26,56.26,0,0,0-5.81,0,31.39,31.39,0,0,0,7,.7c.84.53,1.65,1,2.41,1.58-.81.51-1.66,1-2.55,1.54a31,31,0,0,0-8.41.78c2.64.14,4.9.19,6.81.12.93,0,1.78-.11,2.56-.21-.5.37-1,.81-1.55,1.28-1.24,1.11-2.59,2.48-4.09,4.11a31.56,31.56,0,0,0,5.42-4.42c1-.23,1.92-.42,2.84-.59-.21.91-.44,1.85-.7,2.81a30.27,30.27,0,0,0-5.45,6.6c2-1.79,3.63-3.35,4.94-4.78.63-.68,1.18-1.33,1.66-1.95-.09.62-.15,1.29-.19,2-.09,1.63-.08,3.51,0,5.68a31.17,31.17,0,0,0,.68-6.81c.54-.85,1.07-1.66,1.6-2.44.51.8,1,1.62,1.52,2.49a30.19,30.19,0,0,0,.81,8.49c.14-2.65.19-4.92.12-6.84q-.06-1.41-.21-2.58c.37.5.81,1,1.28,1.55,1.09,1.21,2.43,2.54,4,4a31.42,31.42,0,0,0-4.34-5.31c-.23-1-.42-1.93-.59-2.85.9.2,1.83.42,2.79.68a29.64,29.64,0,0,0,6.67,5.49c-1.8-2-3.38-3.66-4.81-5a22.82,22.82,0,0,0-2-1.67q.93.12,2,.18C1032.26,65.72,1034.12,65.71,1036.26,65.62Z"/></g></g></g><g class="cls-4"><path class="cls-27" d="M1277.26,93.62a32.34,32.34,0,0,0-6.69-.65c-.87-.55-1.7-1.09-2.5-1.64.78-.49,1.6-1,2.45-1.48a30.2,30.2,0,0,0,8.62-.83c-2.69-.15-5-.2-6.93-.12a23.88,23.88,0,0,0-2.56.21c.49-.38,1-.8,1.53-1.27,1.2-1.07,2.51-2.4,4-4a32.58,32.58,0,0,0-5.21,4.28c-1,.24-2,.44-2.91.62.2-.92.43-1.86.69-2.84a29.71,29.71,0,0,0,5.47-6.63c-2,1.8-3.64,3.37-5,4.79-.57.62-1.07,1.2-1.51,1.76.06-.58.08-1.2.09-1.88,0-1.39-.06-3-.2-4.92a32.29,32.29,0,0,0-.53,6.14c-.55.87-1.08,1.69-1.62,2.48-.5-.79-1-1.62-1.51-2.49a30.86,30.86,0,0,0-.64-7.83c-.19,2.41-.32,4.4-.33,6.09a22.53,22.53,0,0,0,.09,2.41c-.33-.43-.71-.88-1.12-1.34-1.09-1.21-2.42-2.52-4-4a32.41,32.41,0,0,0,4.31,5.25c.24,1,.44,2,.61,2.91-.93-.21-1.89-.44-2.89-.71a30.91,30.91,0,0,0-6.5-5.41c1.77,2,3.33,3.6,4.74,4.91.68.62,1.33,1.18,2,1.65-.62-.08-1.28-.14-2-.18a56.26,56.26,0,0,0-5.81,0,31.39,31.39,0,0,0,7,.7c.84.53,1.65,1,2.41,1.58-.81.51-1.66,1-2.55,1.54a31,31,0,0,0-8.41.78c2.64.14,4.9.19,6.81.12.93,0,1.78-.11,2.56-.21-.5.37-1,.81-1.55,1.28-1.24,1.11-2.59,2.48-4.09,4.11a31.56,31.56,0,0,0,5.42-4.42c1-.23,1.92-.42,2.84-.59-.21.91-.44,1.85-.7,2.81a30.27,30.27,0,0,0-5.45,6.6c2-1.79,3.63-3.35,4.94-4.78.63-.68,1.18-1.33,1.66-1.95-.09.62-.15,1.29-.19,2-.09,1.63-.08,3.51,0,5.68a31.17,31.17,0,0,0,.68-6.81c.54-.85,1.07-1.66,1.6-2.44.51.8,1,1.62,1.52,2.49a30.19,30.19,0,0,0,.81,8.49c.14-2.65.19-4.92.12-6.84q-.06-1.41-.21-2.58c.37.5.81,1,1.28,1.55,1.09,1.21,2.43,2.54,4,4a31.42,31.42,0,0,0-4.34-5.31c-.23-1-.42-1.93-.59-2.85.9.2,1.83.42,2.79.68a29.64,29.64,0,0,0,6.67,5.49c-1.8-2-3.38-3.66-4.81-5a22.82,22.82,0,0,0-2-1.67q.93.12,2,.18C1273.26,93.72,1275.12,93.71,1277.26,93.62Z"/><g class="cls-28"><g class="cls-7"><path class="cls-8" d="M1277.26,93.62a32.34,32.34,0,0,0-6.69-.65c-.87-.55-1.7-1.09-2.5-1.64.78-.49,1.6-1,2.45-1.48a30.2,30.2,0,0,0,8.62-.83c-2.69-.15-5-.2-6.93-.12a23.88,23.88,0,0,0-2.56.21c.49-.38,1-.8,1.53-1.27,1.2-1.07,2.51-2.4,4-4a32.58,32.58,0,0,0-5.21,4.28c-1,.24-2,.44-2.91.62.2-.92.43-1.86.69-2.84a29.71,29.71,0,0,0,5.47-6.63c-2,1.8-3.64,3.37-5,4.79-.57.62-1.07,1.2-1.51,1.76.06-.58.08-1.2.09-1.88,0-1.39-.06-3-.2-4.92a32.29,32.29,0,0,0-.53,6.14c-.55.87-1.08,1.69-1.62,2.48-.5-.79-1-1.62-1.51-2.49a30.86,30.86,0,0,0-.64-7.83c-.19,2.41-.32,4.4-.33,6.09a22.53,22.53,0,0,0,.09,2.41c-.33-.43-.71-.88-1.12-1.34-1.09-1.21-2.42-2.52-4-4a32.41,32.41,0,0,0,4.31,5.25c.24,1,.44,2,.61,2.91-.93-.21-1.89-.44-2.89-.71a30.91,30.91,0,0,0-6.5-5.41c1.77,2,3.33,3.6,4.74,4.91.68.62,1.33,1.18,2,1.65-.62-.08-1.28-.14-2-.18a56.26,56.26,0,0,0-5.81,0,31.39,31.39,0,0,0,7,.7c.84.53,1.65,1,2.41,1.58-.81.51-1.66,1-2.55,1.54a31,31,0,0,0-8.41.78c2.64.14,4.9.19,6.81.12.93,0,1.78-.11,2.56-.21-.5.37-1,.81-1.55,1.28-1.24,1.11-2.59,2.48-4.09,4.11a31.56,31.56,0,0,0,5.42-4.42c1-.23,1.92-.42,2.84-.59-.21.91-.44,1.85-.7,2.81a30.27,30.27,0,0,0-5.45,6.6c2-1.79,3.63-3.35,4.94-4.78.63-.68,1.18-1.33,1.66-1.95-.09.62-.15,1.29-.19,2-.09,1.63-.08,3.51,0,5.68a31.17,31.17,0,0,0,.68-6.81c.54-.85,1.07-1.66,1.6-2.44.51.8,1,1.62,1.52,2.49a30.19,30.19,0,0,0,.81,8.49c.14-2.65.19-4.92.12-6.84q-.06-1.41-.21-2.58c.37.5.81,1,1.28,1.55,1.09,1.21,2.43,2.54,4,4a31.42,31.42,0,0,0-4.34-5.31c-.23-1-.42-1.93-.59-2.85.9.2,1.83.42,2.79.68a29.64,29.64,0,0,0,6.67,5.49c-1.8-2-3.38-3.66-4.81-5a22.82,22.82,0,0,0-2-1.67q.93.12,2,.18C1273.26,93.72,1275.12,93.71,1277.26,93.62Z"/></g></g></g><g class="cls-4"><path class="cls-29" d="M1605.26,98.62a32.34,32.34,0,0,0-6.69-.65c-.87-.55-1.7-1.09-2.5-1.64.78-.49,1.6-1,2.45-1.48a30.2,30.2,0,0,0,8.62-.83c-2.69-.15-5-.2-6.93-.12a23.88,23.88,0,0,0-2.56.21c.49-.38,1-.8,1.53-1.27,1.2-1.07,2.51-2.4,4-4a32.58,32.58,0,0,0-5.21,4.28c-1,.24-2,.44-2.91.62.2-.92.43-1.86.69-2.84a29.71,29.71,0,0,0,5.47-6.63c-2,1.8-3.64,3.37-5,4.79-.57.62-1.07,1.2-1.51,1.76.06-.58.08-1.2.09-1.88,0-1.39-.06-3-.2-4.92a32.29,32.29,0,0,0-.53,6.14c-.55.87-1.08,1.69-1.62,2.48-.5-.79-1-1.62-1.51-2.49a30.86,30.86,0,0,0-.64-7.83c-.19,2.41-.32,4.4-.33,6.09a22.53,22.53,0,0,0,.09,2.41c-.33-.43-.71-.88-1.12-1.34-1.09-1.21-2.42-2.52-4-4a32.41,32.41,0,0,0,4.31,5.25c.24,1,.44,2,.61,2.91-.93-.21-1.89-.44-2.89-.71a30.91,30.91,0,0,0-6.5-5.41c1.77,2,3.33,3.6,4.74,4.91.68.62,1.33,1.18,2,1.65-.62-.08-1.28-.14-2-.18a56.26,56.26,0,0,0-5.81,0,31.39,31.39,0,0,0,7,.7c.84.53,1.65,1,2.41,1.58-.81.51-1.66,1-2.55,1.54a31,31,0,0,0-8.41.78c2.64.14,4.9.19,6.81.12.93,0,1.78-.11,2.56-.21-.5.37-1,.81-1.55,1.28-1.24,1.11-2.59,2.48-4.09,4.11a31.56,31.56,0,0,0,5.42-4.42c1-.23,1.92-.42,2.84-.59-.21.91-.44,1.85-.7,2.81a30.27,30.27,0,0,0-5.45,6.6c2-1.79,3.63-3.35,4.94-4.78.63-.68,1.18-1.33,1.66-1.95-.09.62-.15,1.29-.19,2-.09,1.63-.08,3.51,0,5.68a31.17,31.17,0,0,0,.68-6.81c.54-.85,1.07-1.66,1.6-2.44.51.8,1,1.62,1.52,2.49a30.19,30.19,0,0,0,.81,8.49c.14-2.65.19-4.92.12-6.84q-.06-1.41-.21-2.58c.37.5.81,1,1.28,1.55,1.09,1.21,2.43,2.54,4,4a31.42,31.42,0,0,0-4.34-5.31c-.23-1-.42-1.93-.59-2.85.9.2,1.83.42,2.79.68a29.64,29.64,0,0,0,6.67,5.49c-1.8-2-3.38-3.66-4.81-5a22.82,22.82,0,0,0-2-1.67q.93.12,2,.18C1601.26,98.72,1603.12,98.71,1605.26,98.62Z"/><g class="cls-30"><g class="cls-7"><path class="cls-8" d="M1605.26,98.62a32.34,32.34,0,0,0-6.69-.65c-.87-.55-1.7-1.09-2.5-1.64.78-.49,1.6-1,2.45-1.48a30.2,30.2,0,0,0,8.62-.83c-2.69-.15-5-.2-6.93-.12a23.88,23.88,0,0,0-2.56.21c.49-.38,1-.8,1.53-1.27,1.2-1.07,2.51-2.4,4-4a32.58,32.58,0,0,0-5.21,4.28c-1,.24-2,.44-2.91.62.2-.92.43-1.86.69-2.84a29.71,29.71,0,0,0,5.47-6.63c-2,1.8-3.64,3.37-5,4.79-.57.62-1.07,1.2-1.51,1.76.06-.58.08-1.2.09-1.88,0-1.39-.06-3-.2-4.92a32.29,32.29,0,0,0-.53,6.14c-.55.87-1.08,1.69-1.62,2.48-.5-.79-1-1.62-1.51-2.49a30.86,30.86,0,0,0-.64-7.83c-.19,2.41-.32,4.4-.33,6.09a22.53,22.53,0,0,0,.09,2.41c-.33-.43-.71-.88-1.12-1.34-1.09-1.21-2.42-2.52-4-4a32.41,32.41,0,0,0,4.31,5.25c.24,1,.44,2,.61,2.91-.93-.21-1.89-.44-2.89-.71a30.91,30.91,0,0,0-6.5-5.41c1.77,2,3.33,3.6,4.74,4.91.68.62,1.33,1.18,2,1.65-.62-.08-1.28-.14-2-.18a56.26,56.26,0,0,0-5.81,0,31.39,31.39,0,0,0,7,.7c.84.53,1.65,1,2.41,1.58-.81.51-1.66,1-2.55,1.54a31,31,0,0,0-8.41.78c2.64.14,4.9.19,6.81.12.93,0,1.78-.11,2.56-.21-.5.37-1,.81-1.55,1.28-1.24,1.11-2.59,2.48-4.09,4.11a31.56,31.56,0,0,0,5.42-4.42c1-.23,1.92-.42,2.84-.59-.21.91-.44,1.85-.7,2.81a30.27,30.27,0,0,0-5.45,6.6c2-1.79,3.63-3.35,4.94-4.78.63-.68,1.18-1.33,1.66-1.95-.09.62-.15,1.29-.19,2-.09,1.63-.08,3.51,0,5.68a31.17,31.17,0,0,0,.68-6.81c.54-.85,1.07-1.66,1.6-2.44.51.8,1,1.62,1.52,2.49a30.19,30.19,0,0,0,.81,8.49c.14-2.65.19-4.92.12-6.84q-.06-1.41-.21-2.58c.37.5.81,1,1.28,1.55,1.09,1.21,2.43,2.54,4,4a31.42,31.42,0,0,0-4.34-5.31c-.23-1-.42-1.93-.59-2.85.9.2,1.83.42,2.79.68a29.64,29.64,0,0,0,6.67,5.49c-1.8-2-3.38-3.66-4.81-5a22.82,22.82,0,0,0-2-1.67q.93.12,2,.18C1601.26,98.72,1603.12,98.71,1605.26,98.62Z"/></g></g></g><g class="cls-4"><path class="cls-31" d="M146.26,299.62a32.34,32.34,0,0,0-6.69-.65c-.87-.55-1.7-1.09-2.5-1.64.78-.49,1.6-1,2.45-1.48a30.2,30.2,0,0,0,8.62-.83c-2.69-.15-5-.2-6.93-.12a23.88,23.88,0,0,0-2.56.21c.49-.38,1-.8,1.53-1.27,1.2-1.07,2.51-2.4,4-4a32.58,32.58,0,0,0-5.21,4.28c-1,.24-2,.44-2.91.62.2-.92.43-1.86.69-2.84a29.71,29.71,0,0,0,5.47-6.63c-2,1.8-3.64,3.37-4.95,4.79-.57.62-1.07,1.2-1.51,1.76.06-.58.08-1.2.09-1.88,0-1.39-.06-3-.2-4.92a32.29,32.29,0,0,0-.53,6.14c-.55.87-1.08,1.69-1.62,2.48-.5-.79-1-1.62-1.51-2.49a30.86,30.86,0,0,0-.64-7.83c-.19,2.41-.32,4.4-.33,6.09a22.53,22.53,0,0,0,.09,2.41c-.33-.43-.71-.88-1.12-1.34-1.09-1.21-2.42-2.52-4-4a32.41,32.41,0,0,0,4.31,5.25c.24,1,.44,2,.61,2.91-.93-.21-1.89-.44-2.89-.71a30.91,30.91,0,0,0-6.5-5.41c1.77,2,3.33,3.6,4.74,4.91.68.62,1.33,1.18,2,1.65-.62-.08-1.28-.14-2-.18a56.26,56.26,0,0,0-5.81,0,31.39,31.39,0,0,0,7,.7c.84.53,1.65,1.05,2.41,1.58-.81.51-1.66,1-2.55,1.54a31,31,0,0,0-8.41.78c2.64.14,4.9.19,6.81.12.93,0,1.78-.11,2.56-.21-.5.37-1,.81-1.55,1.28-1.24,1.11-2.59,2.48-4.09,4.11a31.56,31.56,0,0,0,5.42-4.42c1-.23,1.92-.42,2.84-.59-.21.91-.44,1.85-.7,2.81a30.27,30.27,0,0,0-5.45,6.6c2-1.79,3.63-3.35,4.94-4.78.63-.68,1.18-1.33,1.66-1.95-.09.62-.15,1.29-.19,2-.09,1.63-.08,3.51,0,5.68a31.17,31.17,0,0,0,.68-6.81c.54-.85,1.07-1.66,1.6-2.44.51.8,1,1.62,1.52,2.49a30.19,30.19,0,0,0,.81,8.49c.14-2.65.19-4.92.12-6.84q-.06-1.41-.21-2.58c.37.5.81,1,1.28,1.55,1.09,1.21,2.43,2.54,4,4a31.42,31.42,0,0,0-4.34-5.31c-.23-1-.42-1.93-.59-2.85.9.2,1.83.42,2.79.68a29.64,29.64,0,0,0,6.67,5.49c-1.8-2-3.38-3.66-4.81-5a22.82,22.82,0,0,0-2-1.67q.93.12,2,.18C142.26,299.72,144.12,299.71,146.26,299.62Z"/><g class="cls-32"><g class="cls-7"><path class="cls-8" d="M146.26,299.62a32.34,32.34,0,0,0-6.69-.65c-.87-.55-1.7-1.09-2.5-1.64.78-.49,1.6-1,2.45-1.48a30.2,30.2,0,0,0,8.62-.83c-2.69-.15-5-.2-6.93-.12a23.88,23.88,0,0,0-2.56.21c.49-.38,1-.8,1.53-1.27,1.2-1.07,2.51-2.4,4-4a32.58,32.58,0,0,0-5.21,4.28c-1,.24-2,.44-2.91.62.2-.92.43-1.86.69-2.84a29.71,29.71,0,0,0,5.47-6.63c-2,1.8-3.64,3.37-4.95,4.79-.57.62-1.07,1.2-1.51,1.76.06-.58.08-1.2.09-1.88,0-1.39-.06-3-.2-4.92a32.29,32.29,0,0,0-.53,6.14c-.55.87-1.08,1.69-1.62,2.48-.5-.79-1-1.62-1.51-2.49a30.86,30.86,0,0,0-.64-7.83c-.19,2.41-.32,4.4-.33,6.09a22.53,22.53,0,0,0,.09,2.41c-.33-.43-.71-.88-1.12-1.34-1.09-1.21-2.42-2.52-4-4a32.41,32.41,0,0,0,4.31,5.25c.24,1,.44,2,.61,2.91-.93-.21-1.89-.44-2.89-.71a30.91,30.91,0,0,0-6.5-5.41c1.77,2,3.33,3.6,4.74,4.91.68.62,1.33,1.18,2,1.65-.62-.08-1.28-.14-2-.18a56.26,56.26,0,0,0-5.81,0,31.39,31.39,0,0,0,7,.7c.84.53,1.65,1.05,2.41,1.58-.81.51-1.66,1-2.55,1.54a31,31,0,0,0-8.41.78c2.64.14,4.9.19,6.81.12.93,0,1.78-.11,2.56-.21-.5.37-1,.81-1.55,1.28-1.24,1.11-2.59,2.48-4.09,4.11a31.56,31.56,0,0,0,5.42-4.42c1-.23,1.92-.42,2.84-.59-.21.91-.44,1.85-.7,2.81a30.27,30.27,0,0,0-5.45,6.6c2-1.79,3.63-3.35,4.94-4.78.63-.68,1.18-1.33,1.66-1.95-.09.62-.15,1.29-.19,2-.09,1.63-.08,3.51,0,5.68a31.17,31.17,0,0,0,.68-6.81c.54-.85,1.07-1.66,1.6-2.44.51.8,1,1.62,1.52,2.49a30.19,30.19,0,0,0,.81,8.49c.14-2.65.19-4.92.12-6.84q-.06-1.41-.21-2.58c.37.5.81,1,1.28,1.55,1.09,1.21,2.43,2.54,4,4a31.42,31.42,0,0,0-4.34-5.31c-.23-1-.42-1.93-.59-2.85.9.2,1.83.42,2.79.68a29.64,29.64,0,0,0,6.67,5.49c-1.8-2-3.38-3.66-4.81-5a22.82,22.82,0,0,0-2-1.67q.93.12,2,.18C142.26,299.72,144.12,299.71,146.26,299.62Z"/></g></g></g><g class="cls-4"><path class="cls-33" d="M558.26,93.62a32.34,32.34,0,0,0-6.69-.65c-.87-.55-1.7-1.09-2.5-1.64.78-.49,1.6-1,2.45-1.48a30.2,30.2,0,0,0,8.62-.83c-2.69-.15-5-.2-6.93-.12a23.88,23.88,0,0,0-2.56.21c.49-.38,1-.8,1.53-1.27,1.2-1.07,2.51-2.4,4-4A32.58,32.58,0,0,0,551,88.14c-1,.24-2,.44-2.91.62.2-.92.43-1.86.69-2.84a29.71,29.71,0,0,0,5.47-6.63c-2,1.8-3.64,3.37-5,4.79-.57.62-1.07,1.2-1.51,1.76.06-.58.08-1.2.09-1.88,0-1.39-.06-3-.2-4.92a32.29,32.29,0,0,0-.53,6.14c-.55.87-1.08,1.69-1.62,2.48-.5-.79-1-1.62-1.51-2.49a30.86,30.86,0,0,0-.64-7.83c-.19,2.41-.32,4.4-.33,6.09a22.53,22.53,0,0,0,.09,2.41c-.33-.43-.71-.88-1.12-1.34-1.09-1.21-2.42-2.52-4-4a32.41,32.41,0,0,0,4.31,5.25c.24,1,.44,2,.61,2.91C542,88.46,541,88.23,540,88a30.91,30.91,0,0,0-6.5-5.41c1.77,2,3.33,3.6,4.74,4.91.68.62,1.33,1.18,1.95,1.65-.62-.08-1.28-.14-2-.18a56.26,56.26,0,0,0-5.81,0,31.39,31.39,0,0,0,7,.7c.84.53,1.65,1,2.41,1.58-.81.51-1.66,1-2.55,1.54a31,31,0,0,0-8.41.78c2.64.14,4.9.19,6.81.12.93,0,1.78-.11,2.56-.21-.5.37-1,.81-1.55,1.28-1.24,1.11-2.59,2.48-4.09,4.11A31.56,31.56,0,0,0,540,94.42c1-.23,1.92-.42,2.84-.59-.21.91-.44,1.85-.7,2.81a30.27,30.27,0,0,0-5.45,6.6c2-1.79,3.63-3.35,4.94-4.78.63-.68,1.18-1.33,1.66-1.95-.09.62-.15,1.29-.19,2-.09,1.63-.08,3.51,0,5.68a31.17,31.17,0,0,0,.68-6.81c.54-.85,1.07-1.66,1.6-2.44.51.8,1,1.62,1.52,2.49a30.19,30.19,0,0,0,.81,8.49c.14-2.65.19-4.92.12-6.84q-.06-1.41-.21-2.58c.37.5.81,1,1.28,1.55,1.09,1.21,2.43,2.54,4,4a31.42,31.42,0,0,0-4.34-5.31c-.23-1-.42-1.93-.59-2.85.9.2,1.83.42,2.79.68a29.64,29.64,0,0,0,6.67,5.49c-1.8-2-3.38-3.66-4.81-5a22.82,22.82,0,0,0-2-1.67q.93.12,2,.18C554.26,93.72,556.12,93.71,558.26,93.62Z"/><g class="cls-34"><g class="cls-7"><path class="cls-8" d="M558.26,93.62a32.34,32.34,0,0,0-6.69-.65c-.87-.55-1.7-1.09-2.5-1.64.78-.49,1.6-1,2.45-1.48a30.2,30.2,0,0,0,8.62-.83c-2.69-.15-5-.2-6.93-.12a23.88,23.88,0,0,0-2.56.21c.49-.38,1-.8,1.53-1.27,1.2-1.07,2.51-2.4,4-4A32.58,32.58,0,0,0,551,88.14c-1,.24-2,.44-2.91.62.2-.92.43-1.86.69-2.84a29.71,29.71,0,0,0,5.47-6.63c-2,1.8-3.64,3.37-5,4.79-.57.62-1.07,1.2-1.51,1.76.06-.58.08-1.2.09-1.88,0-1.39-.06-3-.2-4.92a32.29,32.29,0,0,0-.53,6.14c-.55.87-1.08,1.69-1.62,2.48-.5-.79-1-1.62-1.51-2.49a30.86,30.86,0,0,0-.64-7.83c-.19,2.41-.32,4.4-.33,6.09a22.53,22.53,0,0,0,.09,2.41c-.33-.43-.71-.88-1.12-1.34-1.09-1.21-2.42-2.52-4-4a32.41,32.41,0,0,0,4.31,5.25c.24,1,.44,2,.61,2.91C542,88.46,541,88.23,540,88a30.91,30.91,0,0,0-6.5-5.41c1.77,2,3.33,3.6,4.74,4.91.68.62,1.33,1.18,1.95,1.65-.62-.08-1.28-.14-2-.18a56.26,56.26,0,0,0-5.81,0,31.39,31.39,0,0,0,7,.7c.84.53,1.65,1,2.41,1.58-.81.51-1.66,1-2.55,1.54a31,31,0,0,0-8.41.78c2.64.14,4.9.19,6.81.12.93,0,1.78-.11,2.56-.21-.5.37-1,.81-1.55,1.28-1.24,1.11-2.59,2.48-4.09,4.11A31.56,31.56,0,0,0,540,94.42c1-.23,1.92-.42,2.84-.59-.21.91-.44,1.85-.7,2.81a30.27,30.27,0,0,0-5.45,6.6c2-1.79,3.63-3.35,4.94-4.78.63-.68,1.18-1.33,1.66-1.95-.09.62-.15,1.29-.19,2-.09,1.63-.08,3.51,0,5.68a31.17,31.17,0,0,0,.68-6.81c.54-.85,1.07-1.66,1.6-2.44.51.8,1,1.62,1.52,2.49a30.19,30.19,0,0,0,.81,8.49c.14-2.65.19-4.92.12-6.84q-.06-1.41-.21-2.58c.37.5.81,1,1.28,1.55,1.09,1.21,2.43,2.54,4,4a31.42,31.42,0,0,0-4.34-5.31c-.23-1-.42-1.93-.59-2.85.9.2,1.83.42,2.79.68a29.64,29.64,0,0,0,6.67,5.49c-1.8-2-3.38-3.66-4.81-5a22.82,22.82,0,0,0-2-1.67q.93.12,2,.18C554.26,93.72,556.12,93.71,558.26,93.62Z"/></g></g></g><g class="cls-4"><path class="cls-35" d="M81.26,516.62a32.34,32.34,0,0,0-6.69-.65c-.87-.55-1.7-1.09-2.5-1.64.78-.49,1.6-1,2.45-1.48a30.2,30.2,0,0,0,8.62-.83c-2.69-.15-5-.2-6.93-.12a23.88,23.88,0,0,0-2.56.21c.49-.38,1-.8,1.53-1.27,1.2-1.07,2.51-2.4,4-4A32.58,32.58,0,0,0,74,511.14c-1,.24-2,.44-2.91.62.2-.92.43-1.86.69-2.84a29.71,29.71,0,0,0,5.47-6.63c-2,1.8-3.64,3.37-5,4.79-.57.62-1.07,1.2-1.51,1.76.06-.58.08-1.2.09-1.88,0-1.39-.06-3-.2-4.92a32.29,32.29,0,0,0-.53,6.14c-.55.87-1.08,1.69-1.62,2.48-.5-.79-1-1.62-1.51-2.49a30.86,30.86,0,0,0-.64-7.83c-.19,2.41-.32,4.4-.33,6.09a22.53,22.53,0,0,0,.09,2.41c-.33-.43-.71-.88-1.12-1.34-1.09-1.21-2.42-2.52-4-4a32.41,32.41,0,0,0,4.31,5.25c.24,1,.44,2,.61,2.91C65,511.46,64,511.23,63,511a30.91,30.91,0,0,0-6.5-5.41c1.77,2,3.33,3.6,4.74,4.91.68.62,1.33,1.18,2,1.65-.62-.08-1.28-.14-2-.18a56.26,56.26,0,0,0-5.81,0,31.39,31.39,0,0,0,7,.7c.84.53,1.65,1.05,2.41,1.58-.81.51-1.66,1-2.55,1.54a31,31,0,0,0-8.41.78c2.64.14,4.9.19,6.81.12.93,0,1.78-.11,2.56-.21-.5.37-1,.81-1.55,1.28-1.24,1.11-2.59,2.48-4.09,4.11A31.56,31.56,0,0,0,63,517.42c1-.23,1.92-.42,2.84-.59-.21.91-.44,1.85-.7,2.81a30.27,30.27,0,0,0-5.45,6.6c2-1.79,3.63-3.35,4.94-4.78.63-.68,1.18-1.33,1.66-2-.09.62-.15,1.29-.19,2-.09,1.63-.08,3.51,0,5.68a31.17,31.17,0,0,0,.68-6.81c.54-.85,1.07-1.66,1.6-2.44.51.8,1,1.62,1.52,2.49a30.19,30.19,0,0,0,.81,8.49c.14-2.65.19-4.92.12-6.84q-.06-1.41-.21-2.58c.37.5.81,1,1.28,1.55,1.09,1.21,2.43,2.54,4,4a31.42,31.42,0,0,0-4.34-5.31c-.23-1-.42-1.93-.59-2.85.9.2,1.83.42,2.79.68a29.64,29.64,0,0,0,6.67,5.49c-1.8-2-3.38-3.66-4.81-5a22.82,22.82,0,0,0-2-1.67q.93.12,2,.18C77.26,516.72,79.12,516.71,81.26,516.62Z"/><g class="cls-36"><g class="cls-7"><path class="cls-8" d="M81.26,516.62a32.34,32.34,0,0,0-6.69-.65c-.87-.55-1.7-1.09-2.5-1.64.78-.49,1.6-1,2.45-1.48a30.2,30.2,0,0,0,8.62-.83c-2.69-.15-5-.2-6.93-.12a23.88,23.88,0,0,0-2.56.21c.49-.38,1-.8,1.53-1.27,1.2-1.07,2.51-2.4,4-4A32.58,32.58,0,0,0,74,511.14c-1,.24-2,.44-2.91.62.2-.92.43-1.86.69-2.84a29.71,29.71,0,0,0,5.47-6.63c-2,1.8-3.64,3.37-5,4.79-.57.62-1.07,1.2-1.51,1.76.06-.58.08-1.2.09-1.88,0-1.39-.06-3-.2-4.92a32.29,32.29,0,0,0-.53,6.14c-.55.87-1.08,1.69-1.62,2.48-.5-.79-1-1.62-1.51-2.49a30.86,30.86,0,0,0-.64-7.83c-.19,2.41-.32,4.4-.33,6.09a22.53,22.53,0,0,0,.09,2.41c-.33-.43-.71-.88-1.12-1.34-1.09-1.21-2.42-2.52-4-4a32.41,32.41,0,0,0,4.31,5.25c.24,1,.44,2,.61,2.91C65,511.46,64,511.23,63,511a30.91,30.91,0,0,0-6.5-5.41c1.77,2,3.33,3.6,4.74,4.91.68.62,1.33,1.18,2,1.65-.62-.08-1.28-.14-2-.18a56.26,56.26,0,0,0-5.81,0,31.39,31.39,0,0,0,7,.7c.84.53,1.65,1.05,2.41,1.58-.81.51-1.66,1-2.55,1.54a31,31,0,0,0-8.41.78c2.64.14,4.9.19,6.81.12.93,0,1.78-.11,2.56-.21-.5.37-1,.81-1.55,1.28-1.24,1.11-2.59,2.48-4.09,4.11A31.56,31.56,0,0,0,63,517.42c1-.23,1.92-.42,2.84-.59-.21.91-.44,1.85-.7,2.81a30.27,30.27,0,0,0-5.45,6.6c2-1.79,3.63-3.35,4.94-4.78.63-.68,1.18-1.33,1.66-2-.09.62-.15,1.29-.19,2-.09,1.63-.08,3.51,0,5.68a31.17,31.17,0,0,0,.68-6.81c.54-.85,1.07-1.66,1.6-2.44.51.8,1,1.62,1.52,2.49a30.19,30.19,0,0,0,.81,8.49c.14-2.65.19-4.92.12-6.84q-.06-1.41-.21-2.58c.37.5.81,1,1.28,1.55,1.09,1.21,2.43,2.54,4,4a31.42,31.42,0,0,0-4.34-5.31c-.23-1-.42-1.93-.59-2.85.9.2,1.83.42,2.79.68a29.64,29.64,0,0,0,6.67,5.49c-1.8-2-3.38-3.66-4.81-5a22.82,22.82,0,0,0-2-1.67q.93.12,2,.18C77.26,516.72,79.12,516.71,81.26,516.62Z"/></g></g></g><g class="cls-4"><path class="cls-37" d="M66.26,38.62A32.34,32.34,0,0,0,59.57,38c-.87-.55-1.7-1.09-2.5-1.64.78-.49,1.6-1,2.45-1.48A30.2,30.2,0,0,0,68.14,34c-2.69-.15-5-.2-6.93-.12a23.88,23.88,0,0,0-2.56.21c.49-.38,1-.8,1.53-1.27,1.2-1.07,2.51-2.4,4-4A32.58,32.58,0,0,0,59,33.14c-1,.24-2,.44-2.91.62.2-.92.43-1.86.69-2.84a29.71,29.71,0,0,0,5.47-6.63c-2,1.8-3.64,3.37-5,4.79-.57.62-1.07,1.2-1.51,1.76.06-.58.08-1.2.09-1.88,0-1.39-.06-3-.2-4.92a32.29,32.29,0,0,0-.53,6.14c-.55.87-1.08,1.69-1.62,2.48-.5-.79-1-1.62-1.51-2.49a30.86,30.86,0,0,0-.64-7.83c-.19,2.41-.32,4.4-.33,6.09a22.53,22.53,0,0,0,.09,2.41c-.33-.43-.71-.88-1.12-1.34-1.09-1.21-2.42-2.52-4-4a32.41,32.41,0,0,0,4.31,5.25c.24,1,.44,2,.61,2.91C50,33.46,49,33.23,48,33a30.91,30.91,0,0,0-6.5-5.41c1.77,2,3.33,3.6,4.74,4.91.68.62,1.33,1.18,2,1.65-.62-.08-1.28-.14-2-.18a56.26,56.26,0,0,0-5.81,0,31.39,31.39,0,0,0,7,.7c.84.53,1.65,1,2.41,1.58-.81.51-1.66,1-2.55,1.54a31,31,0,0,0-8.41.78c2.64.14,4.9.19,6.81.12.93,0,1.78-.11,2.56-.21-.5.37-1,.81-1.55,1.28-1.24,1.11-2.59,2.48-4.09,4.11A31.56,31.56,0,0,0,48,39.42c1-.23,1.92-.42,2.84-.59-.21.91-.44,1.85-.7,2.81a30.27,30.27,0,0,0-5.45,6.6c2-1.79,3.63-3.35,4.94-4.78.63-.68,1.18-1.33,1.66-2-.09.62-.15,1.29-.19,2C51,45.15,51,47,51.07,49.2a31.17,31.17,0,0,0,.68-6.81c.54-.85,1.07-1.66,1.6-2.44.51.8,1,1.62,1.52,2.49a30.19,30.19,0,0,0,.81,8.49c.14-2.65.19-4.92.12-6.84q-.06-1.41-.21-2.58c.37.5.81,1,1.28,1.55,1.09,1.21,2.43,2.54,4,4a31.42,31.42,0,0,0-4.34-5.31c-.23-1-.42-1.93-.59-2.85.9.2,1.83.42,2.79.68a29.64,29.64,0,0,0,6.67,5.49c-1.8-2-3.38-3.66-4.81-5a22.82,22.82,0,0,0-2-1.67q.93.12,2,.18C62.26,38.72,64.12,38.71,66.26,38.62Z"/><g class="cls-38"><g class="cls-7"><path class="cls-8" d="M66.26,38.62A32.34,32.34,0,0,0,59.57,38c-.87-.55-1.7-1.09-2.5-1.64.78-.49,1.6-1,2.45-1.48A30.2,30.2,0,0,0,68.14,34c-2.69-.15-5-.2-6.93-.12a23.88,23.88,0,0,0-2.56.21c.49-.38,1-.8,1.53-1.27,1.2-1.07,2.51-2.4,4-4A32.58,32.58,0,0,0,59,33.14c-1,.24-2,.44-2.91.62.2-.92.43-1.86.69-2.84a29.71,29.71,0,0,0,5.47-6.63c-2,1.8-3.64,3.37-5,4.79-.57.62-1.07,1.2-1.51,1.76.06-.58.08-1.2.09-1.88,0-1.39-.06-3-.2-4.92a32.29,32.29,0,0,0-.53,6.14c-.55.87-1.08,1.69-1.62,2.48-.5-.79-1-1.62-1.51-2.49a30.86,30.86,0,0,0-.64-7.83c-.19,2.41-.32,4.4-.33,6.09a22.53,22.53,0,0,0,.09,2.41c-.33-.43-.71-.88-1.12-1.34-1.09-1.21-2.42-2.52-4-4a32.41,32.41,0,0,0,4.31,5.25c.24,1,.44,2,.61,2.91C50,33.46,49,33.23,48,33a30.91,30.91,0,0,0-6.5-5.41c1.77,2,3.33,3.6,4.74,4.91.68.62,1.33,1.18,2,1.65-.62-.08-1.28-.14-2-.18a56.26,56.26,0,0,0-5.81,0,31.39,31.39,0,0,0,7,.7c.84.53,1.65,1,2.41,1.58-.81.51-1.66,1-2.55,1.54a31,31,0,0,0-8.41.78c2.64.14,4.9.19,6.81.12.93,0,1.78-.11,2.56-.21-.5.37-1,.81-1.55,1.28-1.24,1.11-2.59,2.48-4.09,4.11A31.56,31.56,0,0,0,48,39.42c1-.23,1.92-.42,2.84-.59-.21.91-.44,1.85-.7,2.81a30.27,30.27,0,0,0-5.45,6.6c2-1.79,3.63-3.35,4.94-4.78.63-.68,1.18-1.33,1.66-2-.09.62-.15,1.29-.19,2C51,45.15,51,47,51.07,49.2a31.17,31.17,0,0,0,.68-6.81c.54-.85,1.07-1.66,1.6-2.44.51.8,1,1.62,1.52,2.49a30.19,30.19,0,0,0,.81,8.49c.14-2.65.19-4.92.12-6.84q-.06-1.41-.21-2.58c.37.5.81,1,1.28,1.55,1.09,1.21,2.43,2.54,4,4a31.42,31.42,0,0,0-4.34-5.31c-.23-1-.42-1.93-.59-2.85.9.2,1.83.42,2.79.68a29.64,29.64,0,0,0,6.67,5.49c-1.8-2-3.38-3.66-4.81-5a22.82,22.82,0,0,0-2-1.67q.93.12,2,.18C62.26,38.72,64.12,38.71,66.26,38.62Z"/></g></g></g><g class="cls-4"><path class="cls-39" d="M1634.26,308.62a32.34,32.34,0,0,0-6.69-.65c-.87-.55-1.7-1.09-2.5-1.64.78-.49,1.6-1,2.45-1.48a30.2,30.2,0,0,0,8.62-.83c-2.69-.15-5-.2-6.93-.12a23.88,23.88,0,0,0-2.56.21c.49-.38,1-.8,1.53-1.27,1.2-1.07,2.51-2.4,4-4a32.58,32.58,0,0,0-5.21,4.28c-1,.24-2,.44-2.91.62.2-.92.43-1.86.69-2.84a29.71,29.71,0,0,0,5.47-6.63c-2,1.8-3.64,3.37-5,4.79-.57.62-1.07,1.2-1.51,1.76.06-.58.08-1.2.09-1.88,0-1.39-.06-3-.2-4.92a32.29,32.29,0,0,0-.53,6.14c-.55.87-1.08,1.69-1.62,2.48-.5-.79-1-1.62-1.51-2.49a30.86,30.86,0,0,0-.64-7.83c-.19,2.41-.32,4.4-.33,6.09a22.53,22.53,0,0,0,.09,2.41c-.33-.43-.71-.88-1.12-1.34-1.09-1.21-2.42-2.52-4-4a32.41,32.41,0,0,0,4.31,5.25c.24,1,.44,2,.61,2.91-.93-.21-1.89-.44-2.89-.71a30.91,30.91,0,0,0-6.5-5.41c1.77,2,3.33,3.6,4.74,4.91.68.62,1.33,1.18,2,1.65-.62-.08-1.28-.14-2-.18a56.26,56.26,0,0,0-5.81,0,31.39,31.39,0,0,0,7,.7c.84.53,1.65,1.05,2.41,1.58-.81.51-1.66,1-2.55,1.54a31,31,0,0,0-8.41.78c2.64.14,4.9.19,6.81.12.93,0,1.78-.11,2.56-.21-.5.37-1,.81-1.55,1.28-1.24,1.11-2.59,2.48-4.09,4.11a31.56,31.56,0,0,0,5.42-4.42c1-.23,1.92-.42,2.84-.59-.21.91-.44,1.85-.7,2.81a30.27,30.27,0,0,0-5.45,6.6c2-1.79,3.63-3.35,4.94-4.78.63-.68,1.18-1.33,1.66-1.95-.09.62-.15,1.29-.19,2-.09,1.63-.08,3.51,0,5.68a31.17,31.17,0,0,0,.68-6.81c.54-.85,1.07-1.66,1.6-2.44.51.8,1,1.62,1.52,2.49a30.19,30.19,0,0,0,.81,8.49c.14-2.65.19-4.92.12-6.84q-.06-1.41-.21-2.58c.37.5.81,1,1.28,1.55,1.09,1.21,2.43,2.54,4,4a31.42,31.42,0,0,0-4.34-5.31c-.23-1-.42-1.93-.59-2.85.9.2,1.83.42,2.79.68a29.64,29.64,0,0,0,6.67,5.49c-1.8-2-3.38-3.66-4.81-5a22.82,22.82,0,0,0-2-1.67q.93.12,2,.18C1630.26,308.72,1632.12,308.71,1634.26,308.62Z"/><g class="cls-40"><g class="cls-7"><path class="cls-8" d="M1634.26,308.62a32.34,32.34,0,0,0-6.69-.65c-.87-.55-1.7-1.09-2.5-1.64.78-.49,1.6-1,2.45-1.48a30.2,30.2,0,0,0,8.62-.83c-2.69-.15-5-.2-6.93-.12a23.88,23.88,0,0,0-2.56.21c.49-.38,1-.8,1.53-1.27,1.2-1.07,2.51-2.4,4-4a32.58,32.58,0,0,0-5.21,4.28c-1,.24-2,.44-2.91.62.2-.92.43-1.86.69-2.84a29.71,29.71,0,0,0,5.47-6.63c-2,1.8-3.64,3.37-5,4.79-.57.62-1.07,1.2-1.51,1.76.06-.58.08-1.2.09-1.88,0-1.39-.06-3-.2-4.92a32.29,32.29,0,0,0-.53,6.14c-.55.87-1.08,1.69-1.62,2.48-.5-.79-1-1.62-1.51-2.49a30.86,30.86,0,0,0-.64-7.83c-.19,2.41-.32,4.4-.33,6.09a22.53,22.53,0,0,0,.09,2.41c-.33-.43-.71-.88-1.12-1.34-1.09-1.21-2.42-2.52-4-4a32.41,32.41,0,0,0,4.31,5.25c.24,1,.44,2,.61,2.91-.93-.21-1.89-.44-2.89-.71a30.91,30.91,0,0,0-6.5-5.41c1.77,2,3.33,3.6,4.74,4.91.68.62,1.33,1.18,2,1.65-.62-.08-1.28-.14-2-.18a56.26,56.26,0,0,0-5.81,0,31.39,31.39,0,0,0,7,.7c.84.53,1.65,1.05,2.41,1.58-.81.51-1.66,1-2.55,1.54a31,31,0,0,0-8.41.78c2.64.14,4.9.19,6.81.12.93,0,1.78-.11,2.56-.21-.5.37-1,.81-1.55,1.28-1.24,1.11-2.59,2.48-4.09,4.11a31.56,31.56,0,0,0,5.42-4.42c1-.23,1.92-.42,2.84-.59-.21.91-.44,1.85-.7,2.81a30.27,30.27,0,0,0-5.45,6.6c2-1.79,3.63-3.35,4.94-4.78.63-.68,1.18-1.33,1.66-1.95-.09.62-.15,1.29-.19,2-.09,1.63-.08,3.51,0,5.68a31.17,31.17,0,0,0,.68-6.81c.54-.85,1.07-1.66,1.6-2.44.51.8,1,1.62,1.52,2.49a30.19,30.19,0,0,0,.81,8.49c.14-2.65.19-4.92.12-6.84q-.06-1.41-.21-2.58c.37.5.81,1,1.28,1.55,1.09,1.21,2.43,2.54,4,4a31.42,31.42,0,0,0-4.34-5.31c-.23-1-.42-1.93-.59-2.85.9.2,1.83.42,2.79.68a29.64,29.64,0,0,0,6.67,5.49c-1.8-2-3.38-3.66-4.81-5a22.82,22.82,0,0,0-2-1.67q.93.12,2,.18C1630.26,308.72,1632.12,308.71,1634.26,308.62Z"/></g></g></g><image class="cls-2" width="249" height="364" transform="translate(1605 20)" xlink:href="Startskærm 219.png"/><path class="cls-41" d="M1696.2,36.15s95.48,43.38,62.7,177.06-137.54,128.11-137.54,128.11c84.18,20.64,169.18-30.93,189.85-115.2S1780.38,56.8,1696.2,36.15Z"/><g class="cls-42"><g class="cls-43"><path class="cls-8" d="M1696.2,36.15s95.48,43.38,62.7,177.06-137.54,128.11-137.54,128.11c84.18,20.64,169.18-30.93,189.85-115.2S1780.38,56.8,1696.2,36.15Z"/></g></g><path class="cls-44" d="M0,643S333,348,568,524s579,203,643,193,459-270,709-165v512H0"/><path class="cls-45" d="M-1,678S332,399.84,567,565.8s579,191.42,643,182,459-254.59,709-155.58V1075H-1"/><image class="cls-7" width="365" height="81" transform="translate(971 665)" xlink:href="Startskærm 221.png"/><path class="cls-8" d="M987,682.52a16.5,16.5,0,0,0,4.86,9.44,36.06,36.06,0,0,0,8.58,6.53,100.2,100.2,0,0,0,20.3,8.46,201.28,201.28,0,0,0,21.56,5.47c7.29,1.44,14.62,2.78,22,3.79,14.79,2,29.65,3.57,44.59,4.28q22.38,1.41,44.85,1.14c15,0,29.93-.55,44.84-1.63,14.93-.89,29.78-2.66,44.54-4.8,7.38-1.09,14.69-2.52,22-4a203.6,203.6,0,0,0,21.5-5.72,100.45,100.45,0,0,0,20.2-8.7,36,36,0,0,0,8.5-6.63,16.5,16.5,0,0,0,4.74-9.51h.87a17.86,17.86,0,0,1-4,10.72,37.8,37.8,0,0,1-8.38,7.84,98.81,98.81,0,0,1-20.23,10.55c-14.16,5.61-29,9.29-43.87,12.21-29.85,5.73-60.26,8.1-90.62,8.42-30.36,0-60.79-2-90.7-7.37-14.93-2.76-29.79-6.27-44-11.71a98.57,98.57,0,0,1-20.35-10.32,37.76,37.76,0,0,1-8.47-7.74,17.88,17.88,0,0,1-4.14-10.68Z"/><image class="cls-7" width="75" height="40" transform="translate(1115 318)" xlink:href="Startskærm 222.png"/><path class="cls-8" d="M1131.62,335.61a2.17,2.17,0,0,0,.67.33,2.48,2.48,0,0,0,.66.05,5.66,5.66,0,0,0,.61,0l.66-.08c.9-.16,1.72-.28,2.63-.46,1.77-.32,3.53-.62,5.28-.87a76.79,76.79,0,0,1,10.46-.76,78.72,78.72,0,0,1,10.47.66c1.75.23,3.52.51,5.28.81.92.16,1.74.27,2.65.42l.65.07a6,6,0,0,0,.62,0,2.46,2.46,0,0,0,.65-.06,2.19,2.19,0,0,0,.66-.34h.87a3.64,3.64,0,0,1-1.7,2.77,12.71,12.71,0,0,1-2.66,1.49,32.37,32.37,0,0,1-5.71,1.67,67.06,67.06,0,0,1-11.73,1.21,66.28,66.28,0,0,1-11.75-1.08,32.54,32.54,0,0,1-5.73-1.59,13.5,13.5,0,0,1-2.68-1.47,3.67,3.67,0,0,1-1.73-2.75Z"/><image class="cls-7" width="312" height="110" transform="translate(995 575)" xlink:href="Startskærm 223.png"/><path class="cls-8" d="M1011.58,647.91a13.91,13.91,0,0,0,5.73,6.94,30.92,30.92,0,0,0,8.28,3.88,86.12,86.12,0,0,0,18.37,3.43,170.33,170.33,0,0,0,18.92.79c6.34-.06,12.68-.2,19-.64,12.68-.92,25.36-2.07,38-4q18.93-2.61,37.67-6.59c12.52-2.47,24.93-5.43,37.22-8.79,12.35-3.18,24.47-7.11,36.48-11.26,6-2.11,11.88-4.49,17.73-6.92a170.56,170.56,0,0,0,17.07-8.2,85.45,85.45,0,0,0,15.53-10.41,30.72,30.72,0,0,0,6.07-6.83,14,14,0,0,0,2.53-8.65l.85-.17a15.36,15.36,0,0,1-1.57,9.7,32.33,32.33,0,0,1-5.72,8,83.85,83.85,0,0,1-15.19,12.24c-10.93,7.08-22.73,12.64-34.72,17.59-24.06,9.81-49.14,16.89-74.52,22.25-25.44,5.1-51.28,8.48-77.26,9-13,.18-26-.28-38.84-2.47a83.72,83.72,0,0,1-18.79-5.25,32.71,32.71,0,0,1-8.41-5.08,15.44,15.44,0,0,1-5.27-8.29Z"/><image class="cls-7" width="135" height="59" transform="translate(1088 373)" xlink:href="Startskærm 224.png"/><path class="cls-8" d="M1104,388.3a4.93,4.93,0,0,0,1.58,2.68,11.57,11.57,0,0,0,2.53,1.84,35.58,35.58,0,0,0,6,2.67,64.24,64.24,0,0,0,6.42,2.1c2.18.61,4.37,1.22,6.58,1.78,8.82,2.27,17.78,4.12,26.77,5.87s18,3.29,27.05,4.45a121.59,121.59,0,0,0,13.51,1.18,35.84,35.84,0,0,0,6.58-.27,11.43,11.43,0,0,0,3-.78,5,5,0,0,0,2.46-1.91l.85.16a6,6,0,0,1-2,3.27,12.16,12.16,0,0,1-3.14,2,31.39,31.39,0,0,1-7,2.15,78.22,78.22,0,0,1-14.4,1.15,161.19,161.19,0,0,1-56.33-10.77,78.75,78.75,0,0,1-13-6.39,31.43,31.43,0,0,1-5.69-4.57,12,12,0,0,1-2.17-3,5.93,5.93,0,0,1-.62-3.76Z"/><image class="cls-7" width="198" height="72" transform="translate(1048 437)" xlink:href="Startskærm 225.png"/><path class="cls-8" d="M1064.73,479a8.19,8.19,0,0,0,3.45,3.8,18,18,0,0,0,4.78,2,52.28,52.28,0,0,0,10.61,1.78,102.54,102.54,0,0,0,11,.44c3.68-.05,7.36-.05,11-.27,14.76-.83,29.51-2.58,44.17-4.89a440.72,440.72,0,0,0,43.51-9.07c3.58-.94,7.07-2.09,10.59-3.19a106.34,106.34,0,0,0,10.29-3.82,53,53,0,0,0,9.53-5,17.66,17.66,0,0,0,3.9-3.43,8.12,8.12,0,0,0,2.09-4.68l.86-.14a9.24,9.24,0,0,1-1.16,5.79,18.86,18.86,0,0,1-3.59,4.62,49.66,49.66,0,0,1-9.26,6.9,124.93,124.93,0,0,1-20.93,9.47,261.66,261.66,0,0,1-90.18,14.39,125.32,125.32,0,0,1-22.83-2.49,50,50,0,0,1-11-3.68,19.41,19.41,0,0,1-4.84-3.28,9.22,9.22,0,0,1-2.91-5.14Z"/><image class="cls-7" width="246" height="81" transform="translate(1033 508)" xlink:href="Startskærm 226.png"/><path class="cls-8" d="M1049.12,523.51a10.38,10.38,0,0,0,2.55,6.24,23,23,0,0,0,5,4.66,66.64,66.64,0,0,0,12.34,6.76,131,131,0,0,0,13.36,5.12c4.56,1.47,9.12,3,13.77,4.19,9.31,2.41,18.64,4.8,28.14,6.53,9.44,1.94,19,3.58,28.54,4.85,9.54,1.48,19.15,2.54,28.75,3.35,9.61,1,19.24,1.33,28.85,1.61,4.81.11,9.6,0,14.39-.17a132.43,132.43,0,0,0,14.26-1.17,66.14,66.14,0,0,0,13.74-3.05,23.26,23.26,0,0,0,6.12-3.07,10.42,10.42,0,0,0,4.19-5.29l.86.12a11.81,11.81,0,0,1-3.65,6.61,24.59,24.59,0,0,1-6.17,4.27,63.94,63.94,0,0,1-14.05,4.88,162.75,162.75,0,0,1-29.4,3.71A336.19,336.19,0,0,1,1094,557a161.73,161.73,0,0,1-27.2-11.78,63.88,63.88,0,0,1-12.12-8.63,24.89,24.89,0,0,1-4.73-5.82,11.84,11.84,0,0,1-1.65-7.37Z"/><path class="cls-8" d="M1239.59,552.32c-10.91-24.23-7.52-24.34-16.94.52,9.42-24.86,11.89-22.53-12.34-11.62,24.23-10.91,24.33-7.53-.52-16.94,24.85,9.41,22.53,11.88,11.61-12.35,10.92,24.23,7.53,24.34,16.94-.51-9.41,24.85-11.88,22.52,12.35,11.61-24.23,10.91-24.33,7.53.52,16.94C1226.36,530.56,1228.68,528.09,1239.59,552.32Z"/><path class="cls-8" d="M1241.79,542.75C1228.24,530,1230.4,529,1231,547.62c-.57-18.59,1.65-17.75-11.09-4.2,12.74-13.55,13.72-11.39-4.88-10.82,18.6-.57,17.76,1.65,4.21-11.1,13.55,12.75,11.38,13.72,10.81-4.87.57,18.59-1.65,17.75,11.1,4.2-12.75,13.55-13.72,11.39,4.87,10.82C1227.4,532.22,1228.24,530,1241.79,542.75Z"/><circle class="cls-46" cx="1230.5" cy="532.13" r="17.24"/><circle class="cls-47" cx="1039.13" cy="610.35" r="18.87"/><circle class="cls-48" cx="1120.9" cy="692.64" r="18.87"/><circle class="cls-49" cx="1042.61" cy="711.96" r="18.87"/><circle class="cls-50" cx="1175.48" cy="590.7" r="18.87"/><circle class="cls-51" cx="1137.38" cy="528.49" r="18.87"/><circle class="cls-52" cx="1187.27" cy="368.5" r="18.87"/><circle class="cls-53" cx="1103.41" cy="428.51" r="18.87"/><circle class="cls-54" cx="1206.69" cy="462.76" r="18.87"/><circle class="cls-55" cx="1264.49" cy="668.58" r="18.87"/><path class="cls-8" d="M1051,578.08c-10.92-24.23-7.53-24.33-17,.52,9.42-24.85,11.89-22.53-12.34-11.61,24.23-10.92,24.33-7.53-.52-16.94,24.85,9.41,22.53,11.88,11.61-12.35,10.92,24.23,7.53,24.33,16.94-.52-9.41,24.85-11.88,22.53,12.35,11.61-24.23,10.92-24.33,7.53.52,17C1037.77,556.32,1040.09,553.85,1051,578.08Z"/><path class="cls-8" d="M1053.2,568.51c-13.55-12.74-11.39-13.72-10.82,4.88-.57-18.6,1.65-17.76-11.09-4.21,12.74-13.55,13.72-11.38-4.88-10.82,18.6-.56,17.76,1.65,4.21-11.09C1044.17,560,1042,561,1041.43,542.4c.57,18.59-1.65,17.75,11.1,4.2-12.75,13.55-13.72,11.39,4.87,10.82C1038.81,558,1039.65,555.77,1053.2,568.51Z"/><circle class="cls-56" cx="1041.91" cy="557.89" r="17.24"/><path class="cls-8" d="M1310,676.77c-10.92-24.23-7.53-24.33-16.94.52,9.41-24.85,11.88-22.53-12.35-11.62,24.23-10.91,24.33-7.52-.52-16.94,24.85,9.42,22.53,11.89,11.61-12.34,10.92,24.23,7.53,24.33,16.94-.52-9.41,24.85-11.88,22.53,12.35,11.61-24.23,10.92-24.33,7.53.52,16.94C1296.76,655,1299.08,652.54,1310,676.77Z"/><path class="cls-8" d="M1312.19,667.2c-13.55-12.75-11.38-13.72-10.82,4.87-.56-18.59,1.65-17.75-11.09-4.2,12.74-13.55,13.72-11.39-4.88-10.82,18.6-.57,17.76,1.65,4.21-11.09,13.55,12.74,11.38,13.72,10.82-4.88.56,18.6-1.65,17.76,11.09,4.2-12.74,13.56-13.72,11.39,4.88,10.82C1297.8,656.67,1298.64,654.45,1312.19,667.2Z"/><circle class="cls-57" cx="1300.9" cy="656.58" r="17.24"/><path class="cls-8" d="M1204.28,722.38c-10.92-24.23-7.53-24.33-17,.52,9.42-24.85,11.89-22.53-12.34-11.61,24.23-10.92,24.33-7.53-.52-16.94,24.85,9.41,22.53,11.88,11.61-12.35,10.92,24.23,7.53,24.33,16.94-.52-9.41,24.85-11.88,22.53,12.35,11.61-24.23,10.92-24.33,7.53.52,16.95C1191,700.62,1193.36,698.15,1204.28,722.38Z"/><path class="cls-8" d="M1206.47,712.81c-13.55-12.74-11.39-13.72-10.82,4.88-.57-18.6,1.65-17.76-11.09-4.21,12.74-13.55,13.72-11.38-4.88-10.81,18.6-.57,17.76,1.65,4.21-11.1,13.55,12.75,11.38,13.72,10.82-4.87.56,18.59-1.65,17.75,11.09,4.2-12.74,13.55-13.72,11.39,4.87,10.82C1192.08,702.29,1192.92,700.07,1206.47,712.81Z"/><circle class="cls-58" cx="1195.18" cy="702.19" r="17.24"/><path class="cls-8" d="M1235.68,629.29c-10.92-24.23-7.53-24.34-16.94.51,9.41-24.85,11.88-22.53-12.35-11.61,24.23-10.92,24.34-7.53-.52-16.94,24.86,9.41,22.53,11.88,11.62-12.35,10.91,24.23,7.53,24.34,16.94-.52-9.41,24.86-11.88,22.53,12.35,11.62-24.23,10.91-24.34,7.53.51,16.94C1222.44,607.53,1224.76,605.06,1235.68,629.29Z"/><path class="cls-8" d="M1237.88,619.72c-13.55-12.75-11.39-13.72-10.82,4.87-.57-18.59,1.65-17.75-11.1-4.2,12.75-13.55,13.72-11.39-4.87-10.82,18.59-.57,17.75,1.65,4.2-11.1,13.55,12.75,11.39,13.72,10.82-4.87.57,18.59-1.65,17.75,11.1,4.2-12.75,13.55-13.72,11.39,4.87,10.82C1223.49,609.19,1224.33,607,1237.88,619.72Z"/><circle class="cls-59" cx="1226.58" cy="609.09" r="17.24"/><path class="cls-8" d="M1128.2,621.19c-10.92-24.23-7.53-24.33-16.94.52,9.41-24.85,11.88-22.53-12.35-11.61,24.23-10.92,24.34-7.53-.52-16.94,24.86,9.41,22.53,11.88,11.62-12.35,10.91,24.23,7.52,24.33,16.94-.52-9.42,24.85-11.89,22.53,12.34,11.61-24.23,10.92-24.33,7.53.52,17C1115,599.43,1117.28,597,1128.2,621.19Z"/><path class="cls-8" d="M1130.4,611.62c-13.56-12.74-11.39-13.72-10.82,4.88-.57-18.6,1.65-17.76-11.1-4.21,12.75-13.55,13.72-11.38-4.87-10.81,18.59-.57,17.75,1.65,4.2-11.1,13.55,12.75,11.39,13.72,10.82-4.87.57,18.59-1.65,17.75,11.09,4.2-12.74,13.55-13.72,11.39,4.88,10.82C1116,601.1,1116.84,598.88,1130.4,611.62Z"/><circle class="cls-60" cx="1119.1" cy="601" r="17.24"/><path class="cls-8" d="M1150.55,468.62c-10.91-24.23-7.53-24.33-16.94.52,9.41-24.85,11.88-22.53-12.35-11.61,24.23-10.92,24.34-7.53-.51-16.94,24.85,9.41,22.52,11.88,11.61-12.35,10.91,24.23,7.53,24.33,16.94-.52-9.41,24.85-11.88,22.53,12.35,11.61-24.23,10.92-24.34,7.53.52,16.95C1137.31,446.86,1139.64,444.39,1150.55,468.62Z"/><path class="cls-8" d="M1152.75,459.05c-13.55-12.74-11.39-13.72-10.82,4.88-.57-18.6,1.65-17.76-11.1-4.21,12.75-13.55,13.72-11.38-4.87-10.81,18.59-.57,17.75,1.65,4.2-11.1,13.55,12.75,11.39,13.72,10.82-4.87.57,18.59-1.65,17.75,11.1,4.2-12.75,13.55-13.72,11.39,4.87,10.82C1138.36,448.53,1139.2,446.31,1152.75,459.05Z"/><circle class="cls-61" cx="1141.46" cy="448.43" r="17.24"/><path class="cls-8" d="M1145.78,396.06c-10.92-24.23-7.53-24.33-16.94.52,9.41-24.85,11.88-22.53-12.35-11.61,24.23-10.92,24.33-7.53-.52-17,24.85,9.42,22.53,11.89,11.62-12.34,10.91,24.23,7.52,24.33,16.94-.52-9.42,24.85-11.89,22.53,12.34,11.61-24.23,10.92-24.33,7.53.52,16.94C1132.54,374.3,1134.86,371.83,1145.78,396.06Z"/><path class="cls-8" d="M1148,386.49c-13.55-12.75-11.38-13.72-10.81,4.87-.57-18.59,1.65-17.75-11.1-4.2,12.75-13.55,13.72-11.39-4.87-10.82,18.59-.57,17.75,1.65,4.2-11.09,13.55,12.74,11.39,13.72,10.82-4.88.57,18.6-1.65,17.76,11.09,4.21-12.74,13.55-13.72,11.38,4.88,10.81C1133.58,376,1134.42,373.74,1148,386.49Z"/><circle class="cls-62" cx="1136.68" cy="375.87" r="17.24"/><polygon class="cls-63" points="1171.46 322.62 1156.2 304.67 1147.13 326.41 1143.99 303.06 1124.6 316.44 1134.59 295.1 1111.04 295.88 1130.98 283.33 1110.74 271.25 1134.31 271.47 1123.82 250.37 1143.52 263.3 1146.1 239.88 1155.69 261.4 1170.52 243.09 1166.95 266.38 1189.33 259 1173.73 276.66 1196.55 282.55 1173.88 288.98 1189.89 306.26 1167.34 299.42 1171.46 322.62"/><image class="cls-2" width="1974" height="1134" transform="translate(-16 -1125)" xlink:href="Startskærm 227.png"/></g></g></svg>
