<svg xmlns="http://www.w3.org/2000/svg" width="195" height="215" viewBox="0 0 195 215"><defs><style>.cls-1{fill:#ffb600;}</style></defs><title>pil gul</title><g id="Layer_2" data-name="Layer 2"><path class="cls-1" d="M194.84,97.49h-12A85.43,85.43,0,1,0,12,97.49H0a97.42,97.42,0,1,1,194.84,0Z"/><path class="cls-1" d="M48.4,167.06l-.58-.41A85.43,85.43,0,0,1,12.15,97.21H.16a97.46,97.46,0,0,0,42.54,80.5C44.64,174.18,46.69,170.7,48.4,167.06Z"/><path class="cls-1" d="M183,97.21a85.56,85.56,0,0,1-85,85.48c.16,4,0,8-.07,12A97.56,97.56,0,0,0,195,97.21Z"/><polygon class="cls-1" points="77.03 184.36 130.06 153.72 130.06 215 77.03 184.36"/></g></svg>