<svg xmlns="http://www.w3.org/2000/svg" width="190" height="190" viewBox="0 0 190 190"><defs><style>.cls-1{fill:#2b307e;}.cls-2{fill:#41d7c7;}</style></defs><title>Play</title><g id="Layer_5" data-name="Layer 5"><circle class="cls-1" cx="95" cy="96.04" r="70.38"/><path class="cls-2" d="M80.66,124.87c-3.3,1.92-6,.37-6-3.44l-.24-51.49c0-3.82,2.68-5.39,6-3.5L125.1,92c3.31,1.89,3.32,5,0,6.93Z"/><path class="cls-2" d="M78,125.81a3.17,3.17,0,0,1-1.62-.41c-1.18-.67-1.83-2.08-1.84-4l-.24-51.49c0-1.89.63-3.31,1.8-4s2.72-.55,4.36.39l44.71,25.54c1.64.93,2.55,2.2,2.56,3.55s-.89,2.63-2.52,3.58L80.72,125A5.57,5.57,0,0,1,78,125.81Zm-.25-60.06a2.94,2.94,0,0,0-1.53.4c-1.1.64-1.7,2-1.69,3.79l.24,51.49c0,1.8.62,3.14,1.72,3.77s2.57.48,4.13-.43l.06.1-.06-.1,44.47-26c1.56-.9,2.41-2.1,2.41-3.38S126.6,93,125,92.08L80.33,66.54A5.41,5.41,0,0,0,77.73,65.75Z"/><path class="cls-1" d="M95,190A95,95,0,0,1,27.82,27.82,95,95,0,0,1,162.18,162.18,94.4,94.4,0,0,1,95,190ZM95,11.18A83.82,83.82,0,0,0,35.73,154.27,83.82,83.82,0,0,0,154.27,35.73,83.27,83.27,0,0,0,95,11.18Z"/></g></svg>
