<svg xmlns="http://www.w3.org/2000/svg" width="160" height="207.5" viewBox="0 0 160 207.5"><defs><style>.cls-1{fill:none;stroke:#bf000f;stroke-miterlimit:10;stroke-width:15px;}.cls-2{fill:#bf000f;}.cls-3{fill:#f9f9f9;}</style></defs><title>Opnået gaver</title><g id="Layer_2" data-name="Layer 2"><path class="cls-1" d="M100.35,11.92c-7.61,7-21.93,26.94-18.53,35.65s23.24,2.86,30.85-4.1,11-19.68,7.62-28.39S108,5,100.35,11.92Z"/><path class="cls-1" d="M61.8,11.93c7.61,7,21.94,26.93,18.54,35.64S57.1,50.44,49.49,43.48s-11-19.67-7.63-28.39S54.19,5,61.8,11.93Z"/><rect class="cls-2" x="10.9" y="95.55" width="138.23" height="111.94"/><rect class="cls-2" y="57.15" width="159.99" height="38.23"/><path class="cls-3" d="M39.6,148.77l9.51-.61c3.49-.22,6.84-.45,10-.67s6-.45,8.48-.68,4-.38,4.75-.47v4c0,1.57,0,3.21.07,4.92s.07,3.33.07,4.86v3.77H22.38c-.09-.9-.23-2.74-.41-5.53q-.55-9,1.44-15a32.8,32.8,0,0,1,5.17-10,32.12,32.12,0,0,1,7-6.68q3.8-2.62,6.82-4.92,2.07-1.62,4.62-3.85A34.1,34.1,0,0,0,51.51,113a13.71,13.71,0,0,0,2.62-5,4.52,4.52,0,0,0-1.31-4.45,3,3,0,0,0-3.65-.67,10.62,10.62,0,0,0-3.86,3.51,25.36,25.36,0,0,0-3.17,6.13,26.67,26.67,0,0,0-1.58,7.08c-1.38-.81-2.89-1.75-4.55-2.83s-3.26-2.13-4.82-3.17l-4.48-3c-1.42-1-2.59-1.73-3.51-2.36A29,29,0,0,1,26,100.63a39.68,39.68,0,0,1,5.78-8.56,34.66,34.66,0,0,1,8.47-7,21.1,21.1,0,0,1,11-2.9A23.91,23.91,0,0,1,61.29,83.9a20.93,20.93,0,0,1,7.17,5A22.2,22.2,0,0,1,72.8,96a24,24,0,0,1,1.58,8.16,25.43,25.43,0,0,1-1.24,8.29,22.22,22.22,0,0,1-3.92,7.35,41.77,41.77,0,0,1-8.4,7.89q-4.69,3.32-9.1,6.48a62.51,62.51,0,0,0-7.78,6.54A15.62,15.62,0,0,0,39.6,148.77Z"/><path class="cls-3" d="M133.28,124.08c0,.63,0,2-.07,4.18s-.11,4.52-.2,7.08-.16,5-.21,7.35a45.82,45.82,0,0,0,.07,4.72c-.46,0-1.77,0-3.92.07s-4.85.11-8.06.2q-.28,4.86-.55,9.1t-.42,7.08H107.25q0-2-.21-6.27c-.14-2.84-.3-6-.48-9.65-2.85,0-5.65,0-8.41.07l-7.5.14-5.65.13c-1.52.05-2.51.07-3,.07.08-1.53,0-3.91-.14-7.15s-.4-6.94-.63-11.12-.5-8.61-.82-13.28-.62-9.22-.9-13.62-.53-8.45-.76-12.14-.35-6.65-.35-8.9h23.43c-.1,1.35-.21,3.68-.35,7s-.27,7.15-.41,11.46-.3,8.88-.48,13.69-.37,9.33-.55,13.55a19.79,19.79,0,0,1,2.69-.34,21.87,21.87,0,0,0,2.82-.33c-.09-2.88-.18-5.55-.28-8s-.13-4.65-.13-6.54q3.57,0,8.19.2l9.72.47c-.1,1.08-.19,2.66-.28,4.72s-.23,4.45-.41,7.15c2.75-.36,5.12-.63,7.09-.81S132.73,124.08,133.28,124.08Z"/></g></svg>
