<svg xmlns="http://www.w3.org/2000/svg" width="170" height="170" viewBox="0 0 170 170"><defs><style>.cls-1{fill:#fcaee0;}</style></defs><title>Setting sign</title><g id="Layer_4" data-name="Layer 4"><path class="cls-1" d="M170,95.66V74.33l-25.2-8a62.25,62.25,0,0,0-4.28-10.59l12.13-23.34L137.56,17.35l-23,12a62.3,62.3,0,0,0-11-4.62L95.66,0H74.34L66.52,24.71a62.3,62.3,0,0,0-11,4.62l-23.05-12L17.35,32.44,29.48,55.78a62.07,62.07,0,0,0-4.26,10.58L0,74.33V95.66l25.68,8.13a63,63,0,0,0,4.15,9.76l-12.48,24,15.09,15.09L56.73,140a63.23,63.23,0,0,0,9.34,3.84L74.34,170H95.66l8.27-26.14a63.23,63.23,0,0,0,9.34-3.84l24.29,12.63,15.09-15.09-12.48-24a63,63,0,0,0,4.15-9.76Zm-43.68,10.63,0-.05.22-.48C126.44,105.93,126.38,106.11,126.32,106.29ZM85,128.49A43.49,43.49,0,1,1,128.49,85,43.49,43.49,0,0,1,85,128.49Z"/></g></svg>