<svg xmlns="http://www.w3.org/2000/svg" xmlns:xlink="http://www.w3.org/1999/xlink" width="1920" height="1080" viewBox="0 0 1920 1080"><defs><style>.cls-1{isolation:isolate;}.cls-2{opacity:0.91;mix-blend-mode:multiply;}.cls-3{fill:url(#linear-gradient);}.cls-4{opacity:0.81;fill:url(#linear-gradient-2);}.cls-5,.cls-7{fill:#a5cafc;}.cls-5,.cls-8{opacity:0.85;}.cls-6{fill:#fcaee0;}.cls-7{opacity:0.8;}.cls-9{fill:none;stroke:#fcaee0;stroke-miterlimit:10;stroke-width:25px;}.cls-10{fill:#83aad6;}</style><linearGradient id="linear-gradient" x1="955.39" y1="1070.55" x2="962.69" y2="4.54" gradientUnits="userSpaceOnUse"><stop offset="0" stop-color="#cce0f4"/><stop offset="0" stop-color="#c7dbf1"/><stop offset="0.05" stop-color="#bdd1eb" stop-opacity="0.99"/><stop offset="0.13" stop-color="#a4b4db" stop-opacity="0.96"/><stop offset="0.25" stop-color="#7a87c2" stop-opacity="0.92"/><stop offset="0.38" stop-color="#41489e" stop-opacity="0.87"/><stop offset="0.51" stop-color="#000076" stop-opacity="0.8"/><stop offset="0.82" stop-color="#000076"/></linearGradient><linearGradient id="linear-gradient-2" x1="958.46" y1="1117.28" x2="960.86" y2="9.63" gradientUnits="userSpaceOnUse"><stop offset="0" stop-color="#cce0f4"/><stop offset="0" stop-color="#c7dbf1"/><stop offset="0" stop-color="#bed4e7" stop-opacity="0.98"/><stop offset="0" stop-color="#a7c2cb" stop-opacity="0.92"/><stop offset="0" stop-color="#81a49e" stop-opacity="0.82"/><stop offset="0" stop-color="#4c7b5f" stop-opacity="0.69"/><stop offset="0" stop-color="#094610" stop-opacity="0.52"/><stop offset="0" stop-color="#003f05" stop-opacity="0.5"/><stop offset="0" stop-color="#0d4812" stop-opacity="0.97"/><stop offset="0" stop-color="#0e4913"/><stop offset="0.09" stop-color="#3b6b3f"/><stop offset="0.31" stop-color="#acc1ae"/><stop offset="0.45" stop-color="#fff"/><stop offset="0.87" stop-color="#fff"/></linearGradient></defs><title>Settings</title><g class="cls-1"><g id="Layer_3" data-name="Layer 3"><image class="cls-2" width="1974" height="1134" transform="translate(-17 -13)" xlink:href="Settings1.png"/><rect class="cls-3" x="-0.5" y="3.5" width="1919" height="1079"/><path d="M1918,4V1082H0V4H1918m1-1H-1V1083H1919V3Z"/><path class="cls-4" d="M-1,657S332,362,567,538s579,203,643,193,459-270,709-165v512H-1"/><rect class="cls-5" x="462.62" y="453.02" width="888.39" height="562.31"/><path class="cls-6" d="M495.55,503.59c.1,1.38.23,3,.37,4.92s.27,4,.39,6.27.25,4.61.4,7,.27,4.68.39,6.94.23,4.31.33,6.15.2,3.4.28,4.7.12,2.14.12,2.54H487c0-.88-.08-2-.12-3.39s-.09-2.84-.15-4.4-.12-3.14-.16-4.75-.08-3.13-.12-4.52-.08-2.6-.12-3.64-.06-1.74-.06-2.15c-.32.73-.72,1.55-1.18,2.46s-.95,1.82-1.46,2.73l-1.51,2.72c-.51.91-1,1.73-1.36,2.46a29.62,29.62,0,0,1-1.7-2.58c-.57-.95-1.1-1.88-1.61-2.79s-1-1.75-1.45-2.54-.86-1.43-1.18-1.91c0,1.05-.1,2.27-.16,3.67s-.11,2.85-.15,4.39-.09,3.08-.15,4.64-.12,3-.18,4.3-.11,2.45-.15,3.4-.08,1.58-.12,1.9H462.73c.12-1.94.28-4.23.46-6.88s.37-5.4.57-8.27.4-5.75.58-8.64.35-5.56.51-8,.31-4.6.43-6.42.2-3.11.24-3.88h10.67c.24.81.57,1.83,1,3.06s.88,2.48,1.36,3.76,1,2.48,1.46,3.63.89,2,1.21,2.64q1.51-3.45,2.82-6.67c.87-2.14,1.64-4,2.33-5.63h9C495.38,501.27,495.45,502.22,495.55,503.59Z"/><path class="cls-6" d="M527.47,500.81a89.57,89.57,0,0,1,1.57,19,38.52,38.52,0,0,1-2.42,12.79,15.51,15.51,0,0,1-5.4,7.21,12.8,12.8,0,0,1-7.33,2.24,13.37,13.37,0,0,1-7.18-1.88q-3.06-1.87-4.82-6.63a44.71,44.71,0,0,1-2.15-12.94,145.07,145.07,0,0,1,.88-20.79H511c0,.08-.05.6-.15,1.57s-.22,2.24-.36,3.79-.28,3.33-.4,5.3-.2,4-.24,6,0,4,.12,6a34.72,34.72,0,0,0,.67,5.21,11.23,11.23,0,0,0,1.36,3.67,2.61,2.61,0,0,0,2.27,1.39,2.56,2.56,0,0,0,2.25-1.36,11.47,11.47,0,0,0,1.33-3.58,29.72,29.72,0,0,0,.61-5q.12-2.82.06-5.79c0-2-.14-3.92-.28-5.82s-.28-3.6-.42-5.12-.27-2.75-.39-3.7-.19-1.46-.19-1.54h5.25c.94,0,1.87,0,2.76,0Z"/><path class="cls-6" d="M551.41,519.17c1.7,1.21,3.34,2.42,4.94,3.61a27.83,27.83,0,0,1,4.12,3.7,11.62,11.62,0,0,1,2.46,4.06,7.25,7.25,0,0,1-.13,4.7,7.45,7.45,0,0,1-2.72,3.69,14.84,14.84,0,0,1-4.88,2.4,20.86,20.86,0,0,1-6.16.75,21.33,21.33,0,0,1-6.54-1.15,20.14,20.14,0,0,1-6-3.33,17.89,17.89,0,0,1-4.7-5.88c.32-.4.77-.9,1.33-1.49s1.19-1.19,1.85-1.81l2-1.88,1.76-1.73a21.34,21.34,0,0,0,2.39,3.18,27.63,27.63,0,0,0,3.64,3.46,13.29,13.29,0,0,0,3.85,2.18,2.58,2.58,0,0,0,3-.7.89.89,0,0,0,.09-1.24,5.67,5.67,0,0,0-1.48-1.33,23.73,23.73,0,0,0-2.46-1.43c-1-.48-1.87-1-2.76-1.57-.72-.45-1.55-1-2.48-1.64s-1.87-1.34-2.82-2.06-1.86-1.48-2.73-2.24a25.51,25.51,0,0,1-2.21-2.19,9.71,9.71,0,0,1-2.73-6.42,11.41,11.41,0,0,1,1.76-6.37,14.12,14.12,0,0,1,5.15-4.79,13.92,13.92,0,0,1,12.67-.36,28.85,28.85,0,0,1,4.91,2.91,31.33,31.33,0,0,1,4.15,3.64,29.34,29.34,0,0,1,2.94,3.51c-.52.33-1.21.78-2.06,1.37s-1.75,1.21-2.7,1.88l-2.87,2c-1,.64-1.82,1.17-2.55,1.57a14.54,14.54,0,0,1-1.12-1.3l-1.52-1.91c-.54-.69-1.13-1.37-1.76-2.06a18.37,18.37,0,0,0-1.81-1.76,4.69,4.69,0,0,0-1.67-.94,1.41,1.41,0,0,0-1.39.33,1.74,1.74,0,0,0-.49,2.22,8.2,8.2,0,0,0,2,2.36,24.77,24.77,0,0,0,3,2.24C549.76,518,550.68,518.65,551.41,519.17Z"/><path class="cls-6" d="M575.84,499.9c0,.65.08,1.39.12,2.24s.1,1.66.18,2.42H565.35c.08-.8.17-1.52.27-2.15s.19-1.46.27-2.51Zm-10.19,42.18c0-.8.06-2.11.06-3.91s0-3.84,0-6.15,0-4.76-.06-7.36,0-5.13-.09-7.58-.07-4.68-.09-6.73-.05-3.64-.09-4.82h10.79c0,.65-.11,1.86-.21,3.64s-.22,3.85-.34,6.21-.26,4.89-.42,7.58-.32,5.27-.46,7.76-.27,4.75-.39,6.79-.2,3.56-.24,4.57Z"/><path class="cls-6" d="M598.93,525.66c.72,0,1.56-.06,2.51-.06h2.94l3,0,2.79,0a17.92,17.92,0,0,1-.6,3.15,21.13,21.13,0,0,1-3.67,7.21,17.07,17.07,0,0,1-3.12,3.12,15,15,0,0,1-4,2.19,13.69,13.69,0,0,1-5,.75,16.86,16.86,0,0,1-8.61-2.06,13.07,13.07,0,0,1-5-5.18,16.85,16.85,0,0,1-1.85-7.15,28.92,28.92,0,0,1,.79-8.06,32.87,32.87,0,0,1,3-7.94,29.32,29.32,0,0,1,4.76-6.7,19.44,19.44,0,0,1,6-4.36,11.66,11.66,0,0,1,6.82-1,11.06,11.06,0,0,1,5.51,2.27,12.12,12.12,0,0,1,3.15,3.91,13.42,13.42,0,0,1,1.37,4.48,26.34,26.34,0,0,1,.21,3.94q-1.1,0-2.43.06l-2.72.13-2.76.12q-1.36.06-2.52.06c-.08-1.94-.5-3.22-1.27-3.82a2.21,2.21,0,0,0-2.7,0,10.28,10.28,0,0,0-3.18,3.6,24.53,24.53,0,0,0-2.66,7,16.68,16.68,0,0,0-.55,5.6,9.54,9.54,0,0,0,1.06,3.82,3.86,3.86,0,0,0,2,1.85,3.2,3.2,0,0,0,2.49-.18,6.32,6.32,0,0,0,2.39-2.31A13.29,13.29,0,0,0,598.93,525.66Z"/><path class="cls-6" d="M482.37,737.38q2.55,1.82,4.94,3.6a28.4,28.4,0,0,1,4.12,3.7,11.56,11.56,0,0,1,2.46,4.06,7.31,7.31,0,0,1-.12,4.7,7.53,7.53,0,0,1-2.73,3.69,14.55,14.55,0,0,1-4.88,2.4,20.83,20.83,0,0,1-6.15.76,21.64,21.64,0,0,1-6.55-1.15,20,20,0,0,1-6-3.34,17.69,17.69,0,0,1-4.7-5.88c.33-.4.77-.9,1.34-1.48s1.18-1.19,1.84-1.82,1.33-1.25,2-1.88,1.23-1.2,1.75-1.73a21.53,21.53,0,0,0,2.4,3.18,26.34,26.34,0,0,0,3.63,3.46,13.19,13.19,0,0,0,3.85,2.18,2.57,2.57,0,0,0,3-.7.88.88,0,0,0,.09-1.24,5.68,5.68,0,0,0-1.48-1.33,23.73,23.73,0,0,0-2.46-1.43,29.64,29.64,0,0,1-2.75-1.57c-.73-.45-1.56-1-2.49-1.64s-1.87-1.33-2.82-2.06-1.86-1.47-2.72-2.24a27.28,27.28,0,0,1-2.22-2.18A9.67,9.67,0,0,1,463,731a11.31,11.31,0,0,1,1.75-6.36,14.11,14.11,0,0,1,5.15-4.79,13.71,13.71,0,0,1,7.46-1.7,13.89,13.89,0,0,1,5.21,1.33,28.47,28.47,0,0,1,4.91,2.91,32.86,32.86,0,0,1,4.16,3.64,29.16,29.16,0,0,1,2.93,3.52c-.52.32-1.21.77-2.06,1.36l-2.69,1.88c-.95.67-1.91,1.32-2.88,2s-1.82,1.17-2.55,1.58a16.66,16.66,0,0,1-1.12-1.31l-1.52-1.91c-.54-.68-1.13-1.37-1.75-2.06a21,21,0,0,0-1.82-1.76,4.76,4.76,0,0,0-1.67-.94,1.4,1.4,0,0,0-1.39.34,1.73,1.73,0,0,0-.49,2.21,8.1,8.1,0,0,0,2,2.36,25.9,25.9,0,0,0,3,2.25C480.72,736.23,481.64,736.85,482.37,737.38Z"/><path class="cls-6" d="M512.07,718.16a15.49,15.49,0,0,1,7.37,1.73,13.52,13.52,0,0,1,4.84,4.51,20,20,0,0,1,2.7,6.67,37.47,37.47,0,0,1,.85,8.18,30,30,0,0,1-1.09,8.22,22,22,0,0,1-3.15,6.75,15.24,15.24,0,0,1-5,4.55,12.28,12.28,0,0,1-6.55,1.52A14.34,14.34,0,0,1,500.13,754a20.24,20.24,0,0,1-2.88-6.57,35,35,0,0,1,.06-16.37,21.48,21.48,0,0,1,3-6.76,14.38,14.38,0,0,1,4.91-4.51A13.49,13.49,0,0,1,512.07,718.16Zm0,33a3.86,3.86,0,0,0,2.55-.82,7.16,7.16,0,0,0,1.94-2.43,14.35,14.35,0,0,0,1.21-3.6,22.21,22.21,0,0,0,.42-4.43,26.91,26.91,0,0,0-.33-4.33A13.58,13.58,0,0,0,516.8,732a6.38,6.38,0,0,0-1.88-2.42,4.84,4.84,0,0,0-2.85-.94,4.26,4.26,0,0,0-2.67.88,6.62,6.62,0,0,0-1.9,2.42,14.31,14.31,0,0,0-1.16,3.61,23.34,23.34,0,0,0-.39,4.36,25.28,25.28,0,0,0,.36,4.4,12.7,12.7,0,0,0,1.12,3.51,7.33,7.33,0,0,0,1.91,2.4A4.62,4.62,0,0,0,512.07,751.2Z"/><path class="cls-6" d="M558.56,719a90.37,90.37,0,0,1,1.58,19,38.75,38.75,0,0,1-2.43,12.79,15.5,15.5,0,0,1-5.39,7.21,12.86,12.86,0,0,1-7.34,2.25,13.46,13.46,0,0,1-7.18-1.88c-2-1.25-3.65-3.47-4.82-6.64a44.64,44.64,0,0,1-2.15-12.94,145.07,145.07,0,0,1,.88-20.79h10.36c0,.08-.05.61-.15,1.58s-.22,2.23-.36,3.78-.28,3.33-.39,5.31-.21,4-.25,6,0,4,.12,6a37.32,37.32,0,0,0,.67,5.21,11.37,11.37,0,0,0,1.36,3.67,2.62,2.62,0,0,0,2.28,1.39,2.55,2.55,0,0,0,2.24-1.36,11.23,11.23,0,0,0,1.33-3.58,28.73,28.73,0,0,0,.61-5q.12-2.82.06-5.79c0-2-.13-3.91-.27-5.81s-.29-3.61-.43-5.13-.27-2.74-.39-3.69-.18-1.47-.18-1.55h5.24q1.43,0,2.76,0Z"/><path class="cls-6" d="M583.35,718.16q1.21-.06,2.91-.06h3.45c1.18,0,2.28,0,3.31,0l2.45,0c-.08,1-.22,2.58-.42,4.82s-.42,4.8-.64,7.67-.46,5.88-.72,9-.5,6.12-.7,8.91-.39,5.24-.55,7.36-.26,3.57-.3,4.34h-8.36q-1.15-2.85-2.07-5c-.6-1.44-1.26-3-2-4.73s-1.38-3.37-2-4.94-1.21-3-1.69-4.12-.79-1.94-.91-2.31c-.08,1.5-.18,3.34-.31,5.52s-.25,4.33-.39,6.45-.26,4-.36,5.73-.18,2.81-.22,3.34h-11c.08-2,.19-4.28.34-6.88s.29-5.32.45-8.13.31-5.62.46-8.45.28-5.45.42-7.85.25-4.51.33-6.3.14-3.08.19-3.85c.64,0,1.47.07,2.48.09l3.12.09,3.09.09,2.4,0c.12.36.41,1.12.88,2.27s1,2.56,1.72,4.22L581,731q1.23,3,2.51,5.94,0-3.27,0-6.33t0-5.61c0-1.7,0-3.14,0-4.33S583.39,718.65,583.35,718.16Z"/><path class="cls-6" d="M599.77,718.34a9.07,9.07,0,0,1,3.55-.63,22.54,22.54,0,0,1,5,.57,28.69,28.69,0,0,1,5.67,1.91,32.72,32.72,0,0,1,5.61,3.27,23,23,0,0,1,4.78,4.67,21.33,21.33,0,0,1,3.25,6.19,20.64,20.64,0,0,1,.94,7.78,20.9,20.9,0,0,1-2,7.94,15.58,15.58,0,0,1-5.37,6.1,24.7,24.7,0,0,1-9.21,3.54,46,46,0,0,1-13.55.24q.06-.84.06-3V731.53c0-2.21,0-4.14,0-5.82s0-3.55,0-5.61A1.93,1.93,0,0,1,599.77,718.34Zm18,23.4a11.92,11.92,0,0,0-.43-4.42,12.25,12.25,0,0,0-1.72-3.58,11.55,11.55,0,0,0-2.76-2.73,18.79,18.79,0,0,0-3.52-1.94q-.24,2.55-.48,5.46t-.52,5.91q-.27,3-.51,5.91c-.17,1.94-.33,3.75-.49,5.45a13.93,13.93,0,0,0,4.88-1.18,9.38,9.38,0,0,0,3.15-2.33,8.88,8.88,0,0,0,1.73-3.1A14.63,14.63,0,0,0,617.72,741.74Z"/><path class="cls-6" d="M664.42,728.13l-3.43-.06-4.21-.09-4.45-.12c-.13,1.17-.25,2.39-.37,3.67s-.24,2.57-.36,3.91c1.29-.08,2.7-.15,4.21-.19s2.84-.12,4-.24c0,.49,0,1.26,0,2.33s0,2.21-.06,3.4-.06,2.31-.12,3.36-.11,1.76-.15,2.12c-.45-.07-1-.16-1.7-.24s-1.44-.15-2.27-.21l-2.49-.18c-.83-.06-1.6-.13-2.33-.21l-.24,2.51c-.09.83-.17,1.65-.25,2.46l4.31-.25,4.54-.21c1.5-.06,2.89-.1,4.19-.12s2.34,0,3.15,0v10.49h-25.1c0-.81.08-2.26.1-4.34s0-4.47.06-7.18,0-5.6,0-8.67v-8.85c0-2.82,0-5.39,0-7.69s0-4.07-.09-5.28l1.54,0,3.82-.06,5.21-.06,5.67,0c1.86,0,3.58,0,5.18.06s2.86.1,3.79.18v9.82Z"/><path class="cls-6" d="M692.21,728.13l-3.43-.06-4.24-.09-4.46-.12c-.12,1.17-.24,2.38-.36,3.64s-.24,2.54-.36,3.88c1.33,0,2.74-.1,4.24-.16s2.81-.15,3.94-.27c0,.49,0,1.27,0,2.37s0,2.22-.06,3.39-.06,2.28-.12,3.33-.11,1.76-.15,2.12c-.45,0-1-.1-1.7-.18l-2.27-.24-2.49-.21c-.83-.06-1.61-.13-2.33-.21-.17,1.65-.32,3.25-.46,4.78l-.39,4.28c-.12,1.31-.23,2.46-.31,3.45s-.14,1.79-.18,2.4H669c0-.81.07-2.25.09-4.31s0-4.44.06-7.15,0-5.6.06-8.67,0-6,0-8.88,0-5.42,0-7.72,0-4.07-.06-5.28l1.55,0,3.82-.06,5.18-.06q2.85,0,5.64,0c1.85,0,3.58,0,5.18.09s2.86.1,3.79.18v9.82Z"/><path class="cls-6" d="M719.42,728.13l-3.43-.06-4.24-.09-4.45-.12c-.12,1.17-.25,2.38-.37,3.64s-.24,2.54-.36,3.88c1.33,0,2.75-.1,4.24-.16s2.81-.15,3.94-.27c0,.49,0,1.27,0,2.37s0,2.22-.06,3.39-.06,2.28-.12,3.33-.11,1.76-.15,2.12c-.45,0-1-.1-1.7-.18l-2.27-.24-2.49-.21c-.82-.06-1.6-.13-2.33-.21-.16,1.65-.31,3.25-.45,4.78s-.28,3-.4,4.28-.22,2.46-.3,3.45-.14,1.79-.18,2.4h-8.06c0-.81.07-2.25.09-4.31s0-4.44.06-7.15,0-5.6.06-8.67,0-6,0-8.88,0-5.42,0-7.72,0-4.07-.06-5.28l1.54,0,3.82-.06,5.18-.06q2.85,0,5.64,0c1.86,0,3.58,0,5.18.09s2.86.1,3.79.18v9.82Z"/><path class="cls-6" d="M747,728.13l-3.43-.06-4.21-.09-4.46-.12c-.12,1.17-.24,2.39-.36,3.67s-.24,2.57-.36,3.91c1.29-.08,2.7-.15,4.21-.19s2.84-.12,4-.24c0,.49,0,1.26,0,2.33s0,2.21-.06,3.4-.06,2.31-.12,3.36-.11,1.76-.15,2.12c-.45-.07-1-.16-1.7-.24s-1.45-.15-2.27-.21l-2.49-.18c-.83-.06-1.61-.13-2.33-.21l-.24,2.51c-.09.83-.17,1.65-.25,2.46l4.31-.25,4.54-.21c1.5-.06,2.89-.1,4.19-.12s2.34,0,3.15,0v10.49h-25.1c0-.81.07-2.26.09-4.34s0-4.47.06-7.18,0-5.6,0-8.67v-8.85c0-2.82,0-5.39,0-7.69s0-4.07-.09-5.28l1.55,0,3.82-.06,5.21-.06,5.67,0c1.86,0,3.58,0,5.18.06s2.86.1,3.79.18v9.82Z"/><path class="cls-6" d="M771.48,743.86q1.1-.06,2.52-.06h2.94q1.51,0,3,0l2.79,0a17.14,17.14,0,0,1-.61,3.15,20.83,20.83,0,0,1-1.39,3.61,21.82,21.82,0,0,1-2.27,3.6,17.5,17.5,0,0,1-3.13,3.13,14.68,14.68,0,0,1-4,2.18,13.62,13.62,0,0,1-5,.76,17,17,0,0,1-8.6-2.06,13.12,13.12,0,0,1-5-5.19,16.85,16.85,0,0,1-1.84-7.15,29.33,29.33,0,0,1,.78-8.06,33.89,33.89,0,0,1,3-7.94,29.63,29.63,0,0,1,4.76-6.7,19.72,19.72,0,0,1,6-4.36,11.68,11.68,0,0,1,6.82-1,11.1,11.1,0,0,1,5.52,2.27A12.36,12.36,0,0,1,781,724a13.38,13.38,0,0,1,1.36,4.49,25.16,25.16,0,0,1,.22,3.94q-1.1,0-2.43.06l-2.73.12-2.75.12q-1.36.06-2.52.06c-.08-1.94-.51-3.21-1.27-3.82a2.21,2.21,0,0,0-2.7,0,10.33,10.33,0,0,0-3.18,3.61,24.74,24.74,0,0,0-2.67,7,16.65,16.65,0,0,0-.54,5.6,9.54,9.54,0,0,0,1.06,3.82,3.82,3.82,0,0,0,2,1.85,3.13,3.13,0,0,0,2.48-.18,6.23,6.23,0,0,0,2.4-2.3A13.36,13.36,0,0,0,771.48,743.86Z"/><path class="cls-6" d="M813.79,727.56l-3.18.18q-2.34.12-5.43.24-.18,2.73-.33,5.91t-.33,6.39q-.18,3.22-.37,6.34t-.3,5.79c-.08,1.78-.16,3.35-.24,4.72s-.14,2.43-.18,3.16h-9.94c0-.89,0-2.5,0-4.82s-.06-5-.12-8-.14-6.22-.22-9.55-.14-6.46-.18-9.36l-5.58.21c-1.53.06-2.46.11-2.78.15V718.16q.78-.06,2.94-.06l5,0q2.85,0,6.09,0h6.21c2,0,3.77,0,5.36,0s2.78,0,3.55.09Z"/><path class="cls-6" d="M834.7,737.38c1.7,1.21,3.34,2.41,4.94,3.6a28.4,28.4,0,0,1,4.12,3.7,11.71,11.71,0,0,1,2.46,4.06,7.31,7.31,0,0,1-.12,4.7,7.53,7.53,0,0,1-2.73,3.69,14.65,14.65,0,0,1-4.88,2.4,20.83,20.83,0,0,1-6.15.76,21.64,21.64,0,0,1-6.55-1.15,20,20,0,0,1-6-3.34,17.69,17.69,0,0,1-4.7-5.88c.33-.4.77-.9,1.34-1.48s1.18-1.19,1.84-1.82,1.33-1.25,2-1.88,1.24-1.2,1.76-1.73a20.84,20.84,0,0,0,2.4,3.18,26.34,26.34,0,0,0,3.63,3.46,13.19,13.19,0,0,0,3.85,2.18,2.57,2.57,0,0,0,3-.7.88.88,0,0,0,.09-1.24,5.85,5.85,0,0,0-1.48-1.33,23.73,23.73,0,0,0-2.46-1.43,29.64,29.64,0,0,1-2.75-1.57c-.73-.45-1.56-1-2.49-1.64s-1.87-1.33-2.82-2.06-1.86-1.47-2.72-2.24a27.28,27.28,0,0,1-2.22-2.18,9.67,9.67,0,0,1-2.72-6.43,11.31,11.31,0,0,1,1.75-6.36,14.11,14.11,0,0,1,5.15-4.79,13.71,13.71,0,0,1,7.46-1.7,13.89,13.89,0,0,1,5.21,1.33,28.47,28.47,0,0,1,4.91,2.91A32.86,32.86,0,0,1,844,726a29.16,29.16,0,0,1,2.93,3.52c-.52.32-1.21.77-2.06,1.36l-2.69,1.88c-1,.67-1.91,1.32-2.88,2s-1.82,1.17-2.55,1.58a16.66,16.66,0,0,1-1.12-1.31l-1.52-1.91c-.54-.68-1.13-1.37-1.75-2.06a21,21,0,0,0-1.82-1.76,4.76,4.76,0,0,0-1.67-.94,1.4,1.4,0,0,0-1.39.34,1.73,1.73,0,0,0-.49,2.21,8.1,8.1,0,0,0,2,2.36,25.9,25.9,0,0,0,3,2.25C833.05,736.23,834,736.85,834.7,737.38Z"/><path class="cls-6" d="M495.84,936.37c0,.32-.19,1.11-.46,2.36s-.6,2.81-1,4.67-.9,3.93-1.42,6.21-1.06,4.63-1.61,7-1.09,4.79-1.63,7.15-1.05,4.54-1.49,6.52-.83,3.7-1.15,5.15-.55,2.47-.67,3H472c-.25-.81-.62-2.17-1.12-4.09s-1.08-4.13-1.7-6.64-1.27-5.17-1.94-8-1.29-5.53-1.88-8.12-1.09-4.94-1.52-7.06-.71-3.73-.87-4.82l2.36-.27,2.88-.31,2.88-.3,2.36-.27c.08.73.24,1.77.49,3.12s.53,2.88.88,4.58.69,3.49,1.06,5.39.73,3.74,1.12,5.52.73,3.43,1.06,5,.58,2.78.79,3.75c.28-1.05.62-2.45,1-4.21s.82-3.64,1.27-5.67.89-4.1,1.33-6.24.86-4.13,1.25-6,.71-3.42,1-4.76.46-2.24.54-2.72Z"/><path class="cls-6" d="M510.81,936.37a15.42,15.42,0,0,1,7.36,1.72,13.49,13.49,0,0,1,4.85,4.52,20.3,20.3,0,0,1,2.7,6.67,38,38,0,0,1,.85,8.18,30.22,30.22,0,0,1-1.09,8.21,22,22,0,0,1-3.15,6.76,15.27,15.27,0,0,1-5,4.55,12.24,12.24,0,0,1-6.54,1.51,14.37,14.37,0,0,1-11.94-6.33,20,20,0,0,1-2.88-6.58,33.19,33.19,0,0,1-.94-8.12,32.7,32.7,0,0,1,1-8.24,21.38,21.38,0,0,1,3-6.76,14.32,14.32,0,0,1,4.91-4.52A13.48,13.48,0,0,1,510.81,936.37Zm0,33a3.77,3.77,0,0,0,2.54-.82,6.8,6.8,0,0,0,1.94-2.42,14.43,14.43,0,0,0,1.22-3.61,22.11,22.11,0,0,0,.42-4.42,27.12,27.12,0,0,0-.33-4.34,13.62,13.62,0,0,0-1.06-3.57,6.49,6.49,0,0,0-1.88-2.43,4.91,4.91,0,0,0-2.85-.94,4.33,4.33,0,0,0-2.67.88,6.68,6.68,0,0,0-1.91,2.43,14.23,14.23,0,0,0-1.15,3.6,23.45,23.45,0,0,0-.39,4.37,25.17,25.17,0,0,0,.36,4.39,12.59,12.59,0,0,0,1.12,3.51,7.1,7.1,0,0,0,1.91,2.4A4.62,4.62,0,0,0,510.81,969.4Z"/><path class="cls-6" d="M552.57,978.37c-.57,0-1.48.07-2.76.09s-2.7,0-4.3,0l-5,0-4.94,0c-1.54,0-2.89,0-4.06,0l-2.37,0c0-.81.06-2.24.06-4.3s0-4.46,0-7.19,0-5.63-.06-8.73-.05-6.06-.09-8.9-.07-5.44-.09-7.76,0-4.07-.09-5.25h11.52c0,.49-.1,1.35-.19,2.58s-.18,2.72-.3,4.46-.26,3.65-.42,5.75-.34,4.28-.52,6.52-.35,4.48-.51,6.73-.33,4.35-.49,6.33c1.21-.12,2.52-.23,3.91-.33l4.09-.31,3.73-.3,2.94-.27Z"/><path class="cls-6" d="M582.21,937.21a89.65,89.65,0,0,1,1.57,19A38.46,38.46,0,0,1,581.36,969a15.53,15.53,0,0,1-5.39,7.22,12.93,12.93,0,0,1-7.34,2.24,13.46,13.46,0,0,1-7.18-1.88q-3.06-1.87-4.82-6.63a44.78,44.78,0,0,1-2.15-13,145.17,145.17,0,0,1,.88-20.79h10.36c0,.09-.05.61-.15,1.58s-.22,2.23-.36,3.79-.28,3.32-.4,5.3-.2,4-.24,6,0,4,.12,6a36.22,36.22,0,0,0,.67,5.22,11.4,11.4,0,0,0,1.36,3.66,2.62,2.62,0,0,0,2.28,1.4,2.57,2.57,0,0,0,2.24-1.37,11.5,11.5,0,0,0,1.33-3.57,28.85,28.85,0,0,0,.61-5q.12-2.82.06-5.79t-.27-5.82c-.15-1.9-.29-3.61-.43-5.12s-.27-2.75-.39-3.7-.18-1.46-.18-1.54h5.24c.95,0,1.87,0,2.76,0Z"/><path class="cls-6" d="M618.06,940c.1,1.38.22,3,.36,4.91s.28,4,.4,6.27.25,4.61.39,7,.27,4.68.4,7,.23,4.31.33,6.15.19,3.4.27,4.7.12,2.14.12,2.54H609.54q-.06-1.34-.12-3.39c0-1.38-.09-2.84-.15-4.4s-.11-3.14-.15-4.76-.08-3.12-.12-4.51-.08-2.61-.12-3.64-.06-1.75-.06-2.15c-.33.73-.72,1.55-1.19,2.46s-1,1.81-1.45,2.72-1,1.82-1.51,2.73-1,1.73-1.37,2.46c-.57-.77-1.13-1.63-1.7-2.58s-1.1-1.88-1.6-2.79-1-1.76-1.46-2.54-.86-1.43-1.18-1.91q-.06,1.57-.15,3.66c-.06,1.4-.11,2.86-.15,4.4s-.09,3.08-.15,4.63-.12,3-.18,4.31-.12,2.44-.16,3.39-.08,1.59-.12,1.91H585.24q.18-2.91.45-6.88c.18-2.64.38-5.4.58-8.27s.39-5.75.57-8.64.36-5.57.52-8,.3-4.61.43-6.42.2-3.12.24-3.88h10.66c.25.8.58,1.82,1,3.06s.88,2.48,1.37,3.76,1,2.48,1.45,3.63.89,2,1.22,2.64c1-2.3,1.94-4.53,2.81-6.67s1.65-4,2.34-5.64h9Q617.91,937.95,618.06,940Z"/><path class="cls-6" d="M646.37,946.34l-3.43-.06-4.21-.09-4.46-.13c-.12,1.18-.24,2.4-.36,3.67s-.24,2.58-.36,3.91c1.29-.08,2.69-.14,4.21-.18s2.84-.12,4-.24c0,.48,0,1.26,0,2.33s0,2.2-.06,3.39-.06,2.32-.12,3.37-.11,1.76-.15,2.12c-.45-.08-1-.16-1.7-.24s-1.45-.15-2.27-.21l-2.49-.19c-.83-.06-1.61-.13-2.33-.21-.08.85-.16,1.69-.25,2.52l-.24,2.45,4.31-.24,4.54-.21c1.5-.06,2.89-.1,4.19-.13s2.34,0,3.15,0v10.48h-25.1c0-.81.07-2.25.09-4.33s0-4.48.06-7.18,0-5.6,0-8.67v-8.85c0-2.83,0-5.4,0-7.7s-.05-4.06-.09-5.27l1.55,0,3.82-.06,5.21-.06,5.67,0c1.86,0,3.58,0,5.18.06s2.86.1,3.79.18v9.82Z"/><rect class="cls-7" x="323.35" y="251.5" width="1110.21" height="201.18"/><g class="cls-8"><path class="cls-9" d="M997.59,56.17c-35.67,33.35-102.82,129-86.89,170.71s108.93,13.71,144.6-19.64S1107,113,1091,71.32,1033.27,22.82,997.59,56.17Z"/><path class="cls-9" d="M816.88,56.17c35.67,33.35,102.83,129,86.89,170.71s-108.92,13.71-144.59-19.64S707.5,113,723.44,71.32,781.21,22.82,816.88,56.17Z"/></g><path class="cls-6" d="M639.21,340.21q7.23,3.94,14,7.82a78.63,78.63,0,0,1,11.7,8,25,25,0,0,1,7,8.81q2.05,4.67-.35,10.19-1.89,4.6-7.74,8A48,48,0,0,1,650,388.26a75.91,75.91,0,0,1-17.48,1.65,78.16,78.16,0,0,1-18.59-2.5,63.76,63.76,0,0,1-17.13-7.23,42.84,42.84,0,0,1-13.34-12.76c.92-.87,2.18-1.95,3.79-3.22s3.36-2.58,5.25-3.94,3.76-2.72,5.6-4.08,3.5-2.6,5-3.74a48.76,48.76,0,0,0,6.8,6.9,70.66,70.66,0,0,0,10.33,7.49,41.85,41.85,0,0,0,10.93,4.74q5.32,1.38,8.61-1.52c1-.87,1.11-1.77.25-2.69a15.58,15.58,0,0,0-4.21-2.89,73.57,73.57,0,0,0-7-3.09c-2.69-1.06-5.3-2.19-7.83-3.42-2.06-1-4.42-2.15-7.06-3.55s-5.31-2.9-8-4.47-5.28-3.2-7.75-4.87a65.09,65.09,0,0,1-6.28-4.73q-7.57-6.43-7.75-13.94a20.57,20.57,0,0,1,5-13.8q5.17-6.32,14.64-10.39a48.6,48.6,0,0,1,21.17-3.68,49.59,49.59,0,0,1,14.81,2.89,89.58,89.58,0,0,1,13.94,6.31,88.24,88.24,0,0,1,11.79,7.89,73.84,73.84,0,0,1,8.35,7.63q-2.23,1-5.85,2.95c-2.41,1.28-5,2.63-7.66,4.08s-5.43,2.87-8.18,4.27S647,337.1,644.89,338a36.43,36.43,0,0,1-3.18-2.82L637.4,331c-1.55-1.49-3.21-3-5-4.47a47.56,47.56,0,0,0-5.17-3.81,14.5,14.5,0,0,0-4.73-2,5,5,0,0,0-4,.73q-3.09,2.23-1.38,4.79a19.87,19.87,0,0,0,5.6,5.13,75.24,75.24,0,0,0,8.61,4.87Q636.11,338.5,639.21,340.21Z"/><path class="cls-6" d="M744,320.16q-4.23-.07-9.73-.13t-12-.2l-12.65-.27c-.35,2.55-.69,5.2-1,8s-.69,5.59-1,8.48c3.67-.17,7.66-.31,12-.39s8.06-.27,11.28-.53c0,1.05,0,2.74-.09,5.06s-.11,4.78-.17,7.36-.17,5-.34,7.3-.32,3.82-.43,4.6c-1.27-.17-2.87-.35-4.82-.52s-4.11-.33-6.46-.46l-7.06-.4q-3.52-.19-6.63-.46-.35,2.76-.68,5.46c-.24,1.8-.46,3.57-.69,5.32q5.67-.25,12.22-.52t12.91-.46c4.25-.13,8.2-.22,11.88-.26s6.65,0,9,.06v22.75H678.11c.12-1.75.2-4.89.26-9.4s.12-9.71.17-15.58.09-12.14.09-18.81V326.93q0-9.21-.09-16.7t-.26-11.44l4.39-.06c2.82-.05,6.43-.09,10.85-.14l14.8-.13q8.17-.06,16.1-.06t14.72.13c4.53.09,8.11.22,10.76.39v21.3Q748.18,320.22,744,320.16Z"/><path class="cls-6" d="M839.75,318.91q-2.41.13-9,.39t-15.41.53q-.52,5.91-.95,12.82t-1,13.87q-.51,7-1,13.74t-.86,12.55q-.35,5.79-.69,10.26t-.51,6.84H782.08c.12-1.93.15-5.41.09-10.46s-.17-10.84-.34-17.42-.38-13.47-.61-20.71-.4-14-.51-20.31l-15.84.46q-6.54.19-7.92.33V298.53q2.24-.13,8.35-.13t14.2-.07q8.09-.06,17.3-.07h17.65q8.43,0,15.23.07c4.53.05,7.89.11,10.07.2Z"/><path class="cls-6" d="M931.5,318.91q-2.41.13-9,.39t-15.4.53q-.52,5.91-.95,12.82t-1,13.87q-.51,7-1,13.74t-.86,12.55q-.35,5.79-.69,10.26t-.52,6.84H873.83c.12-1.93.15-5.41.09-10.46s-.17-10.84-.35-17.42-.37-13.47-.6-20.71-.4-14-.51-20.31l-15.84.46q-6.54.19-7.92.33V298.53q2.24-.13,8.35-.13t14.2-.07q8.09-.06,17.3-.07H906.2q8.43,0,15.23.07c4.53.05,7.89.11,10.07.2Z"/><path class="cls-6" d="M968.34,298.4c.11,1.4.22,3,.34,4.86s.28,3.6.52,5.26H938.55c.23-1.75.49-3.31.78-4.67s.54-3.17.77-5.45Zm-28.92,91.51q.17-2.62.17-8.48t-.09-13.35q-.09-7.5-.17-16c-.06-5.66-.15-11.13-.26-16.44s-.2-10.17-.26-14.59-.14-7.91-.26-10.46H969.2q-.18,2.11-.61,7.89T967.65,332q-.52,7.69-1.21,16.44t-1.29,16.82c-.4,5.39-.77,10.31-1.12,14.73s-.57,7.74-.69,9.93Z"/><path class="cls-6" d="M1033.58,298.53q3.43-.13,8.26-.13h9.81q5,0,9.38.06t7,.07c-.23,2.1-.63,5.59-1.2,10.45s-1.18,10.41-1.81,16.63-1.32,12.76-2.06,19.59-1.41,13.28-2,19.33-1.09,11.37-1.55,16-.75,7.73-.86,9.4h-23.76q-3.27-6.18-5.85-10.85t-5.6-10.26q-3-5.58-5.76-10.71l-4.82-8.94q-2.07-3.81-2.58-5c-.24,3.25-.52,7.23-.87,12s-.71,9.4-1.11,14-.75,8.74-1,12.43-.49,6.09-.6,7.23H975.39q.35-6.45,1-14.93t1.29-17.62q.69-9.14,1.29-18.34t1.21-17q.6-7.83.94-13.68t.52-8.35c1.83.09,4.19.16,7.06.2s5.82.11,8.86.2,6,.15,8.78.19,5.08.07,6.8.07q.52,1.19,2.5,4.93t4.9,9.14q2.93,5.39,6.46,11.83t7.14,12.89q0-7.11-.08-13.74t-.09-12.17q0-5.52-.09-9.4C1033.78,301.4,1033.69,299.58,1033.58,298.53Z"/><path class="cls-6" d="M1162.86,347.7V352c0,2.19-.09,4.76-.26,7.69s-.35,6-.52,9.27-.37,6.31-.6,9.2-.46,5.4-.69,7.5a18,18,0,0,1-.69,3.94h-16.87a29.09,29.09,0,0,0,.52-3.74q.16-2.17.51-4.8a49.28,49.28,0,0,1-12.74,6.44,48.39,48.39,0,0,1-16.52,2.37q-15-.14-24.45-4.47t-14.2-11.24a30.16,30.16,0,0,1-5.25-15.52,48.82,48.82,0,0,1,2.24-17.49,63.07,63.07,0,0,1,8.52-17.22,67.76,67.76,0,0,1,13.51-14.53A58.39,58.39,0,0,1,1112.5,300a42.66,42.66,0,0,1,19.37-2.1q9.81,1.19,15.67,4.93a29.64,29.64,0,0,1,9,8.48,24.73,24.73,0,0,1,3.87,9.73,42.65,42.65,0,0,1,.6,8.55c-2.06,0-4.36,0-6.88.13l-7.75.26-7.83.27c-2.59.08-5,.13-7.15.13q-.35-6.32-4-8.29t-8.52,0q-4.9,2-9.9,7.83a42.81,42.81,0,0,0-7.91,15.18,26.74,26.74,0,0,0-1.38,11.57,18.26,18.26,0,0,0,2.92,8.16,11.79,11.79,0,0,0,5.77,4.4,13.32,13.32,0,0,0,7.15.53,16.24,16.24,0,0,0,7-3.55,19.57,19.57,0,0,0,5.51-7.83l-5.85,1.25a31.88,31.88,0,0,0-4.48,1.25,49,49,0,0,1-1.72-6.77,23.1,23.1,0,0,1-.34-6.77,41.81,41.81,0,0,1,8.61-1.38q6.36-.6,13.77-.73t14.37.4Q1159.42,346.13,1162.86,347.7Z"/><path class="cls-6" d="M1225.86,340.21q7.23,3.94,14,7.82a78.63,78.63,0,0,1,11.7,8,25,25,0,0,1,7,8.81q2.06,4.67-.35,10.19-1.89,4.6-7.75,8a47.78,47.78,0,0,1-13.85,5.19,76,76,0,0,1-17.48,1.65,78.16,78.16,0,0,1-18.59-2.5,63.76,63.76,0,0,1-17.13-7.23,42.84,42.84,0,0,1-13.34-12.76c.92-.87,2.18-1.95,3.79-3.22s3.36-2.58,5.25-3.94,3.76-2.72,5.6-4.08,3.49-2.6,5-3.74a48.76,48.76,0,0,0,6.8,6.9,70.66,70.66,0,0,0,10.33,7.49,41.71,41.71,0,0,0,10.93,4.74q5.32,1.38,8.61-1.52c1-.87,1.11-1.77.25-2.69a15.5,15.5,0,0,0-4.22-2.89,72.17,72.17,0,0,0-7-3.09c-2.69-1.06-5.31-2.19-7.83-3.42-2.06-1-4.42-2.15-7.06-3.55s-5.31-2.9-8-4.47-5.28-3.2-7.75-4.87a65.09,65.09,0,0,1-6.28-4.73q-7.57-6.43-7.75-13.94a20.57,20.57,0,0,1,5-13.8q5.17-6.32,14.64-10.39a48.6,48.6,0,0,1,21.17-3.68,49.59,49.59,0,0,1,14.81,2.89,89.58,89.58,0,0,1,13.94,6.31,88.24,88.24,0,0,1,11.79,7.89,73.84,73.84,0,0,1,8.35,7.63q-2.24,1-5.85,2.95c-2.41,1.28-5,2.63-7.66,4.08s-5.43,2.87-8.18,4.27-5.16,2.55-7.23,3.42a36.43,36.43,0,0,1-3.18-2.82l-4.31-4.15c-1.55-1.49-3.21-3-5-4.47a47.56,47.56,0,0,0-5.17-3.81,14.5,14.5,0,0,0-4.73-2,5,5,0,0,0-4,.73q-3.09,2.23-1.38,4.79a19.87,19.87,0,0,0,5.6,5.13,75.24,75.24,0,0,0,8.61,4.87Q1222.76,338.5,1225.86,340.21Z"/><rect class="cls-6" x="1065.05" y="480.27" width="229.59" height="92.32" rx="14.09" ry="14.09"/><rect class="cls-6" x="1069.1" y="691.02" width="229.59" height="92.32" rx="14.09" ry="14.09"/><rect class="cls-10" x="1188.34" y="480.27" width="106.3" height="92.32" rx="14.09" ry="14.09"/><rect class="cls-10" x="1069.91" y="691.02" width="106.3" height="92.32" rx="14.09" ry="14.09"/><rect class="cls-6" x="733.28" y="949.32" width="565.09" height="18.65" rx="2.85" ry="2.85"/><circle class="cls-10" cx="1208.85" cy="958.64" r="32.64"/><image class="cls-2" width="1974" height="1134" transform="translate(-16 -1128)" xlink:href="Settings2.png"/></g></g></svg>
